<svg xmlns="http://www.w3.org/2000/svg" viewBox="1693 398 1185 941"><path fill="#d3e2c0" d="m1705.5 553.2 3.3 7.1.9 1.8 10 21.5.2.5 4.8 10.1 5.9 12.5 14.6 31.1 6.7 14.3 29.5 62.3 9.9 20.5 7.9 16.5 18.2 37.8 15.2 31.1 3.1 6.7 15.6 33.5 2 4.4 7.6 16.7 9.6 21.1 10.3 22.4 4.7 10.4 2.2 5 2.6 5.4.3.9.1.3 1.2 3.2 4 10.2 2.9 7.5 1.2 3 8.3 20.8 9.4 24.2 4.7 12.1 10.1 25.7 4.9 11.9 5.4 13.1 5.3 12.8 15.7 37.8 12 29.1 2.1 5 1.7 3.6 2.7 6.7 1 2.6 2.5 6.3.9 2.1.7 1.7.4.9.3.9.2.5.3.9.3.7.2.4.3.8.2.5 1.1 2.7v.1l.3.6.1.4.3.6.2.6.6 1.5.4.9.5 1.4.3.8.2.4.2.5.1.2.2.4.4 1 .6 1.6 2 4.8 6.9 16.8.2.3.1.4 1.5 3.7.1.2.4.7.2.5.1.4-.1.4.1.3.1.7 1 1.3.4 1.1 1.2 2.8 1.2.3.7.2.3.1.2.1 1.3.3.5.1.5.1.2.1.3.1h.2l5.4 1.5.3.1.5.1 1.4.3 2.1.6.1.1h.2l1.1.3.9.2.1.1.5.1h.2l.3.1.6.2.7.2 3.2.8 3.2 1 .4.1.5.1 1 .3.4.1.3.1.1.1.4.1.3.1h.1l31.5 9.2 4.3 1.3 31.1 8.8 56.1 14.9.7.2 31.3 8.5 55.2 15 11 2.8 33.6 8.6.2.1 32.7 8.3 2 .5 7.7-12.8 19.2-32.3 43.8-73.1 3.4-5.5 19.2-32.2 18.7-31.2 22.5-37.7 18.4-15.6 11.1-9 .2-.2 2.2-1.8.7-.7 2.7-2.2 1.9-1.6.4-.4 1.1-.9.7-.6.6-.5 1.3-1 1.2-1 1.3-1.1 1-.8 11.8-9.7 3.3-2.7 1.6-1.3 1.7-1.4 1.7-1.4 1.8-1.4 1.4-1.2 1.3-1.1 7.9-6.6 1.9-1.6 3.2-2.6 1.9-1.6.3-.2v-.1l.2-.1 1-.8 1.8-1.5 2.4-2 5.3-4.4.4-.3.4-.4 1.6-1.3.2-.1 1.5-1.3 1.3-1.1 2.5-2.1.2-.2 1.5-1.3 3.1-2.6 3.5-3 .2-.1.2-.2.8-.7 8.1-6.7 4.2-3.5 1.8-1.5.2-.2 6.4-5.2 2.3-2 10.6-8.9 4.3-3.7 1.5-1.2 2.5-2.2 1.3-1.1 1.3-1.1 2.5-2.1.1-.1.1-.1 7.3-6.1.8-.7 4.6-3.9 11.5-9.8 11-9.3 20.1-16.8 7.4-5.8.1-.1h.1l4.9-4.1 30-25.8 2.7-2.3 37.2-32.2 13.2-11.1 7.7-6.4 14.1-11.6 20-17.1 1.2-1 1.1-1 .3-.3 2-1.7.1-.1 13.4-11.6 4.4-3.9 3.3-2.9h.1v-.1l.4-.3v-.1l.1-.1.2-.2v-.1h.1l.1-.1h.1l.1.1.3-.3v-.1l.1-.1 1.8-1.5 4.9-4.3h-.3l-.1-.1h-.1v-.1h.1l.1-.1v-.2l-.1-.1-.1-.1h-.1v-.1l-.1-.1h-.1l-.1-.1-.2-.1-.1-.2h-.1v-.1l-.1.1h-.1v.1h-.2l-.1-.1h.2l.1-.2h.4l.1.1.1.1.1.1.3.2h.3l.1-.2.1-.1.1-.1v-.4h-.1v-.3l.1.1h.2l.1-.1h.1v-.1l.1-.1h.1v-.2h.1v.1l-.1.1-.1.1v.1h-.1l-.1.1v.3l-.2.1-.1.1v.1l-.1.1v.1h.3l.2-.1h.2v.1l.1.1.1.1v.1l-.1-.1h-.2v.3l-.1.2v-.6l-.1-.1h-.1v.1h-.1l-.3.2h-.1v.1l.1.1h.1l.1.1.1.2-.1-.1-.1-.1h-.2v.1h-.1l.1.2.1.1h.2v-.1h.1v-.1h.2l.9-.7.1-.4.2-.3.1-.3.3-.5.3-.5.2-.1v-.1l.1-.1.4-.4.2-.3.2-.2.1-.1.2-.2.1-.2.2-.1.4-.5.2-.1.1-.1.2-.1.2-.3.3-.2h.1v-.1h.1v-.1h.1v-.1h.2l.1-.1h.1l.1-.1h.1l.1-.1.2-.1h.2l.1-.1.4-.2.3-.2.2-.1.2-.1h.4l.3-.1h.5l.4-.2.2-.2h.2l.2-.3h.3l.2-.1h.2v-.1h1.1l.2-.1h.7v.1h.3l.1-.1.1-.1v-.2l.1-.1v-.1l.1-.1v-.2l.2-.1h.6v-.1l.2-.1.1-.1h.2v-.1l.1-.1.1-.1.1-.1v-.1h.1v-.2l.1-.3v-.1l.1-.4.1-.2.1-.1.1-.1v-.1l.2-.1.1-.1v-.3l-.1-.2v-.3l-.1-.2h-.1l-.3-.2-.1-.1h-.1v.1h-.1l-.2.1v.1h-1l-.2-.1-.1-.1-.2-.1v-.1h-.1l-.1-.1h-.1v-.1l-.2-.1-.1-.1-.1-.1-.2-.2h-.1v-.1l-.1-.1h-.1l-.1-.1h-.1l-.1-.1-.3-.1-.1-.1h-.1l-.3-.1h-.8v-.1l-.2.1h-.2l-.1.1h-.1v-.1h-.1v.1h-.4l-.5.1h-.4l-.3.1h-2.1l-.1-.1h-.5l-.1-.1v.1-.1h-.3l-.1.1v-.1h-.3l-.1-.1-.2-.1-.4-.2h-.4l-.1-.1-.1-.1h-.1l-.3-.2-.2-.1-.1-.1h-.7l-.2-.1h-.2l-.1-.1h-.2l-.2-.1h-.1l-.1-.1-.2-.1-.3-.1-.2-.1h-.5l-.1.1h-.2l-.3-.1h-1.8l-.6.1h-2l-.1-.1-.9-.1-.4-.1-.9-.1h-.4l-.5-.1h-.6l-.1-.1h-.7l-.2-.1h-.5l-.5-.1-.2-.1h-.4l-.7-.1-.2-.1h-.3l-.3-.1h-.5l-.9-.1h-1l-.2-.1h-2.3l-.6.1-.8-.1-.2.1h-1.5l-.7.1h-.4l-.9.1h.2l.1.1.1-.1.1.1h-.1v.1-.1h-.3v-.1h-.3l-.7.1h-.6l-.7.1h-.5l-.6-.1h-.7l-.4-.1h-.7l-.4-.1h-.4l-.1-.1v-.6l-.1-.1v-.1l-.1-.1v-.6l-.1-.2v-.1h-.7l-.3.1h-.2v.1l-.1.1h.1l.1-.1h.1l1 .4v.1h-.3l-.1.1h-.2l-.1.1h-.1l-.1-.4v-.1h-.1l.1.4v.1l.2.1h.1l.1-.1.2-.1h.2l.2.3v.3h-.1l.1.2v.7l-.2.1.1.1h-.1v-.1h-.9l-.1-.6.3-.6h.1l-.1-.1-.3.7.1 1.1-.3.1-.4.1h.1-.2v-.1h-.4l-.2.1h-.2l-1-.2h-.3l-.2-.1-.5.2-.6.1h-.4l-.1.1h-.7l-.1-.1h-.1v.1h-.1l-.1.2h-.1v.1h-.1l-.1.1h-.3v.1-.1h-.7l-.4.1h-.2l-.2.2-.3.1h-2l-.1.1h-.2l-.4.1h-.6l-.1.1h-.2l-.1-.1-.1.1h-.3v.1h-.2l-.1-.1h-.5l-.1.1-.1.1h-.2l-.1.1-.2.1h-.1l-.2.1h-.7l-.2.1h-.2l-.1-.1h-.6l-.1.1-.2.1-.3.1-.4.2-.1.1h-.2l-.2.1h-.4l-.6.1-.3.1h-.3l-.8.1h-.6l-.8.1h-.8l-.2.1h-3.2l-.2-.1-.2.1-.1-.1-.3.1h-.3l-.7-.1-.1.1h-.7l-.1.1h-.4l-.1.1h-.5l-.2.1-.4.1h-.5l-.2.1-.6.2-.4.1-.2.1-.3.2-.1.1-.2.1-.1.1-.1.1-.2.2v.1l-.2.1v.9l.1.2v.1h.1l.1.1h.1l.1-.1v-.1h.1l.4-.1.3-.2.1-.1h.1l.1-.1h.1v-.1l.1-.2h.2l.1-.1.1-.1.2-.1h1.1l.3.1.2.1.1.1v.1h.1l.2.2.2.1h.3v.1h.1v-.1l.1.1h.5l.2.1h.1v-.1h.1v.1l.1-.1h.2l.1-.1.1.1.1-.1h.3l.1-.1h.8l.1-.1h.3l.1-.1.2.2.1-.1.2-.1v.1l.1.1h.2l.2-.1.1-.1h.6v-.1l.1-.1h.1l.1-.1.1.2h-.2v.2l-.1.2v.1l.1.2h-.1v.1h-.1l-.1.2-.1.1-.2.2h-.7l-.1.1-.1.1v.2h-.3l-.1-.1-.1.1v.2h-.1v-.1h-.1l-.1.1v.1h-.1l-.1-.1h-.3l-.1.1h-.1v.1l-.1.3-.1.1-.1.2h-.2l-.2.1h-.1v.1l-.1.1v.2l-.1-.1v.1h-.1v-.1h-.3l-.1.1-.1-.1v.1h-.1l-.2.1-.2.1-.2.1h-.1l-.1-.1-.1.2h-.3l-.1.1h-.2v-.1l-.1.1-.2.1-.1-.1h-.4v.1h-.4l-.1.1h-.2l-.1-.1v.6l.1.1v.3l-.1.3v.6l.1.1v.2l.1.1v.3l.1.3h.1v.1l.1.1v.2l.1.1v.3l.1.1v.4l.1.1v.4h.1v.3h.1v.1h.1v-.2h.1v.1l-.1.1v.1l-.1.1v.1l-.1.2v.1l-.1.2-.1.1v.1l-.1.1-.2.3v.1l-.3.3v.1l-.1.1v.2h-.2l-.2.1-.1.1h-.1l-.1.1v.1l-.3.3-.1.1-.1.1-.2.2-.1.1-.1.1-.1.1-.1.1h-.1v.1l-.2.1-.1.1-.1.1-.2.2-.1.1-.2.2-.2.1-.2.1-.2.2h-.1l-.2.2-.5.1-.2.1h-.2l-.7-1.2-.4.3v.1l.1-.1.2-.2.1.1.4.5-.1.1h.1l.3.5-.2.3-.2.1-.1.1-.2.2-.1.1-.1.1-.1.1-.1.1-.1.1h-.1v.1l-.1.1h-1.3l-.3.2h-.3l-.1.1h-.6l-.4.1h-.2l-.2.1h-.8l-.2.1h-1.4l-.4.1h-.1l-.2.1h-.2l-.2.1h-.3l-.2.1h-.1l-.6.1h-2l-.1-.1h-.2l-.2-.1v-.1h-.2v.1l-.3.1-.3.2h-.1l-.1.1-.3.3-.1.1-.1.2v.1h-.1l-.1.3-.1.1v.1l-.1.1-.2.1-.5.3-.1.2-.1.1v.6l.1.1h.2v.1h.3l.2-.1h-.1l.1-.1h.3l.1-.1h.1v-.1l.1-.1h.1v-.1h.2l-.1.1v.1h-.1l.1.1h-.2l-.1.1-.1.1v.1h-.5l-.2.1-.1-.1-.1.1h-.1v.3l-.1-.1v.3l.1.1-.1.1.1.1.1.1v.1l.1.1v.1h-.1v.1l-.1.2-.1.2-.1.1h-.1l-.1.1-.1.1h-.1l-.1.1-.1.1-.1.1h-.3l-.1.1v.1h-.1l-.4.2-.2.1v.1l-.1.2v.1h-.1v.1h-.1v.4l.1.1h-.6l-.5.1h-.4l-.4.1h-.1l-.2.2h-.1l-.1.2v.4l-.1.1v.3l.1.1.1.1v.1h.1v.1l.1-.1v.1l.1.1v-.1h.1l.2.1h.1l.4.3v.1h.1l.1.2.1.1.1.2.1.2v.2l.1.1v.3l.1.1.1.2v.7h.4l.1.1h.1v.1l.1.1.1.1h.1l.1.1v.1l.1.1v.1h-.1v.1h-.1v.1l.1.1.1-.1.2.3.1.1.1.2.1.4v.2l.1.2.1.1v.1l.1.1v.2l.1.1.1.2.2.3.1.1.1.1v.1l.1.1.1.1h.7l.1.1h.1l.1.2v.1l.1.6.1.2v.1l-.1.1.1.2v.1h.1v.2l.2.3v.1h.2v.1l.1.2h.1l.2.1h.1l.2.1.2.2h.1l.1-.1h.5l.1.1.1.1v.4h.1l.2.1h.1v.3l-.1.1v.2l.1.1h.8v.1h.2v.6l-.1-.1h.1v-.3l-.1-.1-.1-.1h-.8l-.1-.1-.1-.1v-.2l.1-.2v-.1l-.1-.1h-.2l-.1-.1v-.3h-.1v-.1h-.4l-.2.1h-.2v-.1l-.3-.2-.3-.1h-.3l-.1-.1h-.1l-.1-.2h-.1l-.2-.1v-.2l-.1-.1v-.1l-.1-.1v-1l-.1-.2h-.1l-.1-.1h-.2l-.3.1h-.1v-.1l-.1-.1-.1-.1-.1-.1-.1-.1h-.1v-.1l-.1-.1h-.1l-.1-.1v-.2l-.1-.1-.1-.1-.3-.2v-.4h-.1v-.9l-.1-.1v-.1l-.1-.1-.2-.4v-.3h-.1l-.2-.1-.1-.1h-.3l-.3-.1h-.2v.1l-.1.1-.1.1-.1-.1v-.2l-.1-.1-.1-.1.1-.1v-.1l-.1-.1.1-.1h-.1v-1.1l-.1-.1-.1-.1-.1-.2-.1-.1-.1-.1v-.3l-.1-.1v-.1l-.2-.1h-.1l-.2-.1-.1-.1v-.1l-.2-.1v-.1h-.1v-.2h-.2l-.2-.1-.2-.1h-1.2l-.3.1-.2.1-.1.1-.2.1h-.4l-.4.2-.1.1-.3.2v.1l-.1.1h-.2l-.1-.1h-.4l-.2-.1-.2-.1-.1.1h-.1v.1h-.1l-.1.1h-.1v-.1l-.1-.1h-.3l-.1.1v.3h-.1l-.1-.1h-.2v-.1h-.1l-.1-.1-.2-.1-.1-.1-.1-.1h-.1v.1h-.1l-.2-.1h-.2v-.4l-.1-.1-.2-.1h-.1l-.1.1v.1l.1.1.1.1h-.1v.1l-.1.1v.1h-.1v.1l-.2.3-.1.1-.2.2v.1h-.2v.1l-.1.1h-.1v.2l-.1.1-.1.1-.1.2-.1.3-.1.2-.1.2h-.1v.1l-.1.1h-.2l-.2.1h-.7l-.1.1v.2l-.1.2-.2.3v.2l.1.5v.6l.1.2v.2l-.1.2-.2.2-.1.1-.1.2h-.1v.1l-.1.2-.1.2-.1.4v.3l.1.1.1.2v.1l.1.1.1.1v.1h.2v.1l.1.1.1.1v.2l-.1.2-.2.3-.1.1v.1h-.1l-.2.5-.1.1v.1l.1.2.2.1.1.1.1.1h.1l.1.1v.2l.1.2-.1.2.1.4.1.1-.1.4v.9l-.1.1h.1v.1l.1.1h.4v-.1l.1.1.4-.1h.3v.1h.3l.1.1h.1v.1l-.1.2v.3l-.1.2-.1.1-.1.1-.1.2v.6h.2l.1.1h.1l-.2.1h-.1l-.1.1v.4l.2.3v.4h.1v.2l-.1.1-.1.1v.1l-.1.2-.2.1v.2l.1.1.2.1v.1h.1l.2.2.1.1h.1l.1.1.2.2v.1l.1.1v.6l.2.3.2.1h.2l.2.1h.2l.2.1h1.1l.2.1v.1h.1l.1.2.2.5.1.4v.3h-.1v-.2l-.1-.3v-.1l-.1-.3v-.1l-.1-.2-.1-.1-.2-.1-.1-.1h-.3l-.1.1-.4-.1-.1.1-.4-.1h-.1v-.1h-.5l-.1-.1-.1-.1h-.1v-.1l-.1-.1-.1-.5-.1-.1-.1-.2-.1-.2-.1-.1-.1-.1-.1-.1-.4-.2-.1-.1h-.1v.1h-.1l-.1-.1v-.1h.1l.1-.7.1-.1v-.1l.1-.2v-.3h-.1v-.1l-.2.1h-.1l-.1.1h-.4v.1h-.2l-.1.1-.2.1h-.1l-.2.1-.2.1-.1.1-.1.1-.1.1v.1h-.1v.1l-.1.1h-.7l-.1.1h-.1l-.1.1h-.1v-.1h.2l.1-.1.1-.1.2-.1h.4l.2-.2v-.1l.3-.2h.2v-.1h.1v-.1h.1l.4-.1.1-.1.2-.1h.2l.1-.1h.1l.1-.1h.1l.1-.1v-.4l-.1-.1v-.7l.1-.2.1-.1.1-.2v-.7h-.2l-.3.1h-.3l-.2.1h-.1v.1l-.2-.1h-.2v-.1l-.2-.2v-.1l-.1-.5v-.2l.1-.2-.1-.1h.1v-.2l.1-.1v-.3l.1-.2-.1-.1v-.1l-.1-.1h-.1l-.1-.1h-.4l-.1-.1-.1-.1v-.5l.1-.2v-.1l.1-.2v-.3h.1v-.2l.1-.1v-.2l.1-.2h.1v-.2l.1-.1v-.3l-.1-.1v-.3l-.1-.1-.1-.3h-.1v-.2l-.1-.1-.1-.5.1-.2v-.1l.1-.3.1-.5.1-.4v-.3l.2-.2.1-.2-.1-.1h-.4l-.1.2-.1.2-.2.2-.1.1-.2.2-.2.2-.1.1v.2h-.1l-.2.4h-.1l-.1.1-.2.1h-.7v-.1.1l-.1.1-.3.2-.1.1-.2.1-.1.2-.1.1-.1.1h-.1l-.1.1h-.1l-.1.1-.2.1-.3.1h-.2l-.1.1-.2.2h-.3l-.1.1h-.1v-.2h.5l.2-.2.1-.1h.5v-.1h.1v-.2l.2-.1.1-.1.1-.1.1-.2.1-.1.4-.2.1-.1.1-.2h.1l.1.1h.1v-.2h.1l.2-.1h.3l.2-.1v-.1h.1v-.2h.1v-.1l.1-.1v-.3l.1-.2h.1v-.2l.1-.1.1-.1.1-.2.1-.1.1-.2h.4v-.2l.1-.1v-.2l.1-.1h.2l.1-.1v-.3l.1-.1.1-.2.2-.4.1-.2.2-.1.2-.2h.5l.4-.1.1-.1v-.8l-.1-.3v-.4l.1-.2-.1-.1v-.1l-.1-.2-.1-.1v-.2l-.2-.1h-.1.4l.1.2.1.1.1.1.1.1.1.1.1.2v.3l.1.1h.3v-.1h.1v-.1l.1-.1.2-.2v-.2h.1v-.2l.1-.1h.1l.1-.1.1-.1v-.1l.1-.1h.1l.1.1v.2h.2v-.1l-.1-.2v-.1l.1-.1h.4l.1-.1h.3l.1.1h.6l.3-.1.2-.1h.3l.1.1h.3l.2-.1v-.2l-.1-.2v-.1h-.1l.1-.2v-.1h.1v-.1l.1-.1h.3v-.1l.1-.1h.1l.1-.1v-.1l.1-.1-.2-.1-.1-.3-.2-.2-.3-.1h-.1v.1l-.1-.1h.1l.1-.1h.1l.1.1h.3v.1h.1v.1l.1-.1.1-.1.1-.1v-.1l.1-.2.1-.1.1-.1v-.1l.1-.1h.1v-.1h.1l.1-.2v-.1l.1-.1.1-.1.1-.1h.3l.1-.1v-.2l.1-.1v-.3l.1-.1-.1-.1.1-.4-.1-.1h.1v-.1h.1l.1-.2v-.4l.1-.1v-.1l.1-.1.1-.1v-.1l.1-.1.1-.1.3-.3.1-.3v-.4l-.1-.1v-.1h-.2v-.1l.2.1.1.1h.1l.1.1v.1h.1v.1h.3l.1.1.1.2v.2l-.1.2-.1.1-.1.2v.1h-.2.1v.1l.1.1v.1h.1v.2l.1.1h-.1v.2h.1v.1h.1v-.3h.1v-.5l.1-.3v-.1l-.1-.1v-.4l.1-.1v-.4h.1l.1-.1-.1-.3-.1-.3V779l.1-.1v-.2l.1-.1v-.1l-.4-.4v-.2l-.1-.1-.1-.1v-.1l-.2-.2v-.1l-.2-.3v-.1h-.1l-.1-.3-.1-.1-.1-.1-.2-.4v-.1l-.2-.3v-.1l-.4-.5-.1-.3-.1-.1v-.2l-.2-.3-.2-.3h-.1l-.1-.2-.1-.1-.1-.2-.1-.1v-.1l-.1-.2-.1-.1-.1-.1h-.1l-.1-.1v-.1l-.1-.1h-.1l-.3-.3-.2-.1-.2-.2h-.3l-.1.1h.2l.1.2-.1.1-.1.1v.1l-.1-.1v-.1l.1-.2h-.1v-.2h.1v-.4l.2-.1v-.4l.1-.2v-1.1l-.3-.4v-.1h.1l-.1-.1v-.1l-.3-.4.1-.1v-.1h-.2v-.1h.2v-.3l.1-.1h.1v-.1l.1-.2.1-.1.1-.2v-.3l.1-.2v-.1h-.1v-.1l-.1-.3-.1-.1v-.1l-.1-.1v-.3l-.1-.1v-.1h-.1l-.1-.1v-.7l.1-.1h.1v-.2h.1v-.1l.1-.2h.1v-.1l.1-.2v-.2l-.1-.1v-.1l-.1-.1-.1-.3-.2-.2-.2-.2v-.1l-.1-.2-.2-.1-.1-.1-.1-.1-.2-.1v-.1l-.2-.2-.2-.1-.2-.1-.2-.1-.2-.2-.1-.1-.1-.1h-.1l-.2-.1-.2-.1-.3-.2-.1-.1-.2-.1-.3-.2h-.2l-.1-.1-.2.2-.1.1h-.1l-.1-.1-.1.1v.4l-.1.2v.2h-.5l-.3.1h-.2l-.1-.1-.2-.1-.2-.2-.2-.2h-.2l-.1.1-.1.1h-.1v.1l.1-.1h.1l-.1.1h-.1v.1h-.1l-.1.1v.1-.1h-.3l-.1.1-.1-.1h-.1v-.1l.2-.2-.4.2.2.1v.1h-.1v-.1h-.1v.1l.1.1.1.1v.1l-.1.1h-.2l-.1.1-.1.1h-.1l-.1.1v.4l-.1.1-.1.2-.1.2h-.1v.2l-.1.1-.1.1-.1.1-.1.1-.1.1-.1.1v.1h-.1l-.1.2h-.1l-.1.1h-.1v.1l-.1.1-.1.1v.1l-.1.1v.3h.1l-.1.1.1.3v.3l.1.1h-.1l-.1.1h-.1v.5l-.1.1v.2l-.1.1-.1.1v.1l-.2.2h-.1v.1h-.1v.2h-.2l-.1.1-.1.1h-.1v.3h-.2v.2h.1v.1h.1v.2h-.1v.1l-.1.1.1.1v.1h.2l.1-.1h.2v.1h.1v.2l-.1.1h-.1v.3l.1.1v.6l-.1.1v.2l-.1.1v.1l.1.1v.4l-.2.1v.5l-.1.1v.1h-.1l-.1-.1-.1-.1-.1.1-.1.1.1.1h.2v.2l-.1.1-.2.3-.1.2-.1.2-.1.1-.1.1-.1.2v.2-.1l-.1-.1.1-.3v.1-.1l.2-.2h.2v-.2l.1-.1v-.1l.1-.1.1-.1v-.1l-.2-.1v.1h-.1l.1-.1v-.2l.1-.2h.4v-.5h.1v-.1h.1v-.3h-.1v-.1l-.1-.1v-.1l.1-.2v-.2h.1l.1-.1v-.2l-.1-.1h-.1v-.1h.1l-.1-.1-.1-.1v-.1l.1-.1v-.1l.1-.1v-.1h-.1l-.1.1h-.1v-.2l-.1-.2h-.1l.1-.1-.1-.2v-.1h-.1v-.1h.2v-.2l-.1-.2v-.2h.1l.1-.1.2-.1v-.1h.1l.1-.1.1-.2v-.1l.1-.1v-.1l.1-.1.1-.1v-.6l.1-.1v-.2h.1v-.2l-.1-.4v-.2l.1-.1-.1-.1h.1l.1-.1v-.1h-.1v-.1l.1-.1h.1v.1h.1l.1-.1v-.2l.2-.1.1-.1.1-.2.1-.2.1-.2h.1v-.1l.1-.2v-.3h.1v-.2l.1-.1v-.1l-.1-.1.1-.1v-.1l.1-.1-.1-.1.1-.1h.1v-.2h.1l.1-.1.1-.1.1-.1h.1l.1-.1h.2l.2.2v-.2l-.1-.1v-.1l.1-.1v-.1h.1v-.1h.1l.2-.2v-.3l.1-.1v-.1h.3v-.1h.1l.1-.1h.1l.1-.1h.2l.4.1.1-.1.3.2h.3v-.1h.2v-.7h.1v-.4l.3-.4.1-.1.2-.1.2-.1h.2v.1l-.1.1v.1l-.3.2v.1l-.1.1v.1h.1v-.1h.1l.2-.1-.1.1v.1h.1l.3-.3h.1l.1-.1.2-.2.1-.2.1-.1v-.4l-.2-.2-.1-.1-.2-.1-.1-.1-.3-.2-.2-.1-.3-.2-.2-.1h-.1l-.2-.1-.4-.1h-.2l-.2-.1h-.2l-.2-.1h-.1l-.1-.1h-.5l-.1.1h-.8l-.2.1h-.3l-.4.1h-.5l-.3-.1h-.3l-.1-.1-.1-.1h-.3l-.1.1-.2.1h-.3l-.3.1h-2l-.1.1h-.7l-.2.1-.1.1-.1.1-.2.2-.1.1-.1.1-.1.2-.1.1-.1.1-.2.2-.1.1v.1l-.1.1-.1.1-.1.1-.1.1-.3.3-.1.1-.2.1-.1.1-.2.1-.1.1h-.1l-.2.1-.1.2-.3.2h-.1l-.4.2-.1.1h-.1l-.3.2-.2.1-.1.1-.1.1h-.2l-.2.1-.1.1h-.3l-.1.1h-.1l-.1.1v.1h.1l-.1.1v-.1h-.1v-.1l-.3.1h-.1l-.2.1h-.4l-.6.1h-4.6l-.1.1-.1.1-.1.1-.1.1-.1.1-.5.5-.1.2-.1.1-.2.1-.2.2-.1.1-.1.1v.1l-.1.1h-.1l-.1.1-.2.1-.1.1-.1.2-.2.3-.1.1v.2l-.1.1v.1l-.1.1-.2.2-.1.1-.2.3-.2.1-.2.2-.2.2-.3.1-.3.2-.1.1-.2.1-.1.1-.2.1-.2.1-.1.1h-.1l-.2.1h-.1l-.1.1-.2.1h-.2l-.1.1-.5.1-.2.1h-.2l-.1.1h-.5l-.2.1h-.4l-.1.1h-.3l-.1.1h-.3l-.2.1h-.1l-.3.2-.3.1h-.6l-.1.1v.1l-.1.1-.1.1v.1l-.1.1v.1l.1-.1h.1v.2h-.1v.4l.2.1.1.3.1.1.2.1h.1v.1h-.1v.1l.2.2h.1l.1.1v.1h.1v-.1h.2l.1.1v.2l.1.1v.2l.1.1v.5h-.1v.2h.2l.1.1.2.1v.1l.1.1.1.2.1.1v.1h-.1v.1h.1v.1l-.1.1h-.1v.3l-.1.1v.6l.1.2.1.1h.1l.2.1.1.1.1.1.1.1.1.2v.2l.1.1h-.1v-.1l-.1-.1v-.2h-.1l-.1-.1v-.1h-.2l-.1-.2h-.2l-.1-.2h-.2v-.8l.1-.1v-.5l-.1-.1-.1-.2-.1-.1-.1-.1v-.1l-.1-.1v-.1l.1-.1-.1-.1h-.2v.1l-.1-.2.1-.1-.1-.1v-.2l-.1-.1v-.1l-.1-.2-.1-.1-.2-.1h-.1l-.1-.1h-.1v.1l-.2-.1-.1-.1h-.2v-.1h.1l.1.1.2.1h.1v-.1l-.1-.1h.1v-.1h-.1v-.1.1h.2l.1-.1-.2-.2v-.1l-.1.1-.1.1-.1.1h-.3v-.1l.1.1h.1l.1-.1h.1l.1-.1v-.2l-.1-.1-.1-.2-.1-.1v-.1l-.1-.1h-.1l-.1-.1-.1-.1-.2-.1-.1-.2h-.1v-.1l-.6-.4-.3-.2-.4-.3-.1-.1h-.1l-.5-.4-.2-.1h-.2l-.1-.1h-1.5l-.2-.1h-.6l-.2-.1h-.1v.1h-.3l-.2-.1h-.2l-.2.2h-.3l-.1.1-.3.1-.1.1h-.2l-.1.1h-1.2l-.3-.1h-.5l-.1-.1h-.1l-.2-.1-.1-.1h-.1l-.4-.2-.7-.7-.1-.2-.2-.1-.1-.2-.1-.2v-.2h-.1v.1l-.1.1-.1.2-.1.2v.1l-.3.5v.2h-.1l-.1.3-.1.3-.1.1h-.1l-.1.2-.2.2-.1.2h-.1l-.3.4-.1.2-.1.1-.1.1v.1l-.2.2-.1.1-.2.1-.1.1v.1l-.1.1h-.3l-.2.2-.1.2-.1.1-.1.1-.2.3-.3.3-.3.2-.2.2h-.1l-.2.1h-.5l-.2.1h-.4l-.3.1-.3.1-.1.1h-.3v.1h-.2l-.4.2h-.3l-.2.1-.3.1-.1.2-.2.2-.1.2-.4.4-.3.3v.1l-.1.2.1.3.1.1v.3h-.1l-.1.2-.2.2-.1.1-.1.1-.1.2-.3.3-.1.1v.1l.1.2h.1v-.1h.2l.2.1h.2l.1-.1.1-.1.1-.1h.1l.1.2h.2l.2.1h.1-.3l-.1-.1h-.2v-.1h-.1l-.1.1-.1.1h-.1l-.1.1h-.1v-.1h-.1v-.1h-.2l-.1.1v.1h-.1l-.1-.1v-.1h-.1v-.1h-.2l-.1.1h-.1l-.3.2v.1l-.3.1-.1.1h-.1l-.1.1h-.2l-.6.2-.5.2-.3.1h-.2l-.1.1-.3.1-.2.1-.4.1v.1h-.1l-.1.1h-.1l-.2.1-.4.1h-.1l-.2.2-.2.1h-.1v.1l-.1.1h-.1l-.1.2v.1l-.1.1-.1.1-.1.1-.5.4h-.1l-.2.2-.3.2h-.1l-.1-.1v.1l.2.1-.1.2-.1.2-.2.2-.1.1-.1.1-.1.2v.1l-.3.3-.3.3-.1.1-.1.1-.1.1-.1.1-.1.1v.1l-.1.1v.2l-.1.2v.2h-.1v.1l-.1.3-.1.3v.3l-.1.1.1.6v.4l.1.3.3.5.1.2.1.1.1.2v.2l.1.1v.8l-.1.1v.1l-.2.2-.1.2-.2.2v.3l-.1.2v.9l-.1.5v.4l-.1.2h.1l.1-.1v-.1h.1v-.1.2h-.1v.1l-.2.2v.1l-.1.1-.1.2-.1.1h-.1v.2l-.2.2-.2.2-.1.1-.1.1h.1v-.1h.2l.1-.1v-.1h.1v.1l-.1.1h.1v-.1.3h-.1v.2l-.1.2-.1.3-.9.2-.1.1.1.1h.2l.4-.1h.2l.1-.1.2.1v.1h.1l.1.1.1.1h.1v.1l.1.1.2.1.2.1v.3l.1.1h.1v.1h.1l.1.1h.1l.1.1h.1l.1.1h.1v.1h.2v.1h.4l.1.1.1.1.2.2.1.2v.1h.1l.1.1.1.2v.1l-.1.2v.6l-.1.3v.2l.2.6v.1h.1l.2.1h.3l.3.1h.1l.1.1.2.1h.1l-.1.1h.1l.2.2h.2l.1.1.1.3v.3l.1.2.1.1.2.2h.7l-.1.1v.2l.1.1.1.1v.1h.1l.1.2.1.4v.2l.1.1.1.2h.1v.1h.1l.1.1.1.1.3.3.1.2v.1h.1v.2l.1.2.1.1h.1v.1l.2.1.1.1.1.1.1.1.1.1v.5l.2.1v.1l.2.2.2.1.2.1.5.3h.1l.2.1.2.2.2.1h.1l.2.1h.2l.2.1h.1l.1.1v.1l.1.1.1.1h.1l.1.3.1.1v.1h.1l.1.1v.1-.1l.1.1.1-.1h.4v.1-.2h.4l.1.1h.3l.1.2h.1l.1.2h.1l.2.1h.1l.1.1h.1l.1.2h.1v.2l.1.1h.2l.2.1h.3l.2.1.1.1h.1l.1-.1h.1l.2-.1h.2v-.1h.1l.1-.1h.1l.1-.1.1-.1v-.1l.1.1h.2l.1.1.1.1h.1v.1l.1.1v.2l.1.1-.1.1v.1l.1.1v.1h.1v.1h.1-.1l-.1.1-.1-.1h-.1l.1-.1-.1-.1v-.2l-.1-.2v-.2l-.1-.1h-.1l-.2-.1-.1.1v.1l-.2.1-.1.1-.2.1-.1.1-.2.1h-.2l-.1.1h-.1v.3l-.1-.3h-.2l-.1-.1-.3-.1h-.3l-.2-.2-.1-.1-.1-.1v-.1l-.2.1h-.1v-.1l-.3-.1-.1-.1h-.1l-.1-.1h-.1l-.1-.2-.1-.1-.3-.1v-.3h-.1v.1-.1l-.1.1v.2h-.1l-.2.1-.1.1-.1.1.1.3v.2l.1.3.1.2v.1h.1l.2.2.1.1.2.2v.1l.2.2v.3h-.1l-.2.2-.2.1-.1.1-.1.1h-.2l-.1-.1h-.3l-.2.1v.1l-.1.1v.1h-.1.1l.1.1h.2l.1.1.1.1.1.3.1.3v.1h-.1v.5l-.1.2v.3l.1.7v.7l-.1.1v.2h-.1l-.1.3v.6l-.1.3-.2.4v.3l-.1.6-.1.3-.1.4-.1.5v.2h.1v.1l.3.1.1.1h.3l.5.1h.2l.1.1h.2v.1l.4.3h.1l.1.1.1.1.1.1v.1-.1h.1v.1-.3h.3l.1.1.2-.1h.1v.1l.1-.1.1.1.1-.1.1.1h.2l.1-.1h.2l.1.1h1v.1l.3-.1h.2l.1-.1h.1v.1-.1h.3l.2-.1h.3l.4-.1.1.1h.1l.1.1.4.4.2.1v.2l.1.2-.1.5v.4h-.1v.3l-.1.2-.1.1-.1.3-.2.3v.1h-.1v.1l-.1.1-.3.3-.2.3-.2.3v.1l-.2.3-.1.2-.2.2v.1h-.1v-.1h.1l.1-.2v-.1l.1-.1h-.1l-.1.1-.3.3v.1l-.1.1-.1.3v.3l.1.1v.1l.2.1.3.3.4.2.6.4h.2l.2.1h.1l.1.1h.1l.1.1h.2l.2.1h.3l.4.1.1.1v.2l.1.2v.9l-.1.2-.1.4v.2h-.1v.1l-.1.3v.7l-.2.2-.1.1h-.2v.2l-.2.1-.5.3-.3.1-.1.1v-.1l-.2.1h-.1l-.2.2-.1.1h-.1v.2l-.4.2-.1-.1v-.2h.1l.1-.1.1-.1v-.1h.1v-.1h.2v-.1h.1l.1-.1h.1l.1-.1.1-.1h.1l.1-.1h.1l.3-.2.2-.1.1-.1h.1l.1-.1h.1l.1-.1v-.1h.1v-.1h.1v-.5h-.1v-.2l.1-.1v-.4l.1-.4.1-.3v-.6l-.1-.1-.1-.2-.2-.1-.1-.1h-.4l-.1-.1h-.3l-.2-.1h-.2l-.1-.1-.3-.1h-.3l-.1.1.1.1-.1-.1h-.1v-.1h.1v-.1l-.2-.1-.3-.2-.3-.2-.1-.1-.1-.1v-.1h-.1l-.1-.1v-.6l.1-.3.1-.1.3-.5.2-.4.3-.5.2-.2.1-.3.1-.2.1-.4h.1v-.1l.1-.3h.1v-.2l.2-.6v-.8l-.1-.1v-.1l-.1-.1-.1-.1h-.1l-.1-.1h-.4l-.1.1h-.2.1v.1l-.2.1-.2-.1v.1h-.2l-.2.1h.6l.2-.1v.2h-.1l-.4.1h-.1l-.2.1h-.2l-.2.1h-.9l-.2-.1h-.2l-.2-.1h-.2l-.5-.1h-.1v-.1l-.1-.1-.1.1v.2h-.8v-.1h-.7l-.3-.2h-.4v-.1h-.8l-.1.1v-.2l-.1-.1-.1-.1-.2-.1v-.1l-.2-.2-.1-.1v-.1l-.2-.1-.1-.1h-.2l.1-.1.1-.1v-.1h.1v-.2h.1v-.1l.1-.1.1-.2.1-.1.1-.1.2-.2v-.1l.1-.3v-.1l.1-.3v-.1h.2v-.1h-.1v-.3l.1-.7v-.5l.1-.2.1-.3.1-.3v-.1h.1v-.7l.1-.2v-.1l-.1-.4-.2-.3-.1-.2v-.2l-.2-.1-.1-.1-.2-.1v-.1l-.2-.1-.1-.1-.1-.1-.1-.1-.1-.1-.1-.1v-.1l-.1-.1-.3-.2-.1-.1-.1-.3.1-.2v-.2l.2-.2.2-.1.1-.1.1-.1h.2l.2-.2h.2l.2-.1.2-.1.4-.2h.1l.1-.1.1-.1.1-.2v-.2h-.1v-.1l-.1-.2-.1-.4-.1-.1-.1-.1v-.1l-.2-.1h-.3l-.1-.1h-.1l-.2-.1-.2-.1-.1-.1-.2-.1-.1-.1-.3-.2-.2-.1-.3-.1h-.2l-.2.2h-.1v.1h-.1v.1h-.1l-.1.1v.1h-.1l-.1.1h-.1l-.1.1h-.4l-.1.1-.2.2-.1.1v.1h-.2l.1.1.1.1.1.1v.3l.1.1v.1h-.1v-.1h-.1v.1-.1.1h-.1v.1h.1v.1-.1l.1-.1v.1h.2v-.1l.1.1h.1-.2v.1l-.2.2-.3.4v-.3l-.1-.1h.1v-.6l-.1-.2-.1-.1v-.1h.1v-.1h.1v-.1l-.2.1v-.1h-.1v-.4l-.1-.2h-.1l-.1-.2h-.1l-.2-.2v-.1h-.1l-.1-.1-.2-.1-.1-.2-.2-.1v-.1h-.1v-.1h-.1v-.1l-.1-.1v-.2l-.1-.1v-1.1l-.2-.2-.2-.1h-.1l-.3-.2h-.3v-.1l-.1-.2-.2-.4-.1-.2v-.5l.1-.1v-.1h.1l-.1-.1h-.1l-.2-.2h-.1v-.1h-.1l-.1-.1-.1-.1-.2-.1-.1-.1v-.4l-.1-.2-.1-.1v-.1l-.2-.1-.2-.1h-.4l.1-.1.1-.3.1-.1.1-.2v-.1l.1-.1h.1l.1-.2.1-.1.1-.2h-.2l-.4-.1h-.3l-.1.1h-.9l-.2-.1h-1.5l-.4.1-.1.1v.1h-.2v.1l-.1.1-.1.1-.1.1v.3l-.1.1v.3l-.1.2v-.5l-.1.1v.4h-.1v-.8l-.1-.1-.3-.1-.1.1-.3.3v.1l-.1.2-.2.1v.1l-.2.1-.2.2h-.1l-.2.1v.1l-.1-.1h.1l.1-.1h.1v-.1h.1l.1-.2.1-.1.1-.1v-.1h.1v-.1l.1-.2.1-.4.1-.1v-.2l.1-.1v-.1.2-.1h.1v-.2h-.2v-.1h-.1v-.1l-.1-.1-.1-.1v-.2.1l.3.1v.1h.1l-.1-.1h.1v.1h.1v.1-.1h.1l.1.1v.2h.1l.1.1h.3v-.2l.1-.2v-.2h.1l.3.1h.2l.1-.1.1-.1.1-.1.1-.1h.1l.3.2h.1v-.1l.1-.1.1.1h.3v.1h.1l.1-.1h.2v.1l.2.1h.1l.1-.1h.1v-.1l.1-.1-.1-.7v-.1l-.1-.1v-.2h-.2l-.2-.1-.1-.1h-.1l-.2-.1-.1-.1-.1-.1-.2-.2-.2-.1-.1-.1-.2-.1-.1-.1-.2-.2-.3-.2-.1-.2-.1-.2v-.5h.1l.1-.1v-.5h-.1v.2l-.1-.2v-.3l.1-.2v-.1l.2-.2v-.1l.1-.2v-.1l.1-.1.2-.3.1-.2v-.1l.1-.1.1-.2v-.1l.1-.1.1-.1.1-.3v-.1l.1-.1h.2v.2h-.1v.1l-.1.1v.1h-.1l.1.1h.3l.1-.1-.1-.2h.1l.1-.1v-.2l-.1-.1-.1-.1v-.1h-.1v-.1h-.1v-.1l-.2-.2h-.7l-.3.1-.4.2h-.2l-.4.3-.2.1h-.3l-.4.3-.4.2-.2.1-.2.3-.2.3-.2.2v.3l-.1.1v.1h-.1l-.1.1-.3.1-.9.3-.5.1-.8.2h-.7v.1h-.1l-.6.1-.1.1-.2.1-.1.1h-.1v.2l-.1.1v.2l-.1.2v.1l-.1.1-.1.2-.4.3v.4l-.1.2-.1.2-.1.1-.2.1v.1l-.3.1h-.2v.4-.1.4l-.2.6-.1.3-.1.2v.1l-.1.1-.3.6-.1.1v.1h.1v.1l.3.3.1.2.2.1h.1l.1.2h.1l.1.3h.1v.2l.1.2v.1h.1v.1h.1v-.1l.2.1.1.3.1.2v.1h.1-.1v-.1l.1.1h.1l.2.1h.1v-.1h-.1.1l-.1-.1-.1.1-.1-.1h.1l-.1-.1.1-.1-.1-.1-.1-.1h.2v.1-.1h-.3v-.1h.1-.1v-.1l.1-.1h-.1v-.1h.1l.1.1.1.1v.1l.1.1.1.1v.1h.1l.1.1v.6h-.1v.1l-.1.1v.5l-.1.2v.5h-.1v.1h.1v.1h.1v.1l.1.1.1.2.2.5.1.1h.1l.2.1h.1l.1.1h.2l.1.1.1.1.2.2.2.4.1.1.1.1.1.1v.1l.1.1h.1l-.1.2.1.1v.1l.2.4h.1l.1.2v.1h.1l.1.3v.3l-.1.5v.1l.1.2.1.4v.1l.1.1.1.1.1.1h.2l.1.1h.7l.1.1.1.2.1.1v.2l-.1.2h-.1v.2l-.2.3-.1.2v.2h-.1v.1l-.1.3v.3h-.1v.5l-.1.1v.1l-.1.1v.1h-.1v.2h.3l.2.2.2.2v.1h.1-.1v.1h.1v.2l-.1-.1v-.1l-.1-.2-.1-.1-.1-.1-.2-.1h-.1v.1h-.1l-.1-.3v-.2l.1-.2v-.1l.1-.1v-.4h.1v-.7l.1-.3.1-.1.1-.1v-.1l.2-.3.1-.3v-.3l-.1-.1h-.1v.1l-.1.1-.1.1h-.1l-.1-.1h-.2l-.3-.1h-.1l-.1-.1v-.1h-.1v-.1l-.1-.1h-.1v-.2l-.1-.2v-.1l-.1-.1v-.3l.1-.5.1-.1v-.1l-.2-.3-.1-.2-.1-.1h-.1l-.1-.1h.1-.1v-.1l-.1-.2v-.2l-.1-.1-.1-.1h-.1v-.1h-.1l-.2-.3-.1-.1v-.1h-.1v-.1h-.1.1v-.1l-.1-.1h.1l-.1-.1h-.1l-.1-.1-.2-.1-.2-.1-.1-.1-.2-.2-.1-.1-.1-.1-.1-.1-.1-.1h-.1l-.1-.1-.1-.1-.1-.1-.1-.1v-.2l-.1-.2-.1-.1v-.2h-.1v-.1h.1l.2.1h.1l.1-.2.1-.1-.1-.1v-.1l.1-.2v-.1l-.1-.2v-.1l-.1-.1h-.1v-.1l-.1-.1v-.3h-.1v-.1h-.2v-.1h-.2v-.1l-.3-.2-.1-.1v-.3h-.2v-.5h.1v.1l.2.2v.1h.1v.3l.1.1.1.1v-.3l-.1-.2v-.1l-.1-.2-.2-.1v-.1h-.1l-.1-.1h-.1l-.1-.2-.1-.2-.1-.1h-.1v-.1l-.1-.1-.1-.2v-.1l-.2-.1-.1-.1h-.5v.1h-.2l-.1-.1.1-.1.1-.2.2-.1h.1l.2-.1.1-.1v-.1l.2-.2h.1l.1-.1.1-.1h.1l.1-.1.1-.1h.1v.1l-.1.1-.1.1v.1h-.1l-.1.1v.1l-.1.1h-.1v.2h.2v.3l-.1.1v.1h.1l.1-.1.1-.2.1-.1.1-.1v-.4l.1-.1v-.1l.1-.1v-.2l.1-.1v-.7l.1-.1.1-.2v-.1h.1v-.1h.1v-.1h.1l-.1.1v.1h.2l.2-.2.1-.1.1-.1v-.1l.1-.1v-.2l-.1-.1-.1-.1v-.3l-.1-.1-.1-.2-.1-.1v-.1l-.1-.2h-.1l-.2-.2h-.2l-.1-.1-.2-.1-.7-.1-.6-.1h-.1l-.1-.1h-.3l-.6-.1-.2-.1-.4-.1-.4-.1h-.1l-.7-.2h-.1l-.4-.1h-.1l-.3-.1h-.1l-.8-.2h-.1l-.4-.1h-.5l-.6-.2-.2.1-.3-.1h-1l-.1-.1h-.1v.1h-.7v.1l-.2.1-.2.3v.1h-.1l-.1.1-.1.1h-.4l-.1.2v.1h-.1v.1l-.2.2-.1.1h-.1l-.3.1-.2.1h-.2l-.1.1h-1l-.1.1h-.2l-.2.1h-.2l-.3-.1h-.6l-.4.1h-.2l-.6-.1h-.2l-.6-.1-.1-.1h-.2l-.1-.1v.4-.1h-.1v.1h-.2l-.1.1-.1.1-.1-.1-.1.1h-.3l-.1-.1-.2.1-.2-.1h-.4l-.1.1-.1-.1h-.4l-.1-.1h-.4l-.2-.1-.4-.1h-.1l-.2-.1h-.2l-.3-.1h-.2l-.1-.1h-.3l-.1-.1-.2-.1h-.1l-.2-.1-.2-.1h-.1l-.2-.1h-.5l.3.1h.2l.1.1h.1l.1.1.2.2v.1l.1.1.1.1.2.1.1.1h.1-.1v-.1h.1v.1l.1.1h.1v.4l.1.2.1.3.1.2v.1h.1l.1.1v.1l.1.1v.2h.1l.1.1v.5l-.1.1v.2l-.1.1-.1.2v.2l-.2.2-.1.1h-.1v.1h-.2v-.1h-.2v-.1h-.2l-.1-.1-.1.1v-.1.2-.1h.1v.1h.1l.2.1.1.1.1.1v.3h-.1v.1l-.1.1h-.2l-.2.2-.1.2-.1.1-.1.1v.1l-.1.1-.1.1-.1.1-.1-.1h-.1l-.3.1-.1.1-.1.1h-.1l-.3.1-.1.1v.1l-.3.4h-.1l-.1.1-.1.1-.2.2h-.2l-.1.1v.1h-.4l-.1.1h-.4l-.4-.1-.2-.1-.1.1-.1.1h-.2v-.1h-.2v.1l-.1.1v.2l.1.1h-.1v.5l.1.5.1.2.2.3h.1l.2.2.1.1.2.2v.1l.1.2.1.1.2.2v.2h.2l.1.1.1.1v.1l.1.1v.1l.1.1h.4l.2.1h.1v.1l.1.1.1.1h.1l.2-.1h.1l.1.1.3.1.1.1h.1l.1.1v-.1h.1v.1h-1.4l-.1.1h-.1v.1h-.1l-.1.1v.1h.1v.1l-.1.1-.1.2v.1l.1.1.1.1.1.1.1.1.2.2v.1l.3.3.3.3v.2l.1.1v.2l.3-.2h.5l.2.1h.1l.1.1.1.1.1.1h.1v.1l-.1.1v.3l.1.2.2.2h.2l.3.2h.1v.2l-.2.4-.1.1h-.1l-.1.1-.1.1v.1l.1.1v-.1h.1l.1-.1.2-.1h.3l.1-.1.3-.2h.1l.1.1.2.1.2-.1h.1l.1-.1.2-.1h.2l.3-.2h.2l.1-.1h.2l.2-.2.2-.1.1-.1h1.2l.1.1.1.1.1.1v.2l.1.2h.1v.3l-.1.1-.1.3-.1.1v.8l.1.2h.1l.3.2.1.1.1.1.1.1v.2l.1.1-.1.3v.2l-.1.3h-.1v.1l-.2.2h-.1l-.1.2-.2.3-.1.1v.1h-.1v.1l.1.1h.4l.2.1.1.1h.2l.1.1.3.3h.1l.3.1h.3l-.1.1h-.5l-.3-.1-.1-.1-.1-.1-.1-.1h-.1l-.3-.1h-.3l-.2-.1h-.4v.1l.1.4.1.1v.1l.1.2v.1l-.1.2v.2l-.1.2-.1.2v.1l-.2.1-.2.4-.2.2v.2l-.1.1h-.1v.2l-.1.1-.1.2-.1.2v.6l.1.2v.1l-.1.1-.2.1h-.6l-.2.1h-.1l-.1.1-.1.1-.2.1-.1.1h-.1l.1-.1.1-.1.1-.1.1-.1.1-.1h.2l.1-.1h.1l.1-.1h.1v.1l.1-.1.1.1.1-.1h.1l.1-.2v-.2h-.1v-.7l.1-.2v-.1h.1l.2-.2v-.2l.1-.1v-.1l.2-.3.1-.2.1-.1.1-.2.1-.1-.1-.1-.1.1v-.2h.1v.1l.2-.1v-.2l.1-.1v-.1l-.1-.1h-.1l-.1-.1v-.3h-.2v-.2l-.1-.1v-.1l.1-.1v-.2l.2-.3.3-.3.1-.1.1-.1v-.1l.2-.3.1-.2v-.5l-.2-.1-.1-.1-.2-.2-.1-.1-.1-.3-.1-.3-.1-.1v-.7h-.1l-.2-.1-.2.1h-.4l-.2.1-.2.1-.2.1-.1.1-.3.1h-1.5l-.3-.1h-.1l-.2-.1-.2.1-.1.1-.1.1v-.2l.1-.1h-.1l.1-.1v-.1h-.1l-.1-.2h-.1v-.1l-.1-.3-.1-.4-.1-.1-.2-.2h-.1l-.2-.1v-.1h-.4l-.3-.1-.2-.2h-.1l-.1-.1v-.1l-.2-.4-.2-.4-.2-.1h-.9l-.5.1h-.2l-.1.1h-.2l-.1.1h-.1v.1l-.2.1-.1.1v.5h-.1v.1l-.1-.2-.1-.3v-.2l.1-.2v-.1l.1-.1.1-.1.1-.2v-.1l-.1-.1-.2-.1v-.1l-.2-.2-.1-.3-.1-.2-.1-.1v-.4l-.1-.3v-.1l.1-.2v-.2l.1-.1v-.2l.1-.1v-.3l-.1-.1h-.3l-.1-.1-.3.1h-1v.1h-.1l-.1.1-.2.2-.2.1v.1h-.1l-.2.2h-.1l-.1.1-.1.1h-.1l-.1.1-.2.1h-.4l-.4.1h-.1v1.1l-.1.2-.1.1-.1.2-.1.1-.1.3-.1.1-.1.1v.1l-.1.2v.3l-.1.1v.1l-.1.1v.1l-.1.2-.2.2-.2.2h-.1l-.2.1-.1.1-.2.1-.1.1v-.1l-.1.1-.1.1-.1.2-.1.1-.2.1v.1h-.1l.1-.1-.1-.1-.1-.1-.1-.1-.1-.1h-.1l-.1-.1h-.7l-.1.1h-.3l-.2-.1h-.3l-.1.1-.1.1-.2.1h-.4l-.1.1v.2l-.2.2v.1h-.1l-.1.1v.1l-.1.1-.1.1v.1l.1.1v.1h-.1v.3l-.1.1v.1l-.1.2v.5l.1.1h-.1v-.1h-.2v.1l.1.1-.1.1h-.1v.1l-.1.1v-.1l.1-.2v-.2l-.2.1-.3.1h-.3l-.1.1h-.1l-.2.1h-.1l-.1.1-.2.1-.1.1h-.1l-.1.2h-.2v.1l-.1.1h-.1.1-.1v-.2h.1l.2-.1v-.1l.1-.1h.2v-.1l.1-.1h.1l.2-.1.1-.1.3-.1h.1v-.1l.3-.1.1-.1h.2v-.1l.1-.1v-.3l.1-.1v-.3l-.1-.1v-.7l.1-.1v-.1h.2l.1-.1.1-.1v-.2l.1-.1v-.2l-.2-.3v-.1h-1l-.1.1h-.2l-.3.1-.2.2v.1l-.1.1v.1l-.1.3.1.1v.2l.1.1.2.1h.1v.1l.1.1h.1l.2.3h.1v.1l.1.2v.1l-.1.3-.1.1-.1.1h-.1l-.3.1h-.2l-.1.1h-.3l-.2.1h-1.1l-.2.1h-.9l-.1-.1h-.2l-.2-.1-.2.1-.2-.1-.1-.1h-.2l-.4.1h-.3l-.3.1-.5.1h-.1l-.1.1v.1l-.1.1v.2l-.1.2-.1.1-.1.1h-.3l-.2.1-.2.1h-.5l-.1.1h-.2l-.1.1-.2.1-.2.1-.1.1-.1.1-.2.2-.1.1-.1.1v1l-.1.2v.6h-.1v.2h-.1l-.1.1-.2.1v.1h-.1l-.1.1-.2.1v.1-.1h-.1v.1h-.1l-.2.2-.1.1-.2.1-.4.3-.1.1-.1.1-.2.1-.2.3-.1.2-.1.1v.1l-.1.3-.1.1-.2.2-.2.2-.1.2-.2.1h-.2v.1-.1l-.1.1h-.1v.2l.1.1h.1v.7l-.1.1-.2.2-.1.1-.2.1-.1.1-.2.1-.2.2v.2l.1.2.1.1h-.1l-.1-.1h-.3l-.2.3h-.1l-.1.1-.1.1h-.5l-.2.1h-.2l-.4.1h-.3l-.3.1h-.2l-.1-.1h-.2l-.2-.1h-.4l-.1-.1v-.2l.1.1h.4l.5.1h.1v.1h.4v-.1h.3l-.2-.1h-.7l-.1-.1h-.7l-.2-.1h-.1l-.1.1h-.2v.3l.1.1.1.1.5.1h.5l.2.1h.1l.1.1v.9l-.1.2-.2.2v.1l-.3.4-.3.1-.1.1h-.4l-.1.1v.3h-.1l.1.2v.5l-.1.3v.1l-.1.1-.1.1-.2.1-.1.1v.1l-.2.1-.1.1h-.1l-.1.1-.1.1h-.7l-.2-.1-.1-.1h-.1v-.1l-.5-.1-.2.1h-.2l-.2.1-.2.2-.2.1-.1-.1.1-.1.1-.1.2-.1.2-.2h.8l.3.1.2.1h.1l.3.1h.4l.3-.3.2-.1.1-.2.2-.1v-.2l.1-.1v-.5h.1l-.1-.3h-.1v-.1l.1-.1v-.1h.1l.1-.2.1-.1h-.1.2l.2-.1.4-.1.1-.1.1-.1h.1v-.2l.1-.2.1-.3v-.6h-.1l-.1-.1h-1.2v-.1l-.1-.2v-.5h.1l.1-.1v-.2h1.3l.5.1.5.1h.5l.1-.1.3-.1h.3l.3-.1v-.1l.2-.1v-.1h.1v-.1l.1-.1h-.1.1v-.1l.1-.1.1-.1.1-.2v-.4l.1-.1v-.1h.1l.2-.2.1-.1.1-.2h.1v-.1l.1-.1-.1-.1v-.1h.1l.2-.1v-.1h.1l.1-.1.2-.1.1-.2.1-.1v-.1l.1-.2.1-.2.1-.2.1-.1.1-.1v-.1h.1l.1-.1.1-.1.1-.1.1-.1.2-.1v-.1l.1-.1v-.3l-.1-.1h.3l.1-.1.1-.1v-.1l.1-.1.2-.3.1-.1v-.1l.1-.2v-.2l.1-.2.1-.1v-.7l-.1-.2v-.7l.1-.1v-.4l.1-.2.2-.2.2-.1.1-.1.1-.1v-.1h.1l.1-.1h.2l.2-.1h.9l.1.1h.1l.1.1.2.1h.5l.2-.2.2-.1.1-.3v-.2l.1-.1h-.1v-.2l-.1-.1-.2-.1-.1-.1-.2-.4-.1-.1h-.1v-.1h-.1v-.1l-.1-.3v-.9l.1-.1v-.1l.1-.4v-.1h.1l-.1-.1.1-.1v-.2l-.1-.1-.2-.1v-.2l.1.1.2.1h.1l.1.1.1.1v.3l-.1.2-.1.1v.4l-.1.2v.1l.1.1v.2l.1.1.1.1.1.1.2.3.3.2.1.1v.2l.1.1.1.2v.3h.1v.1h.7l.2-.1h.3l.1-.1h.1l.1-.1.3-.1.5-.2.3-.1.1-.1.1-.2v-.2l.1-.2v-.1l.1-.1h.1l.2-.1v-.1l.2-.2v-.1l.2-.3.1-.1v-.1h.1v-.1l.1-.1.1-.2-.1-.4.2-.2h.3l.3-.1.4-.1h.1l.1-.1h.1l.1-.1.3-.1.5-.2.1-.1h.4l.1-.1h.9l.1-.1h.1v-.1h.3l.2.3.3.1.2.1h.5l.2.1v.1h.9l.1-.1.1-.1.1-.1.1-.2-.1-.1v-.1l.1-.1-.1-.2.1-.3.1-.2.2-.2.1-.1.1-.2v-.1h-.1l.1-.1v-.4l.1-.4v-.3h.1-.1l.1-.1-.1-.2v-.4l-.1-.1-.1-.1-.1-.1.1-.1h.2l.2.1h.4l.1-.1v-.7h.1v-.1h.1l.1.1h.2l.3.1h.4l.1.1h1l.2.1h.2l.1.1h.2v-.6l.1-.1h.1l.1-.1h.1v-.3h.1v-.7l.1-.2-.1-.3v-.2l-.1-.1v-.2h-.1v-.1h.2v-.1h.1l.1-.1h.1v-.2h.1v-.1l.1-.1v-.2h.1v-.4l.1-.3v-.3h-.1l.1-.1.1-.1h.1v-.1l.3-.2h.6l.1-.1h.7l.1-.1-.1-.1-.1-.1h-.1l-.1-.1h-.3l-.1-.1h-.3l-.1-.1h-.1v-.2l.1-.1.1-.1h.1l.1-.1.1.1h.1l.2.2h.1l.1-.1.1-.1h.1v.1h.1v.2h.3l.1.1h.3l.1.1h.3l.2.1h.2l.1.1h.2v-.1h-.2l.1-.1h-.1l.1-.1h.1l.2-.1h.1l.1-.1.3-.1.1-.1.3-.1.3-.1h.1l.1-.1h.2v-.1h.1l.1-.1h.3l.2.2-.1-.1-.1-.1-.1-.1v-.4h-.1v-.5h-.1l-.4-.1-.1-.1-.1-.1h-.1l-.2-.1h-.1l-.1-.1h-.2l-.2-.1h-.3l-.2-.1-.1-.1-.2-.1h-.1l-.1-.1-.1.1-.1.1h-.3l-.1.1h-.6l-.3.1-.2.1-.4.1h-.2l-.3.1h-.1v-.1h-.1l-.4.1h-.7l-.2.1-.2-.1-.2-.1-.2-.1-.2-.1h-.4l-.2-.1-.1-.1-.2-.1h-.1v-.2l-.1-.1-.1-.1h-.1v-.1l-.1-.1h-.1l-.1-.1h-.4l-.1.1-.2.2-.1.1-.2.2h-.1l-.1.1h-.3v.1h-.1v.1l-.1-.1-.1.2h-.8v-.1h-.4v.1h-.4l-.1-.1-.1.1v.1h-.2l.1-.1.1-.1h-.1l-.1-.1-.1-.1-.1-.1v-.2l.1.1v.1l.2.1h.7l.2-.1h.1l.1-.1h.1l.2-.1h.2v-.1h.1l.1-.1h.3l.2-.1.3-.2.1-.2v-.3l-.1-.1-.1-.1v-.1h-.1v-.1l-.1-.1h-.1v-.2h.1v-.1h-.3l-.1.1h-.2v-.1h.2l.1-.1h.4l.2.1h.2l.5-.1h.2l.1-.1.3.2v.1l.2.1h.1l.1.1h.2l.1.1h.1l.1.2.1.1.2.2.1.1.1.2.2.1h.1l.2-.1h.3l.4.1.1.1h.2l.2-.2.1-.1h.1l.3-.1h.2l.2-.1h.1l.3-.2h.5v-.1h.1v-.1h.1l.1-.2.1-.1h.1v-.1l.1-.1.1-.2h.1l-.1-.1v-.2l.1-.1v-.2h-.1l-.1-.4-.1-.1h-.1v.1h-.1v.1h-.1l-.1.1-.2.1-.2.1h-.2l-.2.2h-.2v-.2h.1l.1-.1v-.1l.2-.1v-.1l.2-.2v-.1l.1-.1v-.1l-.1-.1v-.1l-.1-.2h-.1l-.4-.3h-.1l-.2-.1h-.1l-.2-.1h-.1v-.2h-.5l-.2-.1-.4-.2h-.2v-.2l-.1-.1h-.4l-.2.1h-.6l.1-.1h.3l.2-.1h.1l.2-.2.3-.1v-.2h.1v-.3h.1v.1l.1.1h.1l.2.2.1.1h.1l.1.1h.6l.2-.2.1-.1v.1h.1l.1-.1v.1l.1-.1v-.1h.2v.1h.1v.1h.4l.2.1.1.1.1-.1.2-.3.1-.1v-.1l.1-.2v-.1l.1-.2v-.2h.1v.3l.1.2v.1l.1.1v.2l.2.1h.4l.2.1v.1h.1v.3l.1.2.2.2h-.1v.1h-.2l-.1.1h-.2v.1h-.1l.1.1h.1l.1-.1h.1l.3-.1h.1l.1-.1v-.1h.1v-.4l.1-.1v-.3l.2-.2.1-.2.2-.1.1-.1.2-.1h.4l.1-.1.2-.2.2-.2.1-.1.1-.1h.2l.2-.1.2-.1.2-.1v-.1l-.1-.1.1.1h.1v-.1l.1-.1v-.4l-.2-.3v-.3l-.1-.1-.1-.2-.2-.5v-.2l-.1-.2.1-.2.1-.1.2-.1h.1v-.2l.2-.2h.1v-.1h-.1v-.1l.1-.1.1-.1v-.1l-.1.1-.1-.1v-.3l.1-.1v-.1l.1-.1v-.3l-.1-.1h-.1v-.1h.1v-.1l.1-.1v-.2h-.1l-.1-.2h.1l.1-.2.1-.1v-.1h.2v-.6h.1v-.4h.1l.1-.1v-.1h.1l.1-.1v-.1h.4v.2h.3v-.2h.1l.1-.1-.1.3h-.1v.1h.1l.1-.1.1-.3v-.1l.1-.1v-.4l.2-.1v-.1l.2-.4v-.9h.1v.1l.1-.4v-.2l.1-.1v-.5l-.3-1v-.5l-.1-.5-.1-.4-.1-.5v-.2l-.1-.5.2-.2v-.2l-.2-.6-.2-.4v-.1l.1-.1v-.1l.1-.3-.1-.2v-.9l-.1-.2v-.1l-.2-.3-.1-.3-.1-.3v-.2l-.1-.1v-.1l-.1-.2v-.6l-.1-.3v-1l.1-.1v-1.7l.1-.2v-.2l.1-.1v-.1l.1-.1.3-.2.1-.2v-.1l.1-.1v-.1l.2-.2v-.3l.1-.1v-.2l-.2-.3-.1-.2-.2-.1h-.9l-.2.2h-.2l-.2-.1h-.3l-.1.1h-1.9l-.1.1h-.4l-.3.1h-.2v.1-.1l-.1.1-.1.1v-.1l-.1.1h-.2v.1h-.3l-.2.1h-.5l-.3.2-.2.1-.3.1-.1.1-.2.2-.1.1-.2.2-.1.1-.6.3h-.1v.1h-.2l-.3.2-.1.1-.1.1-.1.1-.2.1v.1l-.1.1h-.2l-.1.2h-.1l-.2.2v.1h-.1l-.1.1-.1.1-.2.1h-.1v.1l-.3.2-.2.1v.1h-.2v.1h-.3l-.2.1-.1.1-.1.1-.4.1h-.3l-.1.1h-.3l-.2.1-.2.1-.4.2h-.1l-.4.1-.3.1-.2.1-.3.1h-.1l-.1.1-.2.1-.1.1v.1l-.2.1-.1.1h-.1l-.1.1-.3.2-.2.1-.1.1h-.1l-.2.1-.1.2-.3.2-.2.2-.1.1h-.2l-.1.1h-.1l-.2.1-.2.1-.3.2h-.1l-.2.1h-.3l-.3.1h-.1l-.1.1-.2.1-.1.1h-.1l-.2.1-.4.1h-.2l-.3.1-.1.1h-.3l-.2.1h-1.4v.1h.3l.3-.1.1.1h-.3l-.3.1-.3.1h-1.4l-.2.1-.2.1-.1.1h-.8l-.4-.2h-.1l-.2-.1h-.3l-.2-.1-.2-.1-.2-.2h-.2l-.1-.1-.1-.1-.1-.1h-.1l-.1-.1-.1-.2-.1-.1.1-.1v-.2l.1-.2h-.2v-.1h-.1l-.2-.1v-.1l-.1-.1-.1-.1h-.1l-.1-.1h.1-.2v-.1h-.1v.1l-.1-.1h-.1v-.1h-.2l-.1-.1h-.1v-.1h-.1v-.1l-.1.1v-.1h-.1v-.1.1h-.1l-.1-.1v-.2h-.1l-.1.1h-.1v-.1h-.1v-.2h-.1v.1-.1h-.2l.1-.1v-.2h-.1l-.1.1h-.1v-.2h.1v-.1l-.1.1h-.1l-.1.1-.1-.1.1-.1h-.2v-.1h.1v-.1.1h-.2l.1-.1-.1-.1-.1-.1h-.1v-.1h-.1v-.1h.1l-.1-.1h.1-.1v-.1l-.1.1v-.1h-.1v-.1l.1-.1h-.1v-.2h-.1v.1h-.1v-.1h-.1l-.1-.1h.1l-.1-.1v.1l-.1-.1v-.1h-.1l-.1-.1h-.1l-.3-.3-.2-.1-.1-.1-.1-.2-.2-.1h-.1l-.2-.2-.2-.2-.2-.2-.2-.1-.2-.2h-.1l-.1.2-.1.1v.2l-.1.1-.1.2-.3.5-.1.3-.1.2-.1.1v.3l-.1.1-.1.2-.1.1-.1.2-.2.3-.1.2v.1l-.1.1v.1l-.1.2-.2.6-.1.1-.1.2-.1.1v.3l-.1.1-.1.2-.1.2v.2l-.1.2-.2.1v.2l-.1.1v.2l.1.1.1.1h.1l.1.1v.3l.1.1v.4h.1v.2h.1v-.2l-.1-.1v-.3l-.1-.1v-.2l-.1-.1-.1-.1-.1-.1v-.2l.2-.1.1-.1.1-.1v-.3h-.1v-.1h.4l.1-.1v-.3l-.1-.1.2.1v.1l.1.1-.1.1.1.1-.1.1-.1.1v.1h.1l.1.1h.1l.1-.1.1-.1h.1v-.1h.2l-.1.1h.2l.2-.1h.1l.1-.1v-.1l.1-.1h.1v-.1h.1l.1-.1h.1v-.1h.1v.1h.1l.2-.1h.1v.1h.1l.1.1.1.1v.2l.1.1h.2v.4l.1.1v.1h-.1v.1h.1v.3l.1.1.1.2h.1l.2.1h.1v-.1h.2v.1h.3v.1l-.1.1h-.1l-.1-.1h-.6l-.2-.2-.1-.1-.1-.1-.1-.2v-.3l-.1-.1h-.2l-.2.1h-.3l-.2.1-.2.2-.1.2-.2.1-.2.1v.1h-.2l-.1.1h-.1v.1l-.1.1v.1h-.1l-.1.1-.1.1h-.2v.1l-.1.1v.5h.1l-.1.1h-.2l-.1.1v.1h-.2v-.1.2h-.1v.2h-.1v-.1l-.1.1-.1.1v.2l-.1.2-.1.1v.1h-.1v.5h-.1l-.1.1v.1l-.1.1v.1l-.3.2v.1l.1.1.3.1v.1h.1l.1.2v.2l.1.1h.1v.5l.1.1.1.1h-.1l-.1-.1h-.1v.4h.1l.2-.1h-.1v.2-.1h-.1l.1.1v.2l-.1.1.1.1h-.1l-.1.1-.1.2-.1.3-.1.1v.1h.1l-.1.1-.1.2h-.1v.1l-.1.4v.3l.1.1h.7l.1.1v.1h-.1v-.1h-.5l-.2-.1v.1l-.1-.1-.1.1v.1l-.1.1v.1l-.1.1v.2h-.1v.2h-.1l-.2.2h-.1l-.1.3-.1.1h-.1v.1l-.1-.1-.1.1v.2l-.1.1-.1.1-.1.1h.1v.1l-.1.1h-.1l-.1.1v.1h-.3v-.1l.1-.1h.2l.1-.1v-.3h.1v-.1l.1-.1.1-.1h.1v-.2h.1v-.1l.1-.1v-.1h.1l.1-.2v-.1l.1-.1h.2v-.1l.1-.1.1-.1v-.2.3l-.2.2-.1.1h-.2v.2h.1l.1-.1.2-.1.1-.2.1-.1v-.2l.2-.2.1-.1-.1-.1v-.7h.1v-.1l.1-.1v-.1l.1-.2.1-.1v-.1l-.2.1h-.1v.2h-.1l.1-.1v-.1h.1l.2-.1v-.1l.1-.2v-.1l.1-.1v-.3l-.1-.1h.1l.1-.1-.1-.1h-.1v-.4l.1-.2-.1-.3-.1-.1-.1-.1-.1-.1-.1-.1h-.5v-.1l-.1-.3-.2-.1h-.1v.4h-.1v.1l-.1.1h-.1l-.1.1h-.1l-.3.1v.1h-.2l-.3.2-.1.1-.2.1-.2.1-.2.1h-.1l-.2.2-.1.1h-.2l-.2.1-.2.1h-.1l-.4.2-.3.1-.2.1-.3.1-.2.1h-.1l-.3.1-.4.1-.4.1h-.9l-.3.1h-.1v.1h-.2l-.4.1-.1.1-.5.2h-.2l-.1.2-.1.1-.1.1.1.1v.1h.1v.1h.2v.1l-.1.1-.2.1-.1.1-.1.1-.1.1h-.3v.1h-.4l-.3.1h-.2l-.1.1-.2.2-.1.1-.1.1h-.2v.1l-.1.1-.1.1-.1.2-.1.1-.1.1-.1.1v.1l-.1.1-.1.2h-.1v.3l.1.1v.1h.1-.1v.1h-.1v-.2h-.1v-.4l-.1-.1-.1-.1-.3-.2h-.1l-.2-.2h-.2v-.1h-.5l-.1.1-.1.1v.1h-.8l-.3-.1h-.1v-.1h.1v-.1h-.1v-.1l-.2-.1v-.1l-.1-.1-.2-.1-.3-.2-.5-.2-.2-.1h-.1l-.3-.1h-.1l-.1.1h-.4l-.2.1-.3.3-.1.1h-.1l-.1.2-.2.1-.1.2v.3h-.1v.4l-.1.1v.9l-.1.1v.2l-.1.1v.4h-.1v.2h-.1l-.1.1-.1.2h-.2l-.1.1h-.3l-.2.1-.2.1h-.2l-.5.2h-.7l-.2-.1-.1.1-.1.2-.1.3-.1.1-.2.2v.1l-.1.1-.1.1-.1.1-.1.1v.1h-.1v.2h-.1l-.1.1v.2l.1.1h.1l.1.1h.3v.1l-.2-.1v.1h.3v.1h-.7v-.1h.4v-.1h-.3l-.1-.1h-.1l-.1-.1-.1-.1-.1.1v.1h-.6l-.2.1-.4.1h-.5v.1h-.4l-.1.1-.1.1h-.2v.1-.1h-.1l-.1.1.1.1v.1h-.3l-.1-.2-.1-.1-.1.1v.1l.2.2.1.2-.2.1-.1.1-.2.2-.1.1-.1.1-.1.3v.3l.1.1v.2h.1v.2l-.1.1h.1v.1l.2.1v.1l.1.1v.1l.1.2.1.1-.1.1.1.3.1.1.2.3h.1-.1l-.1-.1v-.1h-.1v-.1h-.1l-.1-.1v-.4l-.1-.1v-.1l-.1-.3v-.1h-.2v-.1l-.1.1h-.1.1v.4-.1h-.1v-.1l-.1-.2-.1-.1h-.2l-.1.1-.1.1-.1.3v.2l-.1.3v.1l-.3.5-.2.2v.1l-.2.3h-.1v.2h-.1l.1.1v.1h.2l.2-.1v.1l.1.2h.1l.2.2.1.1h.1v.2h-.1l-.1-.1-.1-.1v-.1l-.2-.1h-.2v-.1h.1l-.1-.1h-.2v.1h-.1l-.1.1v.2l-.1.1v.4l-.1.2v.2l-.1.1-.1.1v.2l-.1.1v.1l-.1.1-.1.1-.1.2-.1.1-.1.1-.3.1-.2.2h-.3v.1l-.1.1v.1l-.1.1-.1.1-.1.1-.1.1-.1.1-.2.1-.4.3-.4.1h-.2l-.1.1h-.1v.1h-.2v-.1l-.2-.1-.2-.1-.3-.2h-.1l-.1.1-.2.1h-.1l-.2.1-.1.1v.1l-.1-.1-.2.1v.1h-.1l-.1-.1-.2.1h-.2l-.1.1h-.4l-.2.1v-.1h-.2l-.1.1h-.5v.1l-.1-.1h-.1l-.1.1v.3h-.1l.1-.1-.1-.1v-.1h-.2l-.1.1h-.3v.1l-.1.2v.1l-.1.1v.1l-.1.2h-.1l-.1.1h-.1l-.1.1h-.2v.1l.1.1-.1.1h-.4l-.1.1-.2-.1-.1.1v.1h-.1l.2.3v.3l.1.1v.1-.1l-.1-.1h-.1v-.1l-.1-.2v-.1h-.1v.1l-.1-.1v-.1h-1v-.1l-.2-.1-.1-.2-.3-.2v.1l-.1-.1v.1h-.1v.1h-.1v-.1h-.1v-.1.1h-.1v-.1l.2-.1v.2h.1l.1-.2v-.2l-.2-.3v-.1l-.1-.1-.1-.1-.2-.2v-.1h-.1l-.1-.1h-.3l-.3.1-.3.1-.1.1-.2.2-.2.1-.1.1v.2l-.1.4v.3l-.1.1-.1.1v.1l-.1.1-.2.3-.1.1-.1.1-.1.1-.2.1-.1.2-.2.1h-.4l-.1-.1h-.2l-.1-.1v-.1h.1l.1.1h.2v.1h.4l-.2-.1h-.1v-.1h-.2l-.1-.1-.2-.1h-.2l-.1.1h-.2l-.1.1-.2.2-.3.2-.2.2-.1.1h-.1l-.3.3-.2.1-.1.1-.2.1h-.1v.1h-.1l-.3.4-.1.1v.1l-.1.1v.1l-.1.1v.2h-.1v.1h-1l-.3.1h-.2l-.2.1h-.1l-.1.1h-.1v.1l-.2.1v.1h-.1v.1l-.1.1-.1.1h-.1v.1h-.1v.1l-.1.1v.2l-.1.3v.3l-.1.2v.2h.1l.1.1v.1h-.1v-.1l-.1-.1-.1.1-.1.3-.2.1-.2.2h-.1l-.2.1v.1h-.5.1v-.1h-.2l-.1.1-.1.1h-.2v.2h-.1l.1.2v.3l.1.2v.1l-.1.2v.1l-.1.1h-.1v-.1l-.1.1h-.1l-.1.1h-.1l-.1.2v.1h-.1v.1l.1.1v.1l-.1.1v-.1l-.1.1v.1h-.1l-.1.1-.3.3-.1.1-.4.2-.2.1h-.1l-.2.2-.1.1h-.1l.1-.1.1-.1-.1-.1h-.1l-.1.1-.1.1-.1.1v.1l-.1.2.1.1v.3l-.1.1v-.1l-.3.3v.2l.1.2v.5l-.1.1v.1h-.3l-.1.1-.1.1-.1.1h-.3l-.1-.1-.1-.1h-.4l-.1-.1h-.2.4l.3.1h.1v.1h.4v-.1h.1l.1-.1.1-.1h.2l.1-.1v-.5l-.1-.1v-.4h.1l-.1-.1h.1l.2-.2v-.1l-.1-.1v-.2h.1v-.1l.1-.2.1-.1.1-.1.1-.1.2-.2h.6l.2-.1.1-.1.1-.1.1-.1.2-.1.2-.3.1-.1v-.1l.1-.3h-.2v-.1h-.1.2l.1.1.1-.1.2-.1.1-.1h.2l.1-.1v-.2l-.1-.2v.1l-.1-.4v-.4l.1-.1h.1l.2-.2h.7l.1-.1h.2l.1-.1.2-.1v-.1l.1-.2v-.2h.1l.1-.1.1-.2v-.2l-.1-.1h.1v-.1l-.1-.2h.1v-.4l.1-.1v-.1l.2-.1h.1l.2-.2.1-.1.2-.2h.1l.1-.1.1-.1h.1l.2-.2h.1l.2-.1.6-.1h.6l.1-.1.1-.2v-.2l-.1-.1v-.2h.3l.1-.1.1-.1.1-.1.1-.1.1-.1.1-.1.4-.2.2-.1h.1l.2-.3h.1v-.1h.1l.1-.1v-.2h.1l.2-.1.1-.1.2-.1.2-.1h.7v.2h.3l.1.1v.1h.1l.1-.1.2-.1.1-.3.1-.1-.1-.1h.1l.1-.2-.1-.1v-.1l.1.1h.1l.1-.2.1-.3v-.3h-.1l.1-.1v-.1l-.1-.1v-.1h.1l-.1-.1.1-.1v.1l.1-.1v-.2h-.1v-.2l.1-.1h.1v-.1h.2v.1l.1.1h.1l.3-.2.1-.1.1-.1v-.1l.1-.1h.1v.1h.5l.3.1.2.1.1.1h.1v.1l.4.4.1.2.1.2.1.1.1.1.1.1.2.2h.1v.1l.1-.1v.1h.4l.3-.1h.3v-.2h.1v-.1h.1v-.4h.1v-.1l.1-.1.1-.1.1-.2h.1l.3-.2.2-.2h.2l.2-.1.2-.1v-.1h.3l.1-.1h.4l.2-.1h.3l.1.1h.1l.1-.1.1-.1v-.1h.1v-.1h.1l-.1-.1v-.2h.1l.2.2.3-.1.2-.1v-.1h.1l.1-.1h.3v-.1h.1l.1-.1h.1l.2-.1h.3v-.1h.2l.1.1.1.1h.1l.3.3h.4l.3-.1.2.1.2-.1.1-.2.2-.1v-.2l.2-.1.1-.1h.1l.1-.2.1.1v-.1h.1v-.1h.2l.1-.1.2-.2v-.1l.1-.2v-.3h.1v-.1l.2-.4v-.2h-.1v-.1l.1-.1v-.4l.1-.2.1-.1v-.2l.1-.2v-.1l.1-.1h.1v-.2l.2-.3v-.3l-.1-.1h.1v-.1h.1v-.2h-.1v-.1h-.1l-.1-.1.2.1h.1l.1-.1.1-.1.1-.1.1-.2h.1v-.2l.2-.4.1-.1h.1l.1-.1.1-.2v-.1h.1v-.1l.1-.1v-.1.1h.1l.1-.2v-.1l.1.1v-.1l.1-.1h.1l.1-.1h.1v-.1h.1l.1.1.1-.1v-.1l.1-.1h-.2v-.2l.1-.1v-.1h.1v-.2l.1.1.1-.1v-.1h-.1l-.1-.1h-.2l.1-.1h.4l.2-.1h.1v-.1l.1-.1h.2v-.1l.1.1.1-.1h.1v-.1h.1l.1.1.1.1.1-.1h.4l.2-.1.1-.1h.1v-.1l.3-.2.1-.2.1-.2.1-.1.1-.1v-.1l.1-.1v-.4h.1v-.2h.1l.1-.2.1-.1h.2l.1.1.4-.1h.1l.1.1h.2v-.2h.1l.2.1h.5l.1-.1h.2l.1-.1v-.4l-.1-.1v-.2l-.2-.2-.1-.1-.1-.1-.1-.1h-.1v-.1l-.1-.1v-.1h-.1v-.1l.2-.2v-.1l-.1-.1h-.1.1v-.2h-.3v-.2l-.1-.1-.1.1h-.2l.1-.1h-.1l-.1-.1h-.2v.2h.1v.1l.2.1h.1l.1.1.1.2-.2-.2h-.1l-.1-.1-.1-.1h-.2v-.1l-.2-.1-.2-.1h-.3l-.2.1-.1.1-.1.1v.4h-.1v-.1l.1-.1v-.2h-.1l-.2.1v.5h.1v.2l-.1.2v-.4l-.1-.1.1-.1v-.1h-.1v-.1h.1l-.1-.1.1-.1h-.1l.1-.1.1.1v-.1h-.1v-.1h-.1v-.1h.2v-.2l.1-.1h.1v-.2h.2v.1h-.1v.2l-.1.1h.2v-.1.1l.1-.1h.1v-.1h-.2v-.1h.1l-.1-.1.1-.1h.1v-.1h.2l.2.1.1.1h.1v.1h.1l.1.1h.2l.1-.1h.2v.1l.1.1.2.1h.1l.1.1.1.1.1.1h.1l.2.1.2.1h.1l.1.1h.1v-.1h.1v-.2l.1-.4.2-.2.2-.4.1-.1v-.8l.1-.1v-.1l.1.1h.6v-.1h.1l.1-.1h.2l.1-.1h.3l-.1-.3.1-.1-.1-.1v-.1h.3v.1h.5l.2-.1v-.1h.3v-.3l.1-.1v-.1l.1-.1.1-.1.1-.1h.1v-.1h.1l.2-.1h.2l.1.1h.1v-.1l.1-.1v-.4l.1-.1v-.1h.1l.2.3.2.1v.1-.1h.1l.2.1h.5v.1h.2l.1-.1.1-.1v-.1l.1-.1v-.1h.1v-.2h.1l.1-.1v-.1l.1-.1v-.2l.2-.1v-.1h.1l.1-.1.2-.1-.1-.1.1-.1.1-.1v.2l.1.1v.1h.1l-.1.1h-.2l-.1.2h-.1v.1h-.1v-.1l-.2.2v.3h-.1v.1h.1-.1v.1h.1l-.1.1.1.1v.1h.2v.2h-.1v.1l-.1.1h-.1v.1l-.1.1v.2l-.1.2-.1.1v.1l-.1.1v.1l-.1-.1-.1-.1-.2.1v.2h.1v.1h.1v.1h.1l.1.1h.1l.2.1.2.1.3.1.4.1h.2v.2h.2l.1.1h.2l.1.2.1-.1.1.1h.5v.1h.1l.1-.1h.1l.1.1h.1v-.4l.1-.1h.2l.1-.2.1-.2h.1v-.4l-.1-.1v-.4l.1-.1v-.9l.1-.1v-.1l-.1-.3-.1-.2v-.1h-.1v-.1l-.1-.2-.1-.1-.3-.3-.2-.1-.2-.2-.1-.1.1-.1.1-.3h-.1l-.1-.2-.2-.1-.1-.1-.3-.2-.1-.1-.6-.4-.1-.2-.3-.2h-.1l-.4-.3-.1-.2h-.1l-.1-.1-.3-.3-.4-.4-.1-.1v-.1l-.2-.1v-.1h-.1l-.1-.1-.1-.1-.1-.1h-.1v-.1l-.1-.1h-.1l-.2-.3-.2-.1-.2-.1h-.2v-.1h-1.1l-.2-.1h-1l-.2-.1h-.2l-.2-.1h-.2l-.3.2-.1.1-.2.1h-.3l-.4.1-.1.1h-.4l-.1.1-.2-.1h-.1v-.1h-1.1v-.1l-.2.1-.1-.1h-.3l-.1-.1-.4-.1-.2-.1-.2-.1h-.1l-.2-.1-.5-.3-.1-.1-.1-.1-.1-.1-.3-.1-.1-.1-.1-.1-.1.1h-.5l-.2-.2-.3-.2-.3-.2-.4-.4-.9-.8-.1-.1-.1-.1-.3-.2-.2-.1-.1.1h-.1v.1h.2l.1.1v.1l-.1.1-.1.1v-.3h-.1v.2l-.1.2v.4l-.1.1v.2l-.1.2-.1.1-.1.1h.3l.1.1h.1l.1.1v-.1h.1l.1.1v.1l.3-.1.1-.1.1-.2v-.1h.1l-.1.1v.2h-.1v.1l-.2.1h-.1l-.1.1h-.1v.1h.1v.3l-.1.3v.3l.1.2v.1l-.1.1v.1l.1.1h-.1v.1-.2h-.1l.1-.1v-.2l-.1-.2v-.3l.1-.2v-.3l-.1-.1-.1-.1h-.1v-.2h-.3l-.2.1h-.3l-.2-.1h-.1l-.4-.2h-.1l-.3-.1-.2-.1-.4-.3h-.1l-.2-.1-.2-.1-.3-.1-.1-.1h-.1l-.1-.1-.2-.2h-.1l-.1.1-.2.1-.1.1-.4.6-.2.2-.4.2-.2.1-.4.1h-.2l-.1.1h-.9l-.1-.1h-2l-.2.1h-.3l-.3.1h-.1l-.1.1h-.3v.1h-1.1l-.2-.1.1.1h.1-.2l-.1.1h-.1l-.2.1-.3.3-.1.1-.4.3-.5.4-.1.1-.1.1-.3.1-.1.1v.1l-.1.1-.1.1v.2l-.1.1v.1l-.2.1h-.1l.1.2h.1l.1.1.1.1v.7h.1v.1h-.1v.1l-.1.1v.4l-.1.1.1.4v.8l-.1.2-.1.1-.1.1-.1.1-.3.2h-.1v.1h-.1l-.2.1v-.1l.2-.2h.1l.3-.2.2-.3.1-.1v-.1h-.1v-.5l-.1-.1v-.5l.1-.2v-.4l.1-.3v-.6h-.1l.1-.1h-.1v-.1h.1l-.1-.2h-.2l-.2-.1-.3-.1-.4-.2-.4-.1h-.8l-.2-.1h-1.1l-.2-.1h-.2l-.1.1h-.2l-.5-.1h-.2l-.1-.1-.2-.1h-.2l-.3-.1-.2-.1-.4-.2h-.1l-.1-.1-.2-.2-.2-.2h-.1l-.1-.2-.1-.1-.1-.1.3-.1h.1l-.1-.1-.5.2v.5l-.1.1-.1.1h-.3v-.1h-.2v.1l.1.2v.3l-.1.2-.1.1-.1.1-.1.1h-.3l-.2.1h-.1l-.1.1-.3.1-.2.1-.2.2h-.1l-.1.1h-.1l-.2.1h-.1l-.1.1-.1.1-.2.2-.1.1-.2.1-.1.1-.2.1-.2.1-.2.1-.1.1h-.1l-.1.1-.1.1h-.8l-.1.2-.2.1v.1h-.1v.1h-.3v.1h-.1l-.2.1-.2.1-.3.2h-.2l-.1.1h-.1l-.1.1h-.3l-.1.1h-.1l-.1.1-.2.2-.1.1h-.1l-.1.1v.1h-.2v.1l-.2.1-.1.1v-.1l-.1.1v.1h-.3l-.1.2h-.1l-.2.1h-.1l-.1.1h-.1v.1l-.4.2h-.1l-.2.1-.1.1-.2.1v.1l-.1.1v.1h-.1l-.1.1-.1.1h-.1l-.1.1-.1.1-.1.1-.1.1h-.3l-.3.3-.2.1-.1.2h-.1l-.2.1-.1.1-.1.1h-.1l-.2.2h-.1l-.2.1h-.2v.1l-.1.1-.2.1h-.2l-.1.1-.5.3-.1.1-.1.2h-.2v.1l-.1.1h-.2l-.1.1-.1.1-.3.2-.1.1-.1.1h-.1l-.2.1-.1.1-.2.1v.1l-.2.1-.1.1-.1.1-.4.2-.2.1h-.2l-.1.1h-.4l-.3.1-.4.2h-.1v.1h-.2l-.3.2-.2.1-.3.1h-.8v.1h-.1v.2l-.2.1-.1.1-.1.1-.1.1h-.2l-.2.1-.3.1h-.2l-.1.1h-.1l-.3.1h-.4l-.1.1-.3.2h-.2l-.3.2h-.1l-.1.1h-.1l-.1.1h-.1l-.1.1h-.1v.1h-.1l-.3.1h-.6l-.3.1-.2-.1v.1h-.7l-.1.1h-.1l-.1.1-.1.1-.3.1v.1l-.1.1h-.1l-.2.1-.1.1v.1h-.2l-.1.1h-.1v.1h-.1l-.3.1v.1h-.1l-.2.2h-.3v-.1h-.1v.1l.1.1v.1l-.1.1h-.1v.1h-.1l-.2.2-.6.5-.2.1h-.1l-.2.2-.2.2-.1.1h-.2l-.1.1-.1.1-.1.2-.1.1h-.3l-.4-.4-.2-.3-.2-.3-.1-.2.2-.2.1-.2.1-.1v-.1h.1l.1-.2v-.1l-.2-.1-.1-.1h-.2v-.1h-.2l-.1.1v.2l-.1.2-.1.1-.1.1-.2.1-.3.3-.1.1-.1.1-.3.2-.1.1-.1.5v.1l.1.2v.1h.1l.1.1h.2l.1-.1h.2l.1-.1.2-.1.1-.1.2-.1h.1l.1-.1h-.2v-.1l.1-.2h.2l.2.2h.1l.1.2.2.3h.1l.1.2v.1l-.1.1-.1.2h-.1l-.1.2h-.1l-.1.1h-.1l-.1.1h-.1v.1l-.1.1-.1.1-.1.2-.1.2-.3.2-.2.1-.1.2-.2.2-.2.2-.2.1-.2.1-.1.2v.1h-.1l-.1.1-.3.2-.1.1-.4.4-.1.2-.3.4-.1.1v.1l-.1.1-.1.1-.2.1-.5.1h-.1l-.1.1h-.2v.1l-.1.1v-.2h-.1v-.1l-.1.1-.1.1v.2h-.1v.1l-.1.2-.2.4-.1.2v.2l.1.1v.1l.1.1.1.1v.1l.1.1-.1.1-.1.1-.1.1h-.1v.2l-.1.2v.1l.1.1-.1.2-.1.1v.1l-.2.2v.1l-.2.2-.2.1h-.4l-.1.1-.2.5v.5h-.1l-.5 1.1v.1h.2v.1h.3l.2.1v.4l-.1.1-.1.1-.2.3v.1l-.2.2-.1.1-.1.1-.4-.1h-.1l-.2.2-.4.7-.3.4-.1.1-.1.1.2.1v.1h-.3l-.1.2-.1.1-.1.1v.2l-.1.2h-.1l-.1-.1-.6.7.1.1.2-.2h.1v.1h.1l-.1.1-.2.2-.2.2v.1l-.1.1-.1.1-.3.3-.2-.1v.1h-.1l-.1-.1-.1.1-.1.2-.1.1h-.1v.1l-.1.1v.1l-.1-.1-.1.1-.1.2h-.1l-.1.1-.1.1v.1l-.2.3-.1.2v.1h-.1l-.1.2-.1.1-.2.2-.1.2-.2.2-.2.2h-.1l-.1-.1h-.1l-.2.1h-.2v.1l-.1.1v.2l-.1.1v.1l-.1.1-.1.1-.1.1-.2.3h-.1l-.1.1-.2.1-.5.4-.2.1-.2.1-.4.2-.1.1-.1.2h-.1l.1.2v.1l-.2.1h-.1v.1l-.3.2-.2.1-.1.1-.1.1h-.2l-.1.1-.3.1h-.1l-.1.1h-.1l-.1.1h-.1l-.4.2-.1.1-.1.1h-.2l-.1.1h-.4v.1h-.2l-.1.1h-.1l-.1-.1-.1.1h-.1l-.2.1-.2.1h-.3l-.1.1h-.1v.1l-.1.1v.2l-.1.3v.1l-.1.1-.2.2-.4.2-.1.1h-.2l-.1.1h-.2l-.1-.1.1-.1v-.1l.1-.1v-.7l-.1-.2h-.1v-.1h-.2l-.1-.1-.1.1h-.2l-.1.1h-.4v-.1l-.6.2v.1h-.1v.1l-.2.3h-.1l-.1.1h-.4l-.2.1h-.1l-.4.1h-.2l-.1.1-.2.1h-.3l-.2.1-.3.1-.1.1h-.4l-.3.1h-.2l-.1.1h-.3l-.2.1h-.2l-.2.1-.3.1h-.1l-.2.1h-.1l-.2.1-.1.1-.2.1h-.1l-.1.1h-.2v.1l-.2.1h-.2l-.6.1h-.2l-.3.1h-.2l-.1.1h-.3l-.3.1h-.4l-.2.1h-.2l-.2.1-.6.1-.2.1-.3.1h-.4l-.2.1-.1-.1-.4.1-.2-.1h-.1l-.2.1-.3.1-.2.1-.1.1h-.1v.1l-.1.1-.1.1h-.1v.1l-.1.1h-.2l-.2-.1-.2-.1-.1-.1-.1-.1h-.8l-.5.1-.6.2h-.2l-.2.1h-.2l-.1.1h-.1l-.2.2h-.1l-.2.1h-.3v.1h-.1v-.1h-.2l-.1-.1h-.2v-.1h-.2l-.1-.1h-.6l-.2.1h-.1l-.6.1h-.5v.1h-.1l-.2.2v.1l-.2.2-.2.1-.2.2-.2.1h-.1l-.2.1h-.4v.1l-.1.1h-.1v-.1h-.1l-.1-.1v-.1l-.1.1h-.3l-.1.1h-.1v-.1h-.2l-.3.1h-.1v.3l-.1.1-.2.2-.1.1h.1l-.1.1-.1.2h-.1l-.1.1-.2.2-.1.3-.1.2v.2l-.1.1v.2l-.1.3-.1.3v.2l-.1.2v.2l-.1.4-.1.5-.1.2v.2l-.2.4-.2.5-.1.5-.2.4v.1l-.1.1-.1.1v.1h-.1l.1.1.1.2v.8l-.1.1v.2l-.1.3v.8l-.1.1v.1h-.6v.1h-1.3l-1.5.1v-.5l.1-.3h.1l-.2-1.6-.2-.9h-.1v-.2h-.1v.1-.2l-.1-.2v-.3l-.1-.1v-.1l-.1-.2v-.7h-.1.1v-.2l.1-.1.1-.5h-.1l.1-.5v-.8l.1-.1.1-.2v-.4l.1-.1.1-.3v-.1h.1l.1-.2v-.1l.1-.1v-.1l.1-.1.1-.1v-.1h.1v-.1l.1-.1.1-.1.1-.1.2-.2.1-.1.2-.2v-.1l.1-.1.1-.1h.1l.1-.2h.1l.3-.2v-.1l.1-.1v-.1h.1v-.1l.2-.1h.1v-.1l.1-.1v-.1h.1l.1-.1.1-.1.2-.1.1-.1h.1l.1-.1.2-.1.2-.1h.1l.1-.1.1-.2h.1l.1-.1h.1l.4-.3.2-.1.2-.1.2-.1.2-.2h.1l.3-.1h.3v-.2l.1-.1v-.3l.1-.1v-.1h.1l.2-.1h.5l.2-.1v-.1h.1l.1-.1-.1-.3h-.2l-.1-.1h-.1v.1h-.3l-.1.1-.1.1v.1-.2h-.1v.1l-.1-.1v-.1h-.1v-.3l-.1-.1h-.1v-.1l-.1-.1-.1-.1v-.3l-.1-.1v-.1h-.1v-.1l-.3-.6v-.5l.1-.1v-.4l.1-.1-.2-.2.1-.1h.1l.1.1.1.1v.3l.1-.1v.2h.1v.2h.1l.1.1v.1h.1v.1l-.1.2v.2l-.1.2v.1l.1.1.1.1.1.1.1.1h.1l.1.1.1.1v.1h.1l.3.3.1.1.1.2.1.1.1.1v.6l.1.1.1.1h.3l.2-.1.1-.1h.2l.1-.1h.1l.5-.3h.1l.1-.1h.5l.1-.1h.1l.2-.1.1-.1h.1l.1-.1.1-.1h.1l.2-.1v-.3h.1l.5.2h.1l.3-.1h.2l.1-.1h.3l.2-.1.3-.2.1.1h.1l.2-.1.1-.1.1-.1h.2l.1-.1.1-.1.1-.1h.1l.2-.1.1-.1.1-.1.1-.1.1-.1v-.1l.1-.1v-.1l.1-.1h.2l.1.1h.1l.2.1.1.1h-.1v.1l-.1.1v.2h.3l.2-.1h.6l-.1-.1v-.2h-.1l.1-.1v-.2l.1-.1.1-.1h.3l.2-.1h.2v-.1h.1l.1-.1h.3l.1-.1.1-.1.4-.1h.3l.1-.1h.1l.1-.1.1-.2.1-.1h.2l.1.2h.5l.3-.1.1.1v.1h1.1l.1.1h.5l.2-.1h.2l.4.1.2-.1h.8l.3-.1h.8l.1-.1.4-.1h.2l.1-.1h.1l.2-.1h.1l.1-.1-.1-.2v-.1l.1-.1.1-.1v-.2l-.1-.1v-.1h-.1l.1-.1v.1l.1.1v.1l.1.2h.3l.1.1.1.1v.1l.1.1.2.1h.3l.1-.1h.1v.1l.1-.1.1-.1h.1v.1-.1h.3v-.1h.1l.1-.2h.1l.3-.1.1-.1v.1h.2v.1h.2v-.1l-.1-.2v-.1l.1-.1.1-.1v-.1h-.1l.1-.1h.3v.1h.1l.1-.1v-.1h.6l.1.1.1.1.2.2.1.2.1.2.1-.1v-.1h-.1l-.1-.2v-.2l-.1-.2h-.1.1l.1.1h.1l.2-.1.3.5h-.1l-.1.1v-.1l-.1.1v.1l.2-.1h.2v-.1l-.1-.2-.1-.1-.1-.2v-.3l.1-.3.1-.1.1-.1.1-.1.3-.1h.1l.2-.1.1-.1v-.1l.1-.1v-.1l.1-.1v-.1h.1v-.1l.1.1.1-.1h.2v-.1l.2-.1.3-.2h.2v-.1l.2-.2.2-.1.1-.1.2-.3h.1l.1-.1.1-.1h.1l.2-.1.4-.3.5-.1v-.1l.1.1.1-.1h-.1l.1-.1.1-.1.1-.1.2-.1h.2v-.1h.1v-.1h.1l.1-.2.3-.1.1-.2.1-.1h.1v-.1h.1l.1-.1.2-.1h.2l.3.1v.1l.2.1.2.3.1-.1v-.2h-.1v-.5h-.1l-.1-.1-.1-.1v-.2l.1.1h.2v.1l.1.1v.1h.1v.1l.3.2.2.1h.1v-.1h-.1v-.1l-.1-.1v-.1h-.1l-.4-.4v-.3l.1-.1h.1l.1-.1.1-.1.2-.1.2-.2.1-.1.2-.1.2-.2.1-.1.1-.1.1-.1.1-.1.3-.2.1-.1.1-.1v-.1h.1l.1-.2h.1v-.1h.1l.1-.1v-.1h.1l.1-.1h.2l.1-.1v-.1l.2-.2.2-.1h.3l.2.1h.1v.2l.1.2h-.1l.1.1.1-.1-.1-.2v-.1l.1.1.1.1v-.1h-.1l-.1-.2-.2-.2-.1-.1.1-.3v-.1l.1-.1.1-.2.1-.2v-.4l.1-.3.1-.1.2-.1.1-.1v-.3l.2-.3v-.1l.1-.2v-.2h.1l.1-.1v-.1l.1-.3v-.4l.1-.1.1-.1.2-.1v-.2l-.1-.1v-.4h.1l.1-.5.2-.2v-.2l.1-.1v-.1l.1-.5v-.2l-.1-.1.1-.1v-.1h-.2.1v-.1l.1-.1.1-.1.1-.1.1-.1.1-.2.1-.1v-.1l.1-.1.1-.1.2-.4v-.1l.1-.1h.1l.1-.1h.1v.1-.1h-.1l-.1-.2v-.2l.1-.3.1-.2v-.2l.1-.1v-.8l.1-.1.1-.2h.1v-.2l.1-.2.1-.1v-.1l.1-.1.1-.1.2-.2h.1l.1-.1v-.8l.1-.1.1-.1v-.1l.1-.1v-.4l-.1-.1v-.1l.1.1v.2l.1.1v.3h.1l.1.1v.1h.1v.1h.1l.1.1h.1l.1.1v.1l.1.1h.2v-.1h.1v-.1l.1-.1v-.1h.1l.1-.1.1-.2h.2l-.1-.1.2-.1v-.1l.1-.1-.1-.1h-.1v-.6l.2-.2h.1l.1-.1h.6l.2-.2h.1l.1-.1h.1v-.1l.1-.1v-.2l.1-.1h.3l.1-.1v-.1h.1l.1-.1.1-.1.1-.1h.1v-.1l.2-.1.1-.1h.1l.2-.2.2-.2v-.1l.1-.1v-.3h.1l.1.1h.1l.1.1h.3l.1-.1.2-.1.1-.1h.2v-.1l.1-.1h.1l.1-.1h.3l.2-.1h.1l.3-.1.3-.1.1-.1.5-.2v-.1l.2-.1.3-.1.2-.1h.1l.2-.1h.2v-.1h.4l.1-.1h.2l.1-.1.3-.1.1-.1h.2v-.1h-.1l.1-.1v-.1h.2v-.1h.1l.1.3v.1l-.4.1v.1l.7-.2v-.1l-.2.1-.1-.1-.1-.2h.1v-.1l.1.1h.2l.1.1h.2l.3-.1.1-.1h.2l.1-.1h.2v-.1h.4l.2-.1.1-.1h.1l.4-.4h.5l.2-.2h.4v-.1h.2v-.1h.1l.2-.1.1-.2v-.1l.1-.2v-.1l.1-.1h.6l.1-.2.2-.1.1-.1h.5l.3-.1.1-.1.2-.2.1-.1.1-.1v-.1l.2-.1.1-.2-.1-.1v-.3l-.1-.1v-.2l.1-.1v-.1h.3l.1.1.2.1h.1l.2-.1h.2l.1.1h.4l.1.1.1-.1h.1l.1-.1.2-.1h.1l.2-.1h.2l.1-.1.1-.1.2-.1.1-.2.3-.3.1-.2h.1v-.2h.1v-.1l.1-.1h.1v-.1h.2l.1-.1v-.1l.2-.1.1-.1v-.1h.3l.1-.1h.3l.1-.1h.1l.1-.1v-.2l.1-.1.2-.2.3-.1v-.1l.3-.1.1-.1.4-.4h.1l.2-.1.3-.2.1-.1.2-.2v-.1l.2-.1.2-.1.1-.1.3-.3.1-.1.2-.1.2-.2h.1l.3-.3.1-.1.1-.1.1-.1h.1v-.1l.3-.2.3-.3.1-.1v-.1h1.2l.1-.1.2-.1h.2v-.1l.1-.1.1-.1.1-.1h.3v.1h.1l.1-.1h.1l.1-.1h.3v-.1h.2v-.1l.1-.1.1-.1h.2l.1-.1.2-.2h.2l.1-.1.1-.1h.2l.1-.1.1-.1.1-.1.3-.2h.1v-.1h.5l.1-.1h.2l.1-.1h.2l.1-.1h.2v-.1h.3l.1-.1h.1v-.3l.1.1.1.1h.3l.2-.1v.1h.1v.1l-.1.1v.2h.2v-.1l.2-.3.2-.1.1-.1.1-.2.1-.1h.2l.1-.1.2-.1.1-.1h.2v-.1h.1l.1-.1h.2l.1-.1.2-.1.2-.1h.2l.1-.1h.5l.4-.2h.2l.1-.1.2-.1.3-.2.2-.2h.2l.1-.1.1-.2.2-.1.1-.1.2-.1.5-.3.1-.1.2-.1h1.2l.3.1h.2l.4-.1h.9l.2-.1.1-.1.1-.1h.4l.2-.1h.4l.3-.2h.2l.1-.1h.3v-.1h.2l.1-.1h.1l.1-.1.1-.1.1-.1v-.1l.1-.1h.2l.1.1.1-.1h.2l.3-.3v-.1h.1v-.1l.1-.1-.1-.1v-.1h.1v-.2l.1-.2.1-.2v-.2h.1l.1-.2.1-.1v-.3l.1-.1.1-.1.1.1h.1v-.1h.1l.1-.1v-.3l.1-.1v-.2h.1l.1-.1h.1v-.1h.2l.1-.1h.1l.1-.1v-.2l-.1-.1-.1-.1v-.2h-.1v-.2l-.1-.1h.1l.1.1h.6l.2.1h.1v.1h.2l.1.1v.2h.1l.1.1.1-.1h.1l.1-.1v-.1l.2-.2h.2v.1h.1l-.1-.1.1-.1v-.1h.1l.1-.1v-.1l.1-.1h.3l.1-.1v-.1l.2-.2.1-.1.3-.3.3-.2.1-.2.3-.2.1-.1.1-.2V751l.1-.1v-.5l.1-.1v-.5l.1-.1v-.3h-.2v-.2l.1-.1.1-.2.1-.1.1-.1-.2-.2-.3-.4v-.6l-.1-.2h-.1l-.1-.1-.1-.2-.1-.1v-.3l.1-.2v-.1l-.1-.3h-.1l-.1-.1v-.2l.2-.1v-.3h.1v-.1.1h.1v-.1l-.1-.3-.1-.1h-.1l-.2-.3-.1-.2-.1-.1-.1-.1v-.1h-.9l-.2-.1-.2-.1-.4-.4h-.2l-.1-.1h-.2l-.1-.1h-.6l-.3-.1h-.3v-.1l-.1-.1-.1-.1-.2-.1-.2-.1h-.1l-.2-.2h-.2l-.2-.1-.2-.1h-.2l-.1-.1-.3-.2h-.3l-.1-.1-.3-.1-.1-.1h-.1v.1l-.2.1v.1l-.1.1-.1.1v.2l-.1.1h-.1l-.1.2h-.1l-.2.1v.1h-.1l-.1-.1-.1.1-.3-.1h-.2l-.1-.2-.2-.2-.1-.1h-.2l-.3.1h-.2l-.1.1h-.1l-.1.1h-.2l-.2.1h-.3l-.2-.1-.2-.1-.2-.1-.1-.1-.1-.1v-.1l-.1-.1v-.1l-.1-.2-.1-.3-.1-.2v-.1l-.1-.1-.1-.1-.1-.1-.1-.1-.1-.1-.3-.1-.5-.2-.1.1v.2l-.1.2-.1.1h-.1l-.1.1h-.1l-.1.1h-.2l-.1-.1-.3-.1-.2-.1v-.1l-.4-.2-.1-.1-.1-.1v-.2h-.3l-.1-.1-.1-.1-.1-.1-.1-.2-.1-.1v-.1h.1v.1l.1.2h.1l.2.2v.1h.3l.1.1v.2l.2.1h.3v.1h.1l.1.1.1.1h.1l.1.1h.3v.1h.1l.1-.1.1-.1.1-.1v-.2l.2-.4v-.1h.1l.2-.1v-.1h.1v-.2l-.1-.1v-.1h-.1v-.1h.1l.1.2.1.1v.3l-.1.1h-.1v.1l.2.1.2.2h.1v-.1l-.1-.1h.3l.1-.1h.1l.1.1v-.1l.1-.1h-.1v-.1h.1l.1.1v-.1l-.1-.1h-.1l-.1-.1v-.1l-.2-.1v-.1l.1-.1.2.1.1-.1v-.3l.2.1h-.1v.1h.1l.1.1-.1.1h-.1l.1.1h.1v.1h-.1l.1.1.1-.1v-.7l.1-.1h.1v.5l-.1.1v.1l.1-.1h.1v.1l-.2.1h-.1v.2l.1-.1.1.1-.1.1.1.1.1-.1v-.1l.2-.6.1-.2v-.5l.1-.4-.1-.2.1-.2v-.3l.1-.3-.1-.1h-.1l.2-.2.1-.2v-.5l-.2-.4-.1-.4-.1-.1-.1-.4-.1-.1-.1-.1-.2-.3-.1-.1-.2-.2-.2-.2-.2-.3-.2-.4-.1-.1-.4-.3-.2-.1h-.1l-.2-.2h-.1l-.2-.1h-.1v-.1l-.1-.2-.1-.1-.1-.1-.1-.1v-.1h-.1v-.4l-.1-.1.1-.1v.1l.1.1v.3h.1v.2h.2v.1l.1.1h.2l-.1.1v.1h.1l.1.1.1.2h.1v-.3l.1-.1.3-.6.1-.1.1-.2v.1-.1l.1-.1v-.1l.2-.1.1-.1.1-.1.1-.1v-.1h.1l-.1.1-.1.1v.1h.1v-.1h.1v-.1l.1-.1.1-.1.1-.1.1-.1.3-.2.1-.2h.2l-.1.1-.1.1-.3.3-.2.2-.1.1-.5.4-.1.2-.1.1-.2.2-.1.2v.1l-.1.1v.2l-.1.2v.2h.1v.1l.3.2h.1l.3.2h.3l.1.1h.1l.1.1.1.1.2.4h.1l.1.3.1.2.1.2h.1v.1h.1v-.2l.1-.1.2-.1h.2v.1h.1-.1l-.3.2v.1h-.1l-.1.1.1.2.1.2.1.2v.2l.1.1.1.2h.1l.1.2.2.1h.1l.1-.1-.1-.2v-.1h.1l.1.1v.4l.1.2.1.1v.1l.1.1v.1h.1l.1.1v-.4h-.1l-.1-.1v-.1h.1l-.1-.1.1-.1.1.1v.1l.1.1.1-.1-.1-.1v-.1l-.1-.1-.1-.1.1-.1h-.1l-.1-.1-.1-.1-.1-.2-.1-.2.2.2.2.2.1.1.1.1.1.3v.7l-.1.1-.1.1-.1.2-.1.1h-.1l-.2.1-.3.1v.2h-.1l-.1.2-.1.1v1.1l-.3.2-.1.1v.4l.1.1v1l.1.2.1.2.2.1.3.3.1.1.1.1h.3l.2.1h.2l.1-.1-.1-.1h-.2l-.1-.1h.2l.2-.1h.1l.2-.1h-.3l-.2.1-.3-.1h-.1v-.1h-.1l-.3-.1h.2l.1-.1h.1l-.1-.1h-.2v-.1h-.2v-.1l.3.1h.1l.1.1.1.1h.5l.1-.1v-.1l-.1-.1-.1-.1h-.1v-.1h-.2l-.1-.1v-.1l-.2-.1v-.2l.2.1.1.1v.1l.2.1.1.1h.2v-.3l.1-.1.1-.1v-.1l.1-.1.1-.1h.4l.1.1.1-.1.2-.3.1-.2v-.8l.1-.2.1-.1.3-.3.2-.2h.1l-.1-.2h.2l.1.1.1.1h.2v.1l.2.1.2.1.1.1v.1l.1.2v.3l-.1.4v.3l-.1.2.1.1v.2h.1l.2.2.1.1.3.3v.1h.1l.2.1v.1h.1l.1.2.1.1.2.1.3.6.1.1.1.1h.1l.3.1.1.1.1.1h.3l.1-.1.1-.1v-.3l.1-.1.1-.1v.3l.1.1-.1.1v.1h.1l.1.1h.2l.1.1h.2v.1h.1l.1.1h.3l.1.2.1.1h.1v.1h.2v.1h.2l.1-.1.2.1.1.1.1.1.3.2h.1l.2.2.2.3.2.1.1.2.1.2.1.4.1.2.2.5.1.6v.3l.1.3.2.7v.4l.1.1v.1h.3l.1-.1.2-.2v.1h.1v.2l.1.1-.1.2h-.2l-.1.1v.1l-.1.1h-.1v.1l-.1.1.1.3.2.1.1.3v.8l.1.1v.2l.1.5v.1h-.1v.1l.1.1v.2l.1.3v.9l-.1.8-.1.4v.2l-.1-.1v.1l.1.3v.2l.1.2.3.4.1.1v.1h.4l.1-.1.3-.2.2-.2h.3l.3-.1.1-.1h.2l.2-.1.4-.3.5-.3.1-.1.2-.1.3-.3.3-.2h.1l.1-.1.3-.3.3-.2.2-.1h.2l.1-.2.2-.1h.2v-.1h.1l.2-.3.3-.1.2-.2.1-.1.2-.1.2-.1.3-.2.2-.2.4-.2h.1l.2-.1h.3l.2-.1.3-.1v-.1h.1l.1-.2.2-.2h.1l.1-.1.2-.1.2-.3.1-.1.3-.1h.1l.3-.2h.2l.2-.1.2-.1.1-.1v-.1l.1-.1.2-.2.2-.3.3-.3v-.1l.1-.1h.1l.1-.1.3-.4.1-.1h.2l.1-.2v-.1l.3-.2.2-.3.2-.1.1-.2.2-.1.1-.1h.1l.3-.3.2-.2h.1l.2-.2.2-.1.1-.1h.1l.1-.2h.1l.1-.1.2-.2.2-.1.2-.1h.1l.1-.1.2-.1v-.1h.3l.2-.2h.1l.2-.1.1-.1.3-.2.3-.2.1-.1.2-.1h.4l.2-.1h.1v-.1l.2-.1.2-.1.1-.1.3-.2h.1v-.1l.3-.1v-.1l.2-.2.3-.1.3-.1.1-.1.1-.2.1-.3.1-.2v-1l-.1-.4v-.4l.1-.3v-.1l.3-.1v-.4h-.1v-.1h.2l.1.1.1-.1.1-.1v-.7l.1-.1v-.1l.1-.1.1-.3v-.1h-.2v-.5h.1v-.3l.1-.1h-.1v-.8l.1-.1v-.1h.1l.2-.1h.1l.2-.1.1-.1v-.1h-.1v-.1h.1v.2l-.1.1v.1h-.1l-.3.1v.1h-.1l-.1.2v.4h.2v.4l-.1.2v.1h-.1l-.1.1v.4h.1l.1.1v.1l-.1.1v.1l-.1.1-.1.1v.2l-.1.1.1.2v.3l-.1.1-.2.1h-.1v.5l-.2.1h-.1v.1l-.1.1v.8l.1.5h.1-.1l.1.5-.1.1v.3l-.1.3-.1.1v.1h-.1l-.1.1h.6l.2-.1h.1l.1-.1h.2l.1-.1.3-.1.2-.1.2-.2.1-.1h.3v-.1l.1-.1.1-.2.3-.3.2-.1.2-.2.2-.1.1-.1h.1l.2-.1.1-.1h.2v-.1h.3l.1-.1h.3l.2.1h.2l.2-.1h.1l.5-.2.3-.1h.2l.1-.1h.3l.2-.1h.2l.2-.1.4-.2h.3l.4.1h.4v.1h1l.3-.1h.3l.4-.1v.1l-.3.1h-.2l-.1.1.2-.1.6-.1h.8l.6-.2h.1l.3-.1h.1l.4-.1h.2l.2-.1h.1l.2-.1h.2l.3-.2h.4l.2-.1h.7l.3-.2.2-.1.3-.3v-.1l.1-.1.1-.2.1-.1v-.1l.2-.4.1-.1h.1l.1-.1h.1v-.2h.1l.2-.2.1-.1.1-.1h.5l.1.1h.1v.1h.1v-.2h.4l.2-.1v.1h.2l.1-.1.1-.1.1-.1h.2l.1-.1.2-.1.1-.3v-.4h.1v-.1l.1-.3v-.1h.1l.1-.2h.1l.2-.2.1-.1.1-.1v-.1h.1l.1-.1h-.1v-.1l.1-.1.1-.4v-.1l.1-.1.2-.3v-.2l.1-.1.1-.3.1-.2.3-.3.1-.2v-.1h.1v-.1h.1v-.1l.1-.2.1-.1.2-.2.2-.3.3-.4.1-.1.1-.1.2-.2.1-.1.2-.2.1-.1.2-.2.4-.6v-.1l.2-.1.2-.4.1-.1.2-.3.2-.3.1-.1h.1v-.4h-.1v.1h-.1l-.1-.1v-.1l.1-.1v-.1l.2-.2v-.2h-.1v-.2h.1v-.1h.1l.2-.1h.1l-.1-.1-.1-.1-.1-.1h-.1l.1-.1v-.2h-.1v-.1h.1-.1v-.1h.2v.4l.1.1h.2v.4l-.1.1-.1.1h-.1v.2l.1.2-.1.1v.1h-.1v.5l-.1.1-.1.1-.1.1-.1.1.1-.1.2-.1.1-.1.2-.1v-.1l.4-.1.1-.1.2-.1.4-.2.3-.1.1-.1h.1l.4-.3.3-.2.2-.1.1-.1.1-.1h.1l.1-.1h.1l.1-.1.1-.1.1-.1h.1l.1-.1.2-.1.8-.5.2-.1.3-.2.1-.1.1-.1.3-.1.2-.2.3-.1.2-.1.4-.3.2-.2h.2l.1-.1.1-.1.2-.1h.1v-.1h.1l.1-.1.1-.1.5-.2v-.1h.2l.1-.1.3-.2h.1l.3-.2.1-.1.2-.1.2-.1.4-.2.1-.1.1-.1.2-.1.1-.1.3-.2v-.1l.2-.2.2-.2.3-.2.2-.1.1-.1.3-.2v-.1l.4-.3.1-.1.1-.1.3-.2h.1l.1-.1.2-.2.2-.1.1-.1v-.1l.3-.1h.4l.4.1h.5l.1-.1h.1l.2-.1.1-.2.1-.3v-.2l-.1-.1v-.1h-.3l.1.1h.1l.1.3v.1h-.1l-.1-.1h-.1v-.1h-.1v.1h-.7l-.1.1v-.2l.3-.1.1-.1.1-.1h.2l.2-.1v-.1l.1-.1h.1l.1-.1h.1v-.1l.1-.1.1-.2v-.1l.2-.1.1-.1v-.1l.1-.1v-.1h.1v-.1l.1-.2h.1l.1-.2h.1l.1-.1.1-.2v-.1l.1-.2h-.1v-.1l.1-.2.1-.1v-.2l-.1-.1v-.1h-.1v.1l-.1-.1-.1-.1h-.6l-.1-.1-.2-.1-.1.1h-.4l-.2.1h-.1l-.2.1h-.1l-.1.1h-.4l-.1.1h-.2v-.1h-.2.4v-.1h.5v-.1h.1l.1-.1.1-.1h.1v-.1h.3v-.1h.1v.1l.1-.1h.1v-.1l-.1-.1-.1-.1.1-.1.1-.1v-.1l.1-.1v-.2l-.1-.1h.2v.1h.1v.1l-.1.1-.1.1v.2l-.1.1.1.1.1.1h.1l.1.1v.1h.2l.1.1h.4l.3.1.3.1.2.1h.3v.1l.2.1h.2l.1.1v.1l.2.1.2-.3.1-.1h.2v-.1h.1l.1-.1.1-.1.3-.3.2-.3v-.1h.1l.2-.1h.2v-.1h.1l.1-.1.1-.2.1-.1.1-.1v-.1l.2-.1.1-.2.2-.1.1-.1.2-.3.1-.1.2-.1.1-.1h.1l.1-.1.1-.3.2-.5.1-.1.1-.2h.1l.1-.1v-.1l.1-.3.1-.4v-.2l.1-.1v-.1l.1-.1h.1l.1-.2.2-.2.1-.1v-.1l.1-.2.1-.1v-.1l.1-.2h-.1v-.4l-.1-.3v-.2l-.1-.2-.1-.1v-.1h-.3l-.1-.1h-1.3l-.1.1h-.1l-.1.1-.1.1-.3.1-.2.2-.2.1-.1.1-.3.3v.2l-.5.3h-.3l-.3.2h-.1l-.1.2h-.1v.1h-.1l-.1.1-.1-.1v-.1h.3l.1-.1v-.1l.1-.1.2-.1v-.1l.2-.1h.3l.2-.1.1-.1.2-.3v-.2l.1-.1.2-.2h.1l.1-.2h.1l.1-.1.1-.1.1-.2h.2v-.1h.1l.1-.1h.5l.2-.1h.1l.1-.1h.3l.1-.1v-.2h.1l.1.1h.1l.1-.1h.1v-.1l.1-.1.1-.1.1.1h.2v-.1l-.1-.1v-.3h.1l.2.1h.3l.1.1h.2l.1-.1.2-.1.4-.3h.1l.1-.1h.2v-.1h.1l.1-.2v-.1l.1.1h.2l.1-.1.1-.1v-.1l.3-.4.2-.2.1-.1.2-.2.1-.1.3-.3v-.1l.2-.2.1-.2.3-.2.1-.1.1-.1.1-.1v-.2h.1l.1-.1.1-.1.1-.1.2-.1.1-.2h.1l.1-.1.1-.1.1-.1.2-.2h.2l.1-.2h.1l.1-.1.2-.1v-.1l.1-.1.1-.1v-.2h-.1v-.1l-.1-.2h-.1l-.2-.1-.1-.1-.1-.3-.1-.2-.4-.2-.1-.1-.2-.1-.1-.1v-.1l-.1-.1h-.2v-.1h.2l.1.1.1.1v.1l.1.1.3.2h.2l.1.1h.1l.1.1v.1h.1v.2l.3.1v.1h.1l.1-.1v.2l.1.1v.5l-.1.4-.1.1-.5.5-.1.1-.1.1-.5.4-.1.1-.1.1-.1.2-.1.1-.1.1h-.1v.2h-.1l-.1.2h-.1l-.1.2v.1l-.1.1-.3.4v.2h-.1v.1l-.1.2-.2.2v.2h.1v.1h.2v-.1h.5v.1h-.2l-.3.1-.1.1-.2.2v.3l-.2.2-.1.1-.3.3-.2.2h-.3l-.3.1h-.1l-.2.2-.1.2h-.2v.1l-.2.1-.1.1-.1.3-.1.1v.1l-.1.2v.8l-.1.1v.2l-.1.2v.3l-.1-.2v-.2l.1-.1v-.5h-.2v.4h-.1v.5h-.1v.1h.1v.1h-.3l-.2.1h.1v.2h-.3v.1h-.1l-.1-.1h-.1v.1h-.1l.1.1h.1l.4-.1h.3l.2-.1h.2l.5-.1.2-.1.1-.1.2-.3.2-.1.1-.1.4-.4.1-.1.5-.5.1-.1.5-.4.1-.1.1-.1.2-.3.6-.4.1-.1.1-.1h.1l.2-.3.5-.3.2-.2.1-.1h.1l.1-.1.1-.1.1-.1.4-.3.1-.1.4-.3.3-.2.2-.1.4-.3.4-.2v-.1l.3-.1.4-.3.1-.1.1-.1.3-.2.3-.1.2-.1.1-.1.1-.1.1-.1.2-.2.2-.2h.1l.1-.1.1-.1.1-.1.2-.2.2-.1.1-.1h.1l.1-.1.2-.3.1-.1.2-.1.2-.2h.1l.1-.1h.3l.6-.7.1-.1v-.1l.4-.4h.1l.3-.4.2-.1.2-.3h.1l.1-.2.1-.1.2-.1.4-.4.3-.3.2-.1.1-.1h.1v-.1l.2-.1.5-.4.2-.2.2-.2h.1l.1-.2.2-.2.3-.2.1-.1v-.1h.1l.1-.1v-.1l.9-.9.1-.1.3-.3.1-.2.3-.3.2-.2.3-.4.1-.1.1-.1.1-.1.1-.1.1-.1.2-.2.1-.1.1-.1.1-.2.2-.1.1-.1.1-.1.1-.1.2-.2.1-.1.2-.2.1-.1.4-.3.2-.1.1-.1.3-.2.2-.2.2-.1.3-.3.6-.4.2-.1.1-.1.1-.1.5-.4.4-.3.2-.2h.1l.2-.1.1-.1.2-.2.3-.3.2-.2.1-.1v-.1l.1-.1.1-.2.2-.2.5-.6v-.1l.2-.2.1-.2.1-.2v.1h.1v-.1l.1-.2.2-.3.1-.1.1-.1.2-.3.3-.6.1-.1.1-.2.1-.1.2-.2.2-.3.2-.2.1-.1.1-.1.1-.2.2-.2.1-.1.2-.2.1-.1.1-.2.3-.2.4-.4.6-.4h.1l.5-.2.2-.1h.3v-.1h.2l.2.3.1.1.1.1.1.1v.1h.2-.1v.1h.1v.1h.1v.1h.1-.1l.4.4-.1.1-.1.2h-.2v.1h.2l.2-.4-.1-.1-.2-.3v-.1l-.1-.2-.1-.1-.2-.1v-.1h-.1l-.2-.4h-.1v-.1l.1-.4.2-.2.2-.4.6-.5 1-.7.2-.1h.1l.1-.1.1-.1.1-.1.1-.1h.1l.2-.2h.1l.3-.2v-.1h.1v-.1l.4-.2v-.1h.1l.3-.3.2-.1v-.1l.1-.1h.1l.6-.6.1-.1.7-.7.3-.3.1-.1.2-.1.1-.1.1-.3h.2v-.1l.2-.1.2-.2.1-.1.1-.1.1-.1.2-.4h.1l.1-.1.1-.1.2-.2.1-.1h.3v-.1h.1l.1-.2h.1v-.1h.2v-.1h.1l.1-.1.1-.1.1-.1v-.1l.2-.2v-.2l.1-.1h.1l.2-.3h.3l.1-.1.5-.3.1-.1.1-.1.1-.1.1-.1v-.6l.1-.1h-.1v-.1l.1-.1h-.1l-.1-.1-.2-.2-.1-.1v-.1l-.1-.2v-.4l-.1-.2-.2-.2-.1-.3-.2-.2v-.2l-.1-.4-.2.1v-.1l-.2.1h-.2l-.2-.1-.1-.1-.2.1-.1.1h-.1l-.3.2-.1.1h-.2l-.2.1v.1h-.1l-.1.1v.1h-.1l-.7-1h-.1v.1l.1.1.1.1.6.8v.1h-.1l-.1.2-.2.2-.4.1-.4.2-.2.1h-1.2l-.1.1-.2.1-.7.3-.3.3h-.2l-.2.2v.1h-.1l-.1-.1h-.2l-.2.1h-.2l-.1.1-.2.1-.4.2-.2.1-.2.1-.3.2-.4.3-.2.3-.4.3-.1.1-.5.1h-.2l-.4-.1-.3-.2-.1-.1-.1-.1-.1-.1v-.3h-.1v-.1h-.2l-.1-.1-.3-.1-.1-.1v-.1h-.1v-.1h-.1v-.1l-.1-.1h-.2l-.1-.1-.1-.1h-.2v.1l-.1.1h-1.4.1l.3-.1h.1l.1-.1h.8l.1-.1v-.1h-.2l-.1-.1h-.1l-.2-.1h-.4l-.3-.1-.5-.2h-.3l-.2.1-.2.2v.1l-.1.1-.2.2h-.1v.1h-.1v.1h-.2l-.1.1h-.3l-.1.2v.1l-.2.2-.3.2-.1.2-.3.3-.1.1-.2.2-.2.2-.3.2-.2.2-.1.1-.2.1-.1.1-.1.2h-.3l-.1.2-.2.1h-.3l-.2.1-.1.1h-.3l-.1.1h-.1v-.1h-.1l-.1.1h-.2l-.6-.1h-.7l-.1.1-.1.1-.1.1-.1.1v.4h-.1l-.1.1-.1.2v.1h-.1l-.1.1v.2h-.1v.1l-.1.1h-.2v.1h-.2l-.1.1-.1.1v-.1h-.1l-.1.1h-.3l.1-.1h.3v-.1h.1l.1-.1v-.1l-.3.1h-.4v-.1h-.1l-.1.1-.1-.1h.2v-.1h.3v-.1h-.3.1-.8l-.1.1h.1l.1.1h.1v.1h-.1v-.1l-.2-.1-.2-.1-.4.1h-.2l-.1.1h-.8l-.1.1-.5.2h-.2l-.1.1-.2.2h-.1.1v-.1h-.1.1v-.1h-.3l-.2-.1h-.3l-.2-.1-.1-.2-.4-.2-.2-.1-.1-.1-.2-.2-.1-.1-.1-.1v-.1l-.1-.1v-.1l.1.1.1.1v.1l.1.1h.1l-.1-.1v-.4h-.1l-.1-.1h-.1l-.1-.1h-1l-.1.1h-.2v.1l-.2.1-.2.2-.1.1h-.2v-.1h-.1v-.1h-.1l-.1-.1v-.1h-.1v-.2h.1l.1.1h.1v.1h.1v-.1h-.1v-.1l.1-.1h.1v.1h.1l.1.1h.1v.1-.1h.1v.1h.1v-.1l-.1-.1-.1-.1-.1-.2v-.7l.1-.1-.1-.3-.1-.1-.1-.3-.1-.3-.2-.3-.1-.2-.1-.2h-.1l-.2-.3-.1-.2-.2-.1v-.1l-.1-.1-.1-.2-.1-.1v-.1h-.1l-.1.1-.2.1-.1-.1-.2.1v-.1h-1.2l-.1-.1-.1-.1v-.4h-.4v-.1h.2l.2-.1v.1l.1.1-.1.1v.1l.1.2v.1l.2.1h.3l.2-.1h.2l.1.1h.1v-.1l.2.1.2-.1.2.1h.1v-.1l.1-.1h.1v.1h.1l.1.2.1.2.1.1.2.2.2.2.3.5.2.3.2.2.1.2v.1l.2.4v.2l.1.3v.2l.1.2.2.2v.1h1l.2-.1h.1l.1.1.1.1.1.1v-.3l-.1-.1h.2l.1.1.1.1v.2h-.1l-.2.2v.1l.1.1v.1l.1.1v.1h.1l.1.2.1.1.2.1.4.2.1.1.1-.1h.1l-.1.1h.1v-.1l.2.1h.8l.1-.1h.2l.2-.1.7-.2.1-.1.1-.2v-.1h-.1l-.1.1h-.1l.1-.1.1-.1h.1v-.1h.2l-.1.1-.1.3-.1.2h.5l.2-.1h.1l.5-.1h.1l-.1-.1v-.1l-.2-.1h.2l.1.1h.1l.2.1.3.2h.3l.2-.1.1-.1.2-.1.4-.2.1-.1.1-.1v-.3h-.1v-.1h-.1l.1.1h-.1l-.1-.1v.1h-.1l.1-.2.2-.3h.1l.3-.2v-.1l.1-.1h.2v-.1l.3-.1h1.1l.2-.1.1.1.3.2.2.1h.3l.1-.1.2-.1.1-.1.2-.1.3-.1v-.2h-.1l.1-.1-.1-.1h.2l-.1.1v.2l.2-.1.1-.1.1-.1.1-.1.1-.2-.1-.1h-.2l.1-.1h.1l.1.1h.1l.2-.1.1-.1.1-.1.2-.1.1-.1.1-.2.3-.2v-.1l-.1-.1-.2-.2v-.1l-.1-.1v-.4l.1.1v.4l.1.1.1.1.1.1.1.1h.3l.2-.1v-.1h.3v-.1l-.1-.2v-.6h.1v-.1l.2-.1.1-.1h.2l.1-.2h.1l.3-.1h.1l.1-.1.2-.1h.7l.2-.1h.4l.1.1.1-.1v.1h.2l.1.1h.3l.4.1.1.1.1-.1v.1h.1v-.1h.4l.1.1h.3l.1.1v.1l.1.1.1.1h.1l.1.1.1.1h.1v.3h.1l.1.1.1.1.1.1v.2l.2.2h.2l.2.1h.1l.1-.1.1-.2.1-.1.2-.5h.1v-.1l.1-.1h.1l.2-.2.3-.1.1-.1v-.1h.3v.1h.3l.1-.1.1-.1.1-.1.2-.1.2-.1.2-.1v-.1h.3l.2-.1.1-.3.1-.2v-.1l.1-.1v-.1l-.1-.1v-.1h-.1v-.2l.2-.2.1-.1v-.1h.1v-.1l.1-.1.1-.1h.1l.1-.1h.2l.1-.1h.6l.1.1.2.1h.1v.1l.2.1.2.2h.2l.1-.1.1-.1h.1l.2.2.1.1h.1v-.1l-.2-.3v-.1l.1-.1v-.2l-.1-.3v-.2l.1-.2v-.2l.1-.1.1-.1h.1v-.2l.2-.2h.1l.1-.1.1-.1h.2l.3-.1h.1l.1-.1v.1h.1l.2-.1h.2l.1-.1v.1h.3l.1.1v.1h.2l.1.2.1.1h.1l.1.1v.1h.1v.1-.1l.1.1.1.1h.1v.1h.1l.1.1.3.3h.1l.1.1v.1h.1l-.1.1v.3l-.2.2-.1-.1h-.3l-.1.2-.1.1v.3l.1.1h.2l.2-.1.1-.1.1-.1.2-.1.2-.1.4-.2.1-.1v-.1l.2-.1.1-.1.1-.1.1-.1.2-.2h.1l.6-.4.3-.1.1-.1h.1l.1-.1.3-.1.2-.1.3-.2.2-.1.3-.2h.2l.3-.2.2-.1.2-.1.2-.1.2-.2.2-.1v-.1l.5-.3.3-.1.2-.1.3-.2v-.1l.3-.3.1-.1v-.4h-.1l-.1-.1-.1-.2-.2-.2-.1-.2v-.8l-.1-.5-.1-.2-.1-.2-.1-.1h-.1v.1h.1l.1.1.1.2.1.4v.8l.1.1v.3l.1.1.1.1.1.1v.1h-.3l-.1-.1-.1.1-.1-.1-.4-.1h-.6l-.6-.3-.2-.1-.1-.1-.1-.1h-.1l-.2-.1-.4-.1-.3-.1-.2-.1h-.3l-.2.1-.2.1-.1.1-.1.1h-.1l-.2.1-.1.1-.2.1-.2.2h-.1l-.3.2h-.1l-.1.1h-1.3l-.1.1h-.2v-.1h-.2l-.1.1-.2-.1h-.1l-.1-.1v-.1h-.1l-.1-.2-.2-.2-.1-.2-.1-.1h-.6l-.2-.1-.2-.1v-.1l-.3-.2-.1-.1-.1-.1v-.3h.1v-.1h.1l.1-.1.2-.2v-.1h-.1l-.1.1v.1h-.2l-.1-.1h.3-.1l.1-.1h.2v.1l-.2.2v.1l-.2.1-.1.1v.1l.1.1.1.1.3.2.2.2h.1l.2.1h.4l.2.1.1.2.2.1v.1l.1.1.1.1.2.2h.5l.1.1h.1l.3-.2.2-.1v-.1l.1-.1h.1l.1-.1h.2l.1-.1h.1v-.1h.2l.2-.1v-.1h.1v-.1h.1l.2-.2h.2v-.1l.1-.1.1-.2.1-.2.1-.1v-.4h-.1l-.1-.1v-.1l-.1-.1.1.1h.1v.1h.1l.1.1h.4l.4-.1h.5l.1-.1h.1l.1.1h.1l.2.1v.1h.1l.2.1v.1h.6l.2.1h.1l.2.1.1.1h.2v-.2h-.2l-.1-.1v-.2l.1-.1h.2v-.1h-.6v.1h-.2v-.1l-.1-.2-.2-.1h-.1l-.1.1h-.1v.1-.2h-.1l-.1-.1v-.3l-.1-.1h-.3l-.1-.1-.2-.1h-.2v.1h-.2l-.1-.1h.1v-.1l.1.1.1-.1v-.1h-.2l-.1-.1h.1v-.1l.2.1.1.1h.8v-.2h-.7v-.1h.1l.1-.1h.2l.1-.1h.2v-.2h.1v.1l.1.1h.2l.1.1v.2h.1l.1-.2h.1v.1h.4l.3-.1h.1l.1-.2-.1-.1h-.2v.1h-.1v.1h-.1l-.1-.1h-.1l-.2-.1v-.1h.1l.1-.1h.5l.1-.1.1.1h.1v.1h.2v-.4h.2v-.1l-.1-.2-.2-.2h-.1l-.2-.3-.1-.1v-.1l-.2-.2v-.5l-.1-.4-.1-.2-.1-.4-.2-.1-.1-.1-.2.1h-.3l-.1-.1h-.2v-.1h-.5l-.1-.1h-.1l.1-.1h-.1l.1-.1v.1l.2.1.1-.1.1-.1h.3l.2.1.2.1h.2l.1-.1v-1.2l-.1-.3.1-.1.1-.1v-.4l-.2-.3v-.2l-.2-.3-.1-.1-.1-.1h-.2v-.1h-.2v-.2h.1-.1l-.1-.1-.1.1h-.1l-.2.1h-.1v-.1h-.1l-.1-.1h-.4l-.1-.1h.1l.1.1h.2v-.1h.2v.1l.1.1h.1v-.1h.6v.1l.1.1.4.1.1.2.1-.1-.1-.1h-.1v-.1l.1.1v-.1h.1v.1l.2.4.1.1v.1l.1.1v.3l.1.1v.1l.1-.1.1.1v.2l.1.3v.2l.1.3v.3h.1l.1.1.1.1v.4h.1l.2.1.1.2.1.2.1.1h.2l.1.1.2.2h.1l.3.2v.1h.1v-.2l-.5-.3-.1-.1v-.1h.4v-.3l.1-.1.2-.1h.1l.1-.1h.5l.1-.1h.1l.2-.1h.3l.2-.1.2-.1v-.1h.1v-.2h.2v-.1l.1-.1.1-.1h.1v-.1l.1-.1-.1-.1v-.2l-.1-.1h.1l-.1-.1v-.1h-.1v-.1l.1.1.1.1h.2v-.2l.1-.1h.3l.1.2v.1h-.1v.1l.1.1.2.1h.2v-.2l-.2-.4-.1-.1h-.2l.1-.1.1.1.1.1v.1l.1.1.1.1v-.2l.1-.2v-.8h-.1.1l.1.1v.1h-.1v.1l.1.1v.4h.2l.1.1.1.1.2.2.1.2.1.1v.1l.1.1h.5l.1-.1.3-.1v-.4l-.1-.1h-.2l-.1-.2v-.3h.1l.1-.1v-.2l.1-.1.1-.2v-.2h-.1v-.1l.1-.1.2-.1.2-.1.2-.2h.1l.1-.1.1-.1v-.2h.1v-.1l.1-.1h.1v-.1h.1v-.2h.1l.1-.2h.1v-.1l.3-.2.1-.1.2-.1v-.1l.1-.2v-.2l-.2-.1-.1-.1h-.1v-.1l-.2-.1v-.3l.2.1v.1h.1l.1.1h.2v.2l.1.1h.3v-.1l.2-.2.1-.1v-.3l.1-.2v-.4l.2-.2.1.1.1-.1h.1l.1-.1.1-.1.2-.2.1-.2h.1l.1-.1.2-.2v-.1l.1-.1.2-.2v-.1h.1v-.1h.1v-.1l.1-.1v-.2l.1-.1v-.1h.1v-.1h.1v-.2h.1v-.1.1h.1v-.2h.1v.1l-.2.2v.2h.1l.1-.1v-.2h.1v-.1h.1v.1l-.1.2.1.1v-.1l.1-.1.1-.1h.1v.3l-.2.2-.1.2-.2-.1v-.1l.1-.1v-.1h-.1v.1l-.1.1h-.1v-.1l-.1-.1v.2l.1.1h.2l.1.1.1.1.4.2h.2l.2-.3-.1-.1h.2l.1-.2h.1l.3.2-.1.1.1.1v-.2l.2.1-.1.2-.1-.1v.1l.1.1-.3.4-.2-.1v.1l.2.2.5-.9-.3-.1v-.2l-.5-.2-.5-.4h-.1l-.2-.1.1-.2v-.1l.1-.1v-.2l.1-.2.1-.1.1-.1.1-.1h.1v-.2l.1-.1v-.1l.1-.1v-.1h.1l.1-.1.3-.5.2-.3v-.1h.1l.3-.6v-.6l.1-.3h-.1v-.5l.1-.1h.2l.1-.1.1-.1.2-.1.1-.1v-.1l.2-.2h.1v-.1l.3-.4h.1l.1-.1.1-.1v-.2l.2-.2h.1l.2-.2.3-.3.1-.1v-.1l.1-.3v-.1h.1v-.1l.2-.2v-.1l.1-.1.3-.3.2-.2.2-.1v-.1l.5-.5.1-.1h.1l.5-.4.2-.1.1-.1.2-.1.4-.2.6-.4v-.1l.2-.1.3-.2.1-.2.2-.1.3-.2.1-.1.1-.1h.4l.3-.1h.4l.1.1h.1v.1l.1.3v.1l-.1.3.2.4-.1.1-.2.1v-.1l-.1.1.4-.1-.1-.5.1-.3.2.7.1.2h.1v-.1l-.1-.1v-.1l-.1-.3-.1-.2-.1-.1v-.1l-.1-.2-.1-.2-.1-.4v-.1l-.1-.1h.1v-.2l.1-.2.2-.2.2-.1.1-.1.2-.1.3-.1.1-.1.1-.1.1-.1h.1l.1-.1.3-.1v-.1l.2-.1v-.1l.1.1.4-.4.2-.3.1-.3.1-.1v-.1l.1-.2.1-.1.1-.1v-.1h-.1v-.1h-.1v-.1l-.1-.1h-.1v.1l.1.1-.1.1-.1-.1-.1-.1-.1-.1.1-.1-.1-.1v-.2h-.1v-.1l-.1-.2v-.3h.1v.4h.1v-.1h.1v.1-.1h.1v-.6l-.1-.1h-.1v.3l.1.2h-.1v-.5l-.1-.1h-.5l-.1.1h-.5l-.1.1v-.1h.1v-.1h.1v-.1h.6v.1h.1v-.1h.2l.1.1h.2v-.1h-.2.2v.1l.1.2v.9l.1.1.1.1.1.2.1.1v.1l.1.1.1.1.3.2.1.1.2-.1h.2l.1-.1h.2l.4-.1.2-.1.2-.1v-.1h.1l.3-.1.1-.1h.2l.2-.1.1-.1h.2l.3-.1.3-.1.3-.1.2-.1h.3l.1-.1.3-.1h.2l.2-.1.4-.1.3-.1h.1v-.1l-.1-.1v-.1h.2v.2h-.1.2v-.1h.2l.2-.1-.1-.1h-.1v.1-.1h-.1l.1-.1v-.1h.2v.2l.1-.1h.2v-.1l.2-.1h.1l.1-.1.2-.2h.1v-.1l.1-.1h.2l.1-.1h.2v-.1h-.1l-.1-.1.1-.1h.3v-.1l.2-.1h.1l.2-.1.1-.2.1-.1v-.1h-.2v-.1l.3-.2h.1l.1-.1v.1h.1v-.2h.1v-.1h.1v.1h.1l.2-.1.1-.1.3-.3.1-.2.1-.1.1-.3v-.1l.2-.5-.1-.1h-.2l-.1-.1v-.1l.1.2h.1v-.1l.1-.2.2-.4.2-.2v-.1h.1l.1-.1v-.1l.1-.1.1-.1.3-.2v-.1h.1l.1-.2.2-.1v-.2l.5-.4.4-.2v-.1l.2-.2.1-.1v-.1l.1-.1.1-.2.2-.2.3-.3.1-.1.1-.2.2-.1.1-.1h.1v-.2l.2-.2v.1h.1v-.1l.2.1v-.3h.1v-.1l.1-.1v-.1h-.3l-.1-.1-.1.1h-.1v-.1l.1-.1h.1l.1-.1v-.3h.1l-.1-.1v-.2l.2-.3.1-.2v-.1l-.1-.1v-.3l.1-.1.1-.3.1-.2v-.2l.1-.2v-.4l.1-.1h.1v-.1h-.1v-.1h-.1l.1-.1.1-.1v-.2l.1-.2v-.2h-.1v-.1h-.1v-.2l.1-.1.1-.1v-.2l.1-.3v-.2.4l-.1.1.1.1v.1h-.1v.1l-.1.2v.1l.1.1.1.1v.1l-.1.1v.2l-.1.1.1.5-.1.1v.3l-.2.2v.1l.1.1-.1.1h-.1v.1h.1l-.1.2v.2h-.1v.1h-.1.1v.1h.2v.2l.1.1v.2l-.1.2-.1.1-.1.4v.8h-.1v.1l.2.1.2.1.1.1.4-.1.2-.1.5-.2h.7l.3-.1.4-.1h.1l.2-.1h1.7l.1-.1h.6l.1-.1h1.1l.2-.1h.2l.2-.1h.2l.1-.1h.8l.1-.1h.3l.2-.1h.3l.2-.1v-.1l-.1.1h-.2l-.1-.1v-.1h.1v-.2l.1.1.1-.1v-.1h.2v-.1l.2-.2-.1-.1v-.1h.1v-.1.2h.2l.2-.1.2-.1h.2l.1-.1.1-.1.1-.1h.1v-.2h.1l.1-.1h.5l.2-.1h1l.2.1h.1l.1-.1h.6l.3.2.1.1.1.1h.1l.3.1.2.2.3.2h.1l.1.1.1.1h.1l.2.1h.3l.2.1h.5l.3.1h.1l.1.1h.1l.1.1.2.1.1.1v.1l.2.1.3.1.2.1v.1h.1l.1.1.1.1.1.1.2.1.3.1.1.1h.4v.1h.2l.2-.1v.1h.5l.1.1v.1l.1.1v.1h.2l.1-.1h.2l.1-.2.2-.1.3-.2.1-.1.1-.2.2-.2.1-.1.1-.2.1-.1.2-.4.1-.1h.1v-.1l.2-.2.2-.1.1-.1v-.3l-.1-.1h-.2l-.3.1-.1-.1h-.1v-.2l-.1-.1.1-.2v-.2l-.1-.1v-.7l-.1-.2v-.2l-.1-.1v-.1l-.1-.1v-.1l-.1-.1v-.1h.3l.1-.1h.4l.1-.2v-.1h.1v-.2l.1-.2v-.1h-.1l-.1-.2-.1-.1v-.2h-.1v-.3l.1-.2.1-.1.1-.1v-.1h.2v-.1l.1-.1.2-.1.1-.1v-.1h.1l.2-.2.2-.1.1-.1h.2l.1.1h.6l.1-.1h1.2v-.4l.1-.1.1-.1h-.1l.1-.1h.1v-.2l.1-.1h-.4l-.1.1h-.1l-.1.1h-.1l-.1.1h-.1l-.1.1-.1-.1h-.2l-.1.1h-.1v-.1l-.1-.1-.1-.1h-.1l-.1-.1v-.1h-.1l-.1-.1h-.2l-.1-.1v-.1h-.2l-.2-.1h-.1l-.3-.2-.2-.2-.2-.2v-.2l-.1-.1h-.1l-.1-.1h-.1l-.1-.1h-.1l-.1.1-.1.1-.1.1v.3l-.1.1-.1.1h-.1v.3-.1l-.1-.1v-.1h.1l.1-.1.1-.1v-.2l.1-.2v-.2h.1l.1-.1h.4l.2.1.1.1.2.1.1.1h.3l.1-.1-.1-.1h.1l.3-.1h.2v-.3h.1v-.5l-.1-.1-.1-.1-.1-.1h.1l.1-.1v-.4l.1-.2v.1h.2l.2.1.1-.1-.1-.2v-.1l.1-.1h.1l.2-.1v-.1h.2l.1-.1h.1v-.2h.1v-.1l.1-.1h-.1l-.1-.1h-.1l-.1-.1v-.1l-.1-.1.1-.1h-.1v-.1l-.1-.1-.1-.1h.1v-.3l.1-.1.2.1v-.1h.1v.1h.1l.1-.1.1-.1v.1h.2l.1-.1h.1v-.1h.4l.1-.1h.1l.1-.1.1-.1.1-.1v-.1l.1-.1.2-.2h.1l.1-.1.2-.4v-.2l.1-.1v-.2l.1-.3v-.4h-.1v-.1l-.1-.1v-.1l-.1-.2v-.1h-.1v-.1l-.1-.1v-.4l.1-.1v-.1l.1-.1v-.9l.1-.1v-.2h.1v-.1l.1-.1v-.3l.1-.1v-.2l-.2-.1v-.2l-.1-.1-.1-.1v-.2h-.1v-.2l-.1-.1v-.1l-.1-.7v-.4l-.1-.1v-.1l-.1-.3-.1-.5v-.4l-.1-.5v-.3l-.1-.2v-.1l-.1-.1v-.1h-.1v-.2h-.1v-.9h-.1v-.1l-.1-.1h-.3l-.4-.1-.1-.1v-.2l-.1-.1v-.1h-.1v-.1h-.1v-.1l-.1-.1h-.2l-.1-.1-.2-.1h-.3l-.2-.3h-.3l-.1.1-.1.2h-.1l-.1.1h-.3v.2h-.2v-.1l-.2.1v.1h-.1l-.1.1v-.1h.2v-.2l.1-.1h.1l.1.1h.1v-.2h.1l.1.1h.1v-.2l.1-.1.1-.1.1-.2v-.1l.1-.2h.1l.1-.2.2-.1v-.1h.1v-.2l.3-.2h.1v-.1l.1-.1.1-.3v-.3l.1-.1v-.3l.1-.1.1-.2v-.1l.1-.2.1-.1.1-.1.3-.1h.2l.2-.3.1-.2v-.6l.1-.1v-.7l.1-.3v-.7l.1-.2v-.2l.1-.1v-.2l.1-.1.2-.2.4-.3.1-.1.1-.1.1-.1h.1v-.1l.2-.2.1-.3v-.3l-.1-.2v-.6l-.1-.1.1-.1v-.3l-.1-.1v-.7l-.1-.1v-.2l.1-.1h.1v-.6h-.1l-.1-.1h.1v-.1h.2v-.1l.1-.3v-.1l.2-.3.1-.1.1-.1.2-.2.2-.2v-.4l.1-.3v-.4l.2-.5.1-.2v-.1l-.1-.2-.1-.1-.1-.1-.2-.2-.3-.1-.1-.2-.3-.2-.4-.3h-.1l-.3-.2-.1-.1-.1-.1-.6-.3-.1-.1-.1-.1h-.3l-.1.1-.4.1h-.1l-.1.1-.3.2h-.3l-.2.1-.1.1v.2h.1v.1l-.3.3-.1.1-.4.2-.3.3-.3.1-.2.1-.2.1h-.4v.1h-.1l-.1.1v.4l-.1.8-.2.5-.2.6-.1.3-.1.2-.1.1-.1.2-.2.2-.3.3-.4.2-.2.2-.3.3-.2.3-.2.1-.2.2-.1.1-.4.3-.3.3-.1.1h-.1l-.1.1v.3l-.1.2v.1h-.1l-.1-.1.1-.1v-.1l.2-.1v-.1h-.2l-.3.1h-.8l-.1-.1h-.2v.3h-.1v.4l-.1.1h-.1l-.1.1-.2.3-.1.1-.2.1v.1l-.1-.1h-1.1v-.1l-.1-.1v-.1l.2-.2v-.1l-.1-.1h-.3l-.1-.1h-.1v-.1l.1-.2h.3v-.3h-.1l-.1.1-.1.1h-.1l-.1-.1v.1h-.8l-.1.1-.1.1.1.3h-.1v.1h-.1v.4-.1l-.1.1v.1h-.1l-.1.1-.2.1h-.2v.1h-.2l-.1.1-.2.1-.2.1-.1.3v.1l-.1.2v.1l-.1.1h-.1l-.1.2-.1.1h-.1v.1h-.1v.1l-.1.1-.1.2-.1.2.1.1-.1.1v.2h-.1v.3h.1v.5h-.1v.3h.1l.1.1h.1v.1l-.2.1-.1-.2h-.2l-.1-.2-.2-.2-.1-.1h-.1l-.1.1h-.2v-.1.1h-.1l-.1-.1v-.1h-.2v.3l.2.2v.1h.1l.1.2v.1l.1.1h.1v.2h-.1v.1l-.1.1v.2l-.1.1-.1-.1v-.3l-.1-.2-.2-.3h-.1l-.1.1h-.4v.1h-.1l-.3.1-.1.2h-.1l-.1.1-.1.2-.1.2h-.1l-.1.1-.1.2-.1.1h-.1l-.1.2-.1.1-.2.1-.2.2v.1h.1-.3l-.2.1h-.1l-.2.2h-.1l-.1-.1-.2-.2-.2-.1-.3-.2-.1-.1h-.6l-.1-.1h-.6l-.1-.1h-.2l-.2.1-.3.1-.1.1-.3.1h-.1l-.1.1-.1.2-.2.1-.2.1-.2.3-.3.2-.1.1-.1.1v.2h-.1l-.1.1-.1.1-.2.2h-.2v-.1h-.2l-.1.1v.1h-.2v-.1h-.1.3v-.1h.4v-.1l.1-.1.1-.1.1-.1.1-.2v-.2l.1-.1h.2l.1-.1.3-.3v-.2l.1-.1.2-.2.3-.2v-.1l.1-.1v-.2h-.7l-.1-.1-.1-.2v.3l-.1.1-.1.1h-.3.2v-.2h.1l.1-.1.1-.1v-.1l.1-.1v-.2.1h.1v.2h.4v.1l.1-.1h.1l.1.1v.1h.3v-.1l.1.1h.1l.1.1h.1l.2-.1.1-.1h.3l.1-.1h.5l.2-.1.1-.1h.3v-.2l-.1-.1.1-.1h.1l.1.1.1.1h.1l.2.2.1.1.1.1h.1l.1-.1v-.3l.2-.2.1-.1.1-.1-.1-.1v-.3h-.1l-.1-.2v-.1l.2-.2v-.2l.2-.1.1-.1.1-.1h.1v-.1h.1v-.1l.1-.1v-.1l.3-.2.1-.1v-.3l-.1-.4-.1-.3h-.4l-.1.1-.1.1-.1.1h-.3v-.1l-.1-.2h.1l.1.1h.2v-.1l.3-.2.2-.1v-.2l-.2-.1h.3l.1-.1h.1l.2.1h.1l.2-.1h.2v-.1l.2-.1.1-.1v-.5l-.1-.1v-.3l.2-.2h.1l.1-.1.1-.1.1-.1.1-.1h.2l.1-.1.2-.4.1-.1h.9l.1-.1h.1l.2-.1h.2v-.1l.1-.2.1-.1.4-.2h.1l.1-.1v-.4l.1-.1.1-.2.1-.1.1-.1.1-.1.1-.1h.1l-.1-.1-.1-.1v-.2l-.2-.2-.1-.1-.2-.3v-.1l-.2-.1v-.1h-.2l-.1.1h-.8l-.1.1h-.4l-.5.1-.2.1-.3.1-.3.1-.1.1-.3.1-.1.1h-.2l-.1.1h-.6l-.1.1h-.1l-.3.1h-.1l-.1.1-.4.3h-.1l-.1.1-.2.1h-.1l-.1.1-.1.1-.2.1v.1l-.1.1h-.1l-.1.1v.1l-.1.1h-.3v.1h-.2l-.2-.1h-.1l-.1-.1-.3-.4v-.1l-.2-.2-.1-.2-.2-.3-.2-.3-.2-.1v-.7h.1v-.1h-.1v-.1h-.1v.1h-.2v.1h-.3l-.1-.1-.2-.1-.2-.1-.1-.1h-.2l-.2-.2h-.1l-.2-.1-.1-.1-.2-.1h-.6v-.1l-.1-.1.1-.1v-.1l-.1-.1v-.2l-.1-.2-.1-.1-.1-.2h-.1v-.1l-.1-.1-.2-.1h-.2l-.1-.1-.1-.1-.1-.1-.2-.1h-.7v-.1l-.1-.1v-.7l-.1-.1-.1-.1-.3-.2-.2-.1h-.1l-.1-.1-.3-.1-.3-.1h-.7v.1l-.3.1h-.2l.1-.1.1-.1v-.1h.1v-.8l-.2-.1-.1-.1-.1-.1-.5-.4-.4-.1-.2-.1h-.1l-.7-.1h-.2l-.1.1-.1.1-.1.1-.2.2-.3.1-.2.2-.2.1-.2.1-.1.1-.1.1h-.1l-.1.1-.1.1h-.2v.1h-.2l-.1.1-.1.1-.1.1-.1.1-.2.1-.1.1h-.4l-.2-.1h-.3l-.2.1h-.3l-.2.1-.1-.1h-.2l-.1-.1h-.3l.2-.1h.6l.3-.1h.2l.1-.1h.1l.4-.1h.1v.1h.1l.2-.1.1-.1h.1v-.1l.4-.2.1-.1h.1v-.1l.1-.1v-.1h.3l.1-.1.1-.1h.1l.1-.2.1-.1h.1v-.2l.2-.2.1-.1.2-.1.2-.2.2-.2.1-.1.1-.2h.5l.2-.1.1-.1.1-.1.1.1.1.2h.1l.1.1.2-.1.1-.1h.2l.2.3h.2l.2-.3v-.1l.1-.1h.2l.1.1h.3l.1.1v.3h.6l.1-.1.1-.1h.1l.1-.1v-1l-.1-.1V559l-.1-.2v-.1l-.1-.1v-.2l-.1-.1.1-.1-.1-.1-.2-.3-.2-.1-.3-.2h-.4l-.1.1h-.1v.1h-.2l-.3.4v.1h-.1l-.1-.2v-.1h-.1v-.1h-.1v-.2l-.1-.2v-.3l-.1-.1-.1-.1-.2-.2v-.1h-.1l-.2-.2-.2-.1-.2-.1h-.2l-.5.1h-.4l-.1.1h-.3l-.1.1h-.2l-.1-.1h-.2l-.2-.1h-.5l-.1-.1h-.5l-.3.1-.2.1h-.9l-.3.1-.1.1-.1.1v.2h-.1v.1h-.1l.1.2h-.1v.1h-.2l-.1.1v.1h-.1v-.2h.1v-.1l.1-.1h.1v-.1l-.1-.1-.2-.3-.1-.3h-.1l-.1-.1-.3-.1h-.6l-.1-.1h-.9l-.5-.1h-.3l-.1.1-.2.1-.1.1-.1.1h-.2l-.1-.1v-.2h-.1l-.1-.2-.1-.2h-.1l-.3-.1-.3.1-.3.1-.1.1h-.1v.1h-.1l-.2.1h-.3l-.1.1h-.1v-.1l.2-.1.1-.1h.1l.2-.2.1-.1v-.4l.1-.1-.1-.1-.1-.1-.1-.1-.1-.1-.1-.1h-.4l-.2-.1-.1-.2h-.2v-.2h-.1l-.3-.4v-.1l-.1-.1-.1-.4v-.3l-.1-.1-.4-.2-.3-.1-.2-.1h-.5l-.2.1h-.2l-.3.2-.2.1h-.1l-.2.1h-.2l-.2.2h-.1l-.1.1v-.2l-.1-.1v-.2l-.1-.1h-.2v.1l-.2.3-.1.1v.1l-.1.1v.5l-.2.2v.2l-.1.2-.1.1h-.1v.1l-.1.1-.1.1v.2l-.1.4v.1l-.1.1v.2h-.1v-.9h.2l.1-.1-.1-.1h-.1v-.1l.2-.6v-.2l.1-.2v-.1l.1-.1v-.2l.2-.2v-.2l.1-.1v-.2l.1-.6v-.7l-.1-.1-.1-.2-.4-.3h-.2l-.1-.1-.3-.1h-.8l-.2.1h-.3l-.4.2h-.1l-.1.2-.1.1v.8l.1.2h.1v.1l-.1.1h-.1l-.1-.1-.1-.1h-.1l-.1-.2-.1-.1h-.1v-.1l-.3-.2h-.4l-.2.2-.3.2-.9.5h-.1l-.3.2-.1.2h-.4v.1h-.2l-.1.1h-.2l-.1.1h-.1v.1h-.1l-.2.2-.1.1-.1.1v.1l-.1.1v.5l.1.1v.1l.3.6.1.2.1.4.1.4v.6l-.1.2-.1.2v.1l-.1.2v1.4l.1.1v.1h.1l.1.1v-.2h.4l.3.1h.2l.2.1h.1l.2.1h.1l.1.2.1.1h.2v-.1h.2v.1l-.2.2v.5l.1.2v.2l-.1.1v.1l-.1.1v-.2l.1-.1-.1-.2v-.1h-.1l-.1-.2-.2-.2-.1-.1h-1.2v.1h-.3l-.4-.2h-.1l-.2-.1h-.1l-.2.1h-.2l-.1.1h-.2l-.2-.1h-.1v-.1h-.1v-.1l-.4-.3-.2-.1h-.1l-.3-.1-.2.1-.3.1h-.2l-.2.1-.1.2-.1.2h-.1l-.1.1-.1.1-.1.1-.2.1-.1.2h-.1l-.2.1v.1l-.2.5v1.1l-.1.1-.2.6-.1.3-.2.2-.3.3v.4-.1h.1l.1.1v.2h-.6l-.1.1-.2.1-.4.4-.1.3-.1.2v1.1l-.1.1v.1-.2h-.1v-.6l-.1-.2-.1-.2v-.4l.1-.1v-.1l-.2-.2-.1-.2-.1-.1.1-.2v-.2l.1-.4v-.1h.2v-.1l-.1-.1-.1-.1-.1-.2.1-.1v-.1h.1-.3l-.4.4h-.1l-.1.1h-.1l-.1-.1h-.1l-.2-.1-.2-.1-.1-.1-.1-.1h-.1l-.1-.1v-.1l-.1-.1-.1-.1h-.2l-.2.2v.1l-.1.1-.1.2-.1.2v.1l-.1.3v.2l-.1.1v.2l-.2.3-.1.1v.1l-.3.3-.1.1-.1.1-.1.2-.4.3-.6.5-.1.1h-.1l-.2.1h-.1l-.2.1-.1.1h-.1l-.2.1v.1h-.2l-.2.1v.1l-.1.1-.1.1-.1.1v.1h-.2l-.3-.1-.2.1h-.4l-.1.1-.2.1v.1l-.1.2-.1.2-.1.1v.1h.1l.2.1.1.1.2.1.1.1.1.2.1.2.1.3v2.7l-.1.1-.1.2-.1.1v.6l.1.1.1.2.5.2.1.1h.2l.1.1.1.1v.3l-.1.1v.2h.1v-.1h.1v.1l-.2.1v.1h-.2l-.3-.1h-.7l-.2-.1h-.3l-.2.1-.1.1v.1l-.1.1.1.6v.4l-.1.2-.1.3v.1l-.1.1-.1.1v.1l.2.1h-.1v.1l-.2-.2h-.1l-.1.2h-.1l-.1.1-.3.1-.2.3-.1.2-.1.1-.1.1-.1.1-.1.2-.1.2-.1.3v.4h-.5l-.1-.1-.1-.1-.4-.1-.1-.1h-.2l-.2.1h-.3l-.2.2-.2.1v-.1h.1l.1-.1h.1v-.1h-.1l-.2.1-.1.1-.3.4-.1.1-.1.1-.2.3h-.2l.1-.1.1-.1.2-.2.4-.4v-.1l.1-.1.2-.1h.3l.1-.1h.1l.2-.1h.5l.3.2h.1l.1.1.2.1h.2l.1-.2h-.5.2v-.1l.1.1.1-.1v-.2l.1-.2v-.2h-.1v.4h-.1v-.3l.1-.1.1-.2.1-.1.2-.3v-.1l.2-.2.1-.1.2-.1.2-.1.1-.1.1-.1.1-.1.2-.2.1-.2.1-.1v-.9l-.1-.2v-.2l.2-.4.1-.2h.1v-.1l.3-.1.2-.1h.2l.1-.1h-.1v-.1l-.1-.2-.1-.2-.1-.1v-.2l.1-.2.1-.3.1-.3.1-.2v-.9l-.1-.1v-.3h-.1l-.2.1-.2.1h-.1l.1-.1.2-.1.1-.1.2-.1v-.3l-.1-.1v-.2h-.1l-.1-.1h-.2l-.1-.1v-.1l-.1-.2-.2-.1h-.1l-.1-.1h-.1l-.2-.1h-.1l-.2-.2v-.2l-.1-.2h.1v-.1h.1v-.1l.2-.1.2-.1.1-.1v-.2l-.1-.2v-.2l.1-.1v-.2l-.1-.1-.1-.1-.8-.2h-.3l-.2-.1h-.4l-.5.1h-.2l-.1.1h-.8l-.3.1-.5.2h-.1l-.3.2h-.2l-.1.1-.5.2-.3.2-.2.1-.3.1-.4.2-.4.2-.2.1-.2.1h-.1l-.6.3-.4.1-.5.1h-.4l-.1.1-.4.1h-.2l-.5.1-.2.1h-.3l-.1.1h-1.3l-.4.2v.1h-.7l-.5.1h-.1l-.5.1h-.3l-.1.1h-.1l-.1.1-.4.1-.2.1h-.1l-.2.1-.2.1-.2.1-.3.3h-.2v.1h-.1l-.2.1-.2.1-.3.2-.1.1h-.1l-.2.1h-.1l-.2.1h-.1l-.2.1-.1.1v.1h-.1l-.1-.1-.1-.1h-.2l-.6.1h-.9l-.4-.1h-.5v-.5l-.2-.2v-.1h-.1v-.3l-.1-.1-.2-.1v-.2l-.1-.1-.2-.2-.1-.1-.1-.1-.1-.2h-.1v-.3l-.2-.3-.3-.2h-.1v-.1l-.1-.1-.1-.2-.2-.2-.2-.3h-.1l-.2-.1-.1-.1h-.3l-.3.2h-.1l-.4.2-.1.1-.1.1-.2.1h-.1l-.1.1-.1.1v-.2l.1-.1.4-.2.1-.2.4-.1.1-.1.1-.2.1-.1v-.2h-.1l-.3-.1h-.5l-.2.1h-.5l-.2-.1-.3-.1-.4-.3-.3-.2h-.1l-.2-.1-.2-.2-.2-.2h-.2l-.2-.1-.2-.1-.1-.1h-.2v-.2l-.3-.3-.1-.1h-.2l-.2-.2-.2-.1-.2-.3h-.1l-.1-.1-.2-.2h.1v.1l.2.1.1.1h.1l.1-.1v.1h.1v-.1l-.1-.1h-.2l-.1-.1h-.1.2v-.1h.1l.1.1h-.1.1v.1l.2.3v.1l.1.1v.1-.2l-.1-.1.1-.4v-.2l-.3-.2-.2-.2h-.1l-.1-.1h-.2l-.1.1h-.1l-.2.1h-.5l-.4.1-.1.1-.1.1-.4.2-.1.2-.1.1h-.1l.1-.1h-.1l-.3.2-.1.1-.1.1-.2.1-.2.2-.1.1-.1.1-.1.2-.2.3-.2.4v.1l-.2.4-.1.3-.1.1-.2.3-.1.1-.2.1-.3.3-.1.1-.1.1-.1.1v-.1h.1l-.1-.1v.1h-.2v.1h-.1v.1h-.1v-.1l.1-.1h.2v-.1l.1-.1h-.1l-.2.1-.2.1h-.2l-.2.1-.4.2-.1.1-.1.1-.1.1h-.2l-.2.1-.6.2h-.2l-.2.1-.4.2h-.4l-.1.1-.4-.1-.3.1h-.4l-.1-.1h-.4l-.1-.1h-.1l-.1-.1-.1-.2-.2-.3-.3-.4-.1-.1v-.1l-.1-.1-.1-.2h-.1l-.1-.1h-.1l-.1-.1h-.3v-.1l.1.1h.3l-.1-.1v-.1h.1v.2l.2.1h.1v-.1h.1l.1.1v.1l.1.1.1.2v-.2l-.1-.1h.1l-.1-.2h.1v.2l.1.1v-.7h-.1v-.1h-.6l-.1.1h-.1l-.1.1h-.1l-.1-.1h-.1l-.1-.1-.2-.1h-.3l-.2-.1-.1-.1-.2-.1-.1-.1h-.3v.1l-.1.1v.1-.2l.1-.1h.3l.2.1.1.1h.2l.1.1h.2l.1.1.4.2h.3l.1-.1v-.1l-.1.1-.1-.1h-.2l-.1-.1h-.1v-.1l.1.1h.3l.1.1h.3l.1-.1v-.1.1l.1.1.1.1v-.2l.1.1h.1l.1.1v-.2l-.2-.3-.1-.2-.6-.6-.1-.1v-.1l-.1-.1-.2-.3-.2-.2-.2-.2-.6-.4h.1l.1-.1v-.1h.1l.3.1v.1l.1-.1.3.2.1.1.2.1.1.1.2.2.4.3.2.2v-.1l.1.1v.1h.1v.1l.1.1.1.2v.1l.1.2v.3l-.1.2v.7l.1.2.1.2.2.3.2.3.2.3.3.2.2.1h.7l.2-.1h.2l.4-.2h.1l.4-.2.5-.2v-.1h.1l.2-.1.3-.2v-.1l-.1.1h-.1l-.1.1-.4.2h-.1l-.2.1h-.1v.1h-.1l-.2.1v.1h-.2v.1h-.3l-.1.1h-.2l-.1.1v-.1h.1l.3-.1v-.2h.3l.2-.1.3-.1.2-.1.2-.2.4-.1h.2l.1-.1h.1l.1-.1.5-.1h.4l.2-.1h.1l.3-.2.3-.3.1-.1.2-.3.1-.2.1-.2.2-.3.2-.3v-.2l.1-.2.1-.2.2-.4v-.2.1l-.1.1v.1h-.1v.1h-.1l.1-.2.1-.1.1-.2.3-.3.2-.2.1-.1h.1l.1-.1.1-.1.2-.1.3-.3.3-.1h.3l.2-.1h1.1v-.3l-.2-.4-.1-.1v-.2l-.1-.2v-.1l-.1-.1-.2-.1-.2-.1-.1-.1.1-.1v-.8.3l.1.1v.1l-.1.3v.1l.1.1v.1h.2l.1.1h.1l.1.3.1.2v.2l.1.1h.1v-.3h.1l.1.2.1.3.2.4.4.3.3.1.1.1h.4v.2l.2.1.2.2.1.1h.3v.4l.6.7.3.2v.1l.2.1.1.1.2.1h.1l.2.1h.2l.1.1h.1v-.1h.5l.1.1h.7l.1.1.5.2.1.1.3.1.4.2.4.3.2.1.3-.3.2.1h.1v.1h-.1l-.1.1-.1.2v.1l.1.1.1.1v.1l.1.1.1.2.1.1.1.1v.1l.1.1.2.3.2.1.1.1.2.3v.1l.2.2.1.3.3.4.2.2v.1l.2.1.1.1.2.2h.4l.2.1h.2l.1-.1h.9l.1-.1.2-.1.2-.1.2-.1.2-.1h.1l.2-.2.2-.1.3-.1.2-.1.1-.1.2-.2.2-.1.2-.1.2-.2.5-.3.2-.3h.3l.2-.1h.3l.7-.1h.8l.2.1h.6l.2-.1h.8l.4-.1h.2l.1-.1.5-.1h.3l.3-.1.6-.1h.1l.2-.1.7-.2.3-.1h.2l.3-.1.6-.2.1-.1.2-.1h.2l.1-.2.2-.1v-.1l.1-.1.1-.2v-.1h-.1v-.1h-.6l-.2-.1-.2-.1-.1.1h-.1l-.3.2-.1-.1h-.3l-.2-.1h-.1l.3-.4v-.2l.1-.2.1-.2.1-.2v-.2l-.1-.2h.1v.1-.1l-.1-.2-.1.1h-.1v-.2l.1-.1.1.1.1.1v.2l.1.2v.5l-.1.5v.1h.2l.1-.1h.2l.1-.1h.2l.3.1.1.1h.7l.1.2.1.3h.4l.1-.1.3-.1.3-.1.1-.1.3-.1.1-.1h.2l.1-.1.4-.1h1.3l.1.1h.2l.1-.1v-.1h.1v-.3l-.1-.1v-.3l.1.1h.1l.1.3v.1l.1.1.1.1.1.1.2.1.2.1.2.1.4.2h1.1l.3-.1.1-.1h.1l.2-.1h.4v.1l.1.5h.1v-.3l-.1-.2v-.3l.8-.4.2-.1.1-.1v-.1l.1-.1h.1l.1-.1v-.1l.2-.2.1-.1.1-.1.1-.1v-.1l.1-.1v-.1l.1-.2.2-.7.1-.3v-.1l.1-.3.1-.1v-.2h-.1l-.1.1v.1h-.2v-.4h-.2l-.1.1-.1.1v.1l.1.1h-.1l-.1-.1h-.2v-.2l.1-.1h.2l.1-.1.1-.1v-.3l.2.1v.1l.1.1.1.1h.5l.1.1h.2l.2.2.1-.1h.1v-.4l-.1-.2v-.1l-.1-.1v-.1l-.1-.3-.1-.2-.2-.6h.1v-.1h.1l-.1-.1h-.1l-.1.1-.1-.1-.2-.2-.1-.1-.3-.1-.2-.3h-1l-.1-.1-.3-.2-.1-.1v-.1l-.1-.1v.1h-.1l-.1.1h-.2l-.1.1-.2.2-.1.1v.1l-.1.1-.1.1v.3h-.2v.5l-.1-.1.1-.2h-.1v-.1h.1v-.1l.1-.1v-.2h.1l.1-.1v-.3h.1l.2-.3v-.1h.2l.2-.2v-.1l-.1-.1-.2-.2-.1-.1-.1-.2-.1-.1v-.1l-.1-.1v-.3l-.1-.2h-.2l-.2-.1-.1.1h-1l-.3-.2-.2-.2-.1-.3-.1-.1-.4-.1-.2-.1h-.1l-.1-.1h-.4v.1l-.1.1-.3.1h-.1v-.1h.2l.1-.1v-.1h.2l.1-.1.1-.1h.3l.1.1h.2l.1.1h.1l.1.1v.1h.2v-.2h.1v.2l-.1.1.1.1.1-.1v.1h.1v.1l.1.1h.1v.2h.3v-.1h.3l.1-.1h.9l.2.1h.1l.1.2v.2h.2v.1l.1.1.3.1.4.2.1.1h.3v-.1h.1l.1-.1.1-.1.2-.1.1.1v.1h-.2l-.1.1h-.1l-.1.1.1.1v.1l-.1-.1h-.1l.1.2v.1h-.1l-.1-.1h-.2l-.2-.1-.1-.1-.2-.1h-.3v.1h.1l.3.2.1.2.2.1h.5-.1l-.1.1v.3h-.1v-.1l-.2-.1-.1-.1v.1l.2.2.3.1v-.2l.1-.1h.1l.1-.1v-.1l-.1-.1.1-.1v-.1l-.1-.1h.1v.2h.2-.2v.1l.1.1h.2v-.1h.1l-.1.1h-.2v.2l-.1.1h-.1v.2l.1.1h.3l.3.1h.2l.2.2.1.1h.3l.1-.1v-.2l-.1-.3.1-.1v-.5l.1-.4.1-.1v-.2l-.2-.1h-.3l-.1-.1-.1-.1h-.2l-.1.1-.1.1v.2l.1.1v.1h-.1v-.1l-.1-.1v-.1l.1-.2v-.1l.1-.1h.3l.1-.1h-.1v-.1l-.1-.1h-.1l-.1-.1-.1.1-.1-.1h-.2v-.1h.6l.1-.1v-.6l.1-.3.1-.2v-.1l.1-.2v.1l.2-.1v.1l-.1.2-.1.3v.3l.2.4v.1l-.2.1v.1l-.1.3v.1h.2l.2-.2h.3l.2.2.1.1v.1h.2l.2.1v-.1h.6v.1h-.1v.1h-.1v.1l-.1.1-.2.1-.1.2v.5l.1.1.1.4v.3h.1v.2h-.1l-.5.3h-.1l-.4.2h-.1v.2h.1v-.1h.2l.1-.1.2-.1h.1l.4-.2h.1l.1.1v.3h.1v.2l.1.4h-.1v.1h-.1v.2h-.2l-.1.1-.2-.2-.1.1v.1h.1l.2.1v.1h.4l.1.1h.2v.1l.2.1v.1l.2.2.1.1.2.1.2.1.2.1h.3l.1.1h.8v-.2l.1-.1v-.1l.1-.2v-.2l.2-.3.1-.1.1-.4.2-.8v-.3l-.1-.2v-.1l-.1-.1-.1-.1-.2-.3-.1-.3h-.1l-.1-.2-.3-.8h-.1l.1-.1v-.2l.2-.2.1.1h-.1l.1.1v.1l.1.1v.2h.2v.1h.1v.1l.1.1.2.1.1.1.1.1h.1l.1-.1.2.1.1.1.1.1h.4l.5-.1.2-.1h.1l.1-.1h.1l.5-.1h.5l.2-.1h.2l.2-.1h.3l.2-.1.2-.2.1-.1.1-.1.1-.1v-.1l-.2-.2h-.1l.1-.1h-.1l-.1-.1-.1-.2-.1-.2v-.1h.1l-.1-.2v-.9l.1-.3.1-.1v-.8l.1-.1v-.2l.1-.2.3-.4.2-.2.2-.1.4-.3.2-.1.1-.1h.1l.1-.1v-.1l-.2-.2-.1-.1-.1-.2-.1-.1-.3-.2-.1-.1-.1-.3-.1-.1v-.6h.1l.1-.1.1-.1v-.1l.2-.1.2-.1.1-.1v-.1h.5l.1-.1.1-.1v-.1h.1l.2-.3.2-.3.2-.1h-.2v-.2l-.1-.1-.1-.1-.1-.2-.1-.1-.1-.2-.1-.1v-.1l-.1-.2-.2-.3-.2-.2v-.2l-.2-.2-.1-.1h-.1l-.3-.1-.2-.2-.2-.1-.2-.2-.1-.1v-.2l-.1-.1v-.6l.1-.1v-.3l.1-.3.1-.1.1-.3v-.2h-.2v-.1h-.1v-.1h.2v.2h.1l.1-.1h.1l.1-.4h.1v-.3h-.1l-.1-.1-.1-.1h-.1l-.2-.1h-.6l-.1-.1h-.2l-.3-.2-.4-.5-.3-.3-.1-.1-.1-.1v-.1l-.1-.1v-.3h-.1v-.2l-.1-.2-.1-.3-.1-.1-.5-.4-.4-.4-.3-.4v-.1l-.1-.2-.1-.2v-.3l-.1-.1v-.8h-.1v-.1l-.1-.1v-.1l-.2-.1-.4-.2h-.1l.1-.1-.2-.1-.1.1-.2-.1-.2-.1h-.3v-.1l-.2-.1v-.1h-.1.1l.1.1.1.1v-.1l-.1-.1-.1-.1-.2-.1-.1-.1h-.1l-.1-.1h-.1l-.2-.1h.2l.1.1.2.1h.2l.1.1.1.1.2.2.1.1.1.1h.2l.1-.1.2.1.1.1.1.1h.3l.1-.1v-.1h.1v-.2h-.1v-.2l.1-.1.1-.1-.1.3.1.1v.3l.1.1.1.2h.1l.1.2v.1l.1.1v.1l.1.7v.2l.1.3v.1l.2.5.2.2.3.2.3.3h.1l.1.1.1.1.2.1v.2l.2.2v.1l.1.1v.4h.1l.1.2v.1l.2.2v.1l.2.1.2.2.1.1h.1l.1.1h.1l.2.1h.4l.2.1.2.1.1.1.1.1.1.1h.3v-.1h.2l.1-.1.1-.2.1-.1.1-.1.1-.1h.1l.2-.2.1-.2.2-.2.1-.1.3-.3v-.2l.1-.2.1-.1.1-.1.1-.1.2-.3.1-.1h.1l.2-.1h.1v-.1l.1.1h.4l.3-.2.1-.1.2-.1.1-.1h.1l.1-.1h.5l.1-.1h.9v-.1l.1-.2.1-.2h.1l.1-.1h.1-.1l-.1.1-.1.1-.1.2v.2h-.1l-.4.1h-.3l-.2.1h-.1l-.2.1h-.3l-.1-.1-.1.1v.1l-.2.1-.3.3h-.2l-.2.1h-.2l-.2.1-.3.2-.1.2-.1.3-.2.2-.1.2-.1.1v.1l-.1.1-.1.1-.1.2-.2.2-.2.2-.1.2-.1.1-.1.1v-.1h-.1l-.1.2h-.1l-.2.1-.1.1-.1.1v.3l-.2.2v.2l-.1.1-.1.3-.1.1v.2l-.1.2v.3l.1.1v.1l.1.2.2.2.1.2.2.1v.1l.1.1.3.3h.1l.1.2.1.1.1.1v-.1l.1.1v.1l.1.2h.1l.1.1h-.1v-.1l-.1.1.1.1.3.2.1.3.1.1v1.2l-.1.1.1.1v.8l-.1.1v.1h-.1l-.2.2-.3.1h-.1l-.1.1h-.5l-.1.1-.1.1v.4l.1.2.1.1h.1l.1.1h.2l.5-.1.1.1h.5l.1.1h.2l.1.1h.7l.2-.1h.1l.2-.1v-.1l-.1.1-.1-.1.1-.2v-.2l.1-.1h.1l.1-.1h.4l.2.1.1-.1h.2l.1-.1h.2l.2-.1h.3l.2-.1.4-.1h.3l.5-.1h.2v.1h1.1l.1.1h.4l.1.1.4.2h.2l.3.2.5.2.1.1.2.1.4.1.1.2h.7l.2-.1h.2l.1.1h.1v.1h.1v.2h.1v.1h.3l.1.1h.6l.1.1.1.1.2.1h.3l.2.1.3.1.2.1.3.1h.1l.4-.3.3-.2.1-.1h.1l.1-.1h-.1l.1-.1.1-.2v-.2l-.1-.1v-.1l-.1-.1-.1-.1h-.1v-.2l-.1-.3v-.3.3l.1.1v-.3h-.1v-.1h.1v.5h.1l.1.1.1.1h.1v.1l.1.1h.1l.1.1h.3l.1.1.1.1-.1.1h-.2l-.1.1-.1.2-.1.2-.2.2v.2l-.1.1h-.1l.3.3.3.3.2.1h.1l.1.1h.1l.1-.1v-.1l.2-.2.1-.2v-1l.1-.1h.1l.1-.1.1-.1v.1l.1.1v.2l.2.3v.1l.1.1.1.1.1.2.3.2.1.2v.3l.2.1v.5l.1.1v.2l.1.3.1.2.2.2h.1l.4.2h.4l.1-.1v-.1l-.1.1h-.2l-.1-.1h-.1l.1-.1.2-.3.2-.1h.2l.2-.1v-.2l.1-.2.1.1v.7h.1l.1.1.2.1.2.1h.1l.1.1v-.1l.2-.1.3-.2v-.2l.1-.1v.1l.1.1h.1l.1-.1h.3l.3.2h.9l.3.1h.5l.4.1h.1l.3.1h.2l.1.1h.3l.2.1v.1l.2.1h.2l.3.1h.1l.1.1.1.2.2.2h.1l.1.2.2.1.1.1.1.1v.1l.1.1h.1l.2.1.1.1.2.2.3.2h.1l.2.2.1.1.1.2.3.1.2.3.3.4.1.2v.1l-.1.1v.9l.1.2v.3l.1.2v.2h.1v.1l.1.4v.2l.1.1v.2l.1.4.1.2.1.3.1.2.3.3.1.3.2.1.1.2.1.1.1.1.1.1h.1l.3.3.2.1.1.1.3.1.1.1.3.1h.1l.3.1.5.2h.1l.1.1.2.1.2.1v.1l.1.2.1.3.1.1v.6h-.1l-.1.1v.1l-.1.2-.2.2h.1l-.1.1-.2.2-.1.1h-.1v.6l.1.1-.1.1.1.1h.1v.1h.2l.2-.1.1-.2.1-.2v-.2l-.1-.1.1-.2v-.1l.1-.2v-.3l.1-.1h.1l.1.1h.3l-.1-.1h.3l.2-.1.2-.1v.1l.2.1.1.1h.1l.3.1.1.1.4.1h.1v-.4l.1-.1-.1-.2v-.2l-.1-.2v-.2h-.1l-.1-.3h-.1l-.1-.2-.1-.1v-.1l.1-.2-.1-.2h-.1v-.4h-.1l-.1-.1-.1-.1v-.1h.1l-.1-.2v-.1h.1v-.2l.1-.1v-.8l-.1-.1.1-.1.1-.1v-.3l.1-.2v-.1l-.2-.4v-.2l.1-.1h.1v-.2h.2l.1.2h.2l.2-.1.2-.2.1-.1.1-.2.1-.1.1-.1v-.3l.2.1h.1l.1-.1v.4l-.3.3v.1h.1v.3l.2.1v.1h.1v-.1h.1v-.2l.1-.1v-.1l.2-.1v-.1l.2-.1h.1l.1.1h.4l.1.1.2.1h.1l.1.1.1.1.1.1.1.1v.1h.1v.1h-.1l-.1.1-.1.1-.1.1-.2-.1h-.3l-.1.2v-.1l-.1.1-.1.1-.1.1h-.1v.1l.2.1h.2l.1.1v.6l.1.1h.3l.1.1v.2h-.1l-.1.2v.5l.2.2h.4v-.1l.1-.1.1-.1.1-.1h.1l-.1-.1v-.1l-.1-.2-.1-.1.1-.1v-.1.1h.3l.1-.2v-.3h.2v.1l.2.1v.2l.2.2.2.2h.1l.1.1v.7l.1.1.1.2.1.1.1.1.2.1h.3l.4.2h.1l.1.1.2.1h.6v-.1h.4l.2-.1h.1v-.3h-.1v-1h-.1v-.5l-.1-.1v-.2l-.1-.1-.1-.1-.1-.2h-.1l-.1-.1v-.1l.3.1.1.1v.1l.2.1v.2l.1.1.1.2v.3l.1.1.1.1v.1l.1.3v.3h.1l.3-.1h.2l.1.1v-.1h.1v.1l.1.1.1.1v-.3l-.1-.1v-.1l.1-.2.2-.3.1-.1v-.1l-.1-.1v-.9l-.1-.1v-.1h.1l.1-.1.2-.2v-.1l.1-.1v-.3l.1-.1v-.1h.1v-.2l-.2-.2h-.1v-.2l.1.1h.1v.1h.3l.1-.1.1-.2v-.1l.1-.1v-.2l.2-.2v-.1l.1-.2h-.1v-.2h.1v-.2l.2-.3v-.1l.1-.2.1-.2v-.1l-.1-.1v-.1l.1-.1v.1l.1.2v.2l-.1.1v.2l-.1.2-.1.4.1.1-.1.1v.1h-.2v.1h.1v.4h-.1l-.1.1v.3l-.2.2-.1.1-.1.2v.1l-.1.2v.2l-.1.1v.4l-.1.1-.1.1.1.2.1.2h.1v.1l.1.1.1.2.1.1v.1h.3l.2.2.1.1v.1l.1-.1.1.1v.1l-.1.2v.2l.1-.1.1-.1.1-.1v-.2h.2v-.2.2l.1.1.2.1v.1h.1v.1l.1.1v.3l-.1.1v.1l-.1.2h-.1v.2l-.1.1v.1l-.2.1-.1.1v.2l-.3.1v.1l-.1.1h-.2v-.1h-.1v-.1h-.1l-.2.1v.1h-.1v.1h-.1v.1h-.1l.1.1v.4l.1.1.2.2.3.1.3.1.2.1h.1l.1.1h1.1v-.1h-.2v.1h-.1v-.1l.1-.1h.2l.1.1v.1l.2.1.1.1.1.1.2.1.4.1h.2l.1-.1.1-.1.1-.2v-.3l.1-.1v-.3l.1-.3v-.8l.1-.2v-.4l-.1-.2v-.1h-.1v.1h-.1l-.1.1h-.1l-.2.1h-.7v-.2l-.1-.1v-.2l-.1-.1-.1-.1v-.2l-.1-.1.1-.1v-.1h-.1v-.3h.1-.1v-.1l.1-.3h-.2l-.1-.1-.1-.1-.1-.1v-.4l.1-.1v-.2l.1-.1.1-.1h.2v-.1l-.1-.1v-.4h.5l.3.3-.1.2-.1.1-.1.1v.2h.1v-.1h.1v-.1h.3v-.1l.1-.1.1-.1h.1v-.1h.1l.1.1h.1v.1h.1l.1-.1v-.1l.1-.1-.1-.1h.1l.1.1.1.2v.1h-.1v.2h-.2l-.1.1-.1.1-.1.1v.1l.1.1v.3l.1.1h.1v-.1h.1l.2.1.2.1.1.1.1.1h.1l.4.2.1.1.1.1h.2l.2.1.2-.1h.7v.1l.1.3v-.3l.4-.2.3.1v.1l-.1.2v-.1l-.2.1-.3.1.1.1.2-.1.2-.1.1-.1h.1v-.3l.1-.3v-.1l.1-.1.2-.2v-.1l.1-.1.1-.1h.1v-.2l.1-.1.1-.1v-.7l.1-.4v-.5l-.1-.1v-.1h-.1v-.1h-.1v-.2h.1l-.1-.1-.1.1v.2h-.1l-.1.1v.1l-.2.1v.1l-.1.2-.1.1h-.1v.1h-.1l-.3-.2h-.1l-.1-.1-.1-.1h-.2l-.1-.1v-.2h.1l.1.1h.2l.2.1.1.1h.3v-.1l-.1-.1h.1v-.1l.1-.1h.1l.2-.1v-.1l.1-.2-.1-.1v-.2l.1-.3.1-.2v-.1l.1-.1.1-.2.2-.2.1-.1v.1l.1.1h.1v.1l.2-.1h.2l.2.1.2.1h.1l.1.1h.7l.2-.2v-.2l.1-.1.1-.3v-.1l-.1.1h-.1v-.2h.1l-.1-.1h.1l.1-.1h.1l.1.1v-.1l.2-.1h.1v-.4l.1-.2.1-.2v-.1l.1-.1v-.3h.2l.2-.1.1-.1.2-.1h.2l.1-.1.2-.1.1-.1.2-.1h.1v.1h.7l.4.2.2.1h.1v.1l.1.1h-.1v.1l.2.4v.1l.1.2.1.3.1.2h.1v.1h.2v-.1h.1v-.1l.1-.2v-.3l.1-.3.1-.2.1-.2v-.2h.1l.1-.2v-.2l.1-.1.1-.2.1-.1v-.1h.1v-.6l-.1-.1.1-.1v-.4l-.1-.2v-.2l.1-.1v-.1l-.1-.1v-.4l-.1-.1-.1-.1-.1-.1-.1-.1-.3-.1h-.1l-.2-.1h-.1l-.1-.1h-.1l-.1.1-.2.1-.2-.1-.1-.1v-.1l-.1-.1v-.1h-.1l-.2-.1-.2-.1-.2-.1-.2-.2-.1-.1h-.2v-.1h-.1l-.4-.1h-.2l-.1-.1-.2-.1-.1-.3-.2-.1v-.1l-.1-.2h-.1v-.1h-.1l-.1-.1-.1-.1-.1-.1h-.1v-.3l.1-.1-.1-.1h-.2l-.1-.1v-.2h-.1l-.1-.1v-.1h-.1l-.1.1-.1-.1-.1-.1.1.1h.2l.2.1h.1v.1h.1v.2h.3v.1h.1v.2h-.1l-.1.1h.1l.2.2h.1l.1-.1v.1h.2l.1.1v.1l.1.1h.1v.1l.1.1.1.1.2.1.1.1h.7l.1.1v.1h.1v.1h.1v.1h.1l.2.1h.1l.2.1h.7l.1-.1.1-.1v-.1l.1-.1.1-.1v-.1h-.2l-.1-.1v-.1l-.1-.1-.1-.1v-.2l.1-.1.1-.2.2-.1.1-.1.1-.1.1-.1v-.1l.4-.1.2-.3h.3l.1-.1.3-.1h.3l.1-.1.2-.1.2-.2.2-.2.1-.1v-.3l-.1-.1v-.2l.1-.2.1-.1.2-.4.1-.1h.1v-.1l.4-.5.2-.2.1-.1.3-.3.1-.1.1-.1.1-.1v-.4l.1-.2v-.4l-.1-.1v-.3l-.1-.1-.1-.2-.1-.2-.1-.1v-.1l-.3-.5-.1-.2-.2-.3v-.1l-.1-.1v-.2l.1-.1v-.3l-.2-.2-.1-.1-.2-.1h-.2l-.2-.1h-.7l-.1-.1h-.3l-.1-.1-.1-.1v-.1h-.1l-.1-.1-.1-.1h-.1v-.1h-.1l-.1-.1-.1.1-.2-.1h-.2l-.1-.1h-.1v-.1h-.3l-.2.1v.1h-.2v-.1l-.2.1v-.1h.1l.2.1.1-.1.2-.1v-.1h.1l.1.1.1-.1v.1h.1v.1h.1l.1.1.1-.1h.5l.2.2.1.1h.3v.1l.2.1h.3v.1h.1v-.1h.1v-.1h.5v.1h.5v.1l.1.2h.3l.1.1.2.1h.1l.1-.1v-.2l-.1-.1-.1-.2v-.3l.1-.1.2-.2v-.1h.3v-.1h.1v.1l.1-.1v-.1h-.1v-.3l.1-.2.1-.1v-.6l.1-.1.1-.1.1-.1.1.1.1-.1.1-.1h.1l.2-.3.1-.1.1-.2.1-.1.1-.1.1-.1.1-.1v-.1h.2l.1.1h.1v-.1l-.1-.1-.1-.1.1-.1v-.3h.1v-.1l.2-.1.2-.1.1-.1.1-.1.1-.1.2-.1v-.4l-.1-.1v-.8l.1-.2v-.2l-.1-.1v-.2l-.1-.1h-.6l-.2-.1h-.6l-.1-.1h-.2.1v-.1l.2.1h1.1l.1-.1.1-.1h.1v-.1l.2-.1h.1l.1-.1.1-.1v.2l-.1.1v.2l.1.1v.1h.1l.2-.1h.1l.1-.1h.2l.4-.3h.3l.1-.1.2-.2.2-.1.1-.1h.1l.1-.1.2-.3v-.1l.1-.1v-.5h-.1l.1-.1.3-.6v-.1l.2-.1.3-.2.3-.3h.1l.1-.2v-.3l-.1-.1v-.7l.1-.3v-.1h.1l.1-.3-.1-.1.1-.1v-.9l-.1-.1v-.1h.1v-.1l-.1-.1-.1-.1v-.5l.1-.2.1-.2v-.1l.1-.2v-.1l.1-.1h.1v-.2h.1l.1-.2v-.1h-.1v-.1h-.1l-.2-.1h-.1v-.1h-.2v-.1h-.1.4v.1h.1l.1-.1v-.6l-.2-.3v-.1l.1-.1.1-.1.3-.3.3-.2.2-.2h.1l.1-.1.2-.1.1-.1.1-.1h.1v-.2l.1-.1v-.2l.1-.2-.1-.1h-.1l-.2-.1-.1-.1v-.1h.1l-.1.1.2.1h.3l.1-.1.3-.1.1-.1v-.7l-.1-.1v-.1l.1-.1.1-.3h.1v-.5h.1v-.1h.1v-.2h-.1v-.3h.1v-.1h.1v-.1h.1l.1-.1h.2v-.3l.1-.1h.1l.1-.1h.1v-.2l.1-.1.1-.1v-.2l.1-.1h.1v-.2l.1-.1h.1v.1h-.1v.2l-.1.1h-.1v.3h-.1v.1h-.1v.3h-.1l-.1.1-.2.1v.2l-.1.1-.1.1-.2.2v.3l-.1.2h-.1l-.1.1v.5l-.1.2v.1l-.1.1v.1l.1.1.2.5v.4l-.1.2h-.1l-.2.1-.1.2h-.1l-.1.2.1.3v.2l.1.1v.1l.3.1h.2l.1.1h.2l.2.1h.6v-.1l.1-.1h.8l.4-.1h.2l.1-.1h.5l.2-.1h.9l.3-.1h.6l.3.1.5.1.2-.1.3-.3.2-.2v-.1h.3l.1-.1h.1v-.2h.2v-.1l.1-.1v-.1l.1-.1.1-.1.2-.1.1-.1v-.2l.1-.1v-.4l.1-.1h.1l.1-.1.2-.2h.1v-.3l-.1-.1h-.1v-.5l.1.1h.1l.1-.1.1-.2-.1-.2-.1-.4v-.1h.1v-.8l-.1-.2v-.1l-.1-.1-.1-.1v-.2h.1l-.1-.1v-.2l-.1-.1v-.1l-.1-.1v-.1l.1-.1h.1v-.1l-.1-.1v-.3h-.1v-.2l-.1-.1-.1-.1v-.1l-.1-.1h-.1l-.1-.1v-.2l.1-.2v-.2h.1l.1-.2h.1l.1.1.1-.1.1-.1.1-.1v-.3l.1-.1.1-.1h.2l.1-.1h.2l.1-.1.1-.1v-.3h-.2v-.1h.1v-.1l.1-.2v-.3l.2-.1.1-.1.1-.1v-.1l.1-.1v-.3l.1-.1v-.1l.1-.1v-.1l-.1-.1v-.4l-.1-.2v-.3l.1.1.1-.1v-.2l.1-.1v-.9l.1-.2v-.2h.1l.1-.1v-.4h.1l.1-.1v-.4h.1v-.1l.1-.1h.1v-.2h.1v-.1h-.1.1l.1-.1v-.1h.1v-.1h-.1v-.2l.2-.3v-.1h.1l.1.1-.1.1.1.2v.1l-.1.3-.1.2v.6l-.1.1v.2l-.1.2v.3h-.1v.3l-.1.4-.1.1h-.1v.1l-.1.1-.2.1v.2l-.1.1-.2.2-.1.2h-.1v-.1.9h.1v.2h-.1v.4l.1.1v.1-.1h.1v.1l-.1.1h.1v.2l-.1.1v.1l-.1.1v.1h-.1v.2l.1.1.1.1v.1l-.1.1h-.2v.5l-.1.1.1.2h.1v.2h-.1l-.1.1v.7l-.1.2-.1.1v.1h-.2l-.1-.1h-.1v.1h-.2v.3l.1.1h.5l.1.1v.1l-.1.2h-.2v.1h-.1.1l.1.1-.1.2v.1l-.1.2h-.1v.3h.2v.1h-.1l-.1.2-.1.1v.1h-.1.2v.1l.1.1.3-.1.1.1v.4l-.1.1-.2.1h-.3v.1h-.1l.1.2h.1l.1.1v.6l.1.4v.1h-.4l-.1-.1v-.2h-.2v.4h.1v.1l-.1.3h-.1v.1h-.1v.1h-.1l-.1.2h-.1v.3l-.1.1h.1l.1-.1.1-.1h.2l.1-.1h.2v.2l-.1.1h-.1v-.1h-.1l-.1.1h-.1v.1h-.3v.4l-.1.1v.1l.1.1h.1l.2-.1h.1l.1-.2v.2h.1v.1l-.1.1h-.3v.3l-.1.1v.1h.1l.1.1h.1v.4h.2l.2.2.2.1.1.1v.2l-.1-.1-.1-.1v-.1h-.1l-.1-.1-.2-.2-.2-.1v-.3h-.2l-.1-.1-.1-.1-.1.1v.1h.1v.1h-.3l.1.1v.1l-.1-.1-.1.1v.5l-.1.1-.2.2v.2h-.2l-.1.1h-.1v.3l.1.2h.2v.2h.2v.2h.2v.1l.1.1v.1l.1.1h.4l.1.1.3.2v.5h-.1v.4h-.1v.1l-.1.1v.1h.1v.1l.1.1-.2.1-.1.1v.3l-.1.2-.1.1v.2h.1v.1h-.1v.1h-.1l-.1-.2-.1-.2-.1-.1h-.3l-.2.2-.2.2-.1.2-.1.1v.1h-.2l-.1.1h-.2v.2l.1.1v.1l-.1.1.3.3.1.1h.1l.1-.1.1.1v.1l.1.1h.2v.2h.1v.4h.1v.1h.5l.1-.1v-.3h.1v.3h.1l.1.1v.1l-.1.1-.1.1h-.1v.1l-.1.1v.3l-.1.1-.1.1v.1h-.1v.1l-.2.1-.1.1v-.2h-.1l-.1-.1v.1h-.2l-.2-.1h-.1l-.1.2.1.1v.1l.1.1h.3l-.1.1v.1h.2l-.1.1h-.4v.1h-.1l-.1.1h-.3v.1h-.2l-.1.1v.5h.1l.1.1.1.1h.1v.1h.1v.1l.1.1h.2v.1h.2v.1h.1v.1h.2l.1.1h.1v-.1h.1l.1.1v.2h.2l.1-.1v.2l.1.2v.4l.1.2.1.2v.3h-.1v.1h-.2l-.1.1h-.2l-.1.1-.1.1-.2.2v.1l.1.1h.1v.1h.1v.1h-.1l-.1.2v.1l.1.2v.1l-.1.5v.3l-.1.1-.1.1v1l-.1.1-.1.1h-.2l-.1.2.1.2.1.1v.6l-.2.4v.3h-.1v.3l-.1.1.1.2v.7h-.1l-.1.1-.2.1-.1.1v.2h.2l.3-.1v-.1l.2-.1.1-.1v.1h.1v.8l-.1.1v.6l-.1.1h-.4l-.1-.2-.1-.1-.1-.1h-.2l-.1-.1h-.2l-.2-.1-.2.1v.1l.1.1h.1l.2.1h.2v.2l.1.2h-.2v.1h.1v.1h.3v.1l.1-.1v.2h-.1v.2l-.1.1-.1.1v.1h-.1l-.1-.1h-.2l-.1-.1-.1.1h-.1v.3l-.1.1h-.1l-.1-.1v.1h-.1v.3l.2-.1h.2l.1.1.1.1h.2l.1.1.2.2v.2l-.1.1-.1.1v.1l.1.2v.2l-.1.1v.6l.1.1.2.1v.2l-.1.3-.1.1v.4l-.1.2-.1.2v.4l-.1.2-.2.2h-.2v.1h-.3l-.1.1-.1.1-.1.1v.3h.1l.1.2.1.1-.1.1v.6l.1.1h-.1v.1h.2v.1l-.1.1-.1.1-.1.3-.1.2-.1.2v.4l-.1.2-.1.2v.1l-.1.2v.3l.1.1v.3l.1.1.1.1h.5l.1-.1.1-.1.1-.1.1-.5.2-.4.1-.5v-.5l.1-.1v-.6l.1-.1v-.5l.1-.6.1-.2v-.4l.2-.6.1-.2v-.6l.2-.6v-.3l.1-.2.2-.6v-.9l.1-.1v-.3l.1-.2.1-.4.1-.2v-.3l.1-.1v-.2l.1-.2v-.9l.1-.5.1-.3V539l.1-.6.1-.5v-.9l.1-.2v-.7l.1-.3.1-.2v-.2l.1-.2.1-.5.1-.2.1-.3v-.3l.1-.4v-.8l.1-.4v-.3l.1-.3v-.7l.1-.5.2-.8.1-.3.1-1v-.5l.1-.4.1-.9.1-.6v-1.2l.1-.5.2-1.9v-.5l.1-.2v-1.5l.1-.2v-2.1l.1-.2V516l.1-.2v-.9l.1-.3.1-.9v-.6l.1-.2v-.7l.1-.5v-.6l.1-.3v-.2l.1-.2v-.4l.1-.1v-.5l.1-.2v-.2l.1-.1v-.7l.1-.1v-.2l.1-.2.1-.4v-.2l.1-.2.1-.3v-.2l.1-.5.1-.2v-.2l.1-.3.1-.6.2-.6.1-.5.1-.2.1-.1v-.1l.1-.5.1-.3v-.1l.1-.1.1-.3v-.1l.1-.1.1-.4v-.2l.1-.2v-.4l.1-.2v-.3l.1-.2v-.3l.2-.4v-.2l.1-.4.1-.4.2-.5.1-.3.1-.3.1-.5v-.2l.1-.3.1-.4.1-.3.1-.1.1-.2.1-.2v-.1l.1-.1v-.1l.1-.1.1-.1v-.1l.1-.1.1-.2v-.2h-.2v.1l-.2.2-.2.4v.1h-.1l-.1.1v.1l-.1.1v.1h-.1l-.1.1v.1h.1v.1l-.1.2v.1l-.1.2v.1l-.1.3v.4l-.1.2v.2l-.1.2v.3l-.1.1v.1l-.1.1h-.1v.1l-.1.1v-.1.1l-.1.1h-.1v.2h-.1v.1l.1.1v-.2h.1l.1-.1v.4l-.1.2v.1l-.1.2v.1l-.1.2v.1h-.2l-.2-.1-.1-.1v-.1h.1v-.3h-.1v-.3l.1-.1.1-.1v.2h.1v-.1h-.1v-.2h.2v.1l.1-.1-.1-.1v-.1h.1v-.2h.1v-.2h.1v-.4l.2-.2v-.1h.1l.1-.1v-.3h.1v.1h.1v-.1h.1v-.2l-.1-.1h-.1l.2-.3v-.2l.1-.1v-.2h-.2v-.3h.1v-.1h.1v.2-.7h-.1l-.1-.1v-.1l.1-.1v-.1l-.1-.1-.1-.1v-.1h-.1v-.1l-.1-.1-.1-.1h.4l.1-.1v.1h.1l.1.1v-.1h.1v.1l.1-.1.1.1h.1l.1-.1.1.1h.1v-.1l-.1-.1h.4v.1l.1.1.1-.1h.1l.1-.1v-.1l.4-.4.1-.1.1-.2.7-.5.3-.2h.1l.3-.1v-.1l.4-.3v-.3l.1-.3v-.7l-.1-.6v-.6l.1-.3v-.4l.1-.5v-1l-.1-.2v-.9l-.2-.1h-.3l-.4-.1h-.3v.1h-.1l-.1-.1h-.1v.2h.3v.3h.2v.2h-.2l-.1.1h-.2v.2l-.1.1v.1h-.1v.1l-.1.2v.3h-.1v.2h.1v.2l.1.3v.2h-.3l-.1-.1h-.1v-.1h-.3l-.1.1-.2.1-.2.1h-.3v.1h-.7v-.1h-.1l-.1-.1-.1-.1h.1v-.1h.1-.1l.1-.1-.1-.1h.1v-.2l-.1-.3-.1-.1-.1-.1-.1-.1h-.1l-.1-.1v-.1l-.1-.2-.1-.1v-.1h-.1l-.1-.1-.1-.1v-.1h.1l.1.1.1.1h.3l.1.1h.2v-.2h-.1l.1-.1h.3l.1-.1h.2v-.1l.1-.1h-.1v-.1h.1v-.3h.1v-.2l.1-.1-.1-.1.1-.1-.1-.1v-.1h-.1v-.1h-.1.1v-.1l.1-.1v-.4l.1-.1v-.4l-.1-.1-.1-.2v-.1l-.1-.1-.1-.1h-.2l-.1-.1h.1v-.1l.1-.1h.2l.1-.1.1.1h.2l.1.1.1.1.1-.1h.1v.1h.2l.1.1h.1l.1.1h.1v.1h.1l.1.1h.1l.2-.1h.4v.2h.3v.3l-.1.1-.1.2h-.2v.1h.7v.1h.3v.1l.1.1v.1h-.1l-.2-.2v.1l.1.1.1.2v-.1h-.2l-.1-.1h-.1.1v-.2h-.1l-.1.1-.1.1h.1-.2l-.1.1.2.2v.2h.1v.1h-.1l-.1.1-.1.1h.2v.1l.3.2h.4l.1-.1h.2l.1.1.1-.1v-.4l.1-.5.1-.2.2-.6.1-.2v-.3l.1-.3.2-.5v-.3l.1-.1.2-.3.1-.1.1-.1v-.1l.4-.8.1-.3v-.1l.1-.4-.3.2h-.1l-.4.2-1 .4h-.1l-.3.1-1.7.7-1.1.4-.9.4h-.1l-.5.2h-.1l-.4.2-.9.4-1.2.4-2.4.9-2.3 1-3.6 1.3-.5.3-.7.2-.7.3-.5.2-.5.2-.9.3-1.9.8-.4.1-.5.2-.5.2-.4.1-1.5.6h.1l.1.1.1.1v.3l-.3.1h-.1v.1l-.2.1-.1.1-.1.1v.3l-.1.1.1.1-.1.1.1.1v.1h-.1v.3l-.1.1h.1l.1.2.1.1h.5l.1-.1h.2l.1-.1.1-.1.1-.1h.1l.1-.1h.3l.1-.1h.1l.1.1h.2v-.1h.2v.1l.1.1h.1v-.2h.2l.1.1.3.1.1.1.1.1v.1l.1.1h-.2l-.1-.1-.1-.1-.1-.1h-.4v-.1h-.2l-.1.1-.1.1h-.1l-.1.1h-.2l-.1.1v-.1l-.1.1-.4.4h-.1l-.1.1-.2.2-.1.1v.6l-.1.2-.1.1-.1.1-.1.1v.1l-.3.3h-.1l-.1.2-.2.1-.3.1-.1.1-.1.1h-.2l-.3.2-.4.5-.1.1-.2.3-.2.1v.1l-.1.1-.3.4v.1l-.1.1h-.1v.1l-.2.1-.1.1-.1.1v1h.1l.2.2v.1h.1l.1.1v.2h.2v.2l.1.2v.3h-.1l-.1-.1h-.1v-.2l-.1-.1-.2-.2-.1-.1h-.7l-.1-.1v-.4l.1-.1v-.2l-.1-.1-.1-.1-.1-.2-.1-.1-.1-.1-.1-.1h-.1l-.2-.1h-.2l-.1-.1v.1l-.1.1-.2.1-.2.2-.2.2-.1.1h-.1v.2l-.1.1v.4l-.1.2-.1.2v.2l-.1.2v.3l-.2.4h-.1v.1h-.2l-.1.1h.3l.1.1v.2h.1l.1.3.1.1v.7l-.1.1v.1l.1.2v.2h.1l.1.1h.2v.1l.2.1.1.2-.1.1.1.1h.2v.2l.1.1h.1l.1-.1h.1v.2l.2.1v.3l-.2-.1h-.2l-.1.1v.1l-.1.1v.1l-.1.1h-.2l-.1.1v.1h-.1l-.1.2v.1h-.2v-.2l.2-.2.1-.3.1-.1v-.3l-.5-.7-.2-.1h-.1l-.1-.1-.2-.1h-.2v-.4l.1-.1v-.4l.1-.2-.1-.1h-.1l-.6.1-.6-.1v.1h-.2l-.2.1-.1.2-.1.2h-.1l-.1.1-.1.1-.1.2h-.1l-.1.1v.1l-.1.1h-.1l-.1.1-.2.1-.1.1-.1.1-.2.3-.2.1-.2.1-.1.1v-.1h-.7v-.1h-.2v.6l.1.2v.3l-.1.2-.1.1v.1l-.1.1-.2.2.1.1.1.1v.3h-.1v-.1h-.1l-.1-.3v-.1l-.1-.1h-.1v.1h-.1l-.2.2-.2.1h-.1l-.1.1h-.1l-.2.1-.2.2-.2.3-.1.2v.2l-.1.1h-.1l-.1-.1h-.1v-.1h-.5l-.1.2h-.1v.1l-.2-.1-.1-.1-.2-.2h-.2l-.2-.1-.1.1-.1.1h-.1v.1h-.1l-.3.3-.2.2-.3.1v.1l-.2.1-.2.1-.3.2-.2.2-.1.1v.1l.1.2.2.2.1.2.1.1.1.2.1.1v.1l.1.1v.2l-.1.3v.2h-.1v.1l-.1.3v.2h-.1l-.1-.1-.1.1h.1l.1.1v.1l-.1.1-.1.1-.1.1v.1h.2l.1-.1v-.1.1h.1v.3l.1.1h.1l.1-.1h.6l.2.1.1.1v.1l-.1-.1v.1h-.1v-.1h-.3l-.1.1h-.2l-.1.2-.1.1-.1.3v.1l-.3.4-.1.2h-.2l.1-.1.1-.2.2-.3v-.4l-.1-.1v-.2l-.1-.1v-.1h-.1v-.3h-.2l-.1.1-.2.1-.1.1h-.1v.1h-.2l-.1.1-.1.1h-.1v-.3l-.1-.1h-.1l-.4-.2-.2-.2h-.3l-.2-.1-.1.1-.1.1-.3.3-.1.2v.1l-.3.3-.2.1h-.1l-.1.1h-.3l-.4-.2h-.1l-.1-.1h-.4l-.2.1h-.1l-.1.1-.1.1-.2.1-.1.1-.1.1-.1.1h-.2l-.1.2-.3.1-.6.2h-.1l-.2.1h-.2l-.1.1h-.5v-.1h-.3l-.2.1-.2.1-.2.2-.1.1-.1.2v1l-.1.1v.1h-.1v.1l-.1.2-.1.1-.1.2v.5l-.1.4v.1l-.1.1-.1.1-.1.1-.1.1-.2.1h-.4l-.3-.1-.1.1h-.4v-.1h-.4v-.1h.4l.2.2h.1v-.1l.1-.1.1.1h.4l.1.1.1-.1h.1l.1-.1.1-.1.2-.2v-.1h.1v-.2h.1-.1l.1-.2-.1-.2v-.4l.1-.1v-.2l.2-.2.1-.2v-1.4l.1-.1v-.1l.1-.1.1-.1h.1l.2-.1h.3l.1-.1h.2l.1-.1h.1v.1h1l.1-.1h.1l.2-.1h.1l.2-.1.1-.1.1-.1h.1l.2-.3h.1l.1-.1.2-.1.2-.2v-.1h.1l.1-.1h.1l.1-.1v-.1h.6l.3.2h.1v.1l.2.1h.3l.2-.2v-.2l.2-.3.1-.2.2-.3h.1l.3-.1h.5v.1h.1l.2.1.2.2.3.1h.1l.1.1h.2l.2-.1h.1l.1-.2v-.1l.2-.3h.1l.1.1h.1v-.1l-.1-.1h-.1v-.1l.1-.2v-.5h-.1v-.2l-.1-.1h-.1l-.2-.5-.2-.2-.1-.3v-.8l-.1-.3-.2-.2-.1-.1-.1-.1v-.1h-.1l-.2-.1h-.4l-.3.1-.1-.1h-.3l-.3-.1-.5-.1-.3-.1-.2-.1-.1-.1v-.4h.1l.1-.1v.2l.1.1h.1l.1.1.1.1h.2l.2.1h.3l.2.1h.3l.1-.1h.2l.1.1h.1v-.1h.4l.1.1.1.1h.1l.1.1h.1l.1.1v.1l.2.2.1.1v.1l.1.1h.1l.2.1h.2l.2-.1.1-.2h.1l.1-.2.1-.1h.1l.1-.1v-.1h.1l.1-.1.2-.3v-1.2l-.1-.1v-.1l-.1-.1h.1l.1-.2h.1l.1-.1v.1h.1v.3h.1l.1.1v.3l.1.1.1.1h.2v-.1l.1-.1.1-.1.1-.1.2.1.1.1.2.2.2.1h.5v-.1h.6v-.1l.2-.2.1-.1.1-.1v-.1h.1l.2-.2.1-.2v-.2l-.1-.1v-.2l.1-.1v-.3l.1-.2v-.1l.2-.3.3-.4h.2v-.1h.1l.2-.2.1-.1h.4l.1.1h.2l.1-.1h.1l.1.1v-.1l.2-.1.1-.2.2-.3.3-.1.1-.1.1-.1.1-.1h.2v-.1l.3-.2.1-.1h.2l.2-.1h.7l.2.1h.1v-.1l.3-.2h.3v-.1h-.4v-.2l.1-.2v-.1l.1-.2v-.4l.1-.1v-.1l-.1-.1-.1-.1-.1-.1-.1-.1h-.2l-.1.1h-.1l-.2-.1-.2.1h-.5l-.1-.1h-.1v-.2h-.1v-.1h.3l.1.1h.4v-.1l.1-.1h.1l.1.1.2-.1.1-.1.1-.1.3-.1.2-.1v-.1h.1v-.2h.1v-.1l.1-.2v-.5h.1v-.1l.1-.2.1-.1.1-.1v-.1l.2-.1.2-.1.2-.1v-.2h-.3l-.1-.2h-.1v-.1h-.1v-.1h.1l.1.1.1.1h.2v-.1h.2l.1-.1h.1l.1-.1.1-.1.2-.1.2-.1v-.1h.1l.1-.2h.1v-.1l.1-.1.3-.2.1-.1h.2l.1-.2h.3l.1-.1h.2l.3-.1.1-.1h.1l.1-.1v-1.2l-.1-.2-.1-.1h-.1v-.1l.1-.1h.1l.1-.1.1-.1h.1v.1l.2-.1.1-.2v-.1l-.1-.1v-.1l-.2-.2-.1-.1-1.7.6-1.6.6-5.8 2.1-1.5.6-29.7 10.6-32.7 11.9-42.4 15.2-16.6 6-26.1 9.5-22 7.9-63.1 22.1-42.6 15.3L2414 626l-61.3 20.6-13.1 4.3-8.9-10.2-3.1-3.6-4.1-4.5-15-17.2-.1-.1-20.1-23-15.4-17.7-28.5-33.1-25.7-29.5-54.5-62.7-5.7-6.6-28.1-32.3-13.3 4.7-44.1 15.6-53.9 19-31.3 11.2-.2.5-51.2 17-27.4 9-23.9 7.9-54.4 18-36.5 12-11.7 3.9-18.8 5.8-3.7 1.1-10.3 3.3-4.9 1.5-.4.1-13.3 4.2-18.6 5.8z"/></svg>