<svg xmlns="http://www.w3.org/2000/svg" viewBox="851 690 102 82"><polygon fill="#D3E2C0" points="859.5,730.0 857.5,730.0 856.8,731.7 856.1,731.4 863.0,708.5 890.3,701.0 890.5,701.5 890.7,701.0 891.0,701.2 891.3,700.7 892.1,700.5 901.5,700.0 904.0,703.5 907.0,703.0 909.5,698.0 915.0,695.0 916.5,698.5 917.5,705.5 917.5,708.0 915.5,712.0 917.5,712.5 918.5,711.0 922.0,711.5 924.5,717.0 927.0,716.5 933.5,723.0 936.5,722.0 947.5,722.0 947.0,725.5 946.7,725.6 946.9,725.7 943.5,732.5 943.2,732.3 942.5,732.3 942.0,732.5 942.1,732.4 941.3,732.4 938.5,734.0 937.0,740.0 935.0,742.5 933.0,744.5 929.0,751.0 926.0,755.5 922.5,756.0 921.5,760.0 914.0,764.0 911.5,764.0 909.0,766.5 904.5,766.0 901.5,763.0 900.0,758.5 894.0,758.0 891.0,752.5 882.5,734.0 881.0,732.0 875.0,728.0 871.0,728.5 864.0,733.5 861.4,733.1 868.9,726.3 863.8,729.8 865.0,728.5 861.4,731.8 861.1,731.2 860.0,733.0"/></svg>