<svg xmlns="http://www.w3.org/2000/svg" viewBox="1690 395 1210 945"><g fill="#d3e2c0" ><path d="m1705.5 553.3 3.3 7.2.9 1.8 10 21.4.2.5 4.8 10.1 5.9 12.5 14.6 31.1 6.7 14.4 29.5 62.2 9.9 20.6 7.9 16.4 18.2 37.9 15.2 31 3.1 6.8 15.6 33.5 2 4.3 7.6 16.8 9.6 21 10.3 22.5 4.7 10.3 2.2 5 2.6 5.5.3.9v.3l1.3 3.1 4 10.3 2.9 7.4 1.2 3 8.3 21 9.4 24.1 4.7 12.1 10 25.7 5 11.9 5.4 13 5.3 12.9 15.7 37.7 12 29.2 2 5 1.8 3.6 2.7 6.7 1 2.5 2.5 6.3.9 2.2.7 1.6.4 1 .3.9.2.5.3.9.3.7.2.3.3.8.2.6 1 2.6v.1l.4.7.1.4.3.5.2.7.6 1.5.4.8.5 1.5.3.7.2.5.2.5.1.2.2.4.4 1 .6 1.6 2 4.8 7 16.8v.3l.2.4 1.5 3.7.1.2.4.7.2.5v1l.2.8 1 1.3.4 1 1.2 2.9 1.2.3.7.2h.3l.2.1 1.3.4h.5l.5.2h.2l.3.2h.2l5.4 1.4.3.1.5.1 1.4.4 2 .6h.4l1 .4 1 .2h.1l.5.2h.5l.6.3.7.1 3.2.9 3.2 1h.4l.5.2 1 .3h.4l.3.2h.1l.4.2h.4l31.5 9.2 4.3 1.3 31.1 8.9 56 14.9.8.2 31.3 8.4 55.2 15 11 3 33.6 8.5h.2l32.7 8.4 2 .5 7.7-12.9 19.2-32.3 43.8-73 3.4-5.6 19.2-32.1 18.7-31.2 22.5-37.7 18.4-15.6 11-9 .3-.2 2.2-1.9.7-.6 2.7-2.2 1.9-1.6.4-.4 1.1-1 .7-.5.6-.5 1.3-1 1.2-1 1.3-1.1 1-.9 11.8-9.6 3.3-2.7 1.6-1.3 1.7-1.4 1.7-1.4 1.8-1.5 1.4-1.1 1.3-1 8-6.7 1.8-1.6 3.2-2.7 1.9-1.5.3-.3.2-.1 1-.8 1.8-1.5 2.4-2 5.3-4.4.4-.4.4-.3 1.6-1.3.2-.2 1.5-1.3 1.3-1 2.5-2.1.2-.2 1.5-1.3 3.1-2.6 3.5-3 .2-.1.2-.2.8-.7 8-6.7 4.3-3.5 1.8-1.6h.2l6.4-5.4 2.3-1.9 10.6-9 4.3-3.6 1.5-1.2 2.5-2.2 1.3-1 1.3-1.2 2.5-2.1.1-.1.1-.1 7.3-6.1.8-.7 4.6-4 11.5-9.7 11-9.3 20-16.8 7.5-5.8.1-.1h.1l4.9-4.2 30-25.7 2.7-2.4 37.2-32.1 13.2-11.1 7.7-6.4 14-11.6 20.1-17.1 1.2-1 1-1 .4-.3 2-1.7.1-.1 13.4-11.6 4.4-3.9 3.3-2.9h.1l.4-.4v-.2h.1l.2-.2v-.1l.2-.1h.1l.4-.3h.1l1.8-1.7 4.9-4.2h-.3l-.1-.1v-.6h-.2v-.2h-.1l-.2-.1-.2-.2-.1-.2h-.3v.1h-.3.1l.2-.2h.5l.1.2h.1l.3.3h.2l.2-.2v-.2h.2v-.4h-.1v-.3h.4l.1-.1v-.1h.2v-.2.3h-.2v.2h-.1v.3l-.2.1v.1h-.1v.2h.6l.1.2h.1v.1h-.3v.4l-.1-.5h-.3l-.3.1-.1.2h.2l.1.2.1.1h-.1v-.1h-.3v.3h.3l.1-.1h.2l.9-.8.1-.3.2-.3.1-.3.3-.6.3-.4.2-.1v-.1l.1-.1.4-.5.2-.2.2-.2h.1l.2-.4.1-.1.2-.2.4-.5h.2l.3-.3.2-.2.3-.2v-.1h.1v-.1h.2v-.1h.2l.1-.1h.1l.1-.1h.1l.1-.1.2-.1h.2v-.1l.5-.2.3-.2.2-.1.2-.1h.4l.3-.1h.5l.4-.2.2-.2h.2l.2-.3h.5v-.1h.5l.3-.2h.3l.1.1h.5l.2-.1h.7v-.2h.1v-.1l.1-.1v-.3h.1v-.1l.2-.1h.6l.2-.2h.1v-.1h.2l.1-.2v-.2h.1v-.1h.2v-.6l.2-.4.1-.2.1-.1v-.1l.1-.1.2-.2.1-.1v-.4l-.1-.4-.1-.1h-.1l-.3-.2-.1-.1h-.2v.1l-.2.1v.1h-1l-.2-.2h-.1l-.2-.2-.2-.1-.1-.1-.2-.2-.2-.2-.2-.1h-.1v-.1h-.1v-.1l-.2-.1-.2-.1-.3-.1-.1-.1h-.1l-.3-.1h-.7v-.1h-.4l-.2.1h-.5v.1h-.6l-.2.1h-.7l-.2.1h-1.7l-.1-.1h-.5l-.1-.1h-.7l-.1-.1-.2-.1-.4-.2h-.4v-.1h-.2v-.1l-.4-.2h-.2l-.1-.2h-.7l-.2-.1h-.2l-.1-.1h-.2l-.2-.1h-.1v-.1l-.3-.2h-.3l-.2-.1h-5.6l-.9-.2h-.4l-.9-.1h-1.1l-.1-.1h-.3l-.5-.1h-.6l-.4-.2h-.7l-.3-.2h-.8l-.2-.1h-.3l-.3-.1h-.5l-1-.1h-.8l-.3-.1h-5.1l-.3.1h-.7l-.4.1h-.9l.2.1h.2v.1h-.2l-.1-.1h-1.6l-.7.1h-1.8l-.4-.1h-.7l-.4-.1h-.4v-.7l-.2-.1v-.1h-.1v-1h-1.3v.2h.2l1 .4h-.2v.1h-.4v.1h-.2l-.1-.3v-.1.4l.2.1h.6l.2.1v.3h-.1v.2l.1.8h-.2v.1h-1v-.6l.3-.6h.1l-.4.6v1l-.2.1-.4.1h-.9l-1-.2h-.5l-.5.1-.6.2h-.5l-.1.1h-.6v-.1h-.2v.1l-.2.1v.1h-.1v.1h-.2l-.1.1h-1.3l-.2.1-.2.1-.3.1h-1.3l-.2.1h-.8l-.4.1h-.6l-.1.1h-.7v.1h-.9l-.1.1h-.2l-.1.2h-.2l-.3.1h-.3l-.4.1h-1.2l-.2.1-.3.2-.4.2h-.1l-.2.1h-.6l-.6.2h-.6l-.8.1h-.6l-.8.1h-.8l-.2.1h-5.8v.1h-.5l-.1.1h-.5l-.2.2h-.9l-.2.1-.6.3h-.4l-.2.2-.3.2h-.1l-.2.2h-.1v.2l-.3.1v.1l-.2.2v1l.1.2h.4v-.1l.5-.1.3-.3h.2l.1-.2h.1l.1-.2h.2v-.1l.2-.1h.5l.4-.1h.7v.1h.2v.1l.1.1h.1v.1l.2.1.2.1h.2l.1.1h.7l.2.1h.5v-.1h.6l.1-.1h.8l.1-.2h.4l.2.1h.8v-.1h.6l.1-.1h.1l.2-.2.1.2h-.1l-.1.2v.5h-.1v.1l-.2.1-.1.1-.2.2h-.6v.1l-.2.1v.1l-.1.2h-.4l-.1.1h-.2v.1h-.7v.2l-.2.2v.2l-.2.2h-.4v.1l-.1.1v.2h-.9l-.2.2h-.2l-.2.1h-.2l-.1.2h-.7l-.2.1h-.5l-.2.1h-.6v.5l.1.1v.7h-.1v.7l.1.2.1.3.1.3v.1h.1v.2l.1.1v.2l.1.3.1.2v.4l.1.1v.4l.1.2h.2v.2h-.1v.4l-.1.1v.1l-.2.2v.1l-.3.4-.3.4v.1l-.1.2-.2.1h-.2v.2h-.2v.1h-.1l-.3.4h-.1l-.1.2-.2.2h-.1l-.1.1v.1h-.1v.1l-.2.1-.2.2-.1.1-.3.3h-.1l-.2.2-.2.1-.2.2-.2.1v.1l-.3.1-.5.2h-.4l-.7-1.1-.4.3h.1l.2-.2h.1l.4.6v.1l.3.4-.2.3-.2.2-.3.3-.1.1h-.1v.2h-.2l-.1.1v.1h-.1v.1h-1.3v.1l-.4.1h-.2l-.2.1h-.6l-.4.2h-1.2l-.2.1h-1l-.2.1h-.6l-.1.1h-.2l-.2.1h-.2l-.1.1h-.4v.1h-.9l-.1.1h-1.7l-.2-.1-.3-.2h-.2l-.3.2-.3.1-.1.1-.1.1-.3.2v.2l-.2.2-.2.4-.1.1-.1.1-.2.2-.5.2v.2l-.2.2v.6l.1.1h.7-.1.3v-.1l.2-.1.1-.1v-.1h.1l.1-.1h.2v.1h-.1v.1l-.1.1h-.1l-.1.1-.1.1h-.2v.1h-.7v.3h-.2v.6l.2.1v.1l.1.1v.1l-.2.3v.1l-.2.1-.2.2h-.2v.1h-.1l-.1.1v.1h-.3v.1l-.2.1-.5.3-.2.1-.1.2v.2h-.1l-.1.2v.4h-1.4l-.4.2h-.1l-.2.2-.2.1v.5l-.1.2v.2l.2.1v.1l.1.1h.1v.1h.4v.1l.5.3h.1l.1.2.1.2.1.2.1.2v.4l.1.2h.1v.2l.1.2v.6h.4l.2.1v.1h.1l.1.2h.1l.1.1v.3h-.1v.2h.2l.2.3h.1l.1.2v.6h.1v.2l.2.2v.3l.2.1.1.3.2.2.1.1v.2h.1v.1l.2.1.2.1h.6v.1l.2.2.1.6v.6l.1.2h.1v.2l.2.3h.2v.1l.1.2.3.1h.1l.2.1.2.2h.7v.1h.2v.4h.1l.2.1.1.2v.3l-.1.2h.6v.1h.4v.1l.1.2v.3-.3l-.1-.2h-.9l-.1-.1v-.6l-.1-.1h-.2v-.3h-.1l-.1-.1-.1-.2h-.2l-.3.2h-.1l-.1-.2-.3-.1-.3-.1h-.2l-.2-.1-.2-.2-.3-.1v-.3h-.1v-.2h-.1v-1.2h-.2l-.1-.1h-.6l-.1-.2h-.1l-.1-.2h-.1l-.1-.1-.1-.2h-.1l-.1-.1v-.1l-.1-.1v-.1l-.4-.3v-.7l-.1-.4v-.3h-.1l-.1-.2-.2-.3v-.3h-.1l-.2-.2h-.3l-.4-.1h-.2v.1h-.1l-.1.2v-.1l-.1-.2v-.1h-.1v-.6h-.1v-1.2h-.2l-.1-.3-.2-.2v-.3l-.1-.1-.2-.1h-.1l-.2-.2-.1-.1-.2-.2h-.1v-.1l-.1-.2v.1l-.3-.1-.2-.1h-1.2l-.3.1h-.2l-.1.1-.2.1h-.2l-.2.1-.4.2-.4.2v.2h-.8l-.2-.2h-.4v.1h-.1v.2h-.2v-.1l-.1-.1h-.3v.3h-.4l-.1-.1h-.1l-.1-.2h-.2l-.1-.1-.1-.1h-.6v-.6h-.5v.3l.2.1-.2.2-.1.2-.2.2-.1.2-.2.2-.2.1-.1.2-.1.1-.1.2h-.1v.3l-.2.3-.1.2-.1.2h-.1l-.1.1-.2.1h-.9v.1l-.1.2-.1.2-.2.4v.2l.1.5v1.2l-.2.2-.2.2-.1.1-.1.2-.1.2v.8l.1.3v.1l.1.1.1.2h.2v.1l.2.1v.4h-.1l-.2.3v.1l-.1.1v.1l-.3.5v.3l.2.2h.1l.1.2h.2v.7l.1.4v1.4h-.1l.1.2h1.6l.1.1.1.2v.4l-.1.1-.1.2h-.1v.2l-.2.2v.5h.2v.2h.1-.2v.2h-.1v.3l.2.4v.8l-.1.1-.1.1-.2.1v.4l.3.1.1.1.2.1.1.1.1.1.1.1.2.1v.2l.1.5v.2l.2.3.2.1h.5v.1h1.1v.1h.3l.2.1.2.2.2.6.1.4v.2-.2l-.2-.2v-.4l-.1-.1-.1-.2-.1-.1-.2-.1v-.1h-1.8l-.2-.2h-.2v-.1l-.2-.3-.1-.4v-.1l-.2-.2-.1-.3h-.1l-.1-.2h-.1l-.4-.2v-.1h-.2v.1l-.2-.1v-.1l.2-.7v-.1h.1l.1-.3v-.4h-.3l-.1.1h-.4v.1h-.2l-.2.1-.2.1-.1.1h-.2l-.2.1-.1.2-.2.2-.1.1-.1.1h-.6l-.2.1-.2.2v-.1l.2-.1.1-.1.2-.1h.4l.2-.2v-.1l.3-.2h.2l.1-.1v-.1h.1l.4-.2h.1l.2-.1h.2v-.1h.2v-.1h.2l.1-.2v-1.4l.2-.3v-.6h-.5l-.1.1h-.4v.1h-.5v-.1l-.2-.2v-.1l-.1-.5v-.6h.1v-.2l.1-.2v-.7h-.7l-.1-.2h-.1v-.8h.1v-.5h.1v-.2h.1v-.1l.1-.1v-.1l.1-.2h.1V798h-.1l-.1-.3h-.1v-.2l-.1-.2v-.7l.1-.3.1-.5.1-.4v-.3l.2-.2v-.4h-.3l-.2.3-.1.2-.2.1-.1.2-.2.2-.2.2-.1.1v.1h-.1l-.2.5h-.2l-.2.1-.4.1h-.3v-.1l-.1.2-.3.2h-.1l-.2.1-.1.2v.2h-.2l-.2.1-.2.2-.2.1h-.5l-.1.1-.2.2h-.3v.2h-.2v-.2h.5l.2-.2.1-.1h.5v-.1h.1v-.2l.2-.1.1-.2h.1l.1-.3h.1l.4-.3.2-.2h.3v-.1l.3-.1h.3l.2-.1v-.1l.1-.2h.1l.1-.2v-.4l.1-.1.1-.1v-.2h.1v-.1l.2-.2.1-.1.1-.2h.3l.1-.3v-.2l.2-.1h.2l.1-.1v-.3l.1-.2v-.2l.3-.3.1-.2.2-.2.2-.1h.5l.4-.1.1-.2v-1.1h-.1v-.8l-.2-.2v-.2l-.2-.1h.3v.1l.1.1.1.1h.1l.1.2v.1l.2.1v.5h.4v-.1l.1-.1.1-.1.2-.2v-.2h.1v-.2l.1-.1.2-.2.1-.1.1-.1h.1l.1.3h.1v-.5h.4l.2-.1h1.3l.2-.1h.9v-.4h-.1v-.4l.1-.2h.4v-.1l.1-.1h.1v-.2h.1v-.2l-.2-.4-.2-.2h-.5.1l.1-.1h.4v.1l.1.1h.2l.1-.1v-.2l.2-.3h.1v-.1l.1-.2h.1l.1-.1.2-.3.1-.1v-.1h.1v-.1h.3l.2-.2v-.2l.1-.3v-.3l.1-.3v-.2h.1v-.4h.1v-.3h.1l.1-.2v-.1l.1-.2h.1l.1-.1.3-.3v-.9h-.1v-.1h.1l.1.1.1.1v.1l.2.1h.2v.1h.2v.1l.1.2v.4l-.2.1-.1.1v.1h-.2v.1h.1l.1.2.1.2v.4h.2v-.3h.1v-1.5l.1-.3h.1v-.8l-.1-.3V779l.1-.1v-.3l-.3-.4v-.2l-.1-.2h-.1v-.1l-.2-.2v-.2l-.2-.2-.1-.2-.1-.2-.1-.1v-.2l-.3-.3v-.1l-.2-.3v-.1l-.4-.5v-.3l-.2-.1v-.2l-.2-.3-.2-.3-.2-.2v-.1l-.2-.2v-.2l-.2-.2h-.1l-.1-.2-.2-.1-.1-.2h-.1l-.3-.3-.2-.2-.2-.1h-.3.1v.3l-.1.2-.1-.2v-.5l.1-.1v-.1l.2-.2v-.7l.1-.2v-.6l-.3-.5v-.3l-.3-.4.1-.2h-.2v-.1h.2v-.4h.2v-.1l.1-.2v-.2l.2-.1v-.7l-.1-.3v-.1l-.1-.2h-.1v-.4h-.1l-.1-.2h-.1v-.8h.2v-.1l.1-.2v-.2h.2v-.2l.1-.1v-.2l-.1-.1v-.1l-.1-.1-.1-.3-.2-.2-.2-.3-.1-.2-.2-.1-.1-.2-.3-.2-.2-.2-.2-.1-.2-.2h-.2l-.2-.3-.2-.1h-.1l-.2-.2h-.2l-.3-.3h-.1l-.2-.1-.3-.2h-.3l-.2.1h-.4v.7l-.1.1h-.1l-.2.1h-.7l-.3-.1-.2-.2-.2-.2h-.3v.1l-.2.1h.1v.1h-.1v.1h-.1v.1h-.4v.1h-.1l-.1-.1h-.1v-.1l.2-.2-.4.2.2.1h-.2v.1l.2.2v.1h-.3v.1l-.2.1-.2.2v.3l-.1.2-.1.2-.1.1v.1l-.1.1-.1.2h-.1l-.1.2-.2.2v.1l-.2.1v.2h-.3v.1l-.2.1v.1h-.1v.2h-.1v.8l.1.3v.1h-.1v.2h-.1v.5h-.1v.3h-.2v.2l-.2.2h-.1v.2h-.1v.1h-.3l-.1.1h-.1v.4h-.1v.2h.1v.3h-.1v.3h.5v.3h-.1v.4l.1.2v.5h-.1v.9l-.2.2v.5h-.1v.1h-.4v.1h.2v.4l-.3.2v.3l-.2.1v.1l-.1.1-.2.3v.1-.4l.2-.2h.2v-.4h.1v-.1h.1v-.1h.1v-.1l-.2-.1v-.3l.1-.2h.4v-.4l.1-.1v-.9l.1-.1h.1v-.3l-.1-.1v-.1l-.1-.2v-.3l.1-.2h-.3v-.2l-.1-.1v-.2l-.1-.1v-.1l-.1-.1h.2v-.4l-.1-.1v-.1h.1v-.2h.3v-.1h.2v-.2l.1-.1v-.3l.2-.2v-.1h.1v-.5l.1-.2v-.2h.1v-1.2l.1-.1h.3v-.2l.2-.2h.1l.1-.2.1-.2.1-.2h.1v-.3l.1-.1v-.2h.1v-.2l.1-.1v-.7h.1v-.1l.2-.1v-.1l.2-.1.1-.1h.1v-.1h.3l.2.2v-.6l.1-.1h.1l.2-.2v-.4l.1-.1h.3v-.1h.1l.1-.1h.1v-.1h.7l.4.1h.5v-1.1l.4-.5h.1l.2-.1.2-.1h.1v.2l-.3.3v.1l-.1.1v.1l.2-.1.2-.1v.1l.3-.2.2-.2.2-.1.1-.2v-.7l-.2-.1-.2-.1-.1-.1-.3-.2-.2-.2-.3-.2h-.2l-.3-.1h-.4l-.2-.1-.2-.1h-.4v-.1h-2.1l-.4.1h-1.2v-.1l-.1-.2h-.2l-.1.1h-.1l-.2.1h-.3l-.3.1-.8.1h-2l-.2.1v.2h-.2l-.2.3-.2.1-.1.2-.1.2h-.1l-.2.3-.1.1-.1.1v.1l-.2.2-.4.3v.1l-.3.2h-.1l-.2.1-.1.1-.3.2v.1h-.1l-.3.2-.5.3-.2.1-.3.2-.2.1-.2.1-.2.1h-.2l-.1.1-.3.1h-.1v.1h-.2v.2h-.1v-.1h-.3l-.3.1h-.4l-.6.1h-4.6l-.1.2h-.1l-.1.2-.2.2-.5.5-.1.1-.1.1-.2.1-.2.2-.1.2-.1.1-.1.1-.1.1h-.1v.1h-.2v.2l-.2.2-.2.3-.1.3-.1.1-.1.2-.2.2-.3.3-.2.2-.2.1-.2.2-.3.2-.3.2h-.1l-.2.2h-.1l-.2.1-.2.1v.1h-.2l-.2.1-.2.1-.2.1h-.2v.1l-.6.2h-.2l-.2.1h-.5v.1h-.3l-.3.1h-.3l-.2.1h-.3l-.1.1h-.2v.1l-.4.1-.3.1h-.6v.2h-.1v.2h-.2v.2l-.1.1h.1v.5l.2.2.1.3h.1l.2.2h.1-.1v.1l.2.2h.1l.1.2v.1-.1h.3l.1.2v.2l.1.2.1.1v.5h-.1v.2h.3l.2.2v.1l.2.3v.5h-.1v.5h-.1v.5l.1.2h.2l.2.2h.1l.1.1.1.1v.3l.1.2h.1-.1v-.2l-.1-.1-.2-.2h-.2l-.1-.2h-.2v-.2h-.3v-.9h.1v-.7l-.2-.1v-.1l-.2-.1v-.5h-.3v-.4h-.1v-.3l-.2-.2v-.1h-.3v-.1h-.2l-.3-.1h-.2v-.2h.1l.2.1.1.1v-.3h-.1v-.1h.3l-.2-.3h-.1v.1l-.2.1v.1h-.3v-.1h.4l.1-.2v-.1l-.1-.2h-.1v-.2l-.1-.1-.1-.2h-.2l-.1-.2h-.2l-.1-.2-.1-.1-.6-.4-.3-.2-.4-.3-.1-.1-.6-.4-.2-.1h-.2l-.1-.1h-1.5l-.2-.1h-.6l-.2-.1h-.8l-.2.1h-.3l-.1.1-.3.2h-.1l-.1.1h-.4l-.3.1h-.7l-.3-.2h-.2v.1h-.3l-.1-.1h-.1l-.2-.1-.1-.1h-.1l-.4-.3-.7-.6-.1-.2-.2-.2-.1-.1-.1-.3h-.2v.2l-.2.2v.2l-.3.4v.3l-.2.3-.1.3-.2.1-.1.2-.2.1-.1.2-.4.5v.1h-.1l-.1.2v.1h-.1l-.2.2-.1.2-.2.1-.1.1-.1.1-.2.1-.3.2-.1.1-.1.1-.1.2-.2.2-.3.4-.3.2-.2.1h-.1l-.2.1h-.5l-.2.1h-.4l-.3.1-.3.2h-.1l-.1.1h-.3l-.1.1-.4.1h-.2l-.3.2-.3.1-.1.2-.2.2-.1.2-.4.4-.3.2v.2l-.1.1v.3l.2.2v.3l-.2.2-.2.2v.1h-.2v.1l-.1.1-.3.3-.1.1v.3h.4l.2.1h.1l.2-.1v-.1l.2-.1.2.1h.2l.2.1v.1h-.2l-.1-.1h-.2v-.1h-.1l-.1.1h-.1l-.1.1h-.2l-.1-.1h-.2l-.1.1h-.2v-.2h-.3l-.2.1-.3.2-.3.2h-.2l-.1.1-.2.1-.6.2-.5.2h-.5l-.1.1-.3.2h-.2l-.4.2h-.1l-.1.1h-.1l-.2.2h-.4v.1l-.3.1-.2.2h-.1l-.1.2-.2.2-.1.2-.1.1h-.1l-.5.4h-.1l-.2.3-.3.2h-.2.2v.3l-.2.1-.2.3h-.1v.1l-.2.2v.2l-.3.2-.3.4-.2.1-.1.2-.1.1-.1.1v.3l-.1.1v.2l-.1.1v.2l-.2.3v.3l-.1.1v1.3l.1.2.3.6.1.1v.2l.2.1v.7l.1.3v.2l-.1.1-.2.3v.1l-.3.3v1.1l-.1.1v.2l-.1.5v.4l-.1.2h.1l.1-.1v-.2h.1v.1l-.1.1v.1l-.2.1v.2h-.1l-.1.3h-.1l-.1.2-.2.2-.2.2v.1l-.2.1v.1l.1-.1h.1l.2-.2v.2l.1-.1v.3l-.1.1v.3l-.2.2-.9.2v.2l.1.1h.1l.4-.1h.2v-.1h.3v.1l.2.2.2.1.1.1.2.1.2.1v.3l.1.1.1.1h.1v.2h.3l.1.1.2.1.2.1h.4v.1l.2.2.2.2v.2h.2v.2l.2.1v.3l-.1.3v1.5h.1l.3.1.3.1h.4v.2h.3v.1h.1l.2.2.2.1.2.4v.3l.1.2h.1l.2.2h.7l-.1.2v.3l.2.1.1.1.1.2.1.3v.3h.1l.1.2.1.1v.1h.2v.1l.1.1.3.3v.1l.1.2.1.2.1.1.1.1.1.2.2.1v.1h.2v.2h.2v.5l.2.2.2.2.2.1.2.1.5.3.3.2.2.2h.3l.2.1h.2l.2.1h.1v.3h.2l.1.2.2.2v.1l.1.1.2.2h.6v-.1h.3l.2.1h.2l.2.1.2.2h.1l.2.1h.1l.1.1h.1v.1l.1.1.1.2.1.1h.2v.1h.5l.2.2h.6l.1-.1h.1v-.1h.1v-.1h.2v-.2h.2v-.1h.3l.1.2h.1l.1.1v.2l.1.1v.3l.1.1v.2h.1v.2l-.2-.1v-.2h-.1v-.3l-.1-.1v-.2h-.1l-.1-.2h-.2l-.1.1-.2.2h-.1l-.2.2h-.1l-.2.1h-.2l-.1.1-.1.1v.3l-.1-.3h-.1l-.2-.2h-.5l-.3-.2-.1-.1v-.1l-.1-.1h-.3l-.3-.2h-.2v-.1h-.2v-.2l-.2-.1-.3-.1v-.3h-.2v.2h-.1l-.2.2-.1.1v.9l.2.1v.1l.3.2.1.2.2.1v.1l.2.3v.2h-.1l-.2.3h-.2v.2h-1v.2l-.1.1-.1.1h.2l.2.1.1.1h.1v.4l.2.3v.2l-.1.1v2.3l-.1.2-.2.3v.6l-.1.3-.2.4v.3l-.1.5v.4l-.2.4-.1.4v.3l.4.2h.4l.5.1h.1l.2.1h.2v.2l.4.2v.1h.2l.1.1v.2h.2v-.2h2.4v.1h.8l.1-.1h.4l.2-.1h.3l.4-.1h.1v.1l.2.1.4.3.2.1v1.3l-.1.1v.3l-.1.2-.2.3-.2.4h-.1v.1l-.1.1-.3.4-.2.2-.2.4-.2.4-.1.2-.2.2v-.2l.1-.2h-.1l-.3.4v.2l-.2.2v.5h.1l.2.2.3.2.4.3.6.3.2.1h.2l.1.1h.1l.1.1h.1l.2.1h.2l.3.1h.4v.1h.1v2l-.1.1v.2l-.2.2v.7l-.2.2-.1.2h-.1l-.1.1-.2.1-.5.3-.3.2v.1h-.4l-.2.1-.1.1-.1.1v.1l-.4.2h-.1v-.2h.1l.1-.1.1-.1v-.1h.1v-.1h.2l.2-.2h.1v-.1l.2-.2h.3l.3-.3h.2v-.1h.2v-.1h.2v-.2h.2v-.1l.1-.4v-.9l.1-.4v-.2h.1v-.6l-.1-.2-.1-.1-.2-.2h-.6l-.3-.2h-.5l-.3-.2h-.3v.1h-.2v-.1h.1v-.1l-.2-.1-.3-.3-.3-.2-.2-.1v-.1h-.2v-1l.2-.2.3-.4.2-.5.3-.4.2-.2v-.3l.2-.3.1-.3v-.1l.2-.3.1-.1v-.1l.2-.7v-.8h-.1l-.1-.2h-.1l-.1-.2h-.8v.1h.1l-.2.1h-.4l-.2.1h.8v.1h-.1l-.4.2h-.4l-.3.2h-.9l-.2-.1h-.2l-.2-.1h-.2l-.5-.1h-.1v-.1h-.1l-.1.1h-1.5l-.3-.2h-.4l-.3-.2h-.5v.1l-.1-.1-.2-.2-.2-.1v-.1l-.2-.2-.1-.1v-.1l-.2-.1-.1-.1h-.2v-.1l.2-.1v-.2l.2-.2.1-.2.1-.1v-.1l.2-.2.2-.1v-.1l.1-.3v-.2l.1-.2v-.1h.1V814l.1-.4v-.3l.2-.3v-.3h.2v-1.4l-.2-.3-.1-.3v-.1l-.2-.1v-.1l-.3-.1v-.1l-.2-.1-.1-.2h-.1l-.2-.3-.1-.1-.1-.1-.3-.2-.1-.1v-.7l.2-.2.2-.1v-.1l.2-.1h.2l.2-.2h.2l.2-.1.2-.2.4-.1.2-.1.1-.2.1-.1v-.2h-.1v-.4l-.2-.3-.1-.1-.1-.2h-.2l-.3-.2h-.1l-.3-.1-.2-.1-.1-.1-.2-.1-.1-.1-.3-.2-.2-.1-.3-.1h-.2l-.2.1-.1.2h-.1v.1l-.2.1v.1h-.2l-.2.1h-.2l-.2.1-.3.2-.1.2h-.1v.2h.1v.3h.1v.3h-.1v.2-.1h.4l.1.1h-.2v.1l-.2.2-.3.3v-.9l-.1-.2v-.2h-.1l.1-.1h.1v-.1h-.2l-.1-.1v-.3l-.1-.2-.2-.2h-.1l-.2-.2v-.1h-.1l-.1-.1-.2-.2-.1-.1h-.2v-.2l-.2-.1v-.4h-.1l-.1-.1v-1.1l-.2-.2-.2-.1-.4-.2h-.2l-.1-.1-.1-.2-.2-.4-.1-.2v-.6h.1v-.1h.1l-.1-.1h-.1l-.2-.2h-.1l-.1-.2h-.2l-.2-.2v-.5l-.2-.2v-.1l-.1-.1-.2-.1-.2-.1h-.3v-.4l.2-.2v-.1h.1v-.2h.1l.2-.2.1-.1v-.2h-2l-.3-.1h-1.2l-.4.1-.1.1h-.2v.2h-.1l-.1.2h-.1v.5l-.1.1v.3-.4h-.2v.4-.5l-.1-.2-.1-.1-.3-.1-.4.4v.3h-.1l-.2.1-.2.1-.2.3h-.3v.1-.1h.2v-.1l.2-.2.1-.2h.1v-.2h.1v-.2h.1l.1-.4.1-.2v-.3h.1v.1-.2h-.1v-.2h-.1l-.1-.1v-.1h-.1v-.2l.3.2v.1h.1v-.1.1h.2v.2h.1v.1h.2l.1.1h.2v-.4l.1-.2h.1l.3.1h.2l.1-.2.2-.1v-.1h.2l.3.1h.1l.1-.1h.3l.1.1h.4l.2.1h.2l.1-.1.1-.1v-.8h-.1v-.2h-.1v-.1h-.2l-.2-.1v-.1h-.2l-.2-.1v-.1l-.2-.1-.2-.2h-.2v-.2h-.1l-.2-.1-.1-.1-.2-.2-.3-.3-.1-.1v-.7l.1-.5v-.2.2h-.1v-.8l.2-.2v-.2l.1-.1.1-.2.2-.3v-.2l.2-.2.1-.2.1-.2h.1v-.3l.1-.1v-.1h.3v.2h-.1v.2h-.1v.1h.4v-.7l-.1-.1-.1-.2-.3-.2h-1l-.4.3h-.2l-.4.2-.2.1h-.3l-.4.3-.4.3-.2.1-.2.3-.2.3-.2.1v.4l-.1.1-.1.1h-.1l-.3.1-.9.3-.5.2-.8.1h-.7v.1h-.1l-.6.2-.3.1-.1.1-.1.1v.3l-.1.1v.2l-.1.2h-.1l-.1.2-.4.4v.6l-.2.1-.1.2h-.2v.1l-.3.1h-.2v.5-.1.3l-.2.7-.1.2v.2l-.1.1v.1l-.4.6v.4l.3.3.1.1.2.2h.1l.1.1.1.1v.2h.1v.1h.1v.4h.2v.1h.3l.1.4.1.2v.1-.1h.1l.1.1h.3-.1v-.1h-.2v-.2h.1l-.2-.2h.2-.2v-.3h-.1v-.1h.2v.1l.1.2v.1h.2v.2l.2.1v.5h-.1v.3l-.1.1v.4l-.1.2v.4h-.1v.2h.2v.3l.2.2.2.4.1.1h.1l.2.1.2.1h.2l.1.2.3.3.2.4.2.2.1.2h.1v.3l.1.1.2.4.2.2v.1l.2.4v1.1l.1.3v.1l.1.1v.1l.2.1h.1l.1.1h.8v.2l.2.1v.5l-.1.3-.2.3-.1.2v.2h-.1v.4l-.1.2-.1.5v.2l-.1.1v.1l-.1.1h-.1v.1h.2v.1h.1l.2.2.2.1v.2h.1v.2l-.1-.1v-.2l-.2-.1v-.1l-.3-.2-.1.1-.2-.2v-.4h.1v-.2h.1v-.4l.1-.6v-.2l.1-.2.1-.2.1-.1.2-.3v-.3h.1v-.3l-.1-.1h-.1v.1l-.2.1h-.4l-.3-.1h-.1l-.1-.2h-.1v-.1l-.1-.1-.1-.2v-.2l-.1-.2-.1-.3.1-.5v-.5l-.2-.2v-.1h-.3v-.2l-.1-.2v-.2l-.1-.1-.1-.1-.1-.1-.3-.3-.1-.2-.2-.1h.1v-.3h-.2v-.1l-.3-.1-.2-.1-.1-.2-.2-.1-.1-.2h-.1l-.1-.2h-.1l-.2-.2h-.1v-.1l-.2-.1v-.2l-.1-.2-.1-.2v-.1h-.1v-.1h.5v-.4l.1-.2v-.4l-.2-.1-.1-.1-.1-.1v-.3h-.1l-.2-.1-.2-.2-.3-.2v-.3l-.1-.2h-.2v-.4h.1l.2.3h.1v.4l.1.1v-.6h-.1l-.2-.2v-.1h-.2l-.1-.1-.1-.3-.1-.1-.1-.1-.1-.2-.2-.2v-.1l-.2-.2h-.8v-.2l.3-.2h.1l.2-.1v-.1l.1-.1.2-.2.2-.2h.2v-.1l.2-.1h.1v.1l-.2.2-.2.1v.1l-.1.1h-.1v.2l.2.1v.3h-.1v.1h.2v-.2h.2v-.3h.1v-.5h.1l.1-.2v-.1l.1-.2v-.7l.2-.2v-.1l.1-.1.1-.1v.1h.2l.2-.1h.1l.1-.3h.1v-.4l-.2-.1v-.3l-.1-.1-.1-.2v-.2h-.1l-.1-.2h-.1l-.2-.2h-.2v-.1l-.3-.1-.7-.2h-.6l-.2-.1h-.3l-.6-.2h-.2l-.4-.1-.4-.2h-.8v-.1l-.5-.2h-.5l-.8-.2-.5-.1h-.5l-.6-.2h-1.5l-.1-.1h-.7l-.1.1-.2.2-.2.2v.1l-.1.1-.1.1h-.5v.2h-.1v.1l-.1.1-.2.2v.1h-.2l-.3.2h-.4v.1h-.1v.1h-1.2l-.1.1h-2.7l-.6-.2h-.3v-.1h-.1v.3h-.2l-.1.1-.1.1h-2.2l-.2-.1h-.4l-.4-.2-.3-.1h-.2l-.3-.1h-.2l-.1-.1h-.3l-.1-.1-.2-.1h-.1l-.2-.1-.2-.1h-.1l-.2-.1h-.5.5v.1h.2v.2l.3.2.1.2h.1l.2.2h.2v.1h.1v.3l.1.2v.2l.2.2v.2l.1.1v.1h.2v.2l.1.2h.1v.2l.1.1v.5h-.1v.2h-.1v.2l-.1.2-.2.3h-.1l-.1.1h-.4v-.1h-.2l-.1-.1h-.1v.1h.1l.3.2.1.1h.1v.4h-.1v.1h-.2v.1l-.3.1v.1l-.1.2-.2.2-.1.2h-.1v.1h-.6v.1l-.2.2h-.1l-.3.1-.1.1-.3.4-.2.2-.3.3h-.2v.1h-.1v.1h-1.3l-.2-.1h-.1v.1h-.5v1.4l.1.2.2.3v.1l.3.2.3.3.1.3.3.3v.2h.2l.1.1.1.2v.2h.6l.2.1h.1v.2l.1.1h.6l.3.2.1.1h.2v.1h-1.4v.1h-.1l-.1.1v.1h-.1v.7l.2.2.3.3.3.3.3.4v.3l.1.1.3-.1h.7l.2.2.2.1.1.1v.7l.2.2h.2l.3.1h.1v.3l-.2.3v.1h-.2l-.1.1-.1.2v.2h.1v-.1h.1l.1-.1.2-.1h.3v-.1l.4-.2h.2l.2.1h.3l.3-.2h.2l.3-.2h.3l.2-.2.2-.1.2-.1.1-.1h1.3v.1l.2.2v.1l.1.2.1.1v.2l-.1.2-.1.2v.5l-.1.2v.4h.2l.3.2.1.1.1.2v.1h.1v.1l.1.1v.4l-.1.2-.1.2-.1.1-.2.2-.1.1v.2l-.3.2v.1l-.1.1h-.1v.2h.5l.2.2h.3v.1l.4.3v.1h.7v.1h-.9v-.2h-.2l-.1-.1h-.1l-.3-.1h-.3l-.2-.1h-.4l.1.4.1.2v.9l-.2.3-.2.2-.2.4-.2.2v.1l-.1.2-.1.2-.2.2v.2h-.1v1l-.2.1h-.2v.1h-.6v.1h-.2l-.1.1-.2.2-.1.1v-.2l.2-.2.2-.1h.2l.1-.1h.1l.1-.1h.5v-.2h.1v-.2h-.1v-.7l.1-.2v-.1h.1l.2-.3v-.2l.1-.1.2-.3.1-.3h.1v-.2l.2-.2h-.2v-.1h.3v-.5l-.2-.1v-.4l-.1.1h-.1v-.3l-.1-.1v-.1l.1-.2.2-.4.3-.2v-.1l.2-.2.2-.3v-.9h-.1l-.3-.2v-.1l-.2-.3-.1-.3v-.2h-.1v-.6l-.3-.1h-.3l-.1.1h-.4l-.2.2h-.2l-.1.2h-.3l-.7.1h-1.1v-.1l-.3-.1h-.2l-.1.2v.1h-.1v-.3l.1-.2-.2-.2h-.1v-.2l-.1-.2-.1-.4v-.1l-.3-.2-.3-.2h-.4l-.3-.2-.2-.1h-.1v-.1l-.1-.1-.2-.4-.2-.4-.2-.1h-1.6l-.1.1-.2.1h-.1l-.1.1-.2.2-.1.1v.6h-.1v-.2l-.2-.3v-.2l.1-.2v-.1l.1-.2.2-.2v-.2l-.3-.2-.2-.2-.1-.3-.1-.2-.1-.1v-1.4l.1-.1.1-.1v-.3l-.1-.1h-.3l-.1-.1h-1.2l-.1.2h-.1l-.3.2-.2.2v.1l-.3.1-.1.1h-.1l-.1.1v.1h-.2l-.2.1-.4.1h-.5v1.2l-.1.2-.1.1-.1.2-.2.4v.1h-.2v.4l-.1.2v.1l-.1.2v.2l-.2.2-.2.1-.2.2h-.1l-.2.2h-.1l-.2.2h-.1l-.2.1-.1.3h-.1l-.2.1v.1-.1l-.2-.1-.1-.1-.1-.1h-.2v-.1h-1.6l-.2.2h-.6l-.1.1v.2l-.2.2v.1l-.1.1v.1l-.1.1v.1l-.2.1v.6h-.1v.4h-.1v.5h-.1v.2h-.1l-.1.2v-.4h-.2l-.3.2h-.5l-.2.1h-.1v.1l-.3.1-.1.1-.1.1-.1.2h-.2v.1h-.1v-.1l.2-.1v-.2h.2l.1-.2h.1l.3-.2.4-.1h.1l.3-.2v-.1h.2v-.2h.2v-.3l.1-.2v-.3l-.1-.1v-.8h.2l.2-.2h.1v-.8l-.3-.2h-.6l-.2.1h-.1l-.2.1h-.3l-.2.2v.2l-.1.2v.5l.1.1.2.1v.1h.1l.1.1h.1v.1l.2.3h.1v.7h-.1l-.1.1-.1.1h-.3l-.2.1h-.1l-.3.1h-1.1l-.2.1h-1.8l-.2-.1h-1.3l-.5.1-.1.1-.1.1-.1.2v.3l-.1.1-.2.1-.2.1-.3.1h-.4l-.1.1h-.3l-.1.1h-.2l-.2.1-.2.1-.1.2h-.1l-.2.2v.1l-.1.1v.1l-.1.4v.8h-.1v.5l-.1.2-.1.1-.3.2h-.1l-.1.2h-.2v.1h-.2l-.2.3h-.1l-.2.1-.4.4-.2.2-.2.1-.2.3-.1.1-.1.1v.1l-.1.3v.1l-.3.3-.2.1-.1.2-.2.2h-.3v.1l-.1.1.1.2v.1l.1.4v.1l-.1.1-.2.2v.1h-.1l-.2.2-.3.2-.2.2v.2l.1.2h-.4l-.2.2-.2.2h-.6l-.2.1h-.1l-.5.2h-1.1l-.2-.1h-.3l-.2-.2v-.1h.5l.5.2h.8l-.2-.1h-.7l-.1-.1h-.7l-.2-.1h-.3l-.1.2v.2l.1.1h.1l.5.2h.7v.1h.1l.1.1v.9l-.1.1-.2.3-.3.4v.1h-.3v.2h-.5l-.1.2v1.2h-.1l-.1.2h-.1l-.2.2-.1.1-.2.2-.2.1h-.1l-.1.1h-.2v.1h-.5l-.2-.2h-.2v-.1l-.5-.1h-.4l-.2.2-.2.2h-.2v-.1h.1l.2-.2.2-.2h1.1l.2.1h.1l.3.2h.4l.3-.3.2-.2.1-.1.2-.2v-.2l.1-.2v-.9h.1l.1-.2v-.1h.4l.4-.3h.1l.2-.2v-.2l.1-.2.1-.3v-.6h-1.4v-.1l-.1-.2v-.5l.2-.2v-.1h1.8l.5.2h.5v-.1h.4v-.1h.3l.3-.2h.2v-.2l.1-.2.1-.2.2-.1.1-.2v-.4h.1v-.2h.1l.2-.2v-.2l.2-.1v-.1l.2-.1v-.2l.2-.1h.1v-.2h.3l.1-.3v-.1l.1-.2.1-.1.1-.2.1-.2.1-.1v-.1h.1v-.1h.2v-.2h.1l.1-.2.3-.1v-.1l.1-.1v-.4h.2l.1-.1v-.2h.1l.1-.1.2-.3v-.2l.2-.3v-.1l.1-.2v-1.7l.1-.1v-.4l.1-.2.2-.2.2-.1.1-.2v-.1h.3v-.1h.2l.2-.1h1.1v.1l.3.1h.7l.2-.3v-.3l.1-.1v-.3l-.1-.1-.2-.1v-.1h-.1l-.2-.4h-.1v-.2h-.2v-.7h-.1v-.7h.1v-.5l.1-.1v-.1l.1-.1v-.3l-.3-.2h.3l.1.1h.1l.1.1v.5h-.1v.3l-.1.3v.7h.2v.2l.3.2v.1l.3.1v.1l.1.1v.1l.1.2.1.1v.3l.1.1h.1l.1.1h.5l.2-.1h.3l.1-.1.2-.1.3-.1.5-.3h.3l.1-.2.1-.3v-.2l.1-.1.1-.1h.1l.2-.2.2-.3.2-.3v-.2h.2v-.1l.1-.1v-.6l.2-.2h.6l.4-.2h.1l.1-.1h.1v-.1h.1l.3-.2.5-.2h.5l.1-.1h.9v-.1h.2v-.2h.3l.2.3.3.2h.4v.1h.5v.1h1v-.1l.2-.1.1-.2v-.1l-.1-.1v-.3l.1-.4v-.1h.1l.2-.2.1-.2.1-.1v-.6l.1-.4v-1l-.2-.2v-.2h.9v-.7l.1-.1h.4l.3.2h1.5l.2.2h.5v-.5h.1l.1-.2h.2v-.3l.1-.1v-1.4l-.1-.1v-.2l.1-.1h.1l.1-.1.1-.2v-.2h.2v-.2l.1-.1v-.9l.1-.1.2-.2.3-.2h.6v-.1h.8l.1-.1-.1-.2h-.2l-.1-.1h-.2l-.2-.1h-.3l-.1-.1v-.4h.5l.2.1h.4l.1.1h.3l.1.1h.3l.1.1h.3l.2.2h.5-.2v-.1l.1-.1h.1l.2-.1h.2l.3-.2h.1v-.1l.3-.2h.3l.2-.1h.2v-.1h.1l.1-.1h.3l.2.2v-.2h-.2v-.1h-.1v-.5h-.1v-.4l-.5-.2h-.1v-.1h-.2l-.2-.1h-.1v-.1h-.3l-.2-.2h-.5l-.1-.1-.2-.1h-.1v-.1h-.2l-.1.1h-.3l-.1.1h-.6l-.3.2h-.2l-.4.1h-.2l-.3.1h-1l-.3.1h-.4l-.2-.2h-.2l-.2-.1h-.4l-.2-.1-.1-.1-.2-.1-.1-.1v-.1l-.1-.1-.1-.1-.1-.1h-.1v-.1l-.2-.1h-.4l-.3.3-.1.1-.2.1h-.1l-.1.1h-.3v.1l-.1.1-.2.1-.2.1h-.5v-.1h-1.1v.2h-.1v-.3h-.1v-.1h-.1v-.1h-.1v-.2l.1.2h1.1l.2-.2h.5v-.1h.1l.2-.1h.2l.2-.1.3-.3v-.1l.1-.1v-.3l-.2-.1v-.1h-.1v-.1h-.1v-.2h-.1v-.2h-.5.2v-.1h.4l.3.1h.2l.5-.1h.1l.2-.2.3.3.2.2h.3l.1.1h.1l.2.3h.1l.2.3.2.3h1.2v.1h.2l.3-.1.1-.1.4-.1h.2l.2-.1h.1l.3-.2h.4l.1-.2h.1l.2-.3h.2v-.2l.2-.2v-.4h.1v-.2l-.2-.4h-.2l-.2.1h-.1l-.2.2h-.4l-.2.2h-.2v-.1l.2-.1v-.1l.2-.1.2-.3v-.5l-.1-.2-.5-.3h-.3v-.2h-.4v-.2h-.5l-.2-.1-.4-.2h-.2v-.2l-.1-.1h-.6v.1h-.5v-.1h.3l.2-.1h.1l.2-.2.3-.2v-.3h.1v-.1h.1v.1l.2.1.2.2h.1l.2.2h.6l.2-.2h.3l.1-.1v-.2h.2v.2h.5l.2.1.1.1h.1l.2-.3v-.3l.2-.2v-.3l.1-.2h.1v.6h.1l.1.1v.2l.2.1h.1v.1h.5v.4l.2.2v.1l.2.1-.1.1h-.2v.1h-.3v.2h.3l.3-.1h.1l.1-.2h.1v-.5l.1-.3.2-.3.1-.2h.2v-.1h.1l.2-.1h.3l.2-.1.2-.2.2-.3h.2l.2-.2h.4l.2-.2v-.2h.1v-.2h.1v-.4l-.2-.2v-.3h-.1l-.1-.3-.2-.6v-.6h.3l.1-.1v-.3l.2-.1v-.3h.1v-.3l-.1-.2v-.2h.2v-.5h-.2v-.1h.1v-.2l.1-.1v-.1h-.1v-.2l.1-.2v-.1l.1-.1h.2v-1h.1l.2-.2h.1v-.2h.5v.1h.1v.1h.2v-.2l.2-.1v.3h-.2.2v-.3l.1-.1.1-.1v-.4l.2-.1v-.1l.2-.4v-1l.1.1.1-.3v-.3l.1-.2v-.3l-.3-1v-.5l-.1-.5-.1-.4-.1-.6v-.2l-.1-.4.2-.2v-.2l-.2-.6-.2-.4v-.3l.2-.4v-.1h-.1v-1.2h-.1l-.2-.3v-.3l-.2-.3v-.4h-.1v-.2l-.1-.6-.1-.4v-1h.1v-1.8l.1-.1v-.2l.1-.2v-.1l.4-.2v-.4h.2v-.2l.2-.2v-.2l.1-.1v-.2l-.2-.4-.1-.1-.2-.1h-.8l-.3.1h-1.9l-.4.1h-.9l-.3.2h-.3l-.1.1h-.2l-.1.1h-.3l-.2.2h-.5l-.3.1-.2.2-.3.1v.1l-.3.1v.1l-.3.2-.1.2-.6.3h-.1l-.2.1-.3.2h-.1l-.1.1-.1.2h-.2v.1l-.1.1-.2.1v.1h-.2l-.2.3h-.1v.1l-.2.1-.2.2h-.1l-.3.3h-.2v.1l-.2.1-.3.1h-.2l-.1.2h-.1l-.4.2h-.7l-.2.2h-.2l-.4.2h-.1l-.4.2h-.3l-.2.2h-.3l-.2.1-.2.2-.1.1-.2.2h-.1l-.2.2-.3.1-.2.1-.1.1-.1.1-.2.1-.1.1-.3.2-.2.3h-.3l-.1.1h-.1l-.2.2-.2.1-.3.1h-.1l-.2.1h-.2v.1h-.4l-.1.1-.3.2h-.2l-.2.1-.4.1h-.2l-.3.2h-.3l-.3.1h-1.4v.1h.7-.3l-.3.1-.3.1-.5.1h-.9l-.2.1-.2.1h-.1l-.3.1h-.5l-.4-.2-.3-.1h-.2l-.3-.2h-.2l-.2-.2h-.2v-.2h-.3v-.2h-.2l-.1-.2h-.1v-.2l.1-.2v-.2h-.1v-.1h-.1l-.2-.2v-.1h-.2l-.2-.2h-.3v-.2h-.3v-.1h-.2v-.1h-.1v-.1h-.2v-.1h-.2v-.2l-.2.1h-.1v-.1h-.1v-.2h-.2v-.3h-.3v-.1h.1-.3v-.1h-.2v-.2l-.1-.1v-.1h-.2v-.4h-.2v-.5h-.2v.1h-.3v-.1l-.1-.1v-.1h-.1v-.1h-.1l-.4-.3-.2-.2-.2-.2-.2-.1-.3-.3h-.2l-.2-.3h-.2l-.2-.3h-.1l-.1.1v.1l-.1.2-.1.2-.1.2-.3.4v.3l-.1.1v.2h-.2v.4l-.2.3-.2.3-.2.3v.1l-.1.2-.1.2-.1.2-.2.5-.1.1-.1.3v.1l-.1.1v.3l-.2.1-.1.3v.2l-.1.2-.2.1v.1l-.1.2v.1l.1.1v.1h.2v.2h.1v.4h.1v.4l.1.2h.1v-.2l-.1-.1v-.3l-.1-.1v-.3l-.2-.2h-.1v-.2l.2-.2h.1l.1-.2v-.3h.3v-.1h.1v-.4h.1v.6l-.1.1v.1h.4l.1-.1.1-.1h.5l.2-.2v-.1h.1v-.1h.2v-.1h.2v-.1h.6v.2h.2v.3l.3.1v.8l.1.1.1.2.1.1.3.1h.5v.3l-.2-.1h-.6l-.2-.2-.1-.1v-.1l-.2-.3v-.3h-.8l-.2.2-.2.1-.1.2-.2.2h-.2v.2h-.3l-.1.1v.2h-.2l-.1.1-.1.2h-.2l-.1.2v.5h-.1l-.1.1v.1h-.3v.2h-.1v.2h-.3v.4h-.1l-.1.1v.2l-.1.1v.3l-.1.1-.1.1v.2h-.1l-.3.2v.1l.1.1.3.1v.2l.2.2v.2l.2.1v.5l.2.1v.1h-.1l-.1-.1h-.1v.3h.3-.1v.1h-.1v.4l-.1.2-.1.2-.1.2v.3l-.2.3-.1.1-.1.4v.2l.1.1h.6l.2.2v.1l-.1-.1h-.5l-.2-.1-.2.1v.1l-.1.2v.2h-.1l-.1.1v.1l-.3.2h-.1v.3l-.2.1-.1.1h-.1v.2h-.1v.2h-.2v.2l-.1.2h-.1l-.1.1h-.2v-.1h.2l.1-.1v-.3l.1-.1.1-.2h.2v-.2l.1-.1.1-.1v-.1l.2-.3h.2v-.2h.1l.1-.1v-.3h.1v.3l-.2.1-.1.2h-.1l-.1.1h.2l.2-.1.1-.3.1-.1v-.1l.2-.2v-1h.1v-.1l.1-.1.1-.2v-.2h-.2v.2-.1h.1l.2-.2v-.2l.1-.2v-.4l.2-.1v-.1h-.1v-.6l-.1-.3-.2-.2v-.2h-.7v-.1l-.1-.3-.2-.1h-.1v.4h-.1l-.1.1h-.1l-.1.1-.4.2-.2.1-.3.1-.1.1-.2.1-.2.1-.2.1-.3.3h-.2l-.1.1h-.2l-.2.2-.5.1-.3.2h-.2l-.3.2h-.3l-.3.2h-.4l-.4.1h-1l-.2.2h-.1l-.2.1-.4.1h-.1l-.5.2-.2.1-.1.2h-.1l-.1.1v.2h.2v.1h.2v.1l-.1.1-.2.2h-.1v.2h-.2v.1h-.6l-.4.1-.2.1v.1l-.3.2-.2.1h-.1l-.1.2h-.1l-.1.2-.1.1-.1.2h-.1l-.1.2v.1l-.2.2-.1.1v.4h.1v.1-.1h-.2v-.4l-.2-.2-.3-.2h-.1l-.2-.2h-.1l-.1-.1h-.6v.2h-1.3v-.3l-.2-.1v-.2l-.3-.2-.3-.2-.5-.2h-1.2l-.2.1-.3.2-.1.2-.2.1-.2.2v.1l-.1.1v.2l-.1.4v.4h-.1v.7l-.1.3h-.1v.4l-.1.3h-.1l-.2.3h-.4l-.2.1h-.2l-.2.1-.2.1-.5.1h-.9v.1l-.2.2-.1.2v.1h-.1l-.2.3v.1h-.1v.2l-.2.1v.1h-.1v.1h-.1v.1h-.1v.3h-.1l.1.2h.4v.1l.1.1h.1-.7.4v-.1h-.2l-.2-.1h-.1v-.1l-.2-.1v.2h-.9l-.4.2h-.8l-.1.1-.2.2h-.4v.2h-.1l-.2-.2h-.1l-.1.1v.1l.2.1v.2l-.1.2h-.1l-.2.3-.2.2v.3l-.1.1v.2l.1.1v.4l.1.2h.2v.2l.1.2.1.1v.3l.1.3h.1l.2.3v.1-.1h-.1v-.1h-.1v-.1l-.2-.1v-.7l-.2-.2v-.1h-.2v-.1h-.1v.4l-.1-.1-.1-.3h-.4v.1l-.1.1v.3l-.1.1v.3l-.1.2-.3.4-.2.3-.2.3v.3h-.2l.1.1h.4v.3h.2l.2.2h.1v.2h-.1v-.2h-.1l-.2-.1h-.1v-.2h-.3l-.2.2v.5l-.1.2v.2l-.1.2h-.1v.2l-.1.2v.1h-.1l-.1.2v.1l-.2.1v.1h-.1l-.1.2h-.3l-.2.2h-.2l-.1.2-.1.1-.1.2-.1.1-.1.1h-.1l-.1.2h-.2v.1l-.4.3h-.6l-.1.2h-.3l-.2-.1-.2-.1-.3-.2h-.2l-.2.1-.3.1v.2h-.4v.1h-.4l-.1.1h-.3l-.2.1h-.5l-.3.1h-.6v.4-.2l-.1-.1h-.4v.1h-.2v.4h-.1l-.1.2-.1.1h-.1l-.1.2h-.2v.1h-.2v.2l-.3.1h-.4l-.1.1v.3l.1.3.1.1v.2-.1l-.1-.1h-.1v-.3h-.1v-.1h-.2v-.1h-1l-.2-.2-.1-.2-.3-.2v.1h-.4v-.1h-.1l.2-.2v.2h.1l.1-.1v-.2l-.2-.3-.1-.2-.1-.1-.2-.2v-.1h-.1v-.1h-.7l-.3.2-.1.1-.2.1-.2.2v.1l-.1.1v.5l-.1.1v.2l-.1.1v.1h-.1v.2l-.3.3h-.1l-.1.2h-.1l-.2.2-.1.2h-.9v-.1h-.1v-.1h.2l.2.1h.3-.1l-.1-.1h-.1l-.2-.2h-.7v.1l-.3.3-.3.2-.2.2h-.1l-.1.1-.3.3h-.2v.2h-.3v.1h-.2l-.3.4v.1l-.1.2-.1.1-.1.2v.1l-.1.1h-1l-.3.1h-.2l-.2.2h-.2v.1l-.1.1-.2.1v.1l-.2.2h-.1l-.1.1-.1.2-.1.3-.1.3v.8-.1h-.1l-.1.1-.1.3h-.2l-.2.2-.3.2h-.2v.1h-.2v-.1h-.3l-.1.1-.2.1v1.3l-.1.1h-.1v-.1h-.2l-.1.1-.1.1-.1.1v.5h-.1l-.1.1-.2.2-.3.2v.2l-.5.2h-.3l-.2.2v.1h-.1v-.2h-.2v.1l-.2.1v.8h-.1l-.3.2v.2l.1.3v.5l-.1.1h-.2v.1l-.2.1-.1.1h-.5l-.1-.1h-.4v-.1h-.3.7l.1.1.2.1h.1l.1-.1h.1v-.1l.2-.1h.2v-.1l.1-.1v-.5l-.1-.1v-.4h.1l.2-.2v-.4h-.1.1v-.1l.1-.2v-.1h.1l.1-.1.1-.2.2-.1h.6l.2-.1.1-.2h.1l.1-.1.2-.2.2-.2v-.2l.2-.3h-.2v-.1h.2l.3-.1.1-.1h.2v-.1l.1-.1v-.4.2h-.1v-.5l-.1-.1v-.2l.1-.1h.1l.2-.2h.7l.1-.1h.2v-.1l.3-.2.1-.2v-.3h.2v-1.1l.1-.1.1-.2.2-.2h.1l.2-.1v-.1l.3-.2h.1l.1-.1v-.1h.2l.2-.2h.3l.6-.2h.6v-.1l.2-.2v-.3h-.1v-.2h.2l.2-.1v-.1h.1l.1-.2h.1l.1-.1.5-.3h.2v-.2l.3-.2h.1v-.1h.1l.1-.1v-.2h.1l.2-.2.3-.2h.9v.1h.2l.2.2h.2l.2-.2.1-.2.1-.1v-.1l.1-.2v-.1h-.1v-.1l.2.1.1-.3.1-.2v-.9h.1v-.6h.3v.1h.2l.3-.1.1-.2.1-.2h.7l.3.1.2.2h.1l.1.2.4.4v.1l.2.3v.1l.2.1h.1l.2.3h1.2v-.2h.1v-.1l.1-.2v-.2l.1-.1.1-.1.1-.1.1-.2h.1l.3-.3.2-.1h.2l.2-.1.2-.1.1-.1h.3l.2-.1h.2l.2-.1h.4v.1l.2-.1v-.3h.2v-.3l.3.1h.3l.2-.2h.1l.1-.1h.3v-.1h.2v-.2h.6l.1-.1h.1l.1.1h.2v.1l.3.2h1.1l.1-.2.2-.2.2-.2v-.1h.2l.1-.2h.1l.1-.1h.2l.1-.1.2-.2v-.3h.1v-.3h.1v-.1l.2-.5v-.1h-.1v-.2l.1-.4v-.2h.1v-.1l.1-.1v-.2l.1-.1v-.2h.2v-.2l.2-.4v-.2l-.1-.1.1-.1v-.3h-.1v-.1h.2l.2-.1v-.1h.1v-.2h.2v-.3l.2-.3v-.1h.2l.1-.2v-.1l.1-.1.1-.1v-.2h.2v-.1h.2v-.1h.1v-.1h.1v-.1h.1v-.1h.3l.1-.2h.1-.1l-.1-.1v-.3h.2v-.2h.1v-.1h-.1l-.1-.1v-.2h.7v-.2h.3v-.1h.2l.1-.1h.2l.1.1h.5l.2-.2h.2v-.2l.3-.2v-.1l.2-.3h.1l.1-.1v-.2h.1v-.4h.1v-.2l.2-.2v-.1h1.2l.1-.1h1l.1-.2v-.5l-.1-.1-.2-.2v-.1l-.2-.1v-.1h-.2v-.1l-.1-.2v-.3l.1-.1v-.1h-.1v-.2h-.2v-.1l-.1-.1-.1-.1h-.3v-.1h-.3v.2h.1l.2.2h.2v.2-.1h-.2v-.1h-.1l-.1-.1h-.2v-.1l-.2-.1-.2-.1h-.5l-.1.2v.3l-.1.1v-.3h-.3v.9-.3l-.1-.1v-.5l.1-.1v-.1h-.1v-.1h.1v-.1l.2-.2v-.2h.2v.4h.2l.1-.2h-.2v-.3h.1l.1-.1h.4v.1h.1v.1h.1v.1h.2l.1.1h.3v-.1h.1v.1l.1.1h.2l.2.1.1.1.1.1.3.2h.3v.2h.1l.1-.1v-.2l.2-.4.2-.3.2-.3v-.9h.1l.1-.2h.3v.1h.4l.1-.2h.3l.1-.1h.3v-.5l-.1-.1h1v-.1h.3v-.4h.1v-.2h.1v-.1l.2-.1.1-.1h.1l.2-.2h.1l.2.2v-.1l.2-.1v-.4l.1-.1v-.1h.1l.2.2.2.1v.1h.8v.1h.3l.1-.1v-.1l.1-.1v-.2h.1l.1-.2h.1v-.3l.1-.1.2-.1v-.1l.2-.1.2-.1v-.3h.1v.3h.1v.1h-.2l-.1.2-.1.1h-.1l-.2.2v.7h.2v.2l-.1.2h-.1v.1h-.1v.4l-.2.2h-.1v.3h-.2l-.1-.1h-.2v.2l.1.1.1.2h.2l.1.1.2.1h.2l.3.2h.4v.1h.1v.1h.1l.1.1h.2v.1h.2l.1.1h.6l.1.1h.5v-.2l.1-.2h.1l.2-.2v-.2h.2v-2l.1-.1-.1-.3-.1-.2v-.1l-.1-.1v-.2l-.2-.2-.3-.2-.2-.1-.2-.2v-.5l-.1-.2-.2-.1-.1-.1-.3-.2-.1-.1-.6-.5-.1-.1-.3-.2h-.1l-.4-.4-.1-.1-.2-.2-.3-.3-.4-.3-.1-.2-.2-.2-.2-.1v-.1l-.2-.1-.1-.2h-.1l-.3-.3h-.2l-.2-.2h-.2v-.1h-1.1l-.2-.1h-.9l-.3-.1h-.1l-.3-.1h-.2l-.3.2h-.1l-.2.1-.3.1-.4.1-.2.1h-.6l-.1-.1h-1.1v-.1h-.6l-.1-.1-.4-.2h-.2l-.2-.1h-.1l-.2-.1-.5-.3v-.1h-.2l-.1-.2-.3-.2h-.1l-.1-.1h-.2l-.1.1h-.3l-.2-.2-.3-.3-.3-.1-.4-.4-1-.8v-.1l-.1-.1-.3-.2-.2-.2-.1.1v.1l.2.1v.2h-.1v.1h-.1v-.2h-.1v.4l-.1.1v.2l-.1.2v.1l-.1.3h-.1l-.1.2h.4l.2.2v-.1h.1l.1.1h.3l.1-.2v-.2h.2-.1v.3l-.1.1h-.3v.1h-.2v.1l.1.1v.5l-.1.2v.8-1.4l-.1-.2h-.2v-.2h-1l-.5-.2-.4-.2h-.2l-.4-.3h-.3l-.2-.2h-.3v-.2h-.2v-.1l-.3-.2h-.2l-.2.2-.5.6-.2.2-.4.2-.2.1-.4.2h-3.5l-.3.1-.3.1h-.5v.1h-.3l-.5.1h-.3l-.2-.1h.1l-.1.1h-.1l-.1.1h-.2l-.3.3v.2l-.5.3-.5.4h-.1l-.1.1-.3.2-.1.2h-.1v.2l-.1.1v.1l-.1.1-.2.1v.3h.2v.1l.1.2v.9l-.1.2v1.4l-.1.3h-.1l-.1.2h-.1l-.3.2v.1h-.2l-.2.2v-.1l.2-.2h.1l.3-.2.2-.3v-.8l-.1-.2v-.9l.2-.3v-1h-.3l-.2-.1-.3-.1-.4-.2-.4-.1h-.8l-.2-.1h-1.1l-.2-.1h-1.2l-.1-.1-.2-.1h-.5l-.2-.2-.4-.2-.2-.2-.2-.1-.2-.2-.2-.2-.1-.1v-.2h.2-.5v.6l-.2.1h-.5l.1.2v.3l-.1.2-.1.1-.1.2h-.4l-.2.1-.2.1-.3.2h-.2l-.2.2h-.1v.1l-.2.1h-.2l-.2.2-.1.1-.2.2h-.1l-.2.2h-.1l-.2.2-.2.1-.2.1-.2.1-.2.1h-.1l-.1.1h-.6v.1l-.3.2v.1h-.4v.1h-.1l-.2.1-.2.1-.3.2-.2.1h-.1l-.2.2h-.3l-.1.1h-.1l-.3.2v.2h-.3v.2h-.2l-.2.2h-.2v.1h-.3l-.1.2h-.1l-.2.1-.1.1h-.1l-.1.1-.4.2-.1.1-.2.1h-.1l-.2.1v.2h-.1v.1l-.2.2h-.2v.1l-.1.1-.1.1-.1.1h-.2v.1h-.2l-.3.2-.2.1v.1l-.1.1h-.1l-.2.2h-.1l-.1.1h-.1l-.2.2h-.1l-.2.2h-.2l-.1.2h-.2l-.2.1-.1.1-.5.3-.2.3h-.2l-.1.1h-.2v.2h-.2l-.3.2v.1h-.1v.1l-.2.1-.2.1-.1.1-.2.1-.2.2h-.1l-.1.1-.4.3h-.3l-.2.1h-.2l-.2.1h-.3l-.4.2-.1.1-.2.1-.3.1v.1h-.2l-.3.2h-.8l-.1.2-.2.2-.1.1-.1.1h-.2v.1h-.3l-.3.1-.2.1h-.1l-.1.1h-.7l-.1.2-.3.1h-.2l-.3.2h-.1v.1h-.2l-.1.2h-.2l-.1.1h-.1l-.3.1-.6.1h-1l-.2.1-.2.1-.1.1h-.1l-.3.2-.1.1h-.1l-.2.2-.1.1h-.2l-.1.2h-.1l-.4.2v.1l-.3.2h-.3v-.1h-.1v.3l-.1.1-.3.3-.6.4-.2.1-.3.2-.2.2v.1h-.3l-.1.2-.2.3h-.4l-.4-.3-.2-.3-.2-.3v-.2l.1-.3.1-.1v-.1h.1l.1-.1v-.5h-.4v-.1h-.2l-.1.3v.2h-.1l-.1.1-.3.2-.3.2v.1l-.2.2-.3.2-.2.6v.3h.2l.1.1h.5l.1-.2h.2v-.1l.3-.2h.2-.2v-.2h.2v-.1h.1l.2.1.1.1.1.1.2.3h.1v.5l-.1.1-.2.2-.2.1-.1.1h-.2v.1l-.1.2h-.1v.2l-.2.2-.3.3h-.2l-.1.2-.2.2-.2.3h-.2l-.2.2v.2h-.1l-.2.2-.3.2-.1.1-.4.4-.1.2-.3.3v.2h-.1l-.1.2h-.1l-.2.1-.5.1-.2.1-.2.1v.1h-.1v-.1h-.2v.2h-.1v.1h-.1v.3l-.3.3v.3l-.1.1.1.2v.2h.2v.4h-.1l-.1.1v.1l-.1.1v.4l-.1.3h-.1v.2l-.2.2-.2.3-.2.1h-.4l-.1.1-.2.5v.5h-.1l-.5 1v.1h.2v.1h.2l.3.2v.4h-.1v.2l-.3.3-.2.3-.2.2-.4-.2h-.1l-.2.3-.4.6v.1l-.3.3v.1l-.2.2.2.1v.1h-.3l-.1.2h-.1l-.1.2v.2l-.1.2h-.1l-.1-.1-.6.7.3-.2.1.1v.2l-.2.2-.2.2v.2h-.2l-.3.4-.2-.1h-.3v.2l-.2.2h-.1v.2h-.2l-.2.2-.1.1h-.1v.1l-.1.1-.2.3v.3h-.1v.1l-.2.2v.1l-.3.2v.1l-.3.2-.2.2h-.7v.3l-.1.2-.1.2-.1.1h-.1v.2l-.3.2-.2.1-.2.1-.5.4v.1l-.2.1h-.2l-.4.2v.1l-.1.1-.1.2v.3h-.2l-.1.1-.3.2-.2.2h-.1v.1h-.3l-.1.1-.3.2h-.2v.1h-.2v.1l-.5.2h-.1l-.1.1h-.1l-.2.2h-.4l-.1.1h-.5l-.1.1h-.2l-.2.2h-.5v.1l-.1.1v.2l-.1.4-.1.2-.2.1-.4.2-.1.1h-.2v.1h-.3v-.3l.1-.1v-.6l-.1-.2-.1-.1h-.6l-.3.1h-.2l-.6.1-.1.1-.2.4h-.6l-.2.2h-.5l-.1.1h-.2l-.2.2h-.5l-.3.2h-.4l-.4.1-.2.1h-.1l-.2.1h-.5l-.2.2h-.4l-.2.2h-.3l-.1.2h-.2l-.2.1-.2.1-.2.1h-.2l-.6.2h-.5l-.2.1h-.2l-.2.1h-.5l-.2.1h-.4l-.2.2h-.6l-.2.1-.3.1h-.4l-.2.1h-1l-.3.1-.2.2h-.1v.1l-.2.2h-.1v.1h-.1l-.1.1h-.6v-.2l-.2-.1h-.7l-.6.1-.6.2h-.4l-.2.1-.1.1h-.1l-.2.2h-.6v.1h-.2l-.2-.1h-.2v-.1h-2.2l-.1.1h-.1l-.2.3v.1l-.2.2-.2.1-.2.2h-.3v.1h-.6v.2h-.3v-.2h-.2l-.3.1h-.7v.3h-.1l-.1.2-.2.1v.2l-.2.2-.1.1-.1.1-.2.2-.1.3v.2l-.1.2h-.1v.3l-.1.2v.4l-.1.2v.4l-.2.4v.4l-.2.2v.3l-.2.3-.2.6-.1.5-.2.3v.3l-.2.1v1.8l-.1.4v.4l-.1.1h-.6v.1l-1.3.1h-1.5v-.4l.1-.4h.1l-.2-1.5-.2-1h-.1v-.1h-.1v-.5l-.1-.2-.1-.2v-.8h-.2v-.2l.2-.1v-1l.1-.2v-.7l.2-.3v-.4l.2-.3v-.2l.2-.2.1-.2.1-.1v-.1l.1-.1v-.2h.2v-.2h.2l.2-.3h.1l.2-.2.1-.2.1-.1.2-.2h.1l.3-.3v-.2h.2l.2-.2h.1l.1-.3.2-.1.1-.1.2-.1.1-.1h.1l.1-.1.2-.1.2-.1h.1v-.1l.2-.2h.1v-.1h.2l.4-.3.2-.1.2-.1.2-.1.2-.2.4-.1h.3v-.5l.1-.1.1-.2.3-.2h.7v-.1h.1v-.4h-.1l-.2-.1h-.4v.1h-.1v.2h-.1v-.1h-.1l-.1-.1-.1-.3v-.1h-.2v-.2h-.1v-.1l-.1-.3v-.2h-.2v-.1l-.3-.7v-.8h.1v-.1l.1-.1-.2-.2h.1v-.2l.2.2v.1h.1v.2h.1v.2h.1v.1l.2.2v.7l-.1.1v.2h.2v.2h.2l.1.1h.1l.1.2.1.1.3.3.2.2.1.2.1.4v.3l.2.2h.3l.2-.1.1-.1h.2v-.1h.2l.5-.3h.1l.1-.1h.5v-.1h.2l.2-.1v-.1h.2v-.1h.2v-.1l.3-.1v-.2l.1-.1.5.1h.9l.1-.2h.2l.3-.2h.4l.1-.2h.3v-.1l.2-.2h.2l.2-.2h.2v-.2l.2-.2v-.2h.1l.1-.1h.4l.2.2v.5h.4l.2-.1h.4v-.1h-.1v-.5l.1-.1v-.1h.4l.2-.1h.1l.1-.1h.1v-.1h.4v-.1h.2l.4-.2h.3l.2-.2h.1v-.2l.2-.1h.2l.1.1h.8l.1.1.2.1h3.3l.3-.1h.8l.1-.1.4-.1h.2v-.1h.2l.2-.1h.1v-.5h.1v-.1h.1v-.3h-.1v-.2.1l.1.1v.1l.1.1h.2l.1.1h.1v.2h.1l.1.2h.8l.1-.1h.3l.1-.1.2-.2.4-.2h.2l.1.1h.2v-.6l.1-.1h.4v-.1h.8l.1.1.2.2v.3l.2.1-.1-.3v-.2l-.1-.2h.1v.1h.1l.2-.1.3.4-.1.1h-.2v.1h.3v-.4h-.1v-.9h.2l.1-.2.3-.1h.1l.2-.1v-.2h.1v-.1l.1-.2.1-.2h.5v-.1l.2-.2h.3l.2-.1.2-.3.2-.1.1-.1.2-.3.2-.1v-.1h.2l.2-.1.4-.3.5-.2h.2v-.1l.1-.1.1-.1.2-.1h.2v-.2h.2l.1-.2.3-.2v-.1h.1v-.1h.2v-.1h.1l.1-.1.2-.1h.2l.3.1.2.2.2.2h.1v-.4l-.1-.3-.2-.2h-.1v-.2h.3v.1l.1.2v.1h.1l.3.3.2.1h.1v-.2h-.1v-.2h-.1l-.5-.4v-.4h.1l.2-.1.3-.3.2-.1.1-.1.2-.1.2-.2.1-.2.2-.1v-.1l.4-.2.2-.3h.1l.1-.2.1-.1h.1l.1-.1v-.1l.2-.1h.1l.2-.1v-.1l.2-.2.2-.2h.3l.2.1v.1l.1.2v.2h.2l-.1-.3.2.1-.2-.2-.2-.2v-.6h.1v-.2h.1v-.3l.1-.3v-.3h.1l.1-.1.2-.1v-.1l.1-.3.2-.3v-.3l.1-.2.2-.2v-.3l.1-.4v-.1l.2-.2h.2v-.1l-.1-.3v-.3l.2-.5.2-.3v-.2l.1-.2.1-.4v-.4h-.1v-.3l.2-.2h.1v-.2l.2-.1v-.1l.1-.1v-.1l.2-.1.2-.5v-.1h.2l.1-.1h.1l-.2-.2v-.5l.2-.2v-.2l.1-.2v-.8l.2-.2.1-.2v-.2h.1v-.2h.1v-.1h.1l.1-.2.2-.1.2-.2v-.8h.1l.1-.2v-.1h.1v-.5h-.1v-.1l.1.1v.4h.1v.2h.1l.1.1v.1h.2v.1l.2.1v.1l.1.1.1.1h.2v-.1l.1-.1v-.1l.1-.1.2-.2.1-.1h.1v-.1l.2-.2v-.1h.1v-.1h-.2v-.6l.2-.2h.1l.1-.1h.6l.2-.2h.1l.1-.1v-.1h.1v-.1l.1-.1v-.2h.5v-.2l.2-.1.1-.1.1-.1h.1v-.1l.2-.1.1-.1.3-.2.2-.2v-.5h.3l.1.1h.4l.3-.1.1-.1h.1v-.1l.2-.1.2-.1h.3l.2-.1.4-.1.3-.2h.1l.5-.3h.2v-.1l.3-.2h.2l.3-.1h.2v-.1h.4l.1-.1h.2v-.1h.1l.3-.2h.3v-.3h.2v-.1l.2.3-.4.2.7-.1v-.1h-.2l-.2-.3h.4v.1h.6l.1-.1h.2l.1-.1h.2l.2-.2h.4l.2-.2.4-.3h.4l.3-.2h.4v-.1h.2v-.1h.1l.2-.1v-.3h.1v-.2h.1v-.2h.7l.1-.2.2-.1.1-.1h.5l.3-.2h.1l.2-.2v-.1h.2v-.2l.2-.1V773h.3l.3.2h.1l.2-.1h.6l.2.1h.1l.2-.1h.3l.2-.2h.2l.1-.1.1-.1.2-.1.1-.3.3-.3.1-.1.1-.2h.1v-.2h.3v-.1h.2v-.3h.2v-.2h.4l.1-.1h.3l.1-.1.2-.2v-.3l.3-.2h.3l.3-.2.1-.1.4-.4.3-.2.3-.1v-.1h.1l.2-.2.2-.2.2-.1.1-.1.3-.3.1-.1.2-.2.2-.1.4-.4h.2l.1-.2h.1l.3-.3.3-.4h.1v-.1h1.2v-.1h.1l.2-.1h.2v-.1l.1-.1.1-.1h.6v-.2h.5v-.1h.2v-.2l.2-.1h.2v-.2l.3-.1h.2v-.1h.1l.1-.1h.2v-.1l.2-.1h.1l.3-.3.2-.2h.6l.2-.1h.2l.1-.1h.1v-.1h.4v-.1h.2v-.3l.2.1h.5v.5h.2v-.1l.2-.3.2-.1.1-.1v-.2h.4v-.1l.1-.1h.2v-.2h.2v-.1h.2l.1-.1h.2l.1-.1.2-.1.2-.1h.2v-.1h.6l.4-.2h.2v-.1h.1l.2-.2.3-.2h.3v-.1l.2-.2v-.1l.3-.2h.1l.2-.1.5-.3.1-.1h.2l.1-.1h3.1v-.2l.2-.1h.6l.2-.2h.2l.3-.1h.2v-.1h.4v-.1h.2v-.1h.2v-.1h.1v-.1h.1v-.2h.3v-.1h.5l.3-.4h.1v-.6l.2-.3v-.2h.1v-.1l.2-.2v-.4l.2-.1v-.1h.4v-.2h.1v-.2l.1-.1v-.1h.1v-.1h.1v-.2h.3l.1-.1.2-.2v-.1l-.1-.2h-.1v-.2h-.1v-.3l.2.1h.8v.1h.2v.2h.1v.1h.1l.1.1h.2v-.2h.1l.2-.3h.1l.1.2v-.2l.1-.1.2-.1v-.1h.2l.2-.2v-.1l.3-.2.1-.1.3-.3.3-.3h.1l.3-.3v-.2l.2-.1V751l.1-.2v-.3l.1-.2v-.3l.1-.1v-.3h-.1v-.3l.1-.2.1-.2-.1-.2-.3-.4v-.6l-.1-.2-.2-.2-.1-.2v-.7l-.1-.2h-.1v-.4h.1v-.4h.1v-.3l-.1-.1-.3-.4-.1-.1-.1-.2h-.1v-.1h-.9l-.2-.2h-.2l-.4-.4h-.2v-.1h-.2l-.2-.1h-.6l-.3-.1h-.3v-.3h-.2l-.2-.1-.2-.1-.3-.2h-.2l-.2-.1-.2-.1h-.2v-.1l-.4-.2h-.2l-.2-.1-.3-.1v-.1h-.2l-.2.2-.1.2h-.1v.2l-.1.2h-.1v.1l-.2.1h-.2v.1h-.7l-.2-.2-.2-.3h-.6v.1h-.2l-.2.1h-.2v.1h-1l-.2-.3h-.1v-.1l-.1-.1v-.1l-.1-.1-.1-.2-.1-.3v-.2h-.1v-.2h-.1l-.1-.1v-.2h-.2l-.1-.2h-.3l-.5-.2h-.1v.3l-.1.2h-.1v.1l-.2.1h-.5l-.3-.2h-.2v-.1l-.4-.2-.1-.1v-.2l-.2-.1h-.2l-.1-.2h-.1l-.1-.1-.1-.2v-.2.1l.1.1v.1l.3.2.3.1.1.2.2.2h.3l.2.1.1.1.1.1h.1v.1h.5v-.1l.2-.2v-.1l.2-.4v-.2h.3v-.1l.1-.2v-.1l-.1-.1h-.1v-.1l.2.1v.1l.1.1v.3h-.1v.1l.1.1.2.2h.1v-.1h.5v-.3h.2l-.1-.1h-.1l-.1-.2-.2-.1v-.1l.1-.1h.2v-.3h.3-.1v.1l.2.1-.1.2v.2l.1.1v-.4l.1-.1v-.3l.1-.2h.1v.6h-.1v.1h.2l-.2.1v.4h.1v-.2l.3-.5.1-.3v-1.6l.2-.2h-.2v-.1l.2-.2v-.2l.1-.1v-.5l-.2-.4v-.3l-.2-.2-.1-.3-.1-.1v-.1l-.3-.3h-.1l-.2-.4-.2-.1-.2-.4-.2-.3-.5-.4-.2-.2h-.1l-.2-.1h-.1l-.2-.1v-.1l-.2-.2v-.1l-.2-.1-.1-.2v-.2l-.1-.1v-.1l-.1-.1.1-.1v.2l.1.1v.2h.1v.1h.1l.1.2h.3v.4l.2.1.1-.1v-.3l.4-.6.2-.2.1-.1v-.1l.2-.2h.1v-.2h.2v-.1.2h-.1.1l.1-.1v-.1l.2-.1.1-.2h.1l.3-.3.1-.1h.2l-.2.2-.3.3-.2.2h-.1l-.5.5v.2h-.2l-.2.3v.1l-.1.2h-.1v.4h-.1v.3h.1l.3.2v.1l.4.2h.3l.2.1.1.1h.1l.2.4.2.4v.2l.2.1v.1l.1.1h.1v-.2l.3-.2h.3l-.1.1-.3.1v.1h-.1v.6l.2.2v.1l.1.2.1.1v.1l.2.1.2.1h.2v-.2h-.1v-.1h.1v.2l.1.2v.2l.2.2v.2h.1l.1.1h.1v-.3h-.1l-.1-.1v-.2h.2v.2h.1v-.4l-.2-.1v-.2l-.2-.2-.1-.1v-.2.2l.3.2v.1l.2.1.1.3v.7h-.1l-.1.2-.1.2-.1.1h-.3l-.3.2v.1l-.2.2-.1.2v1.1l-.3.2h-.1v.5h.1v1.2l.2.2.2.2.3.3.1.1h.4l.2.1h.3l-.3-.1.1-.1h.3l.2-.2h-.8l-.1-.1h-.1l-.3-.2h.4v-.1h-.2l-.1-.1h-.2v-.1h.3l.2.1.1.2h.5l.1-.2-.1-.2h-.1l-.1-.1h-.2l-.1-.1v-.1l-.2-.2v-.1h.2v.2h.1l.2.2h.3v-.2l.1-.1.1-.1v-.1l.1-.2h.7l.2-.4v-.2h.1v-.6l.1-.3.1-.1.3-.3.2-.2v-.2h.3l.1.1h.2v.1l.2.1.2.1.1.2v.2l.1.2v.6l-.1.3v.4l.1.1.2.2.4.4h.1l.2.2h.1l.1.2.1.1.2.2.3.6.2.1.4.1.1.1.1.1h.3l.2-.1v-.4h.1l.1.2v.2l.2.1.2.1h.2l.1.1h.1l.1.1h.2v.1l.2.2h.2v.2h.2l.1.1h.5l.1.2.3.1.3.2v.1l.2.2.2.2.1.2.1.2.1.4.1.2.2.5v.8l.2.3.2.8v.5h.1l.1.1h.2l.1-.2.2-.1h.1v.5h-.2v.2h-.1l-.1.2h-.1v.4l.2.1v.3l.1.3v.7l.1.2v.8l.1.2v2.6h-.2l.1.2v.2l.1.3.3.4.1.2h.4l.1-.2.3-.2.2-.1h.3l.3-.1.1-.1h.2l.2-.1.4-.3.5-.3h.1l.2-.2.3-.3.3-.2.2-.1.3-.3.3-.2.2-.2h.2l.1-.1.2-.1h.2v-.1l.3-.3.3-.2.2-.1h.1l.2-.2.2-.1.3-.3.2-.1.4-.2h.1l.2-.2h.5l.3-.2h.1l.1-.2.2-.2.2-.1.2-.2.2-.2v-.1l.4-.1h.1l.3-.2h.2l.2-.1.2-.1v-.2h.1v-.1l.3-.2.2-.3.3-.4.1-.1h.1v-.1l.4-.4.2-.1.2-.3.3-.3.2-.2.2-.1.1-.2.2-.1.2-.2.3-.3.2-.1h.1l.2-.2.2-.1v-.1h.2l.1-.2h.1l.1-.1.2-.2h.2l.2-.2.2-.1.2-.1v-.1h.3l.2-.2.3-.1.1-.2.3-.1.3-.2h.1l.2-.2h.6v-.2h.1l.2-.1.2-.2h.1l.3-.2.1-.1.3-.1v-.1l.2-.2.3-.2h.3l.1-.1.1-.2.1-.3v-.3l.1-.5v-1.6l.3-.1v-.5h.3v-.1l.1-.1v-.8h.1v-.1l.2-.3v-.1h-.2v-.5l.1-.2v-1.1h.1l.1-.2h.2l.3-.1v-.3h.1v.3l-.2.1-.3.1h-.1l-.1.3v.3h.2v.6l-.1.1-.2.2v.3h.1v.5l-.1.1v.1l-.1.2v.6h-.1l-.2.2h-.1v.5h-.2v.1h-.1v.1h-.1v.8l.1.5v1l-.1.3-.1.1h-.1l-.1.1v.1h.8v-.1h.2l.2-.1h.1l.3-.2.2-.1.2-.2.1-.1h.3v-.2l.2-.2.3-.3.2-.2.2-.1.2-.1.1-.1h.1l.2-.2h.2l.1-.1h.3l.1-.1h1l.5-.2.3-.1h.3v-.1h.3l.2-.1h.4l.4-.3h.7l.4.1h.2l.2.1h.9v-.1h.3l.4-.1-.3.1h-.2l-.1.1h.2l.6-.1h.8l.6-.2.4-.1h.1l.4-.2h.5l.2-.1h.2l.3-.2h.4l.2-.1h.7l.3-.2h.2l.3-.4v-.2h.1l.1-.2v-.1l.1-.1.2-.4.1-.1h.2v-.1l.1-.2.3-.3h.1l.1-.1h.7v.1h.1v-.1h.4l.2-.1h.3l.1-.1.1-.1h.1l.2-.1.2-.1v-.5l.1-.2v-.1l.2-.4.2-.2h.1l.2-.2.1-.1.1-.2h.1v-.3l.2-.5v-.1h.1l.2-.4v-.2h.1l.1-.3.1-.2.3-.4.1-.1v-.1h.1v-.2h.1l.1-.2.1-.1.2-.3.2-.2.3-.4.2-.2.2-.3h.1l.2-.2v-.1h.1l.2-.3.4-.5.2-.2.2-.4v-.1l.3-.4.2-.2.1-.1.1-.1v-.3h-.1v.1h-.1v-.4l.2-.2v-.5l.3-.1v-.2h-.1l-.1-.1v-.4h-.1.1-.1v-.1h.2v.4l.2.1.1.1v.3l-.2.1-.1.1v.6h-.1v.5l-.2.1-.1.1v.1l.2-.2h.1l.2-.2.4-.2.3-.1.4-.2.3-.1.1-.1.5-.3.3-.2.2-.2h.1v-.1h.2l.1-.1.2-.2h.1l.1-.1h.1l.1-.1.2-.1.8-.6h.2l.3-.3h.1l.1-.1.3-.2.2-.1.3-.1.2-.2.4-.3h.2l.2-.1.1-.1v-.1l.3-.1.1-.1h.1v-.1h.1v-.1h.1l.5-.2v-.1h.2l.1-.2h.3v-.2l.4-.1.3-.2.2-.1.4-.2.1-.1v-.1l.3-.2h.1l.3-.3.2-.2.2-.2.3-.3h.2l.1-.2.3-.1v-.1l.4-.3h.1l.1-.2.3-.2h.1v-.1l.3-.3h.2v-.2h.1l.3-.1h1.4l.3-.2.1-.2.1-.3v-.3h-.3v.1l.2.2v.1h-.3l-.1-.1h-.3l-.4.1h-.1l.3-.2.1-.2h.3l.2-.2.1-.1h.1l.1-.1.1-.1v-.1h.1v-.2h.1v-.1l.2-.1v-.1l.1-.1.1-.2v-.1l.2-.2h.1l.1-.2h.1l.1-.2v-.1h.1v-.1l.1-.2v-.5h.1v-.3h-.3l-.1-.1h-.6l-.1-.1h-1l-.2.2h-.5l-.2.1h-.4.4v-.1h.4l.1-.1h.1v-.1h.2v-.1h.3v-.2h.4v-.2l-.2-.1.1-.2h.1v-.2l.1-.1v-.2h.2v.2h-.1v.2l-.1.1v.4h.2v.1h.1l.2.1h.5l.3.2h.3l.2.1h.3v.2h.4v.2h.1v.1h.2l.2-.2v-.1h.2l.1-.1.2-.1.1-.1.3-.3.2-.4.3-.1h.2v-.1l.2-.2.1-.1v-.1l.2-.1v-.1l.2-.1.1-.2.2-.1.1-.2.2-.2v-.1l.3-.2h.2v-.2l.2-.2.2-.6.2-.2.2-.1v-.4l.2-.4v-.4l.2-.1h.1l.1-.3.2-.1v-.1l.1-.2.1-.1h.1v-1.1l-.1-.2v-.2l-.2-.2h-.2l-.2-.1h-1.4v.1h-.2l-.1.2h-.3v.1l-.2.1-.2.2h-.1l-.3.4v.1l-.5.4h-.3l-.3.2h-.1l-.1.1-.1.1h-.1v.1h-.1v-.1h.1l.2-.2h.1l.2-.3.2-.1h.3l.2-.1v-.1l.3-.3v-.2l.1-.1.2-.2.2-.2.2-.1.1-.1.1-.2h.2v-.1h.1v-.1h.6l.2-.1h.1l.1-.1h.2l.2-.1v-.2h.5v-.2h.4v-.5h.3v.1h.2l.2.1h.2l.1-.1.2-.1.4-.3.2-.1h.2v-.1l.2-.3h.3l.2-.2.3-.5.2-.1v-.1h.1l.2-.2.1-.1.3-.3v-.1l.2-.2.1-.2.3-.2v-.1l.2-.1v-.3h.3l.1-.2h.1l.2-.2.1-.2h.1l.1-.2.2-.1.2-.2h.2v-.2h.2v-.2h.3v-.2h.1v-.6h-.2l-.2-.2h-.1l-.1-.4-.5-.3-.1-.1-.2-.1-.1-.1v-.1l-.1-.1h-.2v-.1h.3v.2l.1.1h.1l.3.2h.2v.1h.2l.1.1v.2l.1.2h.3v.2h.1v-.1h.1v.3h.1v.4l-.1.4v.1l-.6.6h-.1l-.1.2-.5.4-.2.2v.1h-.1l-.1.2h-.1l-.1.2-.2.3-.2.1v.2l-.1.1-.3.4v.2l-.2.3-.2.2v.1l.1.1h.6v.1l-.4.1v.1l-.3.2v.2l-.2.3-.1.1-.3.2-.2.2-.2.1h-.4v.1l-.3.1-.1.2h-.1v.2h-.3v.2l-.2.2v.2l-.2.3v1l-.2.3v.2l-.1-.1v-.1l.1-.3v-.4h-.2v.4l-.1.1v.6h-.5v.2h-.1l-.1.2-.2-.1h-.2v.1h.9l.2-.1h.2l.5-.2h.2v-.1l.3-.3.2-.2h.1l.4-.4v-.2l.6-.4v-.1h.1l.5-.4.1-.2h.1l.2-.3.6-.4.1-.1.1-.1.3-.3.5-.4.2-.1v-.1h.2v-.1l.2-.1v-.1l.5-.3.1-.1.4-.3.3-.2.2-.2.4-.2.4-.2v-.1l.3-.2.4-.2.1-.1.1-.1.3-.2.3-.1.2-.1v-.1l.2-.2h.1l.2-.2.2-.2h.1v-.2h.2l.1-.2.2-.1.2-.2h.1l.2-.2.2-.2.1-.2h.2l.2-.2.2-.1h.3l.6-.7v-.1l.1-.2.4-.3.4-.4.2-.2.2-.2h.1l.1-.2.1-.1.2-.1.4-.4.3-.3.2-.1.1-.1.1-.1.2-.1.5-.5.2-.1.2-.2.2-.2.2-.2.3-.2.1-.1v-.1l.2-.2.9-1 .4-.4.1-.1.3-.4.2-.2.3-.3.1-.1.1-.1v-.1l.2-.2.3-.2.1-.1v-.1l.2-.2.2-.1v-.1l.2-.1v-.1l.3-.2.1-.2h.2l.1-.2.4-.3.2-.1.1-.1.3-.2.2-.2h.2l.3-.4.6-.4.2-.2.2-.1.5-.4.4-.4.2-.1.3-.2.3-.3.3-.2.2-.2.1-.2.1-.1.1-.2.2-.2.5-.6v-.1l.2-.2.1-.2.1-.2.2-.2.2-.3v-.2h.2l.2-.4.3-.5.1-.2.1-.1.1-.1.2-.2.2-.3.2-.2v-.1h.1v-.1l.2-.2.2-.2v-.1h.1l.2-.2v-.2h.2v-.1l.3-.3.4-.3.6-.4h.1l.5-.2.2-.1h.3l.2-.2.2.3v.1l.2.1v.2h.2v.1l.1.1v.1h.1l.4.5h-.1v.1l-.1.2h-.2.2l.2-.3v-.2l-.3-.2v-.1l-.1-.2v-.1h-.1l-.2-.2-.3-.4v-.1h-.1l.1-.4.2-.2.2-.4.6-.5 1-.7.2-.2h.2l.1-.1.1-.2h.2l.2-.2.4-.3h.1v-.1l.4-.3h.1l.3-.3.2-.2.1-.1.7-.6.1-.2.7-.7.3-.2.1-.1.2-.2.2-.3h.2v-.1l.2-.1.2-.2v-.2h.2v-.1l.3-.4h.1v-.1l.2-.1.2-.2v-.1h.4v-.1l.2-.2.1-.2h.3l.1-.2h.1l.1-.1v-.1l.2-.2v-.2l.1-.1h.1l.2-.3h.3l.1-.1.5-.4.2-.1v-.1l.2-.1v-.9h-.1l-.2-.3v-.2l-.2-.2v-.6l-.3-.3-.1-.2-.2-.3v-.1l-.1-.4h-1.3l-.3.3h-.3l-.2.2-.2.2-.8-.9h-.1v.2h.2l.6.9v.1h-.1l-.1.2-.2.2-.4.1-.4.2h-1.3l-.2.1-.2.1-.7.4-.3.2-.2.1-.2.2h-.8l-.1.2h-.2l-.4.3h-.2l-.2.2-.3.2-.4.3-.2.2-.4.4h-.1l-.5.1h-.6l-.3-.2-.1-.1-.2-.2v-.3l-.1-.1h-.2v-.1l-.4-.2h-.1v-.1h-.1v-.1h-.1v-.1l-.1-.1h-.2l-.1-.1h-1.7.4l.2-.1h.8v-.2h-.2l-.1-.1h-.3l-.3-.1h-.1l-.3-.1-.5-.2h-.5l-.2.2v.2h-.1l-.2.2v.1h-.1l-.1.1h-.2l-.1.2h-.3v.2h-.1l-.2.2-.3.3-.1.2-.3.2-.1.2-.2.1-.2.2-.3.2-.2.2-.1.2-.2.1v.1l-.2.1h-.1l-.2.1-.1.2h-.5l-.2.2h-.4l-.1.1h-1.8l-.1.1h-.1l-.1.2v.4h-.2v.1l-.2.3h-.1v.2h-.1v.2h-.1l-.1.1-.2.1h-.1l-.2.2h-.6.3l.1-.1h.1l.1-.1v-.1h-.9.1v-.1h.2l.1-.1h-1v.1l.1.1h.1-.1l-.2-.1-.2-.1h-.5l-.1.1h-.7l-.2.1h-.1l-.5.2h-.2v.2l-.3.2v-.3h-.8l-.2-.1-.1-.2-.4-.3h-.2v-.2l-.3-.2h-.1v-.1h-.1l-.1-.2v-.1l.1.1.1.1v.1l.1.1v-.5l-.2-.1h-.1v-.1h-1.3v.1h-.1l-.2.2-.2.2-.1.1h-.2v-.2h-.2v-.1l-.1-.1-.1-.1v-.1h.3v.1-.1l.1-.2v.1h.1l.1.1h.1v.1h.3v-.2h-.2v-1.3l-.2-.2v-.3l-.2-.2-.2-.3-.1-.2-.1-.2-.3-.3-.1-.2-.2-.1v-.1h-.1v-.3l-.2-.2h-.2l-.2.1h-1.5l-.1-.1v-.1h-.1v-.4h-.4v-.1h.2l.2-.1v.4l.1.2.2.1h1.6l.1-.1h.1l.1.1v.1l.2.2.1.2.2.2.2.2.3.4.2.4.2.2v.2h.1l.2.5v.6l.2.2.2.3h1.3l.2.2h.1v-.2l-.1-.1h.3v.4l-.2.2v.1l.1.1v.1l.1.1.1.1.1.2.3.2.4.2h.8l.1.1h.4l.1-.1h.2l.2-.2.7-.2h.1v-.2h-.2l.1-.1h.1v-.2h.2v.1l-.1.2v.2h.6l.6-.1v-.2l-.2-.1h.4l.2.2.3.2h.3l.2-.2h.1l.2-.1.4-.3h.1v-.1l.1-.1v-.2l-.1-.1v.1h-.1l-.1-.1v.1-.2l.2-.3h.1l.3-.2.1-.2h.2v-.2h1.4l.2-.1.4.2.2.1h.4l.2-.1.1-.1.2-.1.3-.2v-.2l-.1-.1h.1v.2h.2l.1-.2h.1l.1-.2h.1v-.1l-.1-.1h-.2l.1-.1h.1l.1.1h.3v-.2l.2-.1.2-.2.2-.2.3-.2v-.1l-.1-.2-.2-.2v-.5.4l.1.1.1.2h.1v.1h.6v-.1h.2v-.9l.1-.1.2-.2h.3l.1-.2h.1l.3-.1h.2l.2-.2h1l.1-.1h.6l.1.1h.3l.4.1v.1h1.1v.2h.1v.1l.2.1.2.1.1.1v.1l.1.1v.1l.1.1h.1l.1.2.1.2.2.2h.2l.2.1h.2l.1-.2v-.1l.3-.5h.1v-.1l.1-.1.3-.2.3-.2v-.1h.8l.1-.2h.3l.2-.2.2-.1.1-.2h.4l.1-.3.1-.2v-.7l.1-.3v-.1h.2v-.2l.2-.1.2-.1h.2v-.1h.8l.2.1.1.1.2.2.2.1h.3l.1-.1h.1l.2.1v.1h.1l-.1-.3V660l.1-.2v-.1l.2-.1v-.1l.1-.1.2-.2h.1l.1-.2h.6v-.1l.2-.1h1v.1h.2v.2l.2.2h.2v.2h.2l.1.2v.1h.3l.3.3.1.1v.1h.1v.5l-.2.1h-.4v.2h-.2v.3l.1.2h.2l.2-.2.2-.1.2-.1.2-.1.4-.3h.1v-.1l.2-.1.1-.1v-.1l.2-.1.2-.2h.1l.6-.4.3-.2h.2v-.1l.4-.2h.2l.3-.2.2-.2.3-.1h.2l.3-.3h.2l.2-.1.2-.2.2-.2h.2v-.1l.5-.3h.3l.2-.3.3-.2.3-.3v-.6l-.2-.2-.2-.2v-1.1l-.2-.4v-.3l-.2-.1v-.1h-.2.1l.1.2.1.2v.3l.1.2v.8l.1.3h.1v.2l.2.1v.1h-.4l-.2-.1h-.5l-.3-.2h-.2l-.6-.2-.2-.2h-.1l-.1-.1h-.1l-.2-.1-.4-.1-.3-.1-.2-.1h-.5l-.2.2h-.1l-.1.1h-.1l-.2.2h-.1l-.2.2-.2.1-.1.1-.3.2h-.4l-.2.1h-1l-.2.1v-.1h-.6l-.1-.2h-.1l-.1-.2-.2-.2-.1-.2-.1-.1h-.6l-.2-.1-.2-.2-.3-.3-.2-.1v-.3h.1v-.1h.1l.1-.2.2-.1v-.1h-.1l-.1.1h-.2.1v-.1h.3l-.2.3-.2.2v.2l.1.2.3.1.2.3h.7l.2.2.1.1.2.2.1.2.1.1.2.1v.1h1l.2-.2v-.1l.1-.1h.1l.1-.1h.2l.1-.1.1-.1h.2l.2-.1v-.1h.1v-.1l.3-.2h.2v-.1h.1v-.4l.2-.1v-.1h.1v-.4l-.2-.1v-.1l-.1-.1h.2v.1h.1l.1.2h.4l.4-.1h.5l.1-.1h.3l.2.1v.1h.1l.2.2h.6l.2.1.1.1.2.1h.3v-.1h-.2v-.1h-.1v-.3h.2v-.1h-.7l-.1-.2h-.5v-.1h-.1v-.4h-.1l-.1-.1h-.3v-.1h-.1l-.2-.1h-.5l.1-.1h.1v-.1h-.1v-.2h.2l.1.1h.8v-.1h-.6v-.1l.1-.1h.3v-.2h.4l.1.1h.2v.3h.1l.1-.2h.8l.2-.2h-.9v-.2l.2-.1h.4l.2-.1h.1v.1h.3v-.3h.2v-.3l-.3-.2-.3-.4v-.1h-.1l-.2-.2v-.6l-.1-.3v-.2l-.2-.4-.2-.2h-.8l-.1-.1h-.5l-.1-.1v-.2l.2.1h.1v-.1h.6l.2.1h.3v-1.6l.1-.2v-.3l-.2-.3v-.3l-.2-.3-.2-.1h-.1l-.1-.1h-.2v-.2h-.9l-.3-.2h-.1.6v.1h.8v.1l.5.2.1.1v-.1h-.1v-.1h.1l.1.1.2.4v.1l.2.2v.4h.3v.8l.2.3v.2l.2.2.1.1v.4h.3l.1.3.1.2h.3v.1l.3.2v.1l.4.2h.1l-.5-.5v-.1h.2v-.2l.1-.1v-.1h.1l.2-.1h.1l.1-.1h.5v-.1h.2l.2-.1h.3l.2-.1.2-.2.1-.2h.1l.1-.2h.1v-.1h.2v-.6l-.1-.1v-.2.2h.2v-.1h.1v-.2h.4v.1h.1v.4h.4v-.1l-.2-.4-.1-.1h-.1v-.1l.2.2v.2h.2v.1-.6h.1v-.6h.1v.2h-.1v.2l.1.3h.1v.1h.2l.1.2.2.2.1.2.1.2h.7l.3-.1v-.4l-.1-.1h-.2l-.1-.2v-.3l.2-.1v-.3l.2-.2v-.2h-.1l.1-.2.2-.1.2-.2.2-.1.2-.2v-.1l.1-.1.1-.1h.1v-.1h.1v-.1l.1-.1v-.1l.2-.2h.1v-.1l.3-.2.1-.2h.2v-.6h-.1l-.1-.1-.3-.2v-.3l.2.1v.1h.3v.1l.1.1v.1h.4l.2-.2v-.1h.1v-.3l.1-.3v-.3l.2-.2h.3v-.1l.2-.2.2-.1.1-.2h.1l.1-.2.2-.1v-.2l.3-.3.1-.1v-.1h.1v-.3l.2-.1v-.1l.1-.1v-.1h.1v-.1l.1-.1h.1v-.1.3l-.1.2.2-.1v-.2l.1-.1h.1v.3-.1l.2-.2h.1v.4l-.2.2v.2h-.1l-.2-.1v-.2l.1-.1h-.1l-.1.2h-.1v-.2h-.1v.1l.1.1.2.1h.1l.1.2.4.1.1.1h.1l.2-.3v-.1h.1l.1-.2h.1l.3.1-.1.2.1-.1.2.1v.2h-.2l-.2.5-.2-.1.2.2.5-.8-.3-.2v-.1l-.5-.2-.5-.4h-.3v-.1l.1-.2v-.2l.1-.3v-.1l.2-.2.2-.1.1-.1v-.2h.1v-.2h.1l.2-.2.3-.5.2-.3v-.2l.4-.5v-1.4l.1-.1h.1l.2-.1v-.1h.1l.2-.1v-.2h.1l.2-.2.4-.5h.1v-.1l.2-.1v-.2l.2-.2h.1l.2-.3.3-.2v-.2l.2-.3v-.1l.1-.1.2-.3v-.1l.4-.3.2-.2.2-.2.5-.5.1-.1.6-.5h.2v-.1h.3v-.1l.4-.3.6-.4.2-.1.3-.3.3-.3.3-.2.2-.1h.3l.4-.1h.4l.2.1v.3l.1.1v.8l-.2.1h-.1v.1l.4-.1-.1-.6v-.3.1l.3.7.1.2v-.3l-.1-.3-.1-.2v-.2l-.2-.2v-.3l-.2-.3v-.2h-.1l.1-.2.1-.2.2-.2.2-.1.1-.1.2-.2h.3v-.1l.2-.1.1-.1h.1v-.1l.4-.1v-.1l.2-.1.5-.4.2-.3.1-.3v-.1l.1-.2v-.1l.2-.2v-.3h-.1l-.1-.1h-.1v.1h.1v.2h-.1l-.2-.3v-.2h-.1v-.2l-.1-.1v-.3l-.1-.2v.2l.1.1h.2v-.7h-.1v.4-.4l-.1-.1h-1.1l-.1.1v-.1h.2v-.1h1l.2.1v-.1h-.2.2l.1.2v.9l.1.1.1.2.1.2.1.2.1.1v.1l.4.2h.5l.1-.1h.2l.4-.1.2-.1h.2v-.2h.1l.3-.1.1-.1h.2l.2-.2h.3l.3-.2h.3l.3-.1.2-.1h.3l.4-.2h.4v-.1h.4l.3-.2v-.3h.1v.2h.2v-.1h.2l.2-.1v-.1h-.3v-.1l.1-.1h.1v.1h.4v-.1l.2-.1.2-.1.2-.2h.1l.1-.2h.2l.2-.1v-.3h.2l.1-.1.2-.1h.1l.2-.2.1-.1v-.1h.1v-.1h-.2v-.1l.3-.2h.2v-.1h.1v-.1h.2l.3-.2h.1l.3-.3.1-.2v-.1l.2-.3v-.2l.2-.4v-.1h-.3v-.1h-.1v-.1l.1.1h.1l.1-.2.2-.4.2-.2v-.2h.2v-.2l.2-.1.3-.3h.1l.1-.2.2-.1v-.1l.5-.5.4-.3.2-.3h.1v-.2h.1l.1-.2.2-.3.3-.3.2-.2.2-.1.1-.1.1-.3.2-.2v.1h.3v-.2l.1-.2v-.1h-.2v-.1h-.3l.1-.1.2-.2v-.2h.1v-.6l.2-.2v-.9l.2-.2v-.4l.1-.1v-.3l.1-.1v-.5l.1-.2.1-.1v-.2h-.1v-.1l-.1-.2v-.1l.2-.2v-.4l.1-.2v.6l-.1.2-.1.1v.1l.1.1.1.1v.3h-.1v.7l-.1.2v.3l-.2.2v.6l-.1.1h-.1v.2h.2v.4l.1.1-.1.2-.1.2-.1.3v.9h-.1l.2.2h.2l.1.1h.4l.2-.2.5-.1h.7l.3-.1.4-.1h.1l.2-.1h1.7v-.1h.7v-.1h1.2l.2-.1h.2l.2-.1h.2l.1-.1h.8v-.1h.4l.2-.1h.3l.2-.2h-.3v-.2h.1v-.1l.1-.1h.1v-.1l.3-.2v-.3.2h.2l.2-.1.2-.1h.2v-.1l.2-.1v-.1h.2v-.2h.1l.2-.1h.7v-.1h1.9l.3.2h.1l.1.2h.4l.2.3.3.1h.1v.1l.2.2h.6l.2.1h.5l.3.2h.2l.1.1h.1l.2.2.1.2h.2l.3.2h.2v.1l.1.1.1.1h.1l.1.2h.2l.3.2h.1l.2.1h.7l.1.1h.3v.1l.2.2h.5l.1-.2h.2l.3-.3.1-.2.1-.1.2-.3.2-.3h.1l.2-.4h.1v-.1h.1l.2-.3.2-.2v-.4h-.6l-.1-.2v-.7l-.1-.3v-.3l-.1-.2v-.3l-.1-.1-.1-.1v-.2l-.1-.1h.3v-.1h.4l.2-.2v-.1h.1v-.7h-.1v-.2l-.1-.1v-.6l.2-.1.2-.2.1-.1.2-.1.1-.2.3-.2.2-.2h2.3v-.4l.2-.2v-.1h.1v-.2l.1-.1h-.5l-.2.1v.1h-.2v.1h-.7l-.1-.1-.1-.1-.2-.1v-.1l-.2-.1h-.2v-.2h-.2l-.3-.2h-.1l-.3-.1-.2-.2-.2-.2v-.3h-.2l-.1-.1-.2-.1h-.1l-.2.1v.2h-.1v.3l-.1.1h-.1l-.1.1v.2-.3h.2v-.5l.1-.2h.1v-.1h.7l.1.2h.2v.1h.4v-.1h.1l.3-.1h.2v-.4l.1-.2v-.3h-.1l-.1-.1v-.3l.1-.1v-.2l.1-.2h.2l.2.2v-.1h.1l-.1-.2v-.1l.2-.1h.2v-.2h.2l.1-.1.1-.2.1-.1v-.1l-.1-.1h-.1v-.1h-.1v-.3h-.1l-.1-.2v-.4l.1-.1h.4l.2-.1h.3l.1-.1h.4v-.1h.2l.1-.1.1-.2v-.1h.1l.1-.2h.2v-.1l.2-.1.2-.4v-.4h.1v-.1l.1-.3v-.3l-.1-.2-.1-.1v-.1l-.1-.2v-.1l-.1-.1-.1-.1v-.6l.2-.1v-.9h.1v-.4h.1v-.3l.1-.1v-.1l.1-.2-.2-.1v-.2l-.1-.1-.1-.3h-.1v-.2l-.1-.1v-.1l-.1-.7v-.5l-.1-.2v-.2l-.2-.5v-1.2h-.1v-.2l-.2-.3h-.1v-.3l-.1-.2v-.6h-.1v-.2h-.4l-.4-.2-.1-.2-.1-.2v-.1h-.2v-.2h-.3v-.1h-.1l-.2-.1h-.3l-.2-.3h-.3v.1l-.2.1h-.1l-.1.2h-.3v.1h-.4v.1h-.1l-.1.2v-.1h.2v-.2l.1-.1h.3v-.1h.3v-.2h.2v-.4l.2-.2.2-.3h.2v-.1l.1-.2.3-.2h.1v-.2l.2-.3v-.3l.1-.2v-.4l.2-.1.1-.3v-.1h.1l.1-.1.3-.1h.1l.3-.3.1-.2v-1h.1v-1l.1-.3v-.2l.1-.2v-.3l.1-.2h.1l.2-.2.4-.4.2-.1v-.1h.1l.1-.1.2-.3.1-.2v-.5l-.1-.5v-.1l-.1-.2h.1v-.6l-.1-.3v-.6l.1-.3v-.4.1l-.2-.1h.1v-.1h.1v-.1l.2-.3v-.2l.2-.3h.1l.1-.2.2-.1.2-.3v-.4l.1-.2v-.4l.2-.5v-.5l-.1-.2h-.1l-.2-.2-.3-.2-.1-.1-.3-.2-.4-.3-.4-.3h-.2v-.1l-.6-.4h-.1l-.1-.1h-.4v.1h-.4l-.2.1-.3.2h-.1l-.2.1h-.2l-.1.1v.2h.1v.2l-.3.2v.1l-.5.3-.3.2-.3.2h-.2l-.2.1h-.2v.1h-.3v.2h-.1v.4l-.1.8-.2.5-.2.6v.3l-.2.2-.2.2-.2.3-.3.2-.4.3-.2.2-.3.3-.2.2-.2.1-.2.3h-.1l-.4.4-.3.2-.1.1-.2.1v.6h-.2v-.2l.2-.1v-.1h-1.5v.1l-.1.2h-.1v.3l-.1.2h-.2v.1l-.2.2v.1h-.1l-.2.2h-1.2v-.7h-.3l-.1-.2h-.1l.1-.2h.3v-.3h-.2l-.1.2-.2-.1v.1h-.8l-.2.2v.7h-.1l-.1.1-.2.2h-.3l-.1.1h-.2l-.1.2h-.2l-.2.2v.3l-.2.2v.2h-.2l-.1.3h-.1l-.1.1h-.1v.2l-.1.1v.1l-.1.1v.5h-.2v.4h.1v.8h.2v.1l-.2.1h-.1l-.2-.2h-.1l-.2-.3-.1-.1h-.1l-.1.1h-.1l-.1-.1h-.2v-.1h-.1v.5l.2.1v.1l.1.1.1.1h.1v.3h-.1l-.1.1v.3h-.2v-.3l-.1-.3-.2-.2h-.6v.1h-.1l-.3.2-.1.2-.2.1v.2l-.2.2h-.2l-.1.2-.1.2h-.1l-.1.2h-.1l-.2.2-.2.1v.2h-.4v.1l-.3.2-.2-.1-.2-.2-.2-.1-.3-.2-.1-.1h-.6l-.1-.1h-.6l-.1-.1h-.4l-.3.2h-.1l-.3.2h-.2l-.1.2-.2.1-.2.2-.2.3-.3.2-.2.2v.2l-.2.1v.1l-.3.2h-.1v-.1h-.3v.1h-.4.2v-.1h.5v-.1l.1-.1.1-.2h.1v-.2l.1-.1v-.1h.1l.2-.1v-.1l.4-.4v-.1l.1-.2.2-.1.3-.2v-.1l.1-.1v-.2h-.7l-.1-.1-.1-.2v.3l-.2.2h-.2v-.2h.3v-.3h.1v-.3h.1l.1.1v.2h.7v.1h.4l.2.1h.6l.1-.2h.6l.2-.2h.4v-.4h.2v.1h.2l.2.3.1.1h.3v-.3l.2-.2.1-.2v-.3l-.1-.2h-.1v-.2l.2-.2v-.2l.2-.2h.1l.1-.1h.1v-.1l.1-.1.1-.2.3-.3h.1v-.3l-.1-.4-.1-.3h-.4l-.2.2h-.4l-.1-.2h.4l.3-.2.2-.2v-.1l-.2-.1h.3v-.1h.1l.3.1h.1l.2-.2h.2l.2-.1v-.1l.1-.1v-1h.2l.1-.1v-.1l.2-.1.1-.1h.1l.2-.1.2-.4h.1l.3-.2.2.1h.5v-.1h.1l.2-.1h.2v-.1l.1-.2v-.1l.5-.2.2-.2v-.4l.2-.2.1-.1v-.1l.2-.1.1-.1v-.3l-.1-.1-.2-.2h-.1l-.2-.4v-.1l-.2-.2h-1l-.1.1h-.5l-.5.2-.2.1-.3.1h-.3l-.1.1-.3.2h-.3v.2h-.9l-.3.1-.2.2-.4.2-.1.1h-.1l-.2.1v.1l-.2.1-.3.2-.1.1-.2.2-.1.1h-.2l-.1.1h-.4l-.2-.2-.3-.4-.2-.2v-.3l-.3-.2-.2-.3-.2-.1v-.9h-.3v.1l-.2.1h-.1l-.1-.1-.2-.1-.2-.2h-.3l-.2-.2h-.1l-.2-.1v-.1l-.3-.2h-.6v-.5l-.1-.1v-.2l-.2-.2v-.1h-.2v-.1l-.1-.1h-.2l-.1-.1-.2-.2h-.1l-.3-.2h-.7v-.1l-.1-.2v-.6l-.1-.2h-.1l-.3-.2h-.2v-.2h-.2l-.3-.1-.3-.1h-.7l-.3.2h-.1v-.2l.1-.1.1-.2v-.6l-.2-.1-.2-.2-.5-.4-.4-.2h-.2l-.8-.2h-.2l-.1.2-.2.2-.2.1-.3.2-.2.1-.2.1-.2.2-.1.1-.1.1h-.1l-.2.1h-.1l-.1.1h-.2l-.1.1-.1.2h-.1v.1l-.1.1h-.2l-.1.1h-1.1l-.3.1h-.5l-.1-.1h-.2v-.1h.7l.3-.1h.2v-.1h.2l.4-.1h.4v-.1h.2v-.1l.4-.2.1-.1.1-.1.1-.1v-.1h.2l.2-.1.1-.1.2-.2v-.1h.2v-.2l.2-.2.1-.1.2-.1.2-.2.2-.2v-.2l.2-.1h.5l.2-.1.1-.1v-.1h.2l.1.2.1.1h.3v-.1h.3l.2.3h.1l.3-.4v-.1h.7v.4h.8l.1-.1.2-.2v-1h-.1V559l-.1-.1v-.2l-.1-.2v-.2l-.3-.3-.2-.2h-.4l-.2-.1h-.2l-.1.1h-.1l-.1.1-.3.4h-.1v-.1l-.1-.2h-.1l-.1-.1v-.2l-.1-.2v-.2l-.1-.1-.1-.1-.2-.3h-.1l-.2-.3h-1.6l-.1.1h-.8l-.2-.2h-1.1l-.3.1h-.2l-.1.1h-1.1l-.1.2-.1.1v.2h-.1v.4h-.3v.1h-.1v-.4h.1v-.1l-.2-.3-.1-.3-.2-.1h-.5l-.4-.2h-1l-.5-.1h-.4l-.2.2-.1.1h-.1l-.1.1h-.1l-.1-.2-.1-.2-.1-.1-.1-.2h-.1l-.3-.1h-.3l-.3.2h-.2v.1h-.1l-.2.1h-.3v.1l-.1.1h-.1l.2-.3h.1l.3-.2v-.2h.1v-.5l-.2-.2-.1-.1-.1-.1h-.4l-.2-.1-.1-.2h-.2v-.2h-.1l-.3-.4-.1-.2v-.7l-.2-.1-.4-.2-.3-.1-.2-.2h-.4l-.3.1h-.2l-.3.3h-.3l-.2.2h-.2l-.2.1-.2.2v-.5h-.1v-.1h-.3l-.2.3v.2l-.2.2v.5l-.2.2v.3l-.2.1v.1h-.1l-.1.2-.1.2v.1l-.1.4v.1l-.1.2h-.1v-.9h.3l-.1-.1h-.1v-.1l.2-.6v-.4h.1v-.3l.1-.1.2-.2v-.4l.1-.1.1-.6v-.8h-.1v-.2l-.5-.3h-.3l-.3-.2h-1.2l-.1.1-.4.2-.2.2h-.1v.9l.1.1.1.1-.1.2-.2-.1h-.1v-.2l-.2-.2h-.2v-.1l-.3-.2h-.4l-.2.1-.3.2-.9.6h-.1l-.3.2-.1.1h-.3l-.1.1h-.2v.1h-.3v.1l-.2.1-.1.1-.2.1v.1l-.1.1-.1.1v.8l.3.7v.1l.2.4.1.5v.8l-.2.2-.1.3v1.4l.1.2h.2v-.1h.7l.2.1h.3l.2.1.1.1.1.2h.5l-.2.3v.4l.1.2v.3l-.1.1v.1-.5h-.1l-.2-.3-.2-.1v-.1h-1.6l-.4-.1h-.1l-.2-.1h-.5l-.1.2h-.1l-.3-.1-.1-.1-.1-.2-.4-.2-.2-.1h-.1l-.3-.1h-.2l-.3.1-.2.1-.2.1v.2l-.2.1h-.1v.1l-.2.2-.3.2-.1.1h-.1l-.2.2-.2.6v1.2l-.3.6-.1.2-.2.3-.3.3v.4-.1h.1l.1.2h-.5l-.2.1-.2.1v.1l-.4.4v.3l-.2.2v1.2h-.1l-.1-.2v-.6l-.1-.1-.1-.2v-.4l.1-.2-.2-.2v-.2h-.1v-.9h.1l.2-.1v-.1l-.1-.2-.2-.2v-.1l.1-.1h-.2l-.4.3-.1.1h-.4l-.2-.1-.2-.1v-.1h-.1v-.1h-.2l-.1-.1v-.3h-.3l-.3.1v.2h-.1v.2l-.2.2v.5l-.1.1v.2l-.1.2-.2.2v.2h-.1l-.3.4-.1.1v.1l-.2.1-.4.4-.6.4-.1.1-.3.2-.3.1-.2.1-.2.1h-.1l-.1.1-.2.1v.1l-.2.2-.1.1h-1.1l-.1.2-.2.1v.1l-.1.1v.1l-.1.2v.2h.2l.1.1.2.1.1.2.1.1.1.3v.5l.1.3v2.1l-.1.2-.1.2-.1.3v.5l.2.1.5.3h.1l.2.1.1.1v.6h.1v.2h-1.3l-.2-.1h-.3l-.2.1-.1.1v1.4l-.2.3-.1.1v.2h-.1l.2.1-.1.1h-.5l-.1.2h-.3l-.2.3v.2l-.2.2h-.1l-.1.2-.1.2-.1.2v.5l-.1.1-.1.1h-.4v-.1l-.2-.1-.4-.2h-.7l-.3.2-.2.1h.1l.1-.1h.1v-.1h-.3v.2l-.4.3-.1.2h-.1l-.2.4h-.1v-.2l.3-.2.4-.5.1-.1.2-.1h.3l.1-.1h.1l.2-.1h.5l.3.1.2.2h.2v.1h.2v-.3h-.3.3v-.5h.1v-.1h-.1v.4h-.1v-.3l.1-.2.2-.2.2-.3v-.1l.2-.2.1-.1.2-.2h.2l.2-.3h.1l.2-.2.1-.2v-.2l.1-.2V574l.2-.1.1-.2h.5l.2-.1v-.2l-.1-.2-.1-.3v-.7l.2-.3v-1.5h-.3l-.2.1.2-.1.1-.1.2-.1v-.4l-.1-.2-.2-.1h-.2v-.2l-.2-.2h-.2v-.1l-.2-.1-.3-.1-.3-.3v-.5l.3-.2h.2v-.1h.1v-.4l-.1-.1v-.1l.1-.1v-.2l-.1-.1h-.1l-.8-.3h-1.6l-.1.1h-.8l-.3.1-.5.2h-.1l-.3.1h-.2v.1l-.6.3-.3.2-.2.1-.3.1-.4.2-.4.2h-.2l-.2.1h-.1l-.6.3-.4.1-.5.2h-.4l-.5.1h-.2l-.5.2h-.2l-.2.1h-.2l-.3.1h-1l-.4.2h-.7l-.5.1h-.1l-.5.2h-.5l-.1.1-.4.2h-.3l-.2.2-.2.1-.2.1-.3.2-.1.1h-.2l-.2.2h-.2l-.3.2-.1.1h-.1l-.2.1h-.1l-.2.1-.1.1h-.2v.2h-.3v-.1h-2.7v-.5l-.2-.3v-.2h-.1l-.1-.2-.2-.1v-.3l-.3-.3-.2-.1-.1-.2v-.3l-.3-.3-.3-.2-.1-.2h-.1l-.1-.2-.2-.3-.2-.2h-.3l-.1-.2h-.3l-.3.1-.1.1-.4.1-.1.1-.1.2h-.2l-.2.1-.1.1v-.1l.1-.1.4-.3h.1l.4-.2.1-.2.1-.1.1-.1v-.2h-.1l-.3-.1h-1.4l-.3-.1-.4-.3-.3-.2h-.1l-.2-.1-.2-.2-.2-.2h-.2l-.2-.1-.2-.1v-.1h-.2v-.2h-.1l-.3-.3h-.1l-.2-.2h-.2l-.2-.3-.2-.2h-.1l-.1-.1-.2-.2h.1l.2.1.1.1h.2v-.1h-.2l-.1-.1h.1v-.1h.1l.1.2.2.2v.2l.1.1v-.8l-.3-.3h-.2v-.1h-1.1l-.2.1h-.4v.1h-.1l-.1.2-.4.2v.1l-.2.1v.1-.1l-.4.2h-.1l-.1.1-.2.2-.2.1-.1.2v.1l-.2.1-.2.4-.2.3v.1l-.2.5-.1.2-.1.2-.2.3h-.1l-.2.2-.3.3-.1.1-.1.1h-.4v.1h-.1l.1-.1h.1v-.1h.2v-.1h-.3l-.2.1h-.2l-.2.1-.4.2-.1.2h-.1v.2h-.5l-.6.2h-.1l-.1.1-.2.1-.4.1h-.4v.1h-1.8v-.1l-.2-.2v-.1l-.3-.3-.3-.5-.2-.3h-.1l-.1-.2h-.2l-.1-.1h-.3v-.1h.4v.1l-.1-.2.1.2h.4l.1.2v.1l.2.1v-.4.2h.1v-.6l-.1-.1h-.8l-.1.1h-.3v-.1l-.3-.1h-.3l-.2-.1-.1-.1-.2-.1h-.1l-.1-.1h-.2v.1l-.1.2v-.3h.6l.1.1h.2l.1.2h.3l.4.2h.4v-.1h-.4l-.1-.1h-.1v-.1h.4l.1.1h.3l.1-.1v.2h.2v-.1h.1l.2.1v-.1l-.2-.3-.1-.2-.6-.7-.1-.2h-.1l-.2-.3-.2-.2-.2-.2-.6-.4.2-.2h.4v.1h.1l.3.1.1.1.2.2h.1l.2.2.4.4.2.1h.1v.2h.1l.1.2v.2l.2.3v.4l-.1.2v.7l.2.2.2.4.2.3.2.3.3.1.2.1.3.1h.4l.2-.1h.2l.4-.2h.1l.4-.2.5-.3.3-.2.3-.2h-.1v.1h-.2l-.4.2-.3.2h-.1l-.3.2h-.2v.1h-.2v.1h-.2l-.2.1.3-.2v-.1h.3l.2-.1.3-.1.2-.1.2-.2.4-.1h.2l.1-.1h.2l.5-.2h.4l.2-.1.4-.3.3-.2v-.2l.3-.2v-.2l.2-.3.2-.2.2-.3v-.2l.1-.3.1-.2.2-.3v-.2.2h-.2v.2h-.1l.1-.3h.1l.1-.2.3-.3.2-.2v-.1h.2l.2-.2.2-.2.3-.2.3-.1h.3l.2-.1h1v-.3l-.1-.4v-.3l-.2-.2v-.1l-.1-.1-.2-.1-.2-.2v-.9 1h.3l.1.1h.1l.1.3v.2l.1.3h.2v-.2h.1v.2l.2.2.2.5.4.3.3.1.3.1h.2v.2h.2l.2.2v.1h.4v.4l.6.7.3.3.2.2.3.1h.1l.2.1h.2v.1h1.5l.1.1.5.3h.1l.3.2.4.2.4.3h.2l.3-.2h.2v.1l-.1.2v.5h.1v.2l.2.2v.1l.2.1v.1h.1l.2.3.2.2.3.3v.2l.2.2.1.3.3.3.2.3.2.2v.1l.3.1h.1l.1.1h1.6l.1-.1.2-.1.2-.1.2-.1.2-.1h.1l.2-.2.2-.1.3-.1.2-.2.3-.2.2-.1.2-.2.2-.1.5-.4.2-.2h.3l.2-.1h.3l.7-.1h2.6l.4-.1h.2l.6-.2h.6l.6-.2h.1l.2-.2.7-.1.3-.1h.2l.3-.2.6-.2h.1l.2-.1h.2v-.2l.3-.2h.1v-.5h-.5l-.3-.1-.2-.1-.2.1-.3.1h-.4l-.2-.1.2-.4v-.2l.1-.2.1-.2v-.8h-.2v-.2h.2v.2l.1.1.1.2v.6l-.1.4v.1h.5l.1-.1h.5l.1.1h.7l.1.2.1.3h.1v.1h.3l.1-.1.3-.1.3-.1.1-.1.3-.2h.3v-.1h.5l1.2-.1h.5v-.2h.1v-.3h-.1v-.3h.2v.1l.1.2v.1l.1.2v.1h.2l.2.2h.2l.2.1.4.2h1.4v-.1h.2l.2-.1h.3l.2.5h.1v-.5l-.1-.1.8-.6h.2v-.1l.1-.2h.2l.1-.2.2-.2.1-.1v-.1l.2-.1v-.2l.1-.2.1-.2.2-.7.1-.2v-.4l.2-.1v-.2h-.1l-.1.1h-.1v.1l-.1-.1v-.3h-.3v.1h-.1v.2h-.2l-.1-.2.1-.1h.2l.1-.1.1-.1v-.3l.2.1v.1l.2.1h.5l.1.1h.2l.2.2h.1l.1-.1v-.6h-.1v-.3l-.2-.2v-.3l-.3-.5h.1v-.2h-.2l-.3-.2-.1-.1-.3-.2-.2-.2h-1v-.1l-.4-.2v-.1l-.2-.2h-.1l-.1.1h-.2l-.1.2-.2.2-.1.2-.2.2v.2l-.1.1v.4h-.1v-.4l.1-.2v-.1l.2-.1v-.3l.3-.3v-.1h.2l.2-.3-.1-.1-.2-.2-.1-.2-.1-.2-.1-.2v-.3h-.1l-.1-.2h-1.5l-.3-.3-.2-.2-.1-.2-.1-.2h-.4l-.2-.1h-.2v-.2h-.4v.1l-.1.1-.3.2h-.1v-.1h.2v-.2h.3v-.1h1v.2h.3v-.1.3h.3v.2h.1l.1.2h.5l.2-.1h1.1l.2.2v.3h.2v.1l.4.2.4.2h.4l.2-.1.3-.2h.1v.1h-.2l-.1.1-.2.2v.1h-.1v.1l.1.1h-.4l-.2-.1-.1-.1-.2-.1h-.3.1l.3.3.1.1.2.1h.4v.4h-.2l-.2-.2v.1l.1.1.3.2v-.2l.2-.2h.1v-.1l-.1-.1v-.1h.1v-.2.1h.2v.1h-.2l.1.1h.3l-.1.1h-.1v.1l-.1.1h-.2v.3h.4l.3.1h.2l.2.3h.4l.1-.1v-1l.1-.4v-.4h-.4l-.2-.2h-.2v.1l-.2.1v.3-.4l.1-.2h.3v-.2l-.1-.2h-.6v-.1h.6v-.2l.1-.1v-.7l.2-.2v-.3h.3l-.1.2v1.3l-.2.3v.1l.1.1.3-.2h.3l.2.2v.1h.2l.1.1h.7v.2l-.2.1-.2.2v.1l-.1.1v.6l.2.4v.5l-.5.3h-.1l-.4.2h-.1v.1h.4l.2-.2h.1l.4-.3h.1v.1h.1v.4l.1.2.1.3h-.1v.2l-.1.1h-.2v.1h-.1l-.2-.1h-.1v.2l.3.1h.4l.1.1h.1v.1h.1l.2.2v.1l.2.2h.1l.2.2h.2l.2.1h.3l.1.2h.8v-.3l.1-.1v-.2l.1-.2.2-.3v-.2l.2-.3.2-.8v-.3l-.1-.2v-.1l-.1-.1v-.2l-.3-.2-.1-.3-.2-.2-.3-.8v-.4l.2-.1v.1l.1.1v.2h.1v.1h.2v.2h.1v.1h.1l.2.2h.1v.1h.5v.1l.1.1h.3l.1.1h.1l.5-.1.2-.1.2-.1h.1l.5-.1h.5l.2-.1h.2l.2-.1h.3l.2-.1.2-.3h.2v-.2h.1l-.2-.3v-.1l-.2-.1v-.2l-.2-.2V554l.2-.1v-1.1l.2-.3.3-.3.2-.3h.2l.4-.3.2-.1v-.1h.2l.1-.1v-.1l-.2-.2v-.1h-.1l-.1-.2h-.1l-.3-.3-.1-.2-.1-.2v-.7l.1-.2h.1v-.1l.2-.2h.2v-.2h.6v-.1h.1v-.2h.2l.2-.4.2-.2.2-.1h-.1l-.1-.1v-.2l-.2-.1v-.2l-.2-.1v-.2l-.2-.1v-.1l-.1-.2-.2-.3-.2-.2v-.2l-.2-.2-.1-.1-.4-.2-.2-.1-.2-.1-.2-.2v-.2l-.1-.1v-.2l-.1-.2v-.7l.2-.3v-.2l.2-.2v-.2h-.2v-.2h.1v.1h.2l.2-.4v-.4l-.2-.1-.3-.1h-.6v-.1h-.3l-.3-.3-.4-.4-.3-.3-.1-.1-.1-.2v-.3h-.1v-.2h-.1l-.1-.3-.1-.3-.1-.1-.5-.5-.4-.3-.3-.4v-.1l-.1-.2-.1-.2v-.3l-.1-.2v-.7l-.1-.1v-.1l-.1-.2h-.2l-.4-.2v-.1h-.2l-.3-.2h-.5v-.1l-.2-.1v-.1l.2.1-.1-.2h-.1l-.2-.1-.1-.1-.2-.1h-.1l-.2-.1h.3l.2.2h.2l.2.2.2.2v.1h.7l.1.1.1.1h.4v-.6l.2-.1-.1.2v.2h.1v.4l.2.1v.1h.1l.1.2.1.2v.7l.1.3v.2h.1v.2l.2.4.2.2.3.3.3.2.2.2h.1l.2.2v.1l.2.2v.5l.1.1.2.3.2.3.2.2.2.1.1.1h.1v.1l.2.1h.2l.3.1h.3l.2.2h.1l.1.2h.6v-.1l.2-.3h.1l.2-.2h.1l.2-.2v-.2l.3-.2v-.1l.4-.3v-.2l.1-.2h.1v-.2h.1l.1-.2.2-.3h.2l.2-.2h.6l.3-.1.1-.2h.3l.1-.2h.6l.1-.1h.8l.1-.1v-.2l.2-.2.2-.1h.1-.1l-.2.2v.1l-.1.1v.1l-.1.1h-.7l-.2.1h-.1l-.2.1h-.4l-.1.1-.2.2-.3.2h-.2l-.2.1h-.2l-.2.2-.3.2v.2l-.2.2-.2.3v.2h-.2v.2h-.1l-.1.2-.1.2-.2.2-.2.2v.1l-.2.2h-.2l-.1.1h-.1l-.2.2h-.1l-.1.2v.2l-.2.2v.2l-.1.1v.3l-.2.1v1l.1.1.2.3v.1l.3.2v.1l.4.3v.1l.2.2.1.1h.1v.1h.1v.2h.2v.2-.1h-.1v.2l.4.2.1.2.1.2v2.2h-.1v.1l-.1.1-.2.1-.3.2h-.4l-.1.1h-.3v.1l-.1.1v.4l.1.2h.1l.1.1.1.1h.2l.5-.1h.3l.3.1h.1l.2.1h.1l.2.1h.5l.2-.1h.1l.2-.1v-.1h-.1v-.4l.1-.1h.3l.2-.1h.7l.2-.1h.2l.2-.2h.3l.4-.1h.2l.6-.1h1.3l.1.1h.4l.1.1.4.2h.2l.3.3.5.1v.1h.1l.2.2.4.1.1.1h1.2v.1h.1v.1l.1.1.1.1h.2v.1h.2l.6.1h.1l.1.2h.5l.2.1.3.2h.2l.3.2h.1l.4-.3.3-.2.1-.1h.1v-.3h.2v-.3l-.1-.1v-.1l-.1-.2h-.2v-.2l-.1-.3v-.3.4h.1v-.4.4h.1v.2h.2l.1.2h.1l.1.1h.4v.1l.1.1v.1l-.2.1-.2.3v.2l-.3.2v.2h-.1l.2.4.3.2.2.1v.1h.4v-.1l.2-.3v-.2h.1v-.9h.1v-.1l.2-.2h.1v.1h.1v.3l.2.3v.1l.2.2v.2l.4.2v.2l.1.1v.1l.2.2v.6l.1.2.1.3.1.2.2.1.5.3h.4v-.1h.1v-.1h-.4v-.1l.2-.3h.2l.2-.2h.2v-.4h.2v.8h.2l.2.2h.3v.1h.1l.2-.1.3-.2v-.2h.7l.3.1h.9l.3.1h.5l.4.2h.6l.1.2h.5v.1l.2.2h.5l.1.1.1.1v.1h.1l.2.3.2.1.2.2h.1v.2h.1l.1.1h.1l.2.2h.1l.2.2.3.2.3.2.1.2.1.1.3.2.2.3.3.4.1.1v.3l-.1.1v1l.1.2v.2l.1.2v.2l.2.3v.5l.2.5v.1l.2.3.1.2.3.3.1.3.2.2.1.2.2.1.1.2h.1l.3.3.2.1h.1l.3.2.4.2h.4l.5.2.2.2h.2l.2.2v.1l.1.1v.1l.1.3.1.2v.4h-.1v.2l-.1.1-.1.1-.2.3-.2.3h-.2v.9l.2.1h.4l.1-.2v-.8l.2-.2v-.2l.1-.2h.2l.3.1v-.1h.2l.2-.1.2-.1.2.2h.1l.1.1.3.1.5.2.1-.1v-1l-.1-.2-.2-.3-.2-.3h-.1v-.9h-.3v-1.3h.1v-.3l-.1-.2.1-.1v-.1l.1-.2v-1.1l.1-.2h.2v.1h.5l.2-.3.2-.2.1-.1v-.1l.1-.1v-.2h.2v.1h.2v-.1.4l-.3.3v.3l.1.1.2.1h.1v-.1h.1v-.3h.1l.2-.2.2-.1h.6l.1.1.2.1.1.1.1.1h.1v.1l.1.1h.1v.1h.1v.2l-.2.1-.1.1h-.6l-.1.1h-.1l-.1.2h-.1v.1l.1.1.2.1.1.2v.4l.1.1.2.1h.1v.2l-.1.2v.6l.2.1h.2v.1h.2l.1-.2.1-.1v-.1h.2v-.1l-.1-.1-.1-.2v-.3h.4v-.4h.2l.2.2v.2l.2.2.2.1h.1l.1.2v.8l.2.1v.2h.2l.2.1h.3l.4.2.1.1h.1l.2.1h1l.2-.1.1-.1v-.2l-.1-.4v-.6l-.1-.2v-.5h-.1l-.1-.3-.2-.3h-.2v-.1h.3v.2h.1l.2.2v.2h.1v.4l.1.2.1.1v.2l.2.2v.3h.8l.1.2h.1v-.6l.2-.3v-1.2l-.1-.2.2-.1.2-.2v-.2l.1-.3.1-.2h.1v-.2l-.2-.2v-.1h-.1v-.1h.1l.1.1h.3l.2-.2v-.2l.1-.3.2-.1v-.5l.1-.3.2-.2v-.2l.1-.2.1-.2v-.2h-.1v-.1h.1v.1l.1.2v.2l-.1.1v.2l-.1.2v.6h-.3v.1l.1.1v.4h-.2v.3l-.2.2v.2l-.2.1v.3l-.1.3v.2l-.1.1v.2h-.1v.4l.1.1.1.2h.1v.2l.2.1v.1h.2l.3.2v.1h.1v.1h.1l.1.1-.1.3v.1h.1l.1-.2.1-.2h.2v-.2.1l.1.1.2.2v.1h.1v.2l.1.3h-.1v.2l-.1.1v.1l-.1.1v.1l-.1.1-.2.2v.1l-.1.1-.3.2-.1.1h-.6l-.1.2h-.1v.6l.1.1.2.1.3.2h.3l.2.2h1.3-.2.2l.3.2h.1v.1h.1l.2.2h.4l.2.1.1-.1.1-.1v-.2l.1-.3.1-.2v-.2l.1-.4v-1.6h-.2l-.1.2h-1v-.2l-.1-.3-.2-.1v-.4l-.1-.2v-.6l-.2-.1v-.2h-.2v-.6l.1-.1.1-.1v-.1h.3v-.6h.4l.3.3v.1l-.2.1-.1.2v.1h.2v-.1h.2l.1-.1.1-.2h.1l.1-.1h.3v.1h.1l.1-.1v-.2h.2v.5l-.2.1v.1l-.2.1v.5l.1.2v-.2h.2l.2.2h.2v.2h.3l.4.3.1.1h.1l.2.1h1.1v.4h.1v-.4l.4-.1.3.1v.1l-.1.1-.2.1h-.3v.1h.5l.1-.3h.1v-.5h.1v-.1l.1-.2.2-.2h.1l.1-.2.1-.2.1-.1v-.4l.1-.5v-1.1h-.2v-.2l-.1.1-.2.2-.2.2-.1.2v.2h-.3l-.3-.1h-.1v-.1l-.2-.1h-.2l-.1-.2v-.1h.3l.3.2.1.1h.2v-.2l.1-.1.1-.1h.1l.2-.2.1-.2-.1-.1v-.2l.1-.4.1-.2.1-.2.1-.1.2-.3h.1l.1.1.1.1h.6l.2.2h.9l.2-.2v-.1l.1-.2.1-.3h-.2v-.2l.2-.1h.2l.2-.1v-.2l.1-.3v-.2l.2-.1v-.5h.2l.3-.1.1-.1.2-.1h.2v-.2h.3v-.2h.8l.3.1.4.2h.3v.3l.2.5.1.3v.2l.2.2h.1v.1h.2l.1-.2v-.1l.1-.3v-.4l.2-.1v-.3h.1v-.1l.2-.3v-.3l.2-.2h.1v-.3l.1-.1v-1.6l-.1-.1v-.4l-.2-.2h-.1l-.1-.1-.3-.2h-.3l-.2-.1h-.2l-.2.1h-.2l-.1-.1v-.2l-.1-.1h-.1l-.2-.1-.2-.2h-.2l-.2-.2h-.1l-.1-.2h-.2l-.4-.2h-.3l-.2-.2v-.2h-.1l-.2-.1v-.1l-.1-.2-.1-.1h-.1l-.1-.2h-.1l-.1-.1h-.1v-.6h-.2v-.2h-.1l-.2-.1h-.2l-.1-.2h-.1.1v.1h.5v.4h.4l.1.2-.1.1v.1l.2.1h.3l.1.1h.1v.2l.2.1.1.1.1.2h.2v.2h.8l.1.2h.2v.1l.1.1h.2l.1.1h.2l.3.1h.3l.2-.2.1-.1v-.1l.2-.1v-.1h-.2v-.1l-.1-.2h-.2v-.3l.2-.3.2-.1v-.1l.2-.1v-.2h.1l.4-.2.2-.2h.3l.1-.1.3-.2h.3l.3-.2.2-.2.2-.1v-.7l.1-.2h.1l.2-.5.1-.1.1-.1.4-.5.2-.2.4-.4v-.1l.2-.1v-.2l.1-.3v-1l-.1-.1v-.2l-.2-.2v-.2l-.4-.5v-.2l-.3-.3v-.8l-.2-.2-.1-.2h-.4l-.2-.2h-1.1l-.1-.2-.2-.2h-.1l-.1-.1v-.1h-.7v-.1l-.2-.1v-.1h-.6v.1h-.4.4l.2-.2h.4v.1l.2.1h.6l.2.1.1.1.3.1.2.1h.2v.1h.3l.1-.1h.8v.1l.2.2h.3l.1.1.2.2.2-.1v-.3l-.2-.2v-.2l.1-.3.2-.1v-.1h.3v-.1h.1v-.4l.1-.3v-.2l.1-.1v-.3l.1-.1v-.1h.1l.1-.1h.2l.1-.1h.1l.2-.3.1-.1v-.2l.2-.1v-.1l.2-.2.1-.1h.3v-.1l-.1-.1v-.2l.1-.2h.1l.2-.2.2-.2.2-.1v-.2h.3v-1h-.1v-.5h.1v-.2l-.1-.2v-.1h-.5l-.2-.1h-.2l-.1-.1h-.6v-.1h-.2 1.4v-.2h.2l.1-.1.2-.1h.1v-.1l.2-.1v.2l-.1.1v.2l.1.1.1.1h.2l.1-.1.1-.1h.2l.4-.3h.3v-.1h.1l.2-.2.2-.1v-.1h.2v-.2l.3-.2v-.2l.1-.4v-.1h-.1v-.1h.1l.3-.6v-.2h.2l.3-.3.3-.2h.1v-.2l.1-.2v-.3h-.1v-.7l.1-.2v-.1l.2-.3v-1.4l-.1-.1v-1l.1-.1.1-.2v-.1l.2-.2.1-.1v-.5h-.4v-.1h-.1l-.1-.1h-.1.5l.1-.1v-.4l-.2-.5v-.2h.2l.3-.4.3-.2.2-.1h.2l.2-.3h.2v-.1l.1-.2v-.2l.1-.1v-.3h-.1l-.2-.2-.1-.2v.2h.6l.3-.1v-.1h.1v-.8l-.1-.2h.1v-.3h.2v-.5l.1-.1.1-.1v-.2h-.1v-.2l.1-.1v-.2h.5v-.4h.2v-.1h.2v-.3l.2-.1v-.3h.2v-.2h.2-.1v.1l-.1.2h-.1v.3h-.2v.4h-.2l-.2.2v.2l-.2.1-.2.2v.4l-.1.1h-.1v.2l-.1.4-.1.2v.5l.2.5v.3l-.1.2-.3.2-.1.2h-.1v.8l.4.2h.5l.2.2h.6v-.1l.1-.1h.8l.4-.1h.3l.3-.1h.6l.1-.1h2.5l.3-.3.2-.2v-.1h.2l.2-.1.1-.2h.1l.1-.1v-.1l.1-.1h.1l.1-.2.2-.1.1-.3v-.5h.1v-.1h.2l.1-.1.2-.2.1-.2v-.2h-.2v-.5l.1.1h.1v-.1h.1v-.4l-.1-.4v-.2h.1v-1l-.2-.2-.1-.1v-.5l-.1-.1v-.3l.1-.1-.1-.2v-.2h-.1v-.2l-.1-.1v-.1l-.1-.1v-.1h-.2v-.1h-.1v-.6h.1l.2-.2h.2l.2-.1.1-.1v-.3l.1-.1.1-.1h.2v-.1h.3v-.1h.1v-.2l.1-.1v-.1h-.2v-.1l.1-.2v-.2l.1-.1v-.1l.2-.1.1-.1v-.2l.2-.2v-.3l.1-.2v-.8l-.1-.3h.1l.1-.2v-.1l.1-.1v-1l.1-.2.2-.2v-.3l.2-.1v-.4l.1-.2h.2v-.3h.1v-.2h.1v-.3l.2-.3v-.1h.2v.4l-.1.3-.1.2v.9l-.2.3v.3h-.1v.2l-.1.5h-.2v.1l-.1.2h-.2v.3l-.1.1-.2.2v.2h-.2v.7l.1.1v.2l-.1.1v.5h.1l.1.1v.4h-.2v.1h-.1v.2l.1.2v.2l-.2.1v.7l.1.1v.1l-.2.2v.6l-.1.3-.1.1h-.4l-.1.1h-.1v.3h.2l.2.1h.3v.1l-.1.3h-.2v.6h-.2v.3l.1.1h.1v.1l-.2.2v.1h-.2.2v.3l.4-.1v.1l.1.2v.2h-.1l-.2.1-.1.1h-.2v.2h.1v.1h.1v1.1h-.4v-.2h-.2v.7h-.1v.1l-.1.1h-.1l-.1.2-.1.3v.1h.1v-.1h.3v-.1h.2v.2h-.2l-.2.1-.1.1h-.1l-.1.2v.4h.4l.1-.2v.3h-.2l-.1.2v.4l.2.1v.3h.1l.1.1.2.2h.2v.1l.1.2-.2-.2h-.1l-.1-.1-.2-.2-.2-.2v-.2h-.2l-.1-.2h-.1l-.1.1v.1h-.2v.1h.1v.1h-.1v.1h-.1v.5l-.3.3v.1l-.1.1h-.2v.1l-.1.1v.1l.1.2h.1l.1.2h.2v.2h.1l.1.2v.1h.1v.2h.6l.3.2v.5l-.1.2v.3h-.1v.5l-.2.2v.3l-.1.2v.4h-.1v.1l-.2-.3-.1-.1-.1-.1h-.3l-.2.2-.2.2-.1.1-.1.2h-.2l-.1.1h-.2v.6l.3.3h.4v.2h.2v.1l.1.1.1.1v.3l.1.1h.5l.1-.1v-.2.2h.2v.4h-.2v.5h-.1l-.1.1v.2l-.2.1v.1h-.2v.2h-.1v-.2h-.4l-.2-.1h-.1l-.1.2.1.1.1.2h.3-.1v.2h.2-.1v.1h-.4l-.1.1-.2.1h-.4l-.1.2v.4h.1l.1.2h.2v.2h.1l.1.1h.2v.1h.2v.2h.3v.1h.3v.1l.1.1h.3v.4l.1.4v.1l.1.1v.1l.1.3-.1.1v.1h-.5v.1h-.1l-.1.2-.2.2.1.2h.1v.1l-.1.3v1.1l-.1.1v1h-.1v.2l-.2.2h-.1l-.2.1v.3l.2.1v.6l-.2.4v.2l-.1.1v1.3l-.2.1-.2.1v.3h.1l.3-.2.2-.1h.1v1.5h-.1v.1h-.4v-.3h-.2l-.1-.2h-.5l-.2-.1-.2.1v.1h.2l.2.1h.1v.1h.1v.3h-.1v.2h.4v.1h.1v.2h-.1v.2l-.2.1v.1h-.4v-.1h-.2v.2l-.1.1-.1.2h-.3v.2h.5l.1.1h.2v.1l.3.3v.2l-.1.1h-.1v.3h.1v.3l-.1.2v.5h.1v.1h.2v.6h-.2v.5l-.1.2v.2h-.1v.4l-.1.2-.2.1h-.2v.1h-.3v.1l-.2.1-.1.1v.3h.1v.1l.1.2v.9h.2v.3h-.2v.3l-.2.3-.1.1v.4l-.1.2-.1.2v1.1l.1.1h.7v-.1l.2-.1.1-.5.2-.4v-.8l.1-.2.1-.2v-.4l.1-.2v-.5l.1-.6v-.5l.1-.1.2-.6v-.2l.1-.3v-.3l.2-.6v-.5l.3-.6v-1.3l.2-.3v-.3l.2-.2v-.4l.1-.3v-.4l.1-.2v-.5l.1-.4v-.9h.1v-1.2l.1-.7v-1.1l.1-.3v-.1l.1-.4v-.3l.1-.3v-.2l.1-.3v-.2l.2-.4v-.3l.2-.2v-.3l.1-.5v-.7l.1-.5v-.6l.1-.7.1-.4.2-.9v-.2l.2-1v-1l.2-.9v-1l.1-.1v-1.1l.3-2v-.6l.1-.7v-2l.1-1.1v-1l.1-1 .1-.1v-1.3l.2-.8v-1.2l.1-.4v-.4l.1-.3v-.8l.2-.3v-.5l.1-.4v-.4l.2-.2v-.8h.1v-.3l.2-.4v-.2l.1-.2.1-.3v-.2l.1-.5v-.2l.1-.2v-.4l.2-.6.2-.5v-.5l.2-.2v-.1l.1-.2.1-.5v-.2h.1l.1-.2.1-.3v-.3l.2-.3v-.5l.1-.1v-.4l.1-.2v-.3l.1-.3.2-.4v-.2l.1-.5v-.3l.3-.5v-.3l.2-.3v-.5l.1-.3.1-.2.1-.4.1-.3.1-.2v-.1l.2-.2v-.2l.1-.1.1-.2.1-.2h.1v-.2h.1v-.2h-.2v.1l-.2.2-.2.4h-.1l-.1.2v.2h-.2v.7l-.2.2v.3l-.1.1v.4l-.1.2v.4l-.1.1v.2h-.1v.2h-.1l-.1.1v.1h-.1l-.1.1v.2h-.1v.2l.1-.1h.1v.4l-.1.1-.1.3v.3h-.5v-.2h-.1v-.2h.1v-.1h-.1v-.4l.2-.1v.2l.1-.1v-.2h.1v-.2h.1v-.2h.1v-.2l.1-.1v-.3l.2-.2v-.1h.1v-.4h.2l.1.1v-.1h.1v-.3h-.2l.2-.3v-.2l.1-.1v-.2h-.2v-.4h.2v.1-.6l-.2-.1v-.3h.1l-.1-.1h-.1v-.3h-.1l-.1-.2h-.1.4v-.1h.2v.1h.7v-.1h.4v.1h.2l.2-.1v-.1l.4-.4v-.2l.2-.1.7-.5.3-.2h.1l.3-.2.4-.3v-.2l.1-.4v-.7l-.1-.6v-.9l.1-.4v-2.6l-.2-.1h-.7v-.1h-.5v.1h.1l.1.1v.2h.2v.2h-.2l-.1.1h-.1v.1l-.1.1-.1.1v.1h-.1v.4l-.1.2h-.1v.3l.1.1v.3l.1.2v.1h-.3v-.1h-.1l-.2-.1h-.3l-.2.1-.2.1h-.1l-.1.1h-.9l-.1-.1v-.4h.1v-.2l-.1-.3-.1-.1-.1-.1-.1-.1h-.1v-.2h-.1l-.1-.2v-.2h-.2v-.1l-.2-.2h.2v.1h.3l.2.1h.2v-.2h.3l.1-.1h.2v-.3h.1v-.3h.1v-.8h-.2.1v-.1l.1-.1v-.6h.1v-.3l-.1-.2v-.1l-.1-.2h-.1v-.1h-.3v-.3h.7l.2.1h.4v.1h.2l.1.1.1.2h.9v.1h.2l.1.1v.3l-.2.2v.1h-.2.6l.1.1h.3v.3l-.2-.1v.1l.2.2h-.1l-.2-.1v-.2h-.2v.1h-.2v.3l.1.1v.1h.1v.1l-.1.1-.2.2h.2v.1l.3.1h.8l.1-.5.1-.4.1-.3.2-.5v-.3l.1-.3.1-.3.2-.4v-.3l.1-.2.2-.2v-.1l.2-.1v-.2l.4-.7.1-.3v-.1l.1-.4-.3.2-.5.2-1 .3h-.1l-.3.2-1.7.7-1.1.4-1 .3-.5.2-.5.2-1 .4-1 .5-2.5.9-2.3 1-3.6 1.3-.5.2-.7.3-.7.3-.5.2-.5.1-1 .4-1.8.7-.4.2-.5.2-.5.2-.4.1-1.5.5h.1v.1h.1v.1l.1.1v.2l-.3.1-.1.1-.2.2-.2.2v.9l-.1.2v.3h.3v.1h.5l.1-.1h.2v-.1h.1l.1-.2.2-.1h.2l.2-.1h.6v.1h.2v-.1h.3l.3.2v.1h.2v.3h-.2v-.2h-.6v-.2h-.3l-.1.1v.1h-.2l-.2.1h-.2l-.4.4-.2.1-.2.2v.1h-.1v.6l-.1.2-.1.2h-.1v.2h-.1l-.3.4-.2.2h-.2l-.3.2h-.1l-.1.1-.2.1-.3.2-.4.4-.1.1-.2.3-.2.2-.1.2-.3.4-.1.1v.1h-.1l-.2.2-.1.1-.1.3v.7l.1.1.2.2.1.1v.1l.1.1.2.1v.4h.1v.2h-.3v-.4l-.3-.1h-.3l-.1-.1h-.4l-.1-.2v-.3l.1-.1v-.2l-.1-.1v-.2l-.2-.2-.2-.1h-.1l-.1-.2h-.3l-.2-.1-.1.1-.2.1-.2.3-.2.2h-.1v.3h-.2v.5l-.1.1-.1.3v.2l-.1.2v.2l-.2.4v.1h-.3v.1h.1l.2.1v.2l.2.4.1.3v1h.1l.1.2h.2v.1h.2v.3l.1.1.2.1v.2h.4v.1l.2.1v.3h-.4l-.1.1-.1.2v.1h-.2l-.2.1v.2l-.2.1v.1h-.2l.2-.3.1-.3.1-.2v-.2l-.5-.7-.2-.1h-.1l-.1-.1-.2-.1h-.1V502h-1.3l-.2.1-.2.1v.2l-.2.2h-.2l-.1.2-.1.1h-.1l-.1.2-.1.1-.1.1h-.1l-.2.1v.2l-.2.1-.2.3h-.2l-.2.2h-.8v-.1h-.2v1.4h-.1l-.1.2-.2.2v.1l.2.1v.2h-.2l-.1-.3v-.1l-.1-.1h-.1v.1l-.3.2h-.2l-.1.1-.2.1-.2.1-.2.2-.2.3v.3l-.2.1h-.2l-.1-.1h-.5l-.1.1-.1.1h-.2v-.1l-.3-.2h-.2l-.2-.1-.2.2h-.2l-.3.4-.2.1-.3.2-.2.2-.2.1-.3.2-.2.1v.5l.2.2v.2l.2.1v.1l.2.2v.8h-.1v.4l-.1.2h-.2l.1.2v.2h-.2v.1h-.1v.2h.1l.2-.2v.3h.1l.1.1h1v.2h-.6v.1l-.2.1-.1.2-.1.3-.3.4-.1.2h-.1v.1h-.1v-.1l.2-.2.2-.4v-.5h-.1l-.1-.2v-.1l-.1-.2v-.1h-.2l-.3.2-.1.1h-.2l-.1.1h-.1l-.1.1h-.1v-.2h-.1l-.1-.2-.4-.2-.2-.1h-.3l-.2-.1h-.1l-.1.2-.3.3v.2l-.4.3-.2.2h-.5l-.4-.1-.2-.1h-.7l-.1.1-.1.2h-.2v.2h-.1l-.2.2h-.2l-.1.1-.3.2-.6.2h-.5l-.1.2h-1.2l-.2.3-.2.2v1.2h-.1l-.1.1v.2l-.2.1v.8l-.2.3v.1l-.1.2-.1.1-.2.1-.2.1h-.1l-.1.1h-1v-.1h-.4l.3-.1.3.1h1.1v-.2l.3-.2v-.1h.1v-.9l.1-.2v-.2l.2-.3v-1.6h.2v-.3h.5l.1-.1h.2l.2-.1h.2v-.1h.2l.2.1h.7l.2-.1.2-.1h.1l.2-.1v-.1h.1v-.1h.1l.3-.3.2-.2h.2l.2-.2.1-.2h.1l.2-.2h.6l.3.1.1.1.2.1v.1h.3l.2-.2v-.2l.2-.3v-.2h.1l.2-.3h.1l.3-.2h.5v.1h.1l.2.2.2.1.3.2.2.1h.2l.2-.1.2-.2v-.1l.2-.3h.2v-1h-.1v-.1h-.2l-.2-.6-.2-.2v-.2l-.1-.2v-.7l-.1-.2-.2-.2v-.1l-.2-.2h-.1l-.2-.1h-1.1l-.3-.1-.5-.2h-.3l-.2-.1v-.1l-.1-.2v-.3h.1l.1.1v.1h.2l.1.2h.3l.2.2h1.8v.1h.2v.1h.2v.2h.1l.2.3.1.2h.1l.1.1h.6l.1-.2h.1l.1-.2.1-.1h.1v-.2h.2v-.2l.3-.3v-1.3l-.2-.1.2-.2h.1v-.1h.1v.2l.1.2h.1l.1.1v.2l.1.2h.3l.1-.1v-.1h.1v-.2h.1l.2.2.3.2.2.1h1.1v-.1l.2-.3.2-.2.3-.3v-1l.2-.2v-.1l.2-.3.3-.4h.2v-.1h.1l.2-.2h.2v-.1h1.1v-.2h.1l.2-.4.3-.2h.1v-.1l.2-.1h.2v-.1l.3-.2.1-.1h.2l.2-.1h1l.3-.2h.3v-.1h-.4v-.3l.1-.2v-.3l.1-.1v-.6l-.2-.1-.1-.1h-.8l-.1.1h-.4l-.1-.1-.1-.1v-.1h-.1v-.1h.4l.1.1h.2l.1-.1.1-.1h.4l.1-.1.1-.1.3-.1.2-.2.1-.1v-.2h.1v-.6l.1-.1v-.1l.2-.3.2-.2.2-.1.2-.1.2-.1v-.2h-.3l-.1-.2h-.1v-.1l-.1-.1h.2l.1.1h.4v-.1h.1l.2-.1v-.1l.3-.2h.2l.1-.2v-.1h.1l.1-.1.1-.1.3-.2.1-.1h.2l.1-.2h.3l.1-.1h.2l.3-.2h.2v-.2l.1-.2v-1.1h-.1l-.1-.1h-.1v-.2h.1l.2-.1v-.1h.4v-.6l-.2-.1-1.8.5-1.6.6-5.8 2-1.5.7-29.7 10.6-32.7 11.9-42.4 15.2-16.6 6-26 9.4-22.1 8-63.1 22-42.6 15.3-87.6 32.7-61.3 20.5-13 4.4-9-10.2-3-3.6-4.2-4.5-15-17.2-.1-.1-20.1-23-15.4-17.7-28.5-33.2-25.7-29.5-54.5-62.6-5.7-6.6-28.1-32.3-13.3 4.7-44.1 15.5-53.9 19-31.3 11.2-.2.5-51.2 17-27.4 9-23.9 8-54.4 18-36.5 12-11.7 3.8-18.8 5.8-3.7 1.2-10.3 3.2-5 1.6h-.3l-13.3 4.3-18.6 5.8z"/><path d="m2790.6 490 1.4-.5.5-.1.5-.2.4-.2.4-.2 2-.7.9-.4.5-.1.4-.2.8-.3.6-.3.5-.2 3.7-1.4 2.3-1 2.4-.8 1.1-.5 1-.4.4-.1.5-.2h.1l.9-.4 1.2-.5 1.6-.6.3-.1h.1l1-.5.5-.2h.4v-.3l.2-.5.1-.2.2-.8.2-.3.2-.3v-.1l.1-.2v-.3l.2-.3.1-.3v-.4l.1-.2v-.3l.2-.2.1-.4.1-.3v-.3l.1-.2v-.2l.2-.3v-.6l.1-.2.1-.2v-.1l.3-.6.1-.6.4-.8v-.2l.2-.3v-.3l.1-.3v-.2l.1-.3.1-.3.1-.4.2-.8v-.4l.2-.3v-.5l.2-.7v-.6l.1-.9V462l.1-.4v-1.4l.1-.5v-2.2l-.1-.1-.1-.6v-.2h.2v-.1h-.1l-.4.1-.5.2h-.2v.1h-.1l-.2.2-.2.2v.2h-.1v.4h.2v.4l.1.1v.1h.1l.1.1h.1-.1v-.2h-.1v-.2h.1v-.1h.2v2.9l-.1.2v.1l-.2.2v.1h-.2v.4l-.1.5-.2.2v.1l-.1.2v.2l-.2.1v.1l-.2.3-.1.2-.1.1-.3.3-.2.2-.1.2h-.1l-.3.3-.2.2v.1l-.2.1-.1.2-.1.3h-.1v.3h-.1v.3l-.2.3-.1.3-.1.2-.2.4h-.1l-.2.2h-.4l.2-.1h-.2l-.1-.2h.1v-.2l-.4.2h.2l.1.2v.2h-.2l-.4.1v-.3h.1-.2l.1.3-.2-.1v-.2.6h-1.1l-.3.1-.2.1v.1l-.1.3v1.7l-.1.2v.3l-.1.1v.1l-.1.2-.1.3v.1l-.1.1v.2l-.2.2-.1.2v1.1l-.2.3-.1.1v.2l-.1.1h-.2v.1h-.3l-.1.2-.1.1-.1.2-.3.5-.3.2-.2.1-.1.1h-.4l-.1.1h-.2.1l.1-.2h.2v-.1h.2l.2-.2.2-.2v-.1l.1-.1.1-.1.2-.3v-1.2h.2v-.3l.2-.3-.1-.2-.1-.2v-.7l.1-.2v.1h.1v.1h.1l.1.1h.1-.1l-.1-.2-.1-.1-.2-.2h-.1l-.2-.2h-.2l-.3-.2-.1-.1v-.1l-.3-.2-.3-.3-.3-.2-.1-.3-.1-.2v-.3l-.2-.2v-1.5h-.1v-.1l-.2-.1h-.6v.1h-.1l-.2.2-.2.1-.1.1-.3.2h-.5v-.1l-.6-.3-.1-.1h-.2v-.1h-.1l-.2.2h-.1l-.2-.1-.3-.3-.1-.2-.1-.1-.2-.1h-.1v-.1h-.3l-.6.1h-.1l-.2-.2v-.1l-.1-.2-.2-.2v-.1l-.2-.2-.2-.3-.2-.4v-.1h-.5l-.1-.1h-.1l-.2-.2-.1-.1v-1.2 1h-.1v.1h-.3l-.1.1h-.9l-.2-.1-.1-.1h-.4l.1.2.1.1.1.2.1.4.1.2v.2l.1.1v.2l.1.2v1.6l.2.7v.2h.2l.1.2h.2l.3.2.4.2.2.3v.1h.1l.2.2.1.2v.2h.1v.7l.1.2v.3l-.1.3-.1.2v.2h-.1v.2h-.1v.2h-.1v-.5l.2-.3v-.4l-.1-.2v-.1h.1v-.3l-.6.1h-.1l-.2.1h-.1l-.3.1-.2.1-.2.2h-.1l-.2.2-.2.1-.2.2-.5.3-.5.2-.2.1-.2.1h-.4v.1h-.2l-.1.2h-.1l-.1.2-.1.1-.3.3h-.1v.1h-.2v.1h-.2l-.1.1h-.9l-.1.1h-.1l-.1.1v1.3l-.1.2v.3l-.1.4v1.5h.7l.2.1.2.2.3.2.1.1h.2v.1l.2.1v.2l.2.1v.1l.2.1.2.3v.1l.2.2h.1l.1.1h.2l.2.1.2.1v.2l.2.2v.5l-.3.2-.2.2-.2.3h-.1v.1l-.2.3-.1.5v.1l-.1.2-.2.4-.2.2v.2h-.2l-.1.1v.1l.2.2v.4h.1v.2h-.2l-.2-.1v-.3h-.1v-.4h.1v-.1h-.6l-.3-.2h-.2l-.2.1-.5.4h-.1l-.2.1h-.1v.1h.3v.7l.1.1v.1h-.1v.3h-.2l-.1.1v-.1h.1v-.7l-.1-.1v-.4l-.2-.1v-.2h-.4l-.2.1h-.2v.1h-.3l-.1-.1-.1-.1v-.1l-.1-.1-.3-.2v-.1h-.7l-.1.1-.2.1v.1h-.2l-.2.2h-.2l-.2.2h-.3v.1h-.5l-.1-.2h-.1l-.3.1-.1.1-.4.1-.2.2h-.2l-.4.3h-.1l-.1.2-.1.1v.8l.2.4v.2l.1.3v.1l.1.2.1.3.2.2.4.4.2.2.4.4.1.2.1.2v.2l.1.2v.2l.1.1h.3v.1h.1v.1zm-23.1 255.8-.3-.3-.4-.4-.2-.5-.2-.1-.3-.5-.4-.7-.1-.1-.3-.2v-.1l-.2-.3-.1-.2-.4-.6-.1-.1-.3-.5-.2-.2-.6-.8-.2-.3-.2-.3-.6-.8-.6-.8-.2-.3-.2-.4-.5-.7-.3-.4-.1-.2-.2-.3-.1-.1-.5-.6-.4-.4-.2-.3-.2-.2-.6-.6-.2-.2-.2-.2-.1-.1-.2-.2-.5-.5-.2-.1-.3-.4-.4-.3-.2-.3-.2-.1-.3-.3-.5-.5-.5-.4-.5-.4-.2-.2-.1-.1-.2-.2-.3-.3h-.1l-.3-.3-1.3-1.2-.4-.3-.5-.4-.4-.4-.4-.3v-.1l-.3-.2-.3-.2-.2-.1-.1-.1h-.2l-.6-.6-.4-.2-.5-.3-.5-.4-.6-.3h-.1l-.1-.1h-.1l-.2-.1-.7-.4-.7-.2h-.3l-.3-.1h-.5.2-.1v.1h-.6l-.3-.1-1.3-.3h-.3l-.6-.2h-2.3l-.1.1h-.4l-.3.2h-1.6l-.2.1-.2.2-.1.1v.2l-.1.1v.6l.1-.2v-.2h.1l.1-.2.4-.2h.1v.2l-.3.3v.3l-.1.2v.3l.2.2v.2l.1.2v-.1l-.1-.2v-.1l-.2-.1-.1-.2v-.2h-.1l.1.2.2.3.4 1v.4-.6l-.1-.2v-.4h-.1.4l.1-.1h.8l.1.1.3.1.3.2.2.1h.2v-.1h-.1v-.1h-.1l-.3-.1h-.3l-.1-.2h-.1v-.1h-.1v-.4h.5v.1h.2v.1l.1.1h.1v.1l.1.2.2.2.1.1v.1l.1.2.1.2h.5v-.1h.5v.1h.3l.1-.1h.9l.2-.1h1.5l.2-.1h.7v-.1h.6l.2-.2h.2l.1.1h.2l.1.2h.8l.1-.1h.1l.1-.2h1l.1.1.2.1h.1v.1h.2l.1.1.2.1.1.1.2.2h.1l.1.1v.2h.5v-.1h.2l.2.1.1.1.1.1v.7l-.1.1v.2l-.1.1-.1.1h-.2l-.1-.1h-.1l-.1.1-.2.1h-.2l-.1.1h-.2l-.2.1-.2.1h-.2l-.2.1-.2.1h-.5l-.2.1h-.2l-.1.1h-.3v.1h-.4l-.3.2-.3.2h-.1v.1l.2.1h.2l.6.3h1l.2.2h.2v-.1.1h.4l.3.2.2.2h.4l.2.2h.1v.1h.2v.1h.4v.1h.5l.1-.1h.5l.2.2h.3l.3.2.1.1h.1l.2.2.1.1h.2v.1l.2.2.5.4.2.2.2.1.4.5.7 1 .2.2v.2h.2v.1l.1.1v-.1h.1v-.1.4l.4.5.2.2.1.1.2.4h.1v.2l.2.2.5.6v.2l.2.2.2.3.2.2.1.2h.1v.2l.3.4h.1l.2.4v.1l.2.2.1.3.1.3.1.1h.1v.4l.2.4.2.4v.2l.2.2h.4l.2.1v.1h-.4v-.1h-.1l.1.4h.9v-.1.1h-.3l-.1.1v.1l-.1.5-.1.2v.2h.1v.2l.1.1v.2l.1.1v.1l.2.1v.1h.2v.1l.3.3.2.1h.1v-.1l.1-.1v-.8h.1l.1-.1v-.1h.4v.2h.1v.5l.2.1.1.2v.2h-.1v.3h.2l.1.1v.1h.1v.2h.3l.1.2h.3v.1h.1v.1h.2v.1l.2.3v.3l.1.1v.1h.2v.1l.1.1h.1l.2-.1v.1h.2v.1l.1.1v.1l.1.2h.2v.2h.4v.2h-.1l-.1.1v.2h.1l.1.1v.3h.1v.1h.1l.1.2v.1h.1l.3.2v.4h.2v.2l.1.3v.2l.1.2v.4h.2v.1h.1v.1l.1.2h.3l.1.2h.2v.2l.2.2.1.2.1.1h.3v.1l.1.2v.1h.1v.1h.1v.2h.2v.2l.2.2.1.1v.1l.2.1v.1l.1.1.3.3v.1h.2l.1.3.2.1v.1h.5l.1.1h.1v.2l.2.1.1.1h.1l.1.2h.3-.3v.1l.1.3v.1h.1v.4h.2v.3h.2v.1l.2.3v.1l.1.1.2.2.1.2v.2h.1v.5h.1l.1.1v.8l.2.2h.3v-.3h.1l.2-.1h1.7v-.1l.2-.1.2-.2v-.2h.8l.4.2h1l.1-.2h.1l.2-.1h1.2l.3.2.4.2.4.3.2.1.1.1.1.1.1.2h.2l.2.2.2.3h.1l.2.3.2.1.3.3v.5l.1.4v1.2l.2.2.1-.1v-1.7l-.2-.6-.1-.1v-.2l-.2-.3v-.3l-.2-.3v-.2l-.1-.2-.1-.2-.3-.4v-.1l-.2-.2-.2-.2h-.1l-.4-.2-.2-.1-.2-.1-.5-.2h-.5l-.2-.1-.1-.1h-.3l-.4-.2h-.4l-.4-.2h-.2l-.1-.2h-.4l-.1-.2h-.2l-.3-.1-.2-.2h-.2l-.1-.1-.4-.2h-.2v-.2h-.3v-.2h-.1l-.2-.1-.1-.2-.3-.2h-.1l-.2-.1-.1-.2-.4-.4-.3-.4h-.1l-.2-.3-.1-.1-.2-.2-.2-.2-.1-.2-.2-.2-.2-.1-.1-.2-.1-.3-.1-.1v-.1l-.2-.1v-.1l-.3-.4-.3-.4-.2-.1v-.2l-.2-.1v-.2h-.1l-.2-.3-.2-.2-.1-.3-.2-.2-.2-.4v-.1l-.1-.2-.1-.2-.2-.3-.1-.2-.1-.2-.1-.1v-.2h-.2l-.2-.4zm-31-46 .2.2h.1v.1h-.2l-.1-.2-.2-.1v-.1h-.1l.2.3v.2l.3.3.1.4.1.2.3.4.1.4.2.2h.1v-.2h.1l.1.1.1.2v.2l.1.2h.5v-.4h-.1v-.1h.5v-.1h.1l.1-.2.5-.1h1.2v.1l-.1.1-.3.2-.2.1h-.1v.1h-.1l-.3.2-.3.1h-.2l-.1.1h-.3l-.1-.2v-.3l-.2.3v.2h-.3v.1h-.1l-.1-.1-.2-.2v.1l-.1.3v.1l.2.4.2.6.4.7.1.2v.1l.3.3.2.4.2.2h.3l.5-.1h.2l.2-.2.2-.3.4-.2.2-.1.5-.4.3-.2h.3l.6-.4.2-.2.4-.4h.2v-.2h.1l.2-.3v-1l-.1-.4-.1-.3v-.2l-.2-.6-.1-.4-.2-.4v-.2l-.1-.2-.1-.2-.3-.8v-.2h-.1v-.2l-.3-.7v-.3l-.2-.3v-.1l-.1-.6-.1-.5v-.2l-.1-.5v-.9l-.1-.6-.1-.3-.1-.3v-.3l-.1-.2v-1.3l-.1-.3v-.4l-.2-1v-1.1l-.1-.1v-.7l-.1-.4v-.2l-.1-.3v-.6l-.2-.5v-1l-.2-.9v-.2l-.1-.4-.3-1v-.4l-.1-.5-.3-.6-.3-.6-.2-.4v-.3l-.1-.1-.3-.7-.6-1.4-.3-.7-.2-.6v-.1l-.2-.3-.4-1-.2-.5-.2-.3-.1-.5-.3-.6-.1-.3-.1-.5-.1-.6v-.2l-.1-.2-.1-.7h-.3v.2h-.2l-.1.2-.3.1-.2.1h-.1v.7l.2.2h.1l.1.2.1.1v.8h.1v.2l.1.2.1.2.2.1v.2h.1v.2l.3.3v.1l.3.6.2.6.2.5.3 1v.1l.2.4v.4l.1.3v.1l.1.2v.1h.2l.1.1v.4h.2v.1h.3l.2.1v.2l.3.4v.4l-.1.4-.1.3-.1.1.2.1h-.2l-.1.1v1.1l-.2.2v.1h.1v.2l-.1.2v2l.1.2v.5l-.2.8v.3l-.2.4v.7h.1v-.1h.1v.5l-.1.2-.2.4v-.2h-.1v.2l-.2.2v.3l-.2.1-.6.6-.4.3-.2.1v.1h-.1v.1h-.1v.4l-.3.1v.2h-.1v-.1l.1-.2h.2v-.2h-.2l-.3.1-.5.2h-.1l-.1.1-.1.2h-.5l-.2-.1h-.3l-.1-.2v-.2l.2-.4v-.3h.1v-.1h-.2v.3l-.1.2-.1.2v1.1h.6v.1h-.2l-.2.1h-.2l-.1-.1v.8l.2.6v.3l.1.2v.2-.2l-.1-.1-.1-.2v.6l.2.2.2.6v.1l.3.5v.1l.3.6.2.3v.1l.2.5.2.4.2.3v.2l.2.3.2.2v.2l.1.2.1.1.1.3.1.2.1.2.3.4zm154 344.4-.2.1-.1.1-.1.1h-.2v.1l-.3.1h-.2v.1h-1.6l-.1-.1h-.2l-.2-.4v-.3h-.1v-.1l-.1-.1h-.1l-.1-.1-.1-.2h-1.1l-.1-.1h-.1l-.2-.2h-.1l-.3-.2-.1-.1-.2-.1h-.1l-.2-.2-.1-.1h-.5v.1h-1.5l-.1.1h-.2l-.2.2h-.1v.1h-.1l-.1.1h-.1l-.1.1h-.1l-.2.2h-.8l-.2.1-.3.2h-.3l-.2.1-.2.2h-.1v-.1h-.1l-.1.1h-.2v.1h-.2v-.1h-.6l-.2.2-.1.2-.1.2-.1.1v.1l-.2.1-.2.1h-.2v.2h-.3l-.2.3v-.1h-.1v.1h-.2l-.1.1h-.2l-.2.1h-.3v-.2h-.4v.1l-.1.1h-.3v-.3h.2v-.5h.1l.1-.1-.1-.1h-.1l-.3.1h-.3v.1h-.5v.1l-.1.1-.1.1v.2l-.1.1h-.3l-.1.1-.3-.1v-.1l-.2.1-.2.2v.1l-.2.2-.1.2-.1.1v.6l.1.2h.2l.1.2v.5h.6l.2-.1h.4l.2.2h.2l.2.2.3.3h.1v.1l.2.1.1.1.1.1h.9l.1.1.2.1.2.3h.2l.1.2h.1v-.1h.4l.2.2.2.1h.4l.2.1h.2l.1.1h.6l.1.1h.5l.1.1h.4v-.1h-.1v-.4h.3v-.1h.3l.2-.1h1l.3-.1h.4v.7l.3.2h.1l.2.1h1.1v-.2h.2v-.2h.4l.2.2.2.2h.4l.1-.2h.6l.3.2.1.1.2.2v.1h.2v.1-.1h.2v-.2h.2l.1-.1h.3v.1h.1v.2h.2l.5-.1.1-.1h.3l.2-.2h1.3l.1-.2.3-.4h.1l.1-.1.2-.2.1-.1.1-.1.2-.2h.1l.2-.2h.2l.2-.1h.2v-.3h.1l.1-.1h.1v-.2l-.1-.2-.1-.2v-.8l.1-.1v-.1h.2v-.1h.1v.1l.1-.1v-.1l.1-.2v-.1l.1-.1v-.3h.1v-.4l.1-.1v-.2h.1v-.5l-.2-.2h-.1l-.1-.1h-.1v-.1h-.1l-.3-.2h-.1l-.3-.2v-.3h-.2v-.1h-.2l-.3.2h-.5v.2l-.2.2-.1.1zm-172.7-294.5.1-.2h.1l.2-.1h.1l.1-.1v-.1l.1-.2v-.1l.1-.3v-.4h.1v-.5l.2-.3v-.2l.1-.4v-.1l.1-.1v-.2h.1v-.2l.2-.3h.1l.2-.2v-.1l.1-.1.1-.1.1-.2.2-.2.2-.1.2-.1h.3l.1-.2h.1v-.2l-.1-.1h-1.9l-.2.1h-.6l-.4.1-.2.1h-.3l-.2.1h-.3l-.2.2-.7.1h-.1l-.2.1h-.2l-.3.1-.3.1h-.2l-.2.1h-.2l-.1.1h-.2l-.2.1-.1.1-.2.1-.1.1h-.3l-.1.2h-.2l-.2.2h-.2v.1l-.3.2h-.3l-.3.3-.5.3-.2.1-.3.2-.2.2-.3.1-.3.3h-.1l-.3.2-.3.2-.4.2-.2.1-.3.2-.2.2h-.2l-.1.2-.2.1-.2.1-.3.2-.3.2-.3.1-.2.2h-.2l-.2.2h-.2l-.3.2-.2.1h-.1l-.3.2-.4.2h-.3l-.3.2-.2.1h-.2v.1l-.2.1-.4.4h-.2v.1h-.1l-.2.2-.2.2-.4.3h-.2l-.2.2-.3.2h-.1l-.3.2h-.2l-.1.2-.3.3h-.1l-.2.2h-.2l-.4.3-.1.1-.1.2-.2.2-.1.1-.1.2v.1l-.2.4v.6l.1.2.2.3v.2l.2.1.3.2v.1l.2.1.1.1.1.1h.1l.2.2.2.2.1.2.3.1v.2h.2l.2.2h.1l.2.1.4.1h.5-.3l-.2-.2-.2-.1h-.4l.1-.1h.4l.2.1v.1h.3l.4.3h.3l.1.2h.2v-.5l-.1-.2v.5h-.4v-.1h-.1l-.1-.1v-.4l-.1-.2v-.4h.1l.1-.2v-1l.1-.2v-.3h.1l.1-.4.2-.4.1-.2.2-.3.2-.2.3-.3.2-.2h.4l.3-.2h3.1l.6-.1h.9l.6.3h.1l.1.1h.2l.2-.2.3-.2.2-.1.2-.2.2-.3.2-.2.4-.4.1-.1.2-.1.2-.2h.1l.1-.1.4-.2h1.6l.1.1h.2l.1.2.6.3h.3v-.4l.1-.6v-.5h.1v-.1l.1-.1.2-.2v-.1h.1l.2-.3h.2l.4-.4.3-.1.2-.1h.3zm111.8 231.1v-1h.2v.6l.1.1v.1h.1l.1.3h.1v.2l-.2-.1v.3h.2v-.1h.1v.8l.1.3.1.3.2.4.2.3.3.3.2.3.1.3v.1l.2.1v.1l.3.2.1.2.1.1v.6l-.1.3v.3h.1l.2-.2.2-.5.2-.3.1-.1h.5l.1-.2h.1v-.4l-.3-.3v-.2l-.1-.2v-.2l-.2-.3-.3-.6v-.2l-.2-.2v-.2l-.4-.5-.2-.4-.4-.6-.5-1v-.2l-.2-.4-.2-.3v-.1l-.2-.3-.3-.5-.1-.2-.2-.4-.1-.1-.2-.3-.2-.2-.3-.5-.2-.2v-.1l-.2-.2-.2-.2v-.1l-.2-.3-.2-.2-.3-.5v-.2l-.2-.1-.1-.3h-.1v-.3l-.4-.5-.1-.2-.1-.2-.3-.5-.1-.2-.1-.1-.1-.1-.3-.5v-.1l-.1-.1-.2-.4-.2-.3v-.1l-.1-.1-.1-.1-.2-.3v-.1l-.5-.7-.1-.3-.2-.3-.1-.2-.2-.2-.3-.4v-.2l-.2-.2-.1-.1-.1-.1-.1-.3v-.2h-.1v-.2h-.1l-.2-.3-.1-.1-.1-.2-.1-.1-.1-.1-.1-.1-.2-.1-.2-.2v-.2h-.2l-.1-.2-.2-.3-.1-.2-.1-.1v-.1h-.1l-.1-.2-.2-.3-.3-.3-.1-.4-.1-.1-.3-.4v-.1l-.1-.2-.1-.2-.2-.3v-.2l-.2-.2-.2-.4-.1-.3v-.2l-.2-.1v-.3h-.1v-.1l-.1-.2-.1-.1-.1-.2-.1-.2-.2-.3v-.3l-.3-.1v-.3h-.1l-.2-.4v-.2l-.1-.1-.1-.2-.1-.2v-.2l-.1-.1-.2-.3-.2-.3v-.2h-.1l-.1-.3-.3-.4-.2-.3-.1-.2-.1-.2-.1-.1-.2-.5-.1-.2-.1-.2v-.3h-.2v-.5l-.2-.4-.1-.2-.1-.3-.2-.6v-.2l-.1-.2v-.2l-.1-.1-.3-.4v-.4l-.2-.2v-.4l-.2-.5v-.1l-.1-.2h-.1v-.2l-.1-.2v-.2l-.2-.4v-.1l-.1-.1v-.1l-.1-.3-.1-.1v-.1l-.3-.4v-.2l-.2-.3-.2-.3v-.2l-.3-.3-.1-.3-.1-.2-.2-.5-.1-.1-.4-.4-.3-.4h-.4l-.1.2h-.1l-.1.1v.3h.3v.1l.1.1v.1h-.5v.3h.5l.1.2h.1v.1l.3.2.2.2.1.1v.1h.1l.4.1v.1h.2l.1.1v.1l.2.4v.2l.1.2h.1v.2l.2.3v.2l.1.1v.4h.1v.2l.3.4v1.3h.2v.8l-.1.2v.3l-.2.4v.3l-.1.1v.3l.2.3v.1l.2.2.1.1.1.2h.1v.4h.1v.3l.1.1.5.2.2.1v.1h.1l.2.2v1.1l.2.2.1.1.3.4v.2l.2.2v.3l.2.5v.2l.2.2.2.6v.3h.1v.6l-.3.1v.2l-.1.2v.3l-.1.2v.4l.1.1v.1h.3v-.1.1h-.1v.2h.8l.1-.1.1-.1v-.1h.9l.2.2v.4h.1v.1h.2v1.1l.1.1v.5l.1.2.1.1.1.3v.7h.4l.4.2h.4l.2.2.2.1v.1l.2.1.1.2.2.1.1.2v.1h.1l.2.3.2.3v.2l.1.2v.2l.1.3.1.2h.1l.2.4v.1l.1.2v.2l.1.4.1.1v.2l.1.1.1.1.2.2.3.3.3.3.2.3.1.3.1.2v.2l.2.3v.6l.1.2.4.3v.1l.1.1h.2l.1.2.1.2v.2h.1l.2.4v.1l.1.1v.3h.1v.4h.2l.1.1v.5l-.1.1v.1l.1.3h.1v.1l.2.2.2.2.1.1h.1v-.1h.1l.2.1.5.3.2.2h.2l.2.1v.7l-.1.1v.8l.1.2.1.1v.2l.1.2v.2l.1.2v.2l.1.2v.2h.2v.3h.1l.2.4.1.3.6.5h.1zm-70.4-349.5.2-.2.1-.3.2-.3.2-.5v-.5h-.3l-.2-.2h-.2l-.1.1-.1.1v.2h-.2v.1l-.1.1v.3l-.1.2v.3h.2v.1l-.1.2-.1.2-.1.1-.3.3-.2.4v.1l-.1.1-.3.5-.4.4-.4.1-.2.1-.4.2h-.1l-.3.1-.7.2h-.1l-.4.1h-.5l-.1.3-.2.4v.4l.1.1.1.2v.2h.2v.2h.1v.1h.2l.2-.1v-.3l.1-.1h.3l.3-.3.2-.1.3-.2h.1l.1-.1.2-.1h.3v-.2h.1l.1-.1-.1-.2h-.3l-.3.2h-.2l.2-.1v-.1h.3l.1-.1h.1v-.2h.1l.2-.2h.2v-.2h.3v.2h-.2v.1h-.2l-.2.1-.1.1v.2h.5v.3l-.2.1h-.2v.2h-.1l-.2.2h-.2l-.1.1h-.1v.1h-.1l-.3.3h-.2v-.1l.2-.1h-.4l-.2.2h-.3v.5l-.1.1h-.2l-.1.1h-.2v.1l-.1.1v.2h.5l.2-.2h.2v.1h.1l.2.1h-.1v-.2h.5l.2.1v.2h.2v-.1h.3v.2l-.2.3h-.1l-.1.1h-.3v.4h-.2v.1h-.1l-.1.1v.1h-.2v.1h-.2l-.2-.1-.1-.1-.1-.2v-.2l.4-.2h.1l.3-.2h.1l.1-.3h.1v.2h.2v-.2l-.1-.2h-.2v.2h-.4l-.1-.1h-.4l-.1.1-.3.2-.2.3-.2.2h-.1l-.1.1-.1.2v1.7l-.1.2-.2.5-.2.2-.2.2-.2.2-.1.2-.2.4v.2h.1v-.1l.1-.1.1-.1h.1l.1-.2h.2v-.2l.2-.2h.2l.1-.1v-.1l.1-.2h.1v-.1l.1-.1h.1l.1-.1v-.1h.2l.2-.2.2-.2v-.2h.2v-.2h.1l-.1.2-.1.1v.1h.4v.2h.2v.2l-.1.2h-.2v.2l-.2.1-.1.1-.1.1v.3h.1v.3h-.2v.7l-.5.6-.3.3-.2.2h-.1l-.2.3-.2.1-.3.3-.2.1-.1.1-.1.1h-.1l-.2.2h-1.4v.7l.2.2v.4l.1.1.1.1.2.1.3.2v-.3l.1-.1.3-.1h.1l.2-.2h.2v-.1h.2l.3-.3v.2l-.1.1v.1h-.1v.1h-.2v.2l-.2.2h-.5v-.1h-.1v.6l.1.2.1.1h.1v-.2h.2v.2l-.1.2v.2l-.1.3-.1.3-.1.2-.1.1-.4.6-.2.3v.2l-.3.5v.2l-.2.2v.6l-.2.2v.2h-.2v.3l-.1.2-.2.3v.3-.1h-.1v.2l-.3.4v.2h-.1v.2h-.1v.1l-.2.3-.1.3-.2.2-.1.2v.2-.1h.3l.2-.2h.1l.1-.2.1-.2h.1v.3l-.2.4h-.3l-.1.2-.1.4v.1l.1-.2.1-.2h.1v.1l-.2.2v.4h-.4v.1l.1.1h.1l.1-.1h.1v.1h-.1v.1h-.2v.1h-.3v.7l-.2.2-.2.4-.2.2-.1.2v.1l-.3.2v.1l-.2.3-.2.2-.1.2v.2l-.2.3v.2l-.4.5-.2.4-.2.2-.1.2h-.2l-.1.2-.1.2h-.1l-.1.1-.2.3-.2.1v.2l-.1.1-.1.1v.1l-.2.1-.3.2v.1h-.1v.1h.1l.1-.1v.2h-.2l-.1.2v.2h-.2v.1l-.1.1-.1.1h-.1v.1h.2v.1h-.3l-.2.1h-.4.3v-.1h.2v-.1h.1v-.1h-.1v-.2l-.3.2h-.2l-.2.1v.1l-.2.1v.1l.1.1h.3-.4l-.2-.1v-.3h.3v-.1h-.2l-.1-.1h-.1v.2l-.2.2v.7l.3.3.2.2.2.1h.7l.2-.1.2-.1.3-.2.2-.2.4-.3v-.1h.2l.1-.3.1-.1.5-.4.2-.2h.1v-.1h.2l.2-.4.1-.2.3-.3v-.2l.2-.3.1-.2.2-.5.4-.6v-.3l.2-.1.2-.2v-.2l.3-.4.2-.2v-.2l.2-.3.4-.7.1-.2.1-.1v-.1l.5-1v-.2l.4-.5v-.3l.2-.3.2-.3.2-.6.2-.5v-.3l.3-.6v-.2l.6-1 .1-.5.5-1 .1-.3.2-.3.1-.3.2-.3.1-.4v-.1l.2-.2v-.3l.2-.2.1-.4.2-.3.1-.4.1-.4v-.1l.2-.3.1-.3.1-.3v-.2l.2-.1v-.4l.3-.4v-.4l.1-.3.2-.5.3-.5v-.4l.1-.1v-.1l.1-.1.1-.3.2-.5v-.2l.2-.3v-.2l.1-.2.1-.3.2-.6v-.2l.2-.3.1-.4.1-.3v-.2h.2v-.2l.2-.3.1-.4.1-.2.1-.4.1-.3.2-.3.2-.4.1-.5.1-.2h.1l.1-.2.1-.2.1-.2v-.1l.2-.2.2-.3.3-.6v-.1l.1-.1.1-.2.2-.2.2-.3.4-.6.3-.4.1-.1.1-.2.3-.2.2-.3.2-.3.2-.3.2-.3.5-.7.2-.2.1-.3.5-.6.2-.2.3-.3.1-.2v-.1l.3-.2v-.2l.4-.3.2-.3.1-.2.1-.2h.1l.4-.4.3-.4.2-.3v-.1l.2-.2v-.2h-.3l-.3.4h-.1v.2l-.4.3-.2.4-.2.2-.1.2-.1.2-.2.1v.2l-.1.1-.2.1h-.1v.1l-.1.1v.2h-.2l-.2.3v.1h-.1l-.1.1v.2l-.1.1h-.1v.1l-.1.1v.1l-.4.4v.2l-.3.2-.1.2-.1.2-.1.1h-.1v.2l-.2.1v.1l-.2.1v.3l-.2.1-.2.3v.1h-.1l-.1.1-.1.1-.1.1v.1l-.1.2h-.1v.3h-.2v.1l-.1.1v.1l-.1.1h-.2v.2l-.2.1v.3h-.2v.2h-.1v.1h-.1zm81.8 368.3v.1h.2v.1l.2.2.1.2.1.1.3.5h.1l.4.4.3.2v.2h.2l.3.5.2.1.2.4v.1l.2.1v.1l.2.3.1.3v.2h.1l.1.2v.6l.1.3.1.2.1.2h.3l.1.1h.2v.2l.2.1.1.1.1.1.3.3.1.1.2.1v.1h.1v.1l.3.2v-.2l-.2-.2h.1v.1h.3v.3h.1l.2.3v.2h.2v.1l.1.2v.2l.2.2h.2v.2h.2v.2l.4.3v.2h.1v.2l.1.1v.2h.1v-.3h.2v.1h-.1v.2l.1.1h.3v.1l.2.3v.3l.2.1v.1h.5v.1h.1l.1.1h.1v.1h.1v.1l.1.2v.2l.2.4v.2l.1.2.2.1.1.2.2.1h.1l.2.2h.2v.2h.1l.2.1.2.2.2.2.2.2h.1l.1.2h.1l.2.2.2.2.2.2.1.1.2.3.3.6.2.3.2.2.2.2.2.2v.1l.3.1h.2l.2.2h.1l.2.1h.1l.1.2.3.3h.2l.3.4.1.1.1.1h.1l.2.3.2.1.2.3v.2l.2.1h.1l.1.1h.3v.1h.1l.1.1h.1l.1.2h.1l.3.3.1.1h.1l.2.2.4.4h.1v.1h.2l.3.3h.2v.1l.1.1.3.2h.2l.4.4v.1h.1v.1h.1l.2.3.2.2.2.2.2.2.3.2.1.1.1.2h.1l.1.1.2.1h.2l.2.2.2.2.1.1.2.1.2.1v.3l.2.4v.2h.1l.1.1v.2h.2v.2l.1.1h.2v.2h.1v.4l.2.1h1.1l.2.3v.1h.2l.1.2h.1l.1.1.2.1h.3v.1h.1l.1.1.4.2v.1l.1.1.1.1.1.2h.1v.1l.2.3.1.1.3.6v.2l.2.3v2.1l-.1.3v.1h-.1l-.1.1-.1.2v.1l.2.1v.1l.2.1h.4l.2-.1h.1l.1-.1h.1v-.1h.3l.2-.2h.9l.2-.1h.5l.2-.1h.4l.2.2h.3l.1.2.3.1h.3l.1.2.3.2h.3-.2l-.2-.1v-.2l-.2-.1-.2-.2-.1-.1-.1-.2-.2-.2v-.2l-.1-.1v-.2l-.2-.1-.1-.3-.2-.4-.3-.2-.2-.2-.3-.3-.1-.1-.2-.2-.2-.2-.3-.3-.3-.3-.3-.3-.3-.2v-.2l-.2-.1-.3-.3-.6-.5-.2-.2-.3-.2-.2-.2-.3-.3-.3-.2h-.1l-.1-.2-.7-.4-.2-.1-.4-.3-.1-.1h-.1v-.1h-.2l-.2-.2-.4-.3-.2-.2-.2-.1-.5-.3-.3-.4-.5-.4h-.2l-.2-.2v-.1h-.1v-.1h-.2v-.1l-.2-.2-.2-.2h-.1l-.1-.1-.2-.2-.2-.2-.4-.4-.4-.3-.2-.2h-.2v-.2l-.5-.3-.1-.1-.2-.1-.2-.1-.2-.2-.1-.1-.1-.1-.4-.3-.2-.2h-.2v-.2l-.4-.2-.3-.2-.2-.2-.2-.3h-.2l-.4-.5-.1-.1h-.1l-.1-.2-.1-.1-.3-.1-.3-.3-.1-.2h-.1v-.2l-.2-.1-1-1.1-.2-.2-.3-.3-.2-.3-.1-.1-.4-.4-.1-.1v-.1l-.3-.2-.2-.3-.2-.2-.3-.5v-.1l-.3-.2-.2-.2-.5-.5-.1-.1-.1-.1-.3-.2-.2-.3-.2-.3v-.1l-.3-.3-.1-.1-.1-.1-.2-.1v-.1l-.1-.1-.2-.2-.3-.3-.2-.2-.2-.2v-.1l-.1-.1-.2-.2-.3-.3v-.1h-.1l-.1-.2-.2-.1-.2-.3-.2-.2-.2-.2-.2-.3-.2-.2-.1-.2-.2-.1-.2-.2-.2-.2-.2-.2-.1-.2h-.1l-.3-.5-.1-.1-.2-.1-.2-.2-.1-.1-.2-.2-.1-.1-.1-.2h-.1v-.2h-.1l-.2-.3-.1-.1-.1-.1-.2-.3-.2-.2-.2-.2-.3-.3-.3-.3v-.1l-.1-.1-.3-.3v-.1l-.2-.2-.1-.2-.2-.2-.1-.2-.3-.3-.2-.4-.3-.4-.2-.2v-.1l-.2-.1v-.1l-.1-.1v-.2h-.1l-.1-.1-.1-.1h-.1l-.1-.2-.2-.1-.1-.2-.3-.2h-.4l.2.3.2.2h.1l.1.2v.1h.1v1.1l.2.2zm-22-569.4-.1-.2-.1-.2v.2l.2.3.2.2.3.1h.3l.2.2.8.2.1.1.3.2.2.2v.8l-.1.2v.1l-.2.3-.4.5-.4.3v.7l.1.2.2.2h.2l.2-.1.3-.3.2-.2.2-.4.1-.7.1-.4.2-.7v-.4l.1-.1v-.6l.1-.3v-.2l.1-1V428l.1-.1v-.4l.1-.6v-.6l.1-.5v-.7l.2-.6v-.2l.1-.4.1-1.3.1-.5.1-.3.1-.3v-.3l.1-.5V419l.1-.3v-.5l.1-.6.1-.4v-.7l.1-.5.2-1.1.1-.7v-.3l.1-.3.1-.4v-.3l.1-.4v-.3l.1-.5v-.2l.1-.4.1-.5v-.3l.1-.3.1-.8.3-1.1v-.5l.2-.7v-.2l.3-.5.1-.2.2-.2.1-.2.1-.4v-1.6l.1-.2V402l-.3-.4-.3-.3h-.3v.1h-.4v.3l.2.2.2.2v.3l.2.2v.3l.2.4v1.2l-.2.7-.2.4v.2l-.2.5h-.1l-.3.1h-.4l-.2.2v.3h-.1v1h.1v.9l-.2.2v.3h.1v-.1l.1-.1h.1l.1.2v.3h-.1v.1l-.1.1h-.1l-.2.1-.1.2-.2.4h-.2v.2l-.1.2-.1.1v.2l-.1.1v.8h-.1l-.1.1-.1.1-.1.1h-.2v.1h-.3v.1h-.5l-.1-.1h-.5v.1h-.2l-.2.1-.2.1-.3.2v.1h-.2l-.1.1v.1l-.1.2-.1.2v.1l-.1.1v.2h-.1v.2h.2v-.4l.3-.2v-.2h.4v.1h.3v-.1l-.1-.2.1.1h.2v.2l.1-.1v.2h-.2v.1h.2v.3h-.2v.2l.1.2v.4h.2v.1l.1.1h.1v.5l.1.3v.6l.2.2v.4l-.1.2-.3.5v.5l-.1.2v.2h-.1v.1h.2v.2l-.1.2v.2l-.1.1v.2h.2v.5l-.2.3-.1.1-.3.2.2.2h-.3l-.2.4v.1l-.1.1v.5l.1.3h.2v-.2h.1v.3h.1l.1.1v.3h.3l.2.1h.1v.3h-.1l-.1.1-.1.3v1.1l-.2.2v.1h.2v-.3h.1v-.6h.2v.2l.2.1v.4l-.2.2h-.2v.1h.1v.4l-.1.1h-.1v.1h-.3l-.2.1v.1l-.2.1v.1l-.1.1v.2h-.3.1v.1h.1l.1-.1.2-.2.1-.1h.1v.2h.1v.3h-.5l-.1.2h.3v.1l.1.1v.2h-.2v.1h-.1v.2h-.4l-.1.1h-.2v.2h-.2v.2h-.3v.1l-.1.2h-.1v.1l-.1.1-.2.1v.1h-.1v.4h-.1v.3h.2l.1-.1h.1v.1h.2v-.2h-.1.1v-.1l.1-.1v-.1h.2v-.2h.1v-.1h.2v.3h.1v.2h.2v.2l.1.1v.1l.2.3h-.9v.1l-.1.1zm-21.6 136.1v.1h-.1l-.2.2h-.1l-.1.2-.3.1h-.8l-.1.2v.4l.1.1h.4l.1-.1.4-.2.2-.2h.1v-.1l.3-.2h.4l.3-.2.2-.2.3-.2.1-.1h.2v.2l-.2.2h-.6v.2h.1v.3h-.3l-.2.1h-.2v.2h.1v.3h-.3l-.1.1-.1.1h-.1l-.3.1h-.3v.1h-.4v-.1l-.1-.1v-.1h-.1v.1l.2.2.2.2.3.2.2.2h.2v.1l.3.1v.1l.1.2.1.2v.8h-.1v.2l-.1.4v.2l-.2.2v.2h-.1v.2l-.3.3-.2.4v.1l.1.1v.6l-.1.4v.7h-.1v.2l-.2.2-.1.2-.1.2v.7l-.3.4v.2l-.1.1v.3l-.1.1-.2.6v.3l-.2.2v.6h-.1v.3l-.1.2-.2.2v.2h-.1l-.1.2-.1.1h-.1l-.1.2h-.1v.3l-.3.2-.2.4-.3.3v.1l-.1.2v.2l-.1.2-.3.2-.1.2-.2.2-.2.2-.1.2-.2.2-.1.2v.2h.1l.2.2h.1l.1.1.1.2v.3l-.2.4-.1.3-.1.2-.2.3v.2l-.2.1-.1.2h-.2v.5h.1l.2-.1v-.1l.1-.1.2-.1v-.2l.1-.1.1-.1.3-.3.2-.3.2-.3.2-.6.2-.4.1-.3v-.2l.2-.3.3-.3h.1v-.1h.1v.3l-.2.2-.2.2-.1.2-.1.3-.2.3v.2l-.2.2-.1.4-.4.4v.2l-.3.3-.2.2-.2.2v.3l-.1.1v.1l-.1.2-.2.2h-.4v.2h-.2v.1l-.1.1v.1l-.2.1v.7l-.3.2h.3l.3-.5.4-.3.2-.2.2-.1.2-.2.2-.3h.1l.1-.2.2-.4.2-.4.3-.5.4-.5h.1v-.2l.3-.4.2-.4v-.3l.1-.1.3-.6.3-.4v-.2l.2-.3.2-.3v-.3h.1l.2-.5v-.4l.2-.3.2-.5.2-.3v-.1l.1-.1.1-.2.1-.2.1-.6.1-.2v-.3l.2-.2v-.3l.1-.2.1-.3v-.7l.3-.9.1-.3v-.3l.2-.3v-.5l.2-.4v-.2l.2-.7.2-.5.2-.7.1-.2v-.2l.1-.2.2-.5v-.2l.5-.9.1-.3.2-1v-.1l.1-.3v-.3l.1-.3.1-.6.3-1v-.2l.2-.3.1-.3.2-.6.1-.4.1-.6.1-.3v-.4l.1-.2.1-.6.2-.5v-.5l.2-.6v-.4l.1-.6v-.4l.2-.5v-1.1l.1-.3v-.4l-.1-.5-.1-.2v-.2l-.2-.2v-.1l-.3-.2-.3-.2h-.1l-.1.2-.2.1v.1h.3v.3h.1v1.4l-.1.2v.4l.1.2v.5h.1l.1-.1v-.3l.1-.1v-2.2h.2l.2.2v2.7h-.1v.1h-.3l-.2.2.1.1-.2.1v.1h.1l.1.1h.2v.2l-.2.1-.1.2v.2h.1v.8l-.1.1h-.1v.4l.2.1-.1.2h-.5l-.1-.1v-.1l-.1-.3v-.5l-.1-.1-.1-.1h-.1l-.2-.2h-.1l-.3-.1h-.3l-.1.1-.1.1v.7l.1.2h.1v.2l.2.1v.1l.1.3v.1h-.2v.1l.1.2h.2l.1.1h.4v.2l.1.1v.6l-.1.2v.1l-.1.2-.2.2v.1l-.2.3-.1.1h-.1v.3h-.1l-.2.1h-.2v-.1h-.4l-.1.2h.4l.1.2v.3l-.1.1v.1h-.3v.1h-.2v.1h-.2l-.1.3-.2.2-.2.2h-.8.6l.3-.2.1-.2.1-.2h.1v-.2l-.2-.1h-.1v.1l-.2.3h-.1l-.1.1-.3.2h-.4l-.2.2h.2l.3.3h.1v.2zm21.8-125.1v.2h.1v.1l.1.1.2.2.2.1.2.1v.1h-.2l.2.1h-.3l-.2-.2h-.1l-.2-.2v-.2h-.6l-.1.1-.1.1-.2.2-.1.2v.2h-.2v.9h-.1v.1h.2-.1l-.2.2v.1l-.1.2v.5h.1v.1h.1v.3h.3l-.2.2v.2h.1l.1.1v.2h.1v-.1h.4-.1v.1h-.1v.4h-.1v.1h-.2v.2h.1v.1h-.1v.3h-.1l-.2.3v.1l-.2.1v.1l-.1.1.1.1-.1.1-.1.2v.1h-.1v.7l-.1.1v.6l-.2.3v.5l.1.1.1.1.1.2.1.2v.3h.5v-.1h.1l-.2.1h-.4v.2l.1.1v.1h.1v.3l-.1.1v.8h.1v.3h.2v-.5h.1v.6h.6v-.5l.2-.1h.3l.1-.1h.1v-.2h-.1v-.3h.2l.1.3h.2l.2-.4V450l.2-.4v-.4.2l.1.2v.8l.1.1v.8h-.1v.2h.1v.1l.1.1v1l-.2.1h-.4l-.1-.1-.2-.1h-.1v-.1l-.2-.2-.2.1h-.1l-.1.1v.4h.2l.1.1h.2l.4.1v.1h.4l.1.1h.1v.8l-.1.1-.3.2-.1.1-.1.1v.6h-.2v.1h.6l.2.1.2.2.1.2v.3l.2.3h.4l.5-.2v-.1h-.3v-.2l-.2-1v-.2l-.1-.2v-.5l-.1-.6v-.8l-.1-.3v-10.2l.1-.3v-1.9l.1-.2v-3l-.1-.2v-.4h-.1v-.2l-.2-.2-.4-.3-.1-.2h-.2v-.1l-.1-.1-.1-.2-.1-.1v-.1l-.3-.4v-.3l-.2-.3v-.3l-.2-.2h-.3l-.1.2v.8h.2l.1.1h.2l.1.2.1.2.1.2.1.2h.1l.3.5v.3l.1.1v.2l.1.3v.4l.1.1v1.4l-.2.1v.3h-.3l-.2.1v.3l.1.2h.2l.2.3.1.2v.1h-.1l-.1.1v1l.1.1h-.6l.1.1v.2-.1h-.1zm-98 204.6.1-.1v-.1h.6l.1.2.1-.1h.1l.7.2h.2v.1l-.2.4h-.5v.1l.1.2v.1l-.1.1h-.1l-.2-.2v-.2l-.1-.2h-.5l-.2.2h-.2l-.2.1-.1.1h-.2l-.2.1h-.3v.2h-.2v.2h-.2l-.2.2h-.2v-.2h.3v-.1h.1v-.1h.2v-.2h-.5l-.1.1-.2.1-.2.2h-.1l-.1.1h-.3l-.4.2h-.3l-.4.2h-.2l-.2.2h-.7v.1h-.3l-.2.2-.2.2h-.3v.1h-.1l-.1.1h-.1l-.1.1v.1h-.4l-.2.1h-.3l-.1.1h-.3l-.1.1h-.3v.1l-.2.2v.1h-1.1l-.1-.2h-.3l-.2.1v.2h-.1v.1h-.1l-.1.2v.1l-.1.1v.1h-.2l-.2-.1-.3-.1h-.2l-.1-.2h-.2l.1.1.4.3h.2v.2h-.1l-.1-.1v-.1.3h.1l.2.1h.2v.1l.2.1h.1l.7.1h3.6l.6-.1h.2l.6-.2.4-.1.2-.2h.2l.1-.1h.1l.2-.1h.1l.1-.1.6-.2.2-.1.4-.3h.2l.1-.2.3-.1h.1v-.2l.4-.2.2-.1.6-.4.4-.2.3-.2.4-.2.4-.6.2-.2.2-.2.2-.2.2-.2.2-.2.5-.6.2-.2.2-.2v-.2h-.3l-.3.3-.2.2-.2.4h-.1l-.2.1h-.5l-.4-.2-.3-.1-.7-.1h-.6v.1l.1.2h.1l.2.3.1.1h.2-.2zm49.3-27.5h.4v.1h-.2l-.1.2v.1h-.3v.1h-.2v.2h-.1v.2l-.1.2v.1h-.1v.1h-.2l-.1.1-.1.2-.2.2v.4h.2v.3l-.1.1v.2l-.2.2-.2.2v.1h-.1l-.1.1v.2l-.1.2v.2l-.2.2-.1.1h-.1v.2h-.2l-.2.2v.2l-.2.2-.1.1-.4.4-.2.2-.3.2v.1h-.1v.2h-.1l-.1.2h-.3l-.1.1v.1h.5v-.2l.2-.1.1-.1.3-.2.2-.2.4-.3h.1l.3-.1.1-.1.4-.3.3-.1.2-.1.3-.2.1-.2.2-.2.2-.3v-.2h.1v-.2h.1l.3-.3h.1l.2-.3.2-.2.1-.4v-.3l.5-.8.2-.4.3-.6.3-.4.1-.4.2-.2.3-.5v-.2l.5-.5.2-.3.1-.3h.1l.1-.3.1-.2.2-.3.3-.5.2-.3v-.2h.1l.2-.4.2-.3.1-.2.4-.8.1-.2.1-.2.2-.3v-.4l.2-.2.2-.6v-.2l.3-.7.3-.6.2-.3.3-.8.3-.4.1-.5.3-.4v-.2l.1-.3v-.3l.3-1.1v-3.1l-.2-.2h-.4v.2h-.2v1.1l.1.5v.2h-.2v.8l-.1.2-.1.3v.8l-.2.2-.1.2-.1.2-.1.3-.2.3-.2.4v.1h.1l.4-.7.2-.4.1-.2.2-.3.2-.6.1-.3v-.2l.1-.2v-.1h.1v.1l.1.2v1.3l-.1.2v.2l-.2.2v.1l-.1.2v.1l-.1.1v.2h-.1v.1l-.1.3-.1.2-.1.1-.1.1-.1.2-.2.3-.1.2-.1.2v.1l-.2.2v.2l-.3.3-.1.4-.1.2v.4l-.1.1-.1.4v.2l-.2.2v.2l-.1.1-.1.2-.1.2v.3l-.2.2v.4l-.1.1-.1.1-.3.3-.2.2v.1l-.2.2-.1.1-.1.1-.2.2-.2.1v.3l-.3.3h-.1l-.1.3h-.1l-.1.2-.3.3h-.1v.3l-.3.1v.1l-.1.1-.2.3-.1.2v.2l-.1.1-.1.1-.1.1.1.1h-.1v.1h-.3v.1l-.2.1-.2.1-.3.1zM2737.7 740h-.2l-.1-.1h-.3l-.2-.1h-.5l-.2.1h-.2l-.1.1h-.1l-.3.1v.1l-.1.1-.2.2h-.4l-.1.2v.2l-.1.1-.1.2-.1.1-.2.1h-.6v.1h-.1l-.2-.2h-.1l-.2-.1h-.1v-.1h-.3l.2.1.1.1v.1h-.2v-.1h-.2v-.2.1l-.1.2v.1h.8l.2.1h.2l.3.1.2.1.2.1.2.2h.2l.1.1h.6l.2-.1h.3v-.1h.2l.1-.2.5-.4.5-.4.2-.1.3-.2h.1l.2-.1.3-.1h.3l.2-.2h.2-.6v-.2h-.7zm-144 15.6v-.1h-.1v.5l.1.5.2.4.1.1.1.1v.1h.2l.1.1h.4l.3-.1.1-.1.3-.1.2-.1.2-.1.3-.1.2-.1.3-.2.1-.1h.2l.1-.1.2-.2h-.2l-.1-.3-.2-.3-.2-.2-.2-.1h-1.1l-.2.2h-.6l-.3-.1h-.1l-.2-.1h-.1l-.1-.1v.5l.3.2v-.2l.1-.1h.1v.6l-.1.1-.1.1h-.2l-.1-.3h.1v-.3z"/><path d="M2764.3 623.4v-.1l.1-.1.1-.1v-.1h-.3l-.2.1-.4.2h-.1v.1h-.3l-.2.1v.1l-.1.1v.3l-.1.3-.2.4-.1.1v.1l-.3.4v.2l-.3.4-.3.6-.5.9-.4.5-.3.5v.1l-.1.1-.3.4h-.1v.2h.3l.2-.2h.2v-.3h.2v-.1l.1-.1h.2l.1-.2v-.2h.2v-.2l.1-.2v-.2h.1v-.1l.2-.2.2-.1v-.2l.3-.2v-.1l.1-.2.1-.2h.1v-.1h.2v-.3h.2v-.1h.2v-.1l.1-.2.1-.1v-.2h.1v-.3l.1-.1h.1v-.2h.1v-.3l.1-.2.2-.3v-.1zM2785 593v-1l-.1-.1-.1-.1-.2-.1-.1-.1-.2-.2h-.2v.1h.1l.1.2.2.2v.1l.1.1v.9h-.1v.2l-.1.2v1.1l-.1.2v.3l-.2.4v.6l-.2.3v.1l-.3.2-.4.4v.2h-.1l-.2.4v.2l-.2.2v.2l-.3.4v.1l-.3.3-.3.3-.2.1-.3.2h-.5v.1h-1.1l-.1-.1h-.1v.3h.1l.2.2.2.1h1l.2-.1.2-.2.2-.1.3-.2.3-.2.5-.7.2-.4.2-.5.3-.4.2-.4.3-.3.2-.2.2-.4v-.5l.1-.2v-.2l.2-.3v-.2l.2-.5.1-.4.1-.4v-.3zm58.2 188.5h.2l.1-.1h.3l.2-.3.3-.1h.2l.2.1h.3v-1l.1-.1h.2v-.1h.3l.1-.1h.1l.1-.1.1-.1.2-.2v-.2l.1-.3.1-.2h.2l.2-.1h.5l.2-.2h.1l.3-.1.3-.2h.1l.3-.2v-.1.2h.2v-.3l.2-.2v-.2h.1l.1-.3.3-.1v-.2h.2l.2-.3.1-.1v-.1l.1-.2v-.3h-.2l-5 4.2zM2770 614.6v.2l-.1.1-.2.2v.2h-.3v-.2h.1v-.2h.2v-.1h-.1v.1-.3h-.2l-.1.1h-.1l-.1.1v.1l-.3.3-.2.5-.1.2-.2.3-.2.3-.1.3-.2.2v.2l-.1.1v.3l-.1.2-.2.4-.1.2v.2l-.3.3-.2.2v.1h-.2v.2h.4v-.1l.4-.5.2-.2v-.1l.4-.4.1-.3.3-.4.2-.2.2-.3.2-.4.1-.2.2-.2.2-.4h.1l.1-.3.7-.8.2-.2v-.1h-.1l-.2.1-.1.2h-.1zm63.9 375.9-.3-.8v-.3l-.1-.2-.2-.3-.3-.4-.2-.1-.2-.2-.6-.5-.2-.3h-.1v-.1l-.2-.2-.1-.2-.2-.3-.1-.2-.3-.2v-.1h-.3l-.1.2v.2h-.2v.8l.1.2v.1h.2v.1h.2l.1.1h.2v-.5h.4v.1l.1.2h.1v.1h.1l.1.2h.2l.1.1.1.1.2.2v.1l.2.1v.2l.2.1h.1l.1.1v.6h.1v.2h.1l.1.2.1.1v.1h.1v.4l-.2.1h.1v.2h.2v.2l-.2-.1-.1-.1v-.2h-.1v.2h.1l.1.1h.1v.2h.2l.1-.1v-.5zm-257.1-234.2-.5-.1-.3-.2-.1.1h-.6l-.3.3h-.1v.2h-.2v.1h-.2l-.1-.2v-.1l-.1-.1-.1-.2h-.1v-.2l-.2-.1h-.1v.2l.2.2.1.2.2.2h.1v.5h.1l.1.2h.9l.2-.1h.5l.1-.1h.2l.3-.2.2-.1.2-.1v-.2zm215.9-185.5v-.2l-.2-.3h-.5l-.1.2v.1h-.1v.4l.1.1.2.2v.2h.1l.1.3.2.3.2.2v.5l.1.5v1.6h.1v-1.6l.1-.1v-.9l.1-.2v-.5l-.1-.4-.2-.2v-.1zm-35.2-8.6v-.2h-.2l-.2-.1v-.3l-.2-.1-.2-.1-.2.2h-.1l-.1.1v.3l.1.1.1.1.1.2-.2.2v.2l.2.2.1.2v.2l.1.1.1.1.1-.1h.1l.2-.2h.2l.2-.2v-.8zm17.9 46.6v.1h-.1v.2h-.2l-.2.3-.1.2h-.1v.3h-.1l-.1.3-.3.2v.1l-.2.2-.4.4-.1.2h.1l.2-.2.2-.1.4-.3h.3l.1-.2h.1l.1-.1.1-.1.1-.2.2-.3.2-.3.1-.2.2-.2.1-.4.2-.6v-.1l-.4.4h-.1l-.1.2-.1.1h-.1zm-34 119.7-.4-.2v-.4h-.4l-.2.2-.1.2h-.1v.2l-.1.3v.2h.3l.1.1h.4v-.1h.3l.3.1h.2l.2-.1h.6l.2-.1h.1v-.2h.2v-.2h-.6v.1h-1zm82.6-330h.1v.3h.3v-.4h.1v-.8l-.1-.2-.2-.3-.1-.1h-.1l-.1-.1v.2h-.4l-.1-.1h-.1v.1l.1.1v.1h-.1v.5h-.1v.3l.2.1h.5v.2l.2.1zm-35.6 187-.3-.1h-.2v1.3l-.1.2v.1l-.1.2v1h.1l.2-.2.1-.3.1-.2v-.3l.1-.3v-.4l.2-.5v-.4h-.1zm-131.7-21 .2.2.1.1.2.3.3.2v.2l.3.4.3.2.2.3.1-.1v-.4l-.1-.2-.1-.2-.5-.4-.6-.5-.4-.3-.2-.1h-.1l.1.2zm12.7-1.1h.1l-.1-.2h-.2l-.4.1h-.2l-.1.1v-.1l.2-.1v-.1h-.4l-.2.1-.4.2-.2.2-.3.3v.1l-.1.2.5-.2.2-.1.2-.1.4-.3h.6zm55.3 621.9-.1-.3-.1-.2-.1-.1-.2-.1h-.4l-.2.1v.5h.1v.1l.2.1zm104.4-201v.1l.1.1h.2v-.7l-.2-.1v-.1l-.1-.2h-.5v.2l-.1.1v.2h.3v.1h.1zm-97.7-500h.1v-.1l.2-.2.1-.1v-.1l-.2.1h-.1l-.1.1-.2.1-.1.2h-.2v.2h-.3v.1h.1l.2.2h.3l.2-.2h.1l.2-.1v-.1zm80.9 465.2v-.4h-.2v.1l-.3.3v.3h.1l.1.1h.1v.2l.1.2h.1l.2-.1v-.5h-.1zm-196.9-176.7v-.7h.1l.2-.4h.1v-.2.1l-.2.2-.2.1-.3.3v.2l-.2.3v.7h-.1v.1-.4l.1-.1.2-.1v-.2h.2l-.1.1zm114.6-288v-.1l-.3-.1-.1-.1v-.1h-.1l-.4-.3h-.1v.1l.1.1.2.2v.1l.2.2v.1l.2.2h.1l.1.1h.2l.1.1h.2-.1l-.1-.1h-.1v-.2h-.3v-.2h.1zm120.3 290.5h.1l.1.1v.2l.1.2v.2h.1v-.2l.2-.3v-.2l.2-.5v-.2zm-67.6-10.9-.2-.2-.3-.3-.2-.3-.2-.3-.1.1v.2l.1.2.3.3.1.1.1.1.4.6h.2v-.2l-.1-.1zm-44.2 213.7.2.1h.1l.2.1.2.1.2.1h.3v-.1h.2v-.1h-.4l-.4-.2-.3-.2h-.5zm4.9-316.5h-.3l-.4.3v.5h.1v-.1h.3v-.2h.2v-.4h.3zm2.3 374.7h-.1v-.1h.3l.3.1v-.1l-.2-.1-.3-.1h-.8l-.1.2h.3l.3.1zM2659.2 569v.1h.3v-.1h-.1v-.1h-.1l-.2-.2-.4-.5h-.2v.3l.2.2v.1h.1v.1h.1l.1.1zm38.2 91.6v.1l.2.2h.3v-.1h.1v-.4h-.7zM2566 733.8v.1l.2.2h.1v-.2l-.2-.2v-.5l-.3-.2h-.4.1l.2.3.2.4h.1zm143.6-84.1-.3-.2-.9-.5v.1l1 .6v.1h.1zm97.4 290.2.2-.1v-.1l.1-.1v-.4l-.1-.2h-.2l-.1.1h.1v.1h.1v.4l-.1.1h-.3.3v.1zm-140-272.3v.3l.1.2.1.1h.3l-.1-.1-.2-.2-.1-.2zm76.8 368.7h-.3l-.3.2.1.1h.2l.2-.1h.1v-.1h.1zm-25-485.3h-.3v.1h.6l.1-.2h-.4zm29.4 104.4v.4-.3l.1-.1.2-.1v-.5h.1l.2-.2h-.1l-.1.1v.1l-.3.5zm90.9 634.6v.5l-.1.2h.1v-.2h.1v-.7zm-318.8-501.9v.1l-.2.2h-.2.1l.2.2.1-.2.1-.2zM2773 611.8l-.2.1-.1.1v.1h.1l.2-.1v-.1l.2-.1v-.1h-.2zm124.2 532.4h.3-.7l-.1.2h-.1.4zm-391.1-338.1h.3v-.2h-.4zm289.1 329.5v.1l.1.2h.1v-.5h-.1v-.1zm20.6-234.7v.1-.3l.1-.2.2-.1v-.6h-.1v.5l-.1.1v.2h-.1zm-84-159.5-.1-.2h-.3v.1h.2v.1h.2v.1h.2zm33.5-115.9.1.1h.1v-.4l-.2-.2zm31.1 538.7h.2v-.1h-.4l.1.1zm45.3-381.4h.4v-.3zm1.1-.8h.3v-.4l-.3.3zm-.6 272.5.3-.1v-.2h-.2v.1h-.1zm-120.7 150v-.1l-.1-.1v.4h.1v-.1zm22.1-542.3-.1.2h-.1.3v-.1h-.1zM2854 807.3v.1l.3.2v-.1l-.1-.1v-.2h-.1zm-112.3 229.8h-.1v.1h.2l.1-.1.2-.1zm-5.2-311.3h-.2l-.2.1h-.2v.1h.4zm118.1 81.7v.1l.1.1h.1v-.1zM2708 651.8v-.3l.2-.1v-.2.2l-.2.2zm75.8-51.9h.3-.2v-.1h-.2.1zm32.2 302.5h-.1v.3zm30.7 104.4v.2h.1v-.1zm-81.1-381h-.2l.2.2zM2731 741.2v-.1l-.2-.1.1.1h.1zm12.4-78.6v-.1h-.1v.2zm5.8-8.8h.1zm15.8-27.6h-.1v.1h.1l.1-.1v-.1zm44 313.9v-.1h-.1zm-285.2-148.8h.2v-.1h-.2zm207.3 349.1v-.3zm11-103.4h.1v-.1zm108-261.5.1-.1h-.1z"/></g></svg>